<?xml version="1.0" encoding="UTF-8"?>
<svg width="200px" height="200px" viewBox="0 0 200 200" version="1.1" xmlns="http://www.w3.org/2000/svg" xmlns:xlink="http://www.w3.org/1999/xlink" style="background: #FFFFFF;">
    <!-- Generator: Sketch 49.2 (51160) - http://www.bohemiancoding.com/sketch -->
    <title>preview/exhalt</title>
    <desc>Created with Sketch.</desc>
    <defs>
        <path d="M41.715,2.196 C37.492,2.398 33.741,0.132 33.741,0.132 C26.944,0.132 14.395,2.284 12.827,5.736 C11.258,9.186 0.841,21.517 0.841,25.089 C8.371,26.778 18.473,29.107 18.473,30.675 L19.002,29.617 C18.192,43.426 16.692,65.572 16.292,71.565 C20.993,74.655 26.156,73.806 31.465,73.601 C38.361,73.335 45.25,72.717 52.06,71.585 C55.096,71.08 58.133,70.5 61.101,69.68 C62.776,69.217 64.812,68.751 66.196,67.63 C64.579,63.426 64.741,42.809 64.695,30.154 L64.957,30.675 L78.865,28.758 C78.865,28.758 71.173,9.186 69.603,5.736 C68.035,2.284 56.486,0.132 49.69,0.132 C49.69,0.132 45.938,1.994 41.715,2.196 Z" id="path-1"></path>
        <path d="M41.715,2.196 C37.492,2.398 33.741,0.132 33.741,0.132 C26.944,0.132 14.395,2.284 12.827,5.736 C11.258,9.186 0.841,21.517 0.841,25.089 C8.371,26.778 18.473,29.107 18.473,30.675 L19.002,29.617 C18.192,43.426 16.692,65.572 16.292,71.565 C20.993,74.655 26.156,73.806 31.465,73.601 C38.361,73.335 45.25,72.717 52.06,71.585 C55.096,71.08 58.133,70.5 61.101,69.68 C62.776,69.217 64.812,68.751 66.196,67.63 C64.579,63.426 64.741,42.809 64.695,30.154 L64.957,30.675 L78.865,28.758 C78.865,28.758 71.173,9.186 69.603,5.736 C68.035,2.284 56.486,0.132 49.69,0.132 C49.69,0.132 45.938,1.994 41.715,2.196 Z" id="path-3"></path>
        <path d="M41.715,2.196 C37.492,2.398 33.741,0.132 33.741,0.132 C26.944,0.132 14.395,2.284 12.827,5.736 C11.258,9.186 0.841,21.517 0.841,25.089 C8.371,26.778 18.473,29.107 18.473,30.675 L19.002,29.617 C18.192,43.426 16.692,65.572 16.292,71.565 C20.993,74.655 26.156,73.806 31.465,73.601 C38.361,73.335 45.25,72.717 52.06,71.585 C55.096,71.08 58.133,70.5 61.101,69.68 C62.776,69.217 64.812,68.751 66.196,67.63 C64.579,63.426 64.741,42.809 64.695,30.154 L64.957,30.675 L78.865,28.758 C78.865,28.758 71.173,9.186 69.603,5.736 C68.035,2.284 56.486,0.132 49.69,0.132 C49.69,0.132 45.938,1.994 41.715,2.196 Z" id="path-5"></path>
        <path d="M41.715,2.196 C37.492,2.398 33.741,0.132 33.741,0.132 C26.944,0.132 14.395,2.284 12.827,5.736 C11.258,9.186 0.841,21.517 0.841,25.089 C8.371,26.778 18.473,29.107 18.473,30.675 L19.002,29.617 C18.192,43.426 16.692,65.572 16.292,71.565 C20.993,74.655 26.156,73.806 31.465,73.601 C38.361,73.335 45.25,72.717 52.06,71.585 C55.096,71.08 58.133,70.5 61.101,69.68 C62.776,69.217 64.812,68.751 66.196,67.63 C64.579,63.426 64.741,42.809 64.695,30.154 L64.957,30.675 L78.865,28.758 C78.865,28.758 71.173,9.186 69.603,5.736 C68.035,2.284 56.486,0.132 49.69,0.132 C49.69,0.132 45.938,1.994 41.715,2.196 Z" id="path-7"></path>
        <path d="M41.715,2.196 C37.492,2.398 33.741,0.132 33.741,0.132 C26.944,0.132 14.395,2.284 12.827,5.736 C11.258,9.186 0.841,21.517 0.841,25.089 C8.371,26.778 18.473,29.107 18.473,30.675 L19.002,29.617 C18.192,43.426 16.692,65.572 16.292,71.565 C20.993,74.655 26.156,73.806 31.465,73.601 C38.361,73.335 45.25,72.717 52.06,71.585 C55.096,71.08 58.133,70.5 61.101,69.68 C62.776,69.217 64.812,68.751 66.196,67.63 C64.579,63.426 64.741,42.809 64.695,30.154 L64.957,30.675 L78.865,28.758 C78.865,28.758 71.173,9.186 69.603,5.736 C68.035,2.284 56.486,0.132 49.69,0.132 C49.69,0.132 45.938,1.994 41.715,2.196 Z" id="path-9"></path>
        <path d="M41.715,2.196 C37.492,2.398 33.741,0.132 33.741,0.132 C26.944,0.132 14.395,2.284 12.827,5.736 C11.258,9.186 0.841,21.517 0.841,25.089 C8.371,26.778 18.473,29.107 18.473,30.675 L19.002,29.617 C18.192,43.426 16.692,65.572 16.292,71.565 C20.993,74.655 26.156,73.806 31.465,73.601 C38.361,73.335 45.25,72.717 52.06,71.585 C55.096,71.08 58.133,70.5 61.101,69.68 C62.776,69.217 64.812,68.751 66.196,67.63 C64.579,63.426 64.741,42.809 64.695,30.154 L64.957,30.675 L78.865,28.758 C78.865,28.758 71.173,9.186 69.603,5.736 C68.035,2.284 56.486,0.132 49.69,0.132 C49.69,0.132 45.938,1.994 41.715,2.196 Z" id="path-11"></path>
        <polygon id="path-13" points="5.677 0.604 4.178 3.469 7.014 8.486 7.41 8.486 0.726 59.328 9.401 65.91 17.12 60.999 11.392 8.486 11.789 8.486 14.626 3.469 13.127 0.604"></polygon>
        <polygon id="path-15" points="5.677 0.604 4.178 3.469 7.014 8.486 7.41 8.486 0.726 59.328 9.401 65.91 17.12 60.999 11.392 8.486 11.789 8.486 14.626 3.469 13.127 0.604"></polygon>
        <polygon id="path-17" points="5.677 0.604 4.178 3.469 7.014 8.486 7.41 8.486 0.726 59.328 9.401 65.91 17.12 60.999 11.392 8.486 11.789 8.486 14.626 3.469 13.127 0.604"></polygon>
    </defs>
    <g id="preview/exhalt" stroke="none" stroke-width="1" fill="none" fill-rule="evenodd">
        <rect id="Rectangle-2" fill="#FFFFFF" x="0" y="-2" width="200" height="202"></rect>
        <g id="Page-1" transform="translate(-35.000000, 9.000000)">
            <g id="Group-9" transform="translate(56.000000, 61.288000)">
                <path d="M45.1712,0.981 C44.5082,4.65 45.7692,11.304 48.1092,12.938 C50.4482,14.573 59.5922,18.176 59.5922,18.176 L34.7512,41.581 L15.2542,20.988 C15.2542,20.988 23.2072,15.074 25.2612,12.654 C27.3142,10.234 31.0552,5.306 30.3922,1.636 L45.1712,0.981 Z" id="Fill-1" fill="#999999"></path>
                <path d="M45.1712,0.981 C44.5082,4.65 45.7692,11.304 48.1092,12.938 C50.4482,14.573 59.5922,18.176 59.5922,18.176 L34.7512,41.581 L15.2542,20.988 C15.2542,20.988 23.2072,15.074 25.2612,12.654 C27.3142,10.234 31.0552,5.306 30.3922,1.636 L45.1712,0.981 Z" id="Stroke-3" stroke="#000000" stroke-width="1.5" stroke-linecap="round" stroke-linejoin="round"></path>
                <path d="M73.6194,16.459 C69.1824,12.716 59.5384,12.028 52.2884,12.028 L41.0784,17.833 L32.5584,17.951 L20.8794,12.028 C13.6294,12.028 3.1724,14.894 0.8024,20.193 C3.3544,14.486 -0.4876,56.882 1.4724,71.233 C3.8434,88.591 3.2864,100.135 3.2864,100.135 L66.0404,100.135 C66.0404,100.135 65.9924,90.067 66.6324,82.512 C67.2724,74.957 66.9054,42.192 66.9054,42.192 L89.1714,68.857 L91.0764,66.136 C91.0764,66.136 94.8854,61.782 99.8884,55.023 C87.5924,37.139 79.1824,21.153 73.6194,16.459" id="Fill-5" fill="#FFFFFF"></path>
                <path d="M52.6211,12.383 C52.6211,12.383 66.4701,12.029 73.6191,16.459 C73.6191,16.459 79.0061,22.67 81.8231,27.056 C84.6411,31.443 99.8881,55.024 99.8881,55.024" id="Stroke-7" stroke="#000000" stroke-width="1.5" stroke-linecap="round" stroke-linejoin="round"></path>
            </g>
            <g id="Group-28" transform="translate(137.000000, 91.288000)">
                <g id="Group-12">
                    <mask id="mask-2" fill="white">
                        <use xlink:href="#path-1"></use>
                    </mask>
                    <g id="Clip-11"></g>
                    <path d="M64.957,30.6752 L78.865,28.7582 C78.865,28.7582 71.172,9.1862 69.603,5.7352 C68.035,2.2842 56.487,0.1312 49.689,0.1312 C49.689,0.1312 45.938,1.9942 41.715,2.1962 C37.492,2.3972 33.741,0.1312 33.741,0.1312 C26.944,0.1312 14.395,2.2842 12.827,5.7352 C11.258,9.1862 0.841,21.5172 0.841,25.0882 C8.371,26.7782 18.474,29.1062 18.474,30.6752 L19.002,29.6172 C18.193,43.4262 16.692,65.5722 16.293,71.5652 C20.994,74.6552 26.157,73.8062 31.465,73.6012 C38.361,73.3352 45.25,72.7172 52.061,71.5852 C55.096,71.0802 58.133,70.4992 61.101,69.6792 C62.775,69.2172 64.812,68.7512 66.196,67.6292 C64.579,63.4262 64.741,42.8092 64.696,30.1532 L64.957,30.6752 Z" id="Fill-10" fill="#FFFFFF" mask="url(#mask-2)"></path>
                </g>
                <g id="Group-15">
                    <mask id="mask-4" fill="white">
                        <use xlink:href="#path-3"></use>
                    </mask>
                    <g id="Clip-14"></g>
                    <polygon id="Fill-13" fill="#01A0C6" mask="url(#mask-4)" points="-44.11 75.7545 -56.488 75.7545 12.477 -13.0995 24.854 -13.0995"></polygon>
                </g>
                <g id="Group-18">
                    <mask id="mask-6" fill="white">
                        <use xlink:href="#path-5"></use>
                    </mask>
                    <g id="Clip-17"></g>
                    <polygon id="Fill-16" fill="#01A0C6" mask="url(#mask-6)" points="-20.6808 75.7545 -33.0588 75.7545 35.9062 -13.0995 48.2832 -13.0995"></polygon>
                </g>
                <g id="Group-21">
                    <mask id="mask-8" fill="white">
                        <use xlink:href="#path-7"></use>
                    </mask>
                    <g id="Clip-20"></g>
                    <polygon id="Fill-19" fill="#01A0C6" mask="url(#mask-8)" points="2.7483 75.7545 -9.6297 75.7545 59.3353 -13.0995 71.7123 -13.0995"></polygon>
                </g>
                <g id="Group-24">
                    <mask id="mask-10" fill="white">
                        <use xlink:href="#path-9"></use>
                    </mask>
                    <g id="Clip-23"></g>
                    <polygon id="Fill-22" fill="#01A0C6" mask="url(#mask-10)" points="26.1774 75.7545 14.7994 75.7545 83.7644 -13.0995 95.1414 -13.0995"></polygon>
                </g>
                <g id="Group-27">
                    <mask id="mask-12" fill="white">
                        <use xlink:href="#path-11"></use>
                    </mask>
                    <g id="Clip-26"></g>
                    <polygon id="Fill-25" fill="#01A0C6" mask="url(#mask-12)" points="49.6066 75.7545 37.2286 75.7545 106.1936 -13.0995 118.5706 -13.0995"></polygon>
                </g>
            </g>
            <g id="Group-39" transform="translate(0.000000, 73.288000)">
                <path d="M201.6365,42.0729 C201.8635,52.5689 201.2785,80.6439 203.1955,85.6289 C201.8125,86.7509 199.7755,87.2169 198.1005,87.6799 C195.1325,88.4999 192.0965,89.0799 189.0605,89.5849 C182.2505,90.7179 175.3605,91.3349 168.4645,91.6009 C163.1565,91.8059 157.9935,92.6549 153.2925,89.5649 C153.8345,81.4309 157.2525,43.5159 156.0505,37.1199" id="Stroke-29" stroke="#000000" stroke-width="1.5" stroke-linecap="round" stroke-linejoin="round"></path>
                <path d="M170.7409,18.1317 C163.9439,18.1317 151.3949,20.2847 149.8269,23.7357 C148.2579,27.1857 137.8409,39.5177 137.8409,43.0887 C145.3699,44.7777 155.4739,47.1067 155.4739,48.6757" id="Stroke-31" stroke="#000000" stroke-width="1.5" stroke-linecap="round" stroke-linejoin="round"></path>
                <path d="M76.879,0.0285 C69.629,0.0285 59.172,2.8945 56.802,8.1925 C55.037,12.1375 54.621,35.3215 56.817,59.4135 C58.532,78.2305 59.287,88.1345 59.287,88.1345 L127.39,88.1345" id="Stroke-33" stroke="#000000" stroke-width="1.5" stroke-linecap="round" stroke-linejoin="round"></path>
                <polygon id="Fill-35" fill="#EAEAEA" points="249.5391 86.2246 38.1361 86.2246 15.8931 86.2246 0.7501 102.9996 3.1291 126.2496 269.9321 126.2496 266.1931 84.0626"></polygon>
                <polygon id="Stroke-37" stroke="#000000" stroke-width="1.5" stroke-linecap="round" stroke-linejoin="round" points="249.5391 86.2246 38.1361 86.2246 15.8931 86.2246 0.7501 102.9996 3.1291 126.2496 269.9321 126.2496 266.1931 84.0626"></polygon>
            </g>
            <g id="Group-49" transform="translate(84.000000, 78.288000)">
                <g id="Group-42">
                    <mask id="mask-14" fill="white">
                        <use xlink:href="#path-13"></use>
                    </mask>
                    <g id="Clip-41"></g>
                    <polygon id="Fill-40" fill="#01A0C6" mask="url(#mask-14)" points="66.1604 75.501 80.8304 75.501 -0.9066 -29.81 -15.5766 -29.81"></polygon>
                </g>
                <g id="Group-45">
                    <mask id="mask-16" fill="white">
                        <use xlink:href="#path-15"></use>
                    </mask>
                    <g id="Clip-44"></g>
                    <polygon id="Fill-43" fill="#01A0C6" mask="url(#mask-16)" points="38.3919 75.501 53.0619 75.501 -28.6751 -29.81 -43.3451 -29.81"></polygon>
                </g>
                <g id="Group-48">
                    <mask id="mask-18" fill="white">
                        <use xlink:href="#path-17"></use>
                    </mask>
                    <g id="Clip-47"></g>
                    <polygon id="Fill-46" fill="#01A0C6" mask="url(#mask-18)" points="10.6235 75.501 25.2935 75.501 -56.4435 -29.81 -71.1135 -29.81"></polygon>
                </g>
            </g>
            <g id="Group-162" transform="translate(52.000000, 0.288000)">
                <path d="M15.1335,36.9651 C15.1335,52.8301 19.7655,65.6911 39.8465,65.6911 C59.9265,65.6911 64.5585,52.8301 64.5585,36.9651 C64.5585,21.1001 62.0765,6.5471 39.8465,6.5471 C17.6155,6.5471 15.1335,21.1001 15.1335,36.9651" id="Fill-50" fill="#999999"></path>
                <path d="M15.1335,36.9651 C15.1335,52.8301 19.7655,65.6911 39.8465,65.6911 C59.9265,65.6911 64.5585,52.8301 64.5585,36.9651 C64.5585,21.1001 62.0765,6.5471 39.8465,6.5471 C17.6155,6.5471 15.1335,21.1001 15.1335,36.9651 Z" id="Stroke-52" stroke="#000000" stroke-width="1.5" stroke-linecap="round" stroke-linejoin="round"></path>
                <path d="M20.4708,40.9774 L36.5058,40.9774 C37.2748,40.9774 37.8978,40.3544 37.8978,39.5854 L37.8978,32.1004 C37.8978,31.3314 37.2748,30.7084 36.5058,30.7084 L20.4708,30.7084 C19.7018,30.7084 19.0788,31.3314 19.0788,32.1004 L19.0788,39.5854 C19.0788,40.3544 19.7018,40.9774 20.4708,40.9774" id="Fill-54" fill="#FFFFFF"></path>
                <path d="M20.4708,40.9774 L36.5058,40.9774 C37.2748,40.9774 37.8978,40.3544 37.8978,39.5854 L37.8978,32.1004 C37.8978,31.3314 37.2748,30.7084 36.5058,30.7084 L20.4708,30.7084 C19.7018,30.7084 19.0788,31.3314 19.0788,32.1004 L19.0788,39.5854 C19.0788,40.3544 19.7018,40.9774 20.4708,40.9774 Z" id="Stroke-56" stroke="#000000" stroke-width="1.5" stroke-linecap="round" stroke-linejoin="round"></path>
                <path d="M45.0666,40.9774 L61.1016,40.9774 C61.8706,40.9774 62.4936,40.3544 62.4936,39.5854 L62.4936,32.1004 C62.4936,31.3314 61.8706,30.7084 61.1016,30.7084 L45.0666,30.7084 C44.2976,30.7084 43.6746,31.3314 43.6746,32.1004 L43.6746,39.5854 C43.6746,40.3544 44.2976,40.9774 45.0666,40.9774" id="Fill-58" fill="#FFFFFF"></path>
                <path d="M45.0666,40.9774 L61.1016,40.9774 C61.8706,40.9774 62.4936,40.3544 62.4936,39.5854 L62.4936,32.1004 C62.4936,31.3314 61.8706,30.7084 61.1016,30.7084 L45.0666,30.7084 C44.2976,30.7084 43.6746,31.3314 43.6746,32.1004 L43.6746,39.5854 C43.6746,40.3544 44.2976,40.9774 45.0666,40.9774 Z" id="Stroke-60" stroke="#000000" stroke-width="1.5" stroke-linecap="round" stroke-linejoin="round"></path>
                <g id="Group-65" transform="translate(37.000000, 34.000000)">
                    <path d="M6.6749,0.6993 C6.6749,0.6993 5.5849,0.0853 3.7859,0.0853 C1.9879,0.0853 0.8979,0.6993 0.8979,0.6993" id="Fill-62" fill="#FFFFFF"></path>
                    <path d="M6.6749,0.6993 C6.6749,0.6993 5.5849,0.0853 3.7859,0.0853 C1.9879,0.0853 0.8979,0.6993 0.8979,0.6993" id="Stroke-64" stroke="#000000" stroke-width="1.5" stroke-linecap="round" stroke-linejoin="round"></path>
                </g>
                <path d="M33.8085,56.3484 C33.8085,56.3484 36.1065,58.2234 39.8965,58.2234 C43.6855,58.2234 45.9835,56.3484 45.9835,56.3484" id="Stroke-66" stroke="#000000" stroke-width="1.5" stroke-linecap="round" stroke-linejoin="round"></path>
                <g id="Group-71" transform="translate(50.000000, 96.000000)">
                    <polyline id="Fill-68" fill="#FFFFFF" points="0.1504 0.6626 0.1504 11.5526 6.1174 15.9496 12.0854 11.7766 12.0854 0.6626 6.4084 0.6626"></polyline>
                    <polyline id="Stroke-70" stroke="#000000" stroke-width="1.5" stroke-linecap="round" stroke-linejoin="round" points="0.1504 0.6626 0.1504 11.5526 6.1174 15.9496 12.0854 11.7766 12.0854 0.6626 6.4084 0.6626"></polyline>
                </g>
                <g id="Group-75" transform="translate(69.000000, 77.000000)">
                    <path d="M0.4625,17.8096 C1.7835,10.9996 2.6175,0.6426 8.5475,0.3376" id="Fill-72" fill="#FFFFFF"></path>
                    <path d="M0.4625,17.8096 C1.7835,10.9996 2.6175,0.6426 8.5475,0.3376" id="Stroke-74" stroke="#000000" stroke-width="1.5" stroke-linecap="round" stroke-linejoin="round"></path>
                </g>
                <path d="M70.0573,157.7 C71.5963,150.119 68.2043,113.196 70.9053,103.192 L103.8883,143.061" id="Stroke-76" stroke="#000000" stroke-width="1.5" stroke-linecap="round" stroke-linejoin="round"></path>
                <path d="M68.8034,97.3485 L68.4924,97.8995" id="Stroke-78" stroke="#000000" stroke-width="1.5" stroke-linecap="round" stroke-linejoin="round"></path>
                <path d="M52.9102,96.6626 L53.5432,96.6626" id="Stroke-80" stroke="#000000" stroke-width="1.5" stroke-linecap="round" stroke-linejoin="round"></path>
                <polygon id="Stroke-82" stroke="#000000" stroke-width="1.5" stroke-linecap="round" stroke-linejoin="round" points="38.1654 86.2846 42.9404 86.2846 45.7764 81.2686 44.2784 78.4026 36.8274 78.4026 35.3294 81.2686"></polygon>
                <polygon id="Stroke-84" stroke="#000000" stroke-width="1.5" stroke-linecap="round" stroke-linejoin="round" points="40.5527 143.7093 48.2717 138.7973 42.5437 86.2843 38.5617 86.2843 31.8767 137.1273"></polygon>
                <polygon id="Fill-86" fill="#FFFFFF" points="47.8803 84.7947 56.1773 73.0227 52.8313 67.2247 44.5323 78.9967"></polygon>
                <polygon id="Stroke-88" stroke="#000000" stroke-width="1.5" stroke-linecap="round" stroke-linejoin="round" points="47.8803 84.7947 56.1773 73.0227 52.8313 67.2247 44.5323 78.9967"></polygon>
                <polygon id="Fill-90" fill="#FFFFFF" points="33.1764 84.8014 36.5254 79.0034 29.2244 67.2244 24.8794 73.0284"></polygon>
                <polygon id="Stroke-92" stroke="#000000" stroke-width="1.5" stroke-linecap="round" stroke-linejoin="round" points="33.1764 84.8014 36.5254 79.0034 29.2244 67.2244 24.8794 73.0284"></polygon>
                <path d="M64.2976,25.9814 L59.5476,24.8744 L57.5546,14.3164 L40.4756,17.2204 L22.3136,15.1044 L20.5176,24.3084 L15.8666,26.2024 L15.4086,40.9864 C13.7756,37.2864 14.0456,33.1404 14.0456,28.7624 C14.0456,13.1324 25.7026,0.4614 40.0816,0.4614 C54.4616,0.4614 66.1186,13.1324 66.1186,28.7624 C66.1186,33.4964 66.2336,37.9574 64.3426,41.8784 L64.2976,25.9814 Z" id="Fill-94" fill="#4C4C4C"></path>
                <path d="M64.2976,25.9814 L59.5476,24.8744 L57.5546,14.3164 L40.4756,17.2204 L22.3136,15.1044 L20.5176,24.3084 L15.8666,26.2024 L15.4086,40.9864 C13.7756,37.2864 14.0456,33.1404 14.0456,28.7624 C14.0456,13.1324 25.7026,0.4614 40.0816,0.4614 C54.4616,0.4614 66.1186,13.1324 66.1186,28.7624 C66.1186,33.4964 66.2336,37.9574 64.3426,41.8784 L64.2976,25.9814 Z" id="Stroke-96" stroke="#000000" stroke-width="1.5" stroke-linecap="round" stroke-linejoin="round"></path>
                <path d="M51.156,36.8428 C51.156,38.0428 51.874,39.0158 52.761,39.0158 C53.647,39.0158 54.366,38.0428 54.366,36.8428 C54.366,35.6428 53.647,34.6698 52.761,34.6698 C51.874,34.6698 51.156,35.6428 51.156,36.8428" id="Fill-98" fill="#000000"></path>
                <path d="M32.6204,36.8428 C32.6204,38.0428 33.3384,39.0158 34.2254,39.0158 C35.1114,39.0158 35.8304,38.0428 35.8304,36.8428 C35.8304,35.6428 35.1114,34.6698 34.2254,34.6698 C33.3384,34.6698 32.6204,35.6428 32.6204,36.8428" id="Fill-100" fill="#000000"></path>
                <path d="M83.8148,160.1524 C84.0358,160.4024 84.0488,160.7984 83.8578,161.5184 C83.4868,162.9104 82.4998,163.3824 80.2808,163.9734 C78.0838,164.5594 74.7198,163.9124 74.5758,163.8844 C74.5088,163.8714 74.4368,163.9084 74.4068,163.9724 C74.3758,164.0354 74.3958,164.1064 74.4548,164.1414 C75.7838,164.9234 76.4138,166.2894 77.1248,167.5704 C77.9368,169.0334 78.8258,170.0114 80.1768,171.0314 C82.5258,172.8044 92.6988,178.4584 88.8928,179.7754 C88.3818,179.9524 87.6628,180.1334 87.6628,180.1334 C87.6628,180.1334 85.6938,178.8594 84.5108,177.9544 C81.4978,175.6474 80.1798,174.8644 79.0168,174.1294 C78.2028,173.6144 76.6578,172.7414 76.0348,172.0354 C76.3658,172.6894 77.1108,173.0504 77.7558,173.4024 C81.6508,175.5254 84.8368,178.4254 88.5408,180.7634 C89.4638,181.3424 90.6048,182.5504 90.3798,183.7864 C89.8708,186.5774 84.2098,181.9724 83.5298,181.4954 C80.6168,179.4584 77.6768,177.4554 74.7088,175.4884 C74.7088,175.4884 76.2278,176.5264 77.0698,177.1064 C80.1698,179.2404 83.2688,181.3744 86.3678,183.5084 C85.9498,184.4994 84.5088,185.3594 83.4748,185.1564 C82.4408,184.9544 81.6148,184.2934 80.7928,183.6924 C79.1738,182.5094 77.4258,181.4944 75.6298,180.5634 C74.4518,179.9524 71.7668,178.0254 70.4228,178.3264 C70.1078,178.3974 73.2868,181.1774 73.5938,181.3474 C75.0898,182.1744 77.3198,183.4454 78.2228,185.1904 C79.1258,186.9354 74.6958,185.7634 70.3758,182.5304 C66.0558,179.2964 65.7368,179.8444 63.3558,178.2094 C60.3928,176.1764 58.2388,173.3004 56.6388,170.1564 C53.7208,164.4214 45.7518,161.4394 45.4148,161.3154 C45.3458,161.2904 45.2778,161.3244 45.2438,161.3654 L44.8478,161.0774 L44.4518,160.7884 C44.6548,160.5414 44.9378,160.3834 45.2348,160.3294 L49.8118,151.4814 C49.7318,151.3494 49.6798,151.1994 49.6648,151.0384 C49.6378,150.7374 49.7338,150.4354 49.9388,150.1824 L50.3348,150.4714 L50.7308,150.7594 C50.6988,150.7984 50.6948,150.8374 50.6978,150.8634 C50.6998,150.8884 50.7108,150.9254 50.7488,150.9534 C52.4128,152.1554 54.0848,153.3494 55.7668,154.5284 C58.1898,156.2274 59.7768,158.0194 63.1058,157.8684 C66.5658,157.7114 69.4418,157.5734 72.5858,158.8414 C75.0158,159.8214 78.2128,160.1344 80.9198,159.8474 C83.0718,159.6184 83.6028,159.9124 83.8148,160.1524" id="Fill-102" fill="#999999"></path>
                <path d="M83.8148,160.1524 C84.0358,160.4024 84.0488,160.7984 83.8578,161.5184 C83.4868,162.9104 82.4998,163.3824 80.2808,163.9734 C78.0838,164.5594 74.7198,163.9124 74.5758,163.8844 C74.5088,163.8714 74.4368,163.9084 74.4068,163.9724 C74.3758,164.0354 74.3958,164.1064 74.4548,164.1414 C75.7838,164.9234 76.4138,166.2894 77.1248,167.5704 C77.9368,169.0334 78.8258,170.0114 80.1768,171.0314 C82.5258,172.8044 92.6988,178.4584 88.8928,179.7754 C88.3818,179.9524 87.6628,180.1334 87.6628,180.1334 C87.6628,180.1334 85.6938,178.8594 84.5108,177.9544 C81.4978,175.6474 80.1798,174.8644 79.0168,174.1294 C78.2028,173.6144 76.6578,172.7414 76.0348,172.0354 C76.3658,172.6894 77.1108,173.0504 77.7558,173.4024 C81.6508,175.5254 84.8368,178.4254 88.5408,180.7634 C89.4638,181.3424 90.6048,182.5504 90.3798,183.7864 C89.8708,186.5774 84.2098,181.9724 83.5298,181.4954 C80.6168,179.4584 77.6768,177.4554 74.7088,175.4884 C74.7088,175.4884 76.2278,176.5264 77.0698,177.1064 C80.1698,179.2404 83.2688,181.3744 86.3678,183.5084 C85.9498,184.4994 84.5088,185.3594 83.4748,185.1564 C82.4408,184.9544 81.6148,184.2934 80.7928,183.6924 C79.1738,182.5094 77.4258,181.4944 75.6298,180.5634 C74.4518,179.9524 71.7668,178.0254 70.4228,178.3264 C70.1078,178.3974 73.2868,181.1774 73.5938,181.3474 C75.0898,182.1744 77.3198,183.4454 78.2228,185.1904 C79.1258,186.9354 74.6958,185.7634 70.3758,182.5304 C66.0558,179.2964 65.7368,179.8444 63.3558,178.2094 C60.3928,176.1764 58.2388,173.3004 56.6388,170.1564 C53.7208,164.4214 45.7518,161.4394 45.4148,161.3154 C45.3458,161.2904 45.2778,161.3244 45.2438,161.3654 L44.8478,161.0774 L44.4518,160.7884 C44.6548,160.5414 44.9378,160.3834 45.2348,160.3294 L49.8118,151.4814 C49.7318,151.3494 49.6798,151.1994 49.6648,151.0384 C49.6378,150.7374 49.7338,150.4354 49.9388,150.1824 L50.3348,150.4714 L50.7308,150.7594 C50.6988,150.7984 50.6948,150.8374 50.6978,150.8634 C50.6998,150.8884 50.7108,150.9254 50.7488,150.9534 C52.4128,152.1554 54.0848,153.3494 55.7668,154.5284 C58.1898,156.2274 59.7768,158.0194 63.1058,157.8684 C66.5658,157.7114 69.4418,157.5734 72.5858,158.8414 C75.0158,159.8214 78.2128,160.1344 80.9198,159.8474 C83.0718,159.6184 83.6028,159.9124 83.8148,160.1524 Z" id="Stroke-104" stroke="#000000" stroke-width="1.5" stroke-linecap="round" stroke-linejoin="round"></path>
                <path d="M47.6678,167.983 C47.6678,167.983 13.0728,146.813 11.8248,142.098 L0.7798,96.663 C0.7798,96.663 -0.3372,75.377 12.6848,76.324 C15.2698,76.512 18.1458,83.064 20.8278,91.692 C26.1478,108.804 30.7018,134.082 30.7018,134.082 L65.8538,156.745 L55.7528,170.661 L46.2298,169.751 L56.9948,154.257" id="Fill-106" fill="#FFFFFF"></path>
                <path d="M149.3652,112.6283 L149.3652,113.1623" id="Stroke-108" stroke="#000000" stroke-width="1.5" stroke-linecap="round" stroke-linejoin="round"></path>
                <path d="M134.6894,91.1317 C141.4864,91.1317 153.0354,93.2847 154.6034,96.7357 C156.1724,100.1857 163.8644,119.7577 163.8644,119.7577 L149.9564,121.6757" id="Stroke-110" stroke="#000000" stroke-width="1.5" stroke-linecap="round" stroke-linejoin="round"></path>
                <path d="M136.1811,180.5617 C135.8721,179.2757 134.6471,175.6707 133.4081,173.3647 C132.8211,172.2717 132.1711,171.2917 131.2271,170.4797 C130.0941,169.5037 129.0581,168.8957 128.2261,167.5767 C127.6531,166.6687 127.0951,165.8557 126.2871,165.1427 C125.4601,164.4127 124.5481,163.7717 123.9491,162.8207 C123.5381,162.1697 121.2151,159.1667 120.3031,158.0627 L119.8771,157.4927 C118.4441,155.1987 93.1071,139.1997 93.0641,137.6167 C93.0211,136.0347 102.9751,121.0087 102.9751,121.0087 C102.6681,120.3017 89.9421,116.5457 88.4191,116.7127 C84.3301,121.5057 76.8261,134.7477 78.0321,140.4337 C79.2371,146.1197 105.4471,159.2357 113.5711,162.2247 L114.0341,163.3277 C114.2191,165.2147 114.0341,167.9247 118.5881,172.5737 C118.9241,172.9167 119.6441,173.3367 119.7301,173.6737 C120.0051,174.7417 119.2771,175.3677 118.6181,176.3027 C118.4841,176.4927 118.3221,176.7057 118.1501,176.9337 C117.3131,178.0397 116.6281,179.0077 116.7411,179.6427 C116.7721,179.8147 116.8651,179.9477 117.0251,180.0507 C117.9521,180.6457 118.6041,179.7767 119.4291,178.6767 L119.6751,178.3497 C120.0281,177.8867 120.3681,177.3767 120.6731,176.9207 C121.3841,175.8577 121.6341,175.5207 121.8611,175.5897 C122.0491,175.6457 122.4361,176.0937 122.0151,178.5027 C121.7941,179.7677 119.7961,181.0747 119.7121,182.4317 C119.6681,183.1357 120.3021,184.3797 121.1641,183.8507 C121.4321,183.6867 121.6061,183.4077 121.7691,183.1387 C122.2941,182.2737 124.0031,180.4667 124.7711,178.0867 C125.1271,176.9797 125.0271,175.7887 124.9381,174.6477 C124.8991,174.1567 124.8611,173.6667 124.8221,173.1757 C124.8681,173.7647 125.6141,174.6927 125.8281,175.2907 C126.0561,175.9267 126.3531,176.6467 126.4121,177.3227 C126.4721,177.9927 126.1481,179.5057 125.8011,181.1227 C125.6251,181.9417 125.4441,182.7887 125.2951,183.5987 C125.1241,184.5277 125.3091,185.2577 125.8171,185.6547 C126.9711,186.5547 127.7101,184.4137 127.9481,183.6437 C128.2731,182.5917 128.5661,181.5307 128.8261,180.4607 C128.9561,179.9267 129.0771,179.3897 129.1911,178.8517 C129.2951,178.3587 129.4831,177.8877 129.4991,177.3767 C129.5421,176.0047 128.3661,172.9577 128.4091,172.9917 C128.4661,173.0357 129.8181,174.0957 130.4461,174.8567 C130.6871,175.1477 131.0931,175.9407 131.5641,176.8587 C132.2191,178.1377 132.8901,179.9657 134.0441,180.8847 C134.7101,181.4157 135.5361,181.6107 135.9631,181.3387 C136.0951,181.2557 136.2971,181.0447 136.1811,180.5617" id="Fill-112" fill="#999999"></path>
                <path d="M136.1811,180.5617 C135.8721,179.2757 134.6471,175.6707 133.4081,173.3647 C132.8211,172.2717 132.1711,171.2917 131.2271,170.4797 C130.0941,169.5037 129.0581,168.8957 128.2261,167.5767 C127.6531,166.6687 127.0951,165.8557 126.2871,165.1427 C125.4601,164.4127 124.5481,163.7717 123.9491,162.8207 C123.5381,162.1697 121.2151,159.1667 120.3031,158.0627 L119.8771,157.4927 C118.4441,155.1987 93.1071,139.1997 93.0641,137.6167 C93.0211,136.0347 102.9751,121.0087 102.9751,121.0087 C102.6681,120.3017 89.9421,116.5457 88.4191,116.7127 C84.3301,121.5057 76.8261,134.7477 78.0321,140.4337 C79.2371,146.1197 105.4471,159.2357 113.5711,162.2247 L114.0341,163.3277 C114.2191,165.2147 114.0341,167.9247 118.5881,172.5737 C118.9241,172.9167 119.6441,173.3367 119.7301,173.6737 C120.0051,174.7417 119.2771,175.3677 118.6181,176.3027 C118.4841,176.4927 118.3221,176.7057 118.1501,176.9337 C117.3131,178.0397 116.6281,179.0077 116.7411,179.6427 C116.7721,179.8147 116.8651,179.9477 117.0251,180.0507 C117.9521,180.6457 118.6041,179.7767 119.4291,178.6767 L119.6751,178.3497 C120.0281,177.8867 120.3681,177.3767 120.6731,176.9207 C121.3841,175.8577 121.6341,175.5207 121.8611,175.5897 C122.0491,175.6457 122.4361,176.0937 122.0151,178.5027 C121.7941,179.7677 119.7961,181.0747 119.7121,182.4317 C119.6681,183.1357 120.3021,184.3797 121.1641,183.8507 C121.4321,183.6867 121.6061,183.4077 121.7691,183.1387 C122.2941,182.2737 124.0031,180.4667 124.7711,178.0867 C125.1271,176.9797 125.0271,175.7887 124.9381,174.6477 C124.8991,174.1567 124.8611,173.6667 124.8221,173.1757 C124.8681,173.7647 125.6141,174.6927 125.8281,175.2907 C126.0561,175.9267 126.3531,176.6467 126.4121,177.3227 C126.4721,177.9927 126.1481,179.5057 125.8011,181.1227 C125.6251,181.9417 125.4441,182.7887 125.2951,183.5987 C125.1241,184.5277 125.3091,185.2577 125.8171,185.6547 C126.9711,186.5547 127.7101,184.4137 127.9481,183.6437 C128.2731,182.5917 128.5661,181.5307 128.8261,180.4607 C128.9561,179.9267 129.0771,179.3897 129.1911,178.8517 C129.2951,178.3587 129.4831,177.8877 129.4991,177.3767 C129.5421,176.0047 128.3661,172.9577 128.4091,172.9917 C128.4661,173.0357 129.8181,174.0957 130.4461,174.8567 C130.6871,175.1477 131.0931,175.9407 131.5641,176.8587 C132.2191,178.1377 132.8901,179.9657 134.0441,180.8847 C134.7101,181.4157 135.5361,181.6107 135.9631,181.3387 C136.0951,181.2557 136.2971,181.0447 136.1811,180.5617 Z" id="Stroke-114" stroke="#000000" stroke-width="1.5" stroke-linecap="round" stroke-linejoin="round"></path>
                <path d="M114.0341,163.3275 C114.2191,165.2155 114.0341,167.9245 118.5881,172.5735 C118.9241,172.9165 119.6441,173.3365 119.7301,173.6735 C120.0051,174.7425 119.2771,175.3675 118.6181,176.3025 C118.4841,176.4925 118.3221,176.7065 118.1501,176.9335 C117.3131,178.0395 116.6281,179.0075 116.7411,179.6425 C116.7721,179.8145 116.8651,179.9485 117.0251,180.0505 C117.9521,180.6455 118.6041,179.7765 119.4281,178.6765 L119.6751,178.3495 C120.0281,177.8865 120.3681,177.3775 120.6731,176.9215 C121.3841,175.8585 121.6341,175.5215 121.8611,175.5895 C122.0491,175.6465 122.4361,176.0935 122.0151,178.5025 C121.7941,179.7685 119.7961,181.0745 119.7121,182.4315 C119.6681,183.1355 120.3011,184.3795 121.1641,183.8505 C121.4321,183.6865 121.6061,183.4075 121.7691,183.1385 C122.2941,182.2735 124.0031,180.4675 124.7711,178.0865 C125.1271,176.9795 125.0271,175.7885 124.9381,174.6475 C124.8991,174.1565 124.8601,173.6665 124.8221,173.1755 C124.8681,173.7655 125.6141,174.6925 125.8291,175.2915 C126.0561,175.9265 126.3531,176.6465 126.4131,177.3235 C126.4721,177.9935 126.1481,179.5065 125.8011,181.1225 C125.6261,181.9415 125.4441,182.7885 125.2951,183.5985 C125.1251,184.5275 125.3091,185.2575 125.8161,185.6555 C126.9701,186.5545 127.7101,184.4135 127.9481,183.6435 C128.2731,182.5915 128.5661,181.5305 128.8261,180.4615 C128.9561,179.9265 129.0781,179.3895 129.1911,178.8515 C129.2951,178.3585 129.4831,177.8875 129.4991,177.3765 C129.5421,176.0045 128.3651,172.9575 128.4091,172.9915 C128.4661,173.0365 129.8181,174.0955 130.4461,174.8565 C130.6871,175.1485 131.0931,175.9405 131.5641,176.8585 C132.2191,178.1375 132.8901,179.9655 134.0441,180.8855 C134.7101,181.4165 135.5361,181.6115 135.9631,181.3385 C136.0951,181.2565 136.2971,181.0455 136.1811,180.5615 C135.8721,179.2755 134.6471,175.6705 133.4081,173.3645 C132.8211,172.2715 132.1711,171.2915 131.2271,170.4795 C130.0941,169.5045 129.0581,168.8955 128.2261,167.5775 C127.6531,166.6685 127.0951,165.8555 126.2871,165.1425 C125.4601,164.4135 124.5481,163.7715 123.9491,162.8205 C123.5381,162.1705 121.2151,159.1665 120.3031,158.0625" id="Stroke-116" stroke="#000000" stroke-width="1.5" stroke-linecap="round" stroke-linejoin="round"></path>
                <path d="M119.8769,157.4927 C118.4439,155.1987 93.1069,139.1997 93.0639,137.6167 C93.0209,136.0347 102.9749,121.0087 102.9749,121.0087 C102.6679,120.3017 89.9419,116.5457 88.4189,116.7127 C84.3299,121.5057 76.8259,134.7477 78.0319,140.4337 C79.2369,146.1197 105.4469,159.2357 113.5709,162.2247" id="Stroke-118" stroke="#000000" stroke-width="1.5" stroke-linecap="round" stroke-linejoin="round"></path>
                <path d="M156.7876,54.8573 C156.5906,55.9793 157.7446,57.0203 157.5496,58.1523 C157.3996,59.0173 156.5536,59.4983 155.8886,60.0263 C154.2746,61.3073 155.8906,63.4413 154.3656,64.7183 C153.7566,65.2283 152.8636,65.2203 152.2596,65.7363 C151.1366,66.6973 151.9656,68.4863 150.9246,69.4143 C150.0726,70.1733 148.7146,69.6083 147.8036,70.3413 C146.8976,71.0693 147.2156,72.8233 146.2526,73.4653 C145.2926,74.1043 143.9286,73.0553 142.9326,73.6293 C141.9556,74.1923 141.9956,75.9453 140.9586,76.3713 C139.9376,76.7903 138.8386,75.5143 137.7886,75.8453 C136.7016,76.1893 136.4756,77.9963 135.3656,78.2443 C134.2916,78.4843 133.3926,77.0293 132.3066,77.2003 C131.2046,77.3743 130.7496,79.0903 129.6386,79.1853 C128.5046,79.2813 127.7936,77.6003 126.6576,77.6333 C125.5816,77.6643 124.9366,79.2183 123.8616,79.1743 C122.7316,79.1273 122.2486,77.3813 121.1306,77.2013 C120.0146,77.0223 119.0716,78.5293 117.9786,78.2343 C116.9176,77.9473 116.7256,76.2203 115.6826,75.8633 C114.6506,75.5093 113.5676,76.7623 112.5426,76.3873 C111.4266,75.9793 111.4466,74.0713 110.3746,73.5483 C109.3946,73.0703 108.1406,74.0753 107.2086,73.4993 C106.1976,72.8733 106.5556,71.0193 105.6016,70.3003 C104.7806,69.6823 103.5176,70.3163 102.6826,69.7183 C101.5706,68.9223 102.2516,66.8203 101.2606,65.8613 C100.4946,65.1183 99.0566,65.4253 98.4936,64.5013 C97.9896,63.6733 98.6226,62.5713 98.4516,61.6023 C98.3126,60.8113 97.6696,60.2523 97.1696,59.6443 C96.1746,58.4343 97.2946,57.0893 97.1646,55.3143 C97.0636,53.9373 95.3536,53.2043 95.2606,52.1103 C95.0446,49.5463 96.6886,50.5083 96.0996,46.2903 C95.9626,45.3153 96.2606,44.4153 96.9376,43.7013 C97.6796,42.9173 98.5936,42.7323 98.5456,41.3333 C98.5006,40.0293 97.9746,38.8953 99.4496,38.2093 C100.1686,37.8763 101.0256,37.7353 101.5176,37.0903 C102.2256,36.1623 101.8576,34.5863 102.7136,33.8113 C103.5106,33.0923 104.8496,33.5623 105.6816,32.8893 C106.5506,32.1853 106.3386,30.7393 107.2366,30.0733 C108.0936,29.4363 109.3476,29.9053 110.2676,29.3773 C111.0696,28.9173 111.3966,27.8253 112.1896,27.3493 C113.2926,26.6873 114.7486,27.4923 115.9266,26.9963 C116.8096,26.6243 117.3996,25.5693 118.3446,25.4653 C119.1896,25.3713 119.9666,26.0953 120.8136,26.0243 C121.9406,25.9293 122.6426,24.5023 123.7666,24.3763 C124.8926,24.2513 125.8226,25.4893 126.9536,25.4573 C127.9476,25.4283 128.8096,24.4173 129.7846,24.6203 C130.6656,24.8033 131.1406,25.8203 131.9966,26.0223 C133.0836,26.2783 133.9606,25.1523 135.0406,25.2653 C136.0736,25.3743 136.6806,26.5853 137.6446,26.9913 C138.6986,27.4353 139.9706,26.7983 140.9746,27.3923 C141.8746,27.9243 142.0876,29.2113 143.0336,29.7493 C143.9416,30.2663 145.1366,29.3843 146.0666,29.8553 C146.8036,30.2283 146.9786,31.2223 147.2386,32.0413 C147.9186,34.1823 149.7686,32.8493 150.9926,34.0633 C151.8316,34.8953 151.2566,36.5733 152.0506,37.4533 C153.0736,38.5893 155.1146,37.7633 155.0806,39.9973 C155.0666,40.9163 154.7616,41.9063 155.1836,42.7093 C155.7266,43.7423 157.2256,43.9393 157.6396,45.0383 C158.0076,46.0163 157.2886,47.0693 157.2676,48.1213 C157.2376,49.7113 158.7916,51.2073 158.2066,52.6713 C157.8826,53.4803 156.9756,53.9533 156.7966,54.8113 C156.7936,54.8273 156.7906,54.8423 156.7876,54.8573" id="Fill-120" fill="#4C4C4C"></path>
                <path d="M156.7876,54.8573 C156.5906,55.9793 157.7446,57.0203 157.5496,58.1523 C157.3996,59.0173 156.5536,59.4983 155.8886,60.0263 C154.2746,61.3073 155.8906,63.4413 154.3656,64.7183 C153.7566,65.2283 152.8636,65.2203 152.2596,65.7363 C151.1366,66.6973 151.9656,68.4863 150.9246,69.4143 C150.0726,70.1733 148.7146,69.6083 147.8036,70.3413 C146.8976,71.0693 147.2156,72.8233 146.2526,73.4653 C145.2926,74.1043 143.9286,73.0553 142.9326,73.6293 C141.9556,74.1923 141.9956,75.9453 140.9586,76.3713 C139.9376,76.7903 138.8386,75.5143 137.7886,75.8453 C136.7016,76.1893 136.4756,77.9963 135.3656,78.2443 C134.2916,78.4843 133.3926,77.0293 132.3066,77.2003 C131.2046,77.3743 130.7496,79.0903 129.6386,79.1853 C128.5046,79.2813 127.7936,77.6003 126.6576,77.6333 C125.5816,77.6643 124.9366,79.2183 123.8616,79.1743 C122.7316,79.1273 122.2486,77.3813 121.1306,77.2013 C120.0146,77.0223 119.0716,78.5293 117.9786,78.2343 C116.9176,77.9473 116.7256,76.2203 115.6826,75.8633 C114.6506,75.5093 113.5676,76.7623 112.5426,76.3873 C111.4266,75.9793 111.4466,74.0713 110.3746,73.5483 C109.3946,73.0703 108.1406,74.0753 107.2086,73.4993 C106.1976,72.8733 106.5556,71.0193 105.6016,70.3003 C104.7806,69.6823 103.5176,70.3163 102.6826,69.7183 C101.5706,68.9223 102.2516,66.8203 101.2606,65.8613 C100.4946,65.1183 99.0566,65.4253 98.4936,64.5013 C97.9896,63.6733 98.6226,62.5713 98.4516,61.6023 C98.3126,60.8113 97.6696,60.2523 97.1696,59.6443 C96.1746,58.4343 97.2946,57.0893 97.1646,55.3143 C97.0636,53.9373 95.3536,53.2043 95.2606,52.1103 C95.0446,49.5463 96.6886,50.5083 96.0996,46.2903 C95.9626,45.3153 96.2606,44.4153 96.9376,43.7013 C97.6796,42.9173 98.5936,42.7323 98.5456,41.3333 C98.5006,40.0293 97.9746,38.8953 99.4496,38.2093 C100.1686,37.8763 101.0256,37.7353 101.5176,37.0903 C102.2256,36.1623 101.8576,34.5863 102.7136,33.8113 C103.5106,33.0923 104.8496,33.5623 105.6816,32.8893 C106.5506,32.1853 106.3386,30.7393 107.2366,30.0733 C108.0936,29.4363 109.3476,29.9053 110.2676,29.3773 C111.0696,28.9173 111.3966,27.8253 112.1896,27.3493 C113.2926,26.6873 114.7486,27.4923 115.9266,26.9963 C116.8096,26.6243 117.3996,25.5693 118.3446,25.4653 C119.1896,25.3713 119.9666,26.0953 120.8136,26.0243 C121.9406,25.9293 122.6426,24.5023 123.7666,24.3763 C124.8926,24.2513 125.8226,25.4893 126.9536,25.4573 C127.9476,25.4283 128.8096,24.4173 129.7846,24.6203 C130.6656,24.8033 131.1406,25.8203 131.9966,26.0223 C133.0836,26.2783 133.9606,25.1523 135.0406,25.2653 C136.0736,25.3743 136.6806,26.5853 137.6446,26.9913 C138.6986,27.4353 139.9706,26.7983 140.9746,27.3923 C141.8746,27.9243 142.0876,29.2113 143.0336,29.7493 C143.9416,30.2663 145.1366,29.3843 146.0666,29.8553 C146.8036,30.2283 146.9786,31.2223 147.2386,32.0413 C147.9186,34.1823 149.7686,32.8493 150.9926,34.0633 C151.8316,34.8953 151.2566,36.5733 152.0506,37.4533 C153.0736,38.5893 155.1146,37.7633 155.0806,39.9973 C155.0666,40.9163 154.7616,41.9063 155.1836,42.7093 C155.7266,43.7423 157.2256,43.9393 157.6396,45.0383 C158.0076,46.0163 157.2886,47.0693 157.2676,48.1213 C157.2376,49.7113 158.7916,51.2073 158.2066,52.6713 C157.8826,53.4803 156.9756,53.9533 156.7966,54.8113 C156.7936,54.8273 156.7906,54.8423 156.7876,54.8573 Z" id="Stroke-122" stroke="#000000" stroke-width="1.5" stroke-linecap="round" stroke-linejoin="round"></path>
                <path d="M119.7202,82.3596 C120.2802,85.4556 119.3852,89.5476 118.7412,91.1316 C123.2172,93.0236 124.6162,93.1956 126.7152,93.1956 C128.8132,93.1956 130.2122,93.0236 134.6892,91.1316 C134.0452,89.5476 131.6302,86.0086 132.1902,82.9126 L119.7202,82.3596 Z" id="Fill-124" fill="#999999"></path>
                <path d="M119.7202,82.3596 C120.2802,85.4556 119.3852,89.5476 118.7412,91.1316 C123.2172,93.0236 124.6162,93.1956 126.7152,93.1956 C128.8132,93.1956 130.2122,93.0236 134.6892,91.1316 C134.0452,89.5476 131.6302,86.0086 132.1902,82.9126 L119.7202,82.3596 Z" id="Stroke-126" stroke="#000000" stroke-width="1.5" stroke-linecap="round" stroke-linejoin="round"></path>
                <path d="M146.9002,63.2931 C146.9002,76.1041 137.9652,86.4901 126.9442,86.4901 C115.9232,86.4901 106.9882,76.1041 106.9882,63.2931 C106.9882,61.6121 107.0232,59.9501 107.1232,58.3301 C107.1462,57.9541 107.3422,56.8021 107.6642,55.3011 C107.9252,54.0831 108.6742,51.1851 108.6742,51.1851 L126.7152,55.1561 L145.7032,51.1831 C145.7032,51.1831 146.2882,53.7801 146.4672,55.1561 C146.6512,56.5681 146.7632,58.0281 146.8272,59.5191 C146.8802,60.7591 146.9002,62.0211 146.9002,63.2931" id="Fill-128" fill="#999999"></path>
                <path d="M146.9002,63.2931 C146.9002,76.1041 137.9652,86.4901 126.9442,86.4901 C115.9232,86.4901 106.9882,76.1041 106.9882,63.2931 C106.9882,61.6121 107.0232,59.9501 107.1232,58.3301 C107.1462,57.9541 107.3422,56.8021 107.6642,55.3011 C107.9252,54.0831 108.6742,51.1851 108.6742,51.1851 L126.7152,55.1561 L145.7032,51.1831 C145.7032,51.1831 146.2882,53.7801 146.4672,55.1561 C146.6512,56.5681 146.7632,58.0281 146.8272,59.5191 C146.8802,60.7591 146.9002,62.0211 146.9002,63.2931 Z" id="Stroke-130" stroke="#000000" stroke-width="1.5" stroke-linecap="round" stroke-linejoin="round"></path>
                <path d="M143.1299,69.7256 L130.7169,69.7256 C129.9479,69.7256 129.3249,69.1026 129.3249,68.3336 L129.3249,62.8246 C129.3249,62.0566 129.9479,61.4336 130.7169,61.4336 L143.1299,61.4336 C143.8989,61.4336 144.5219,62.0566 144.5219,62.8246 L144.5219,68.3336 C144.5219,69.1026 143.8989,69.7256 143.1299,69.7256" id="Fill-132" fill="#FFFFFF"></path>
                <path d="M143.1299,69.7256 L130.7169,69.7256 C129.9479,69.7256 129.3249,69.1026 129.3249,68.3336 L129.3249,62.8246 C129.3249,62.0566 129.9479,61.4336 130.7169,61.4336 L143.1299,61.4336 C143.8989,61.4336 144.5219,62.0566 144.5219,62.8246 L144.5219,68.3336 C144.5219,69.1026 143.8989,69.7256 143.1299,69.7256 Z" id="Stroke-134" stroke="#000000" stroke-width="1.5" stroke-linecap="round" stroke-linejoin="round"></path>
                <path d="M123.2682,69.7256 L110.8552,69.7256 C110.0862,69.7256 109.4632,69.1026 109.4632,68.3336 L109.4632,62.8246 C109.4632,62.0566 110.0862,61.4336 110.8552,61.4336 L123.2682,61.4336 C124.0372,61.4336 124.6602,62.0566 124.6602,62.8246 L124.6602,68.3336 C124.6602,69.1026 124.0372,69.7256 123.2682,69.7256" id="Fill-136" fill="#FFFFFF"></path>
                <path d="M123.2682,69.7256 L110.8552,69.7256 C110.0862,69.7256 109.4632,69.1026 109.4632,68.3336 L109.4632,62.8246 C109.4632,62.0566 110.0862,61.4336 110.8552,61.4336 L123.2682,61.4336 C124.0372,61.4336 124.6602,62.0566 124.6602,62.8246 L124.6602,68.3336 C124.6602,69.1026 124.0372,69.7256 123.2682,69.7256 Z" id="Stroke-138" stroke="#000000" stroke-width="1.5" stroke-linecap="round" stroke-linejoin="round"></path>
                <path d="M124.6599,64.6559 C124.6599,64.6559 125.5409,64.1599 126.9929,64.1599 C128.4449,64.1599 129.3249,64.6559 129.3249,64.6559" id="Stroke-140" stroke="#000000" stroke-width="1.5" stroke-linecap="round" stroke-linejoin="round"></path>
                <path d="M131.3741,79.3138 C131.3741,79.3138 130.1421,80.1888 126.9441,80.1888 C123.7471,80.1888 121.8081,78.6068 121.8081,78.6068" id="Stroke-142" stroke="#000000" stroke-width="1.5" stroke-linecap="round" stroke-linejoin="round"></path>
                <path d="M120.527,66.5794 C120.527,67.5924 119.921,68.4124 119.173,68.4124 C118.425,68.4124 117.819,67.5924 117.819,66.5794 C117.819,65.5664 118.425,64.7464 119.173,64.7464 C119.921,64.7464 120.527,65.5664 120.527,66.5794" id="Fill-144" fill="#000000"></path>
                <path d="M136.1661,66.5794 C136.1661,67.5924 135.5601,68.4124 134.8121,68.4124 C134.0641,68.4124 133.4581,67.5924 133.4581,66.5794 C133.4581,65.5664 134.0641,64.7464 134.8121,64.7464 C135.5601,64.7464 136.1661,65.5664 136.1661,66.5794" id="Fill-146" fill="#000000"></path>
                <path d="M153.2446,169.7938 C153.2446,169.7938 165.9956,146.9838 165.9956,140.8898 C165.9956,134.7958 161.6496,120.0798 161.6496,120.0798 L149.9566,121.6748 L149.7966,130.8838 L155.1786,142.1598 C155.1786,142.1598 146.9006,162.6828 144.5216,166.2268 C142.7246,168.9048 141.9126,164.6578 140.4926,168.3768 C139.0716,172.0968 140.0946,180.7768 140.0946,180.7768 L141.9096,181.4118 L141.7656,183.4428 C141.6216,185.4738 143.9376,184.9238 144.9256,185.2198 C145.7886,185.4798 148.0786,180.7018 149.8366,176.3738 C149.3226,177.6988 148.6296,179.5388 148.0846,181.1718 C147.0976,184.1338 148.5786,184.9238 150.3556,182.9438 C150.3556,182.9438 155.6716,174.9298 155.7946,172.3438 C155.9186,169.7588 153.2446,169.7938 153.2446,169.7938" id="Fill-148" fill="#999999"></path>
                <path d="M153.2446,169.7938 C153.2446,169.7938 165.9956,146.9838 165.9956,140.8898 C165.9956,134.7958 161.6496,120.0798 161.6496,120.0798 L149.9566,121.6748 L149.7966,130.8838 L155.1786,142.1598 C155.1786,142.1598 146.9006,162.6828 144.5216,166.2268 C142.7246,168.9048 141.9126,164.6578 140.4926,168.3768 C139.0716,172.0968 140.0946,180.7768 140.0946,180.7768 L141.9096,181.4118 L141.7656,183.4428 C141.6216,185.4738 143.9376,184.9238 144.9256,185.2198 C145.7886,185.4798 148.0786,180.7018 149.8366,176.3738 C149.3226,177.6988 148.6296,179.5388 148.0846,181.1718 C147.0976,184.1338 148.5786,184.9238 150.3556,182.9438 C150.3556,182.9438 155.6716,174.9298 155.7946,172.3438 C155.9186,169.7588 153.2446,169.7938 153.2446,169.7938 Z" id="Stroke-150" stroke="#000000" stroke-width="1.5" stroke-linecap="round" stroke-linejoin="round"></path>
                <path d="M140.0944,180.7769 C140.0944,180.7769 139.0724,172.0969 140.4924,168.3769 C141.9134,164.6569 142.7244,168.9049 144.5214,166.2269 C146.9004,162.6829 155.1784,142.1599 155.1784,142.1599 L149.7964,130.8839 L149.9564,121.6749 L161.6494,120.0789 C161.6494,120.0789 165.9964,134.7959 165.9964,140.8899 C165.9964,146.9839 153.2444,169.7939 153.2444,169.7939 C153.2444,169.7939 155.9184,169.7589 155.7944,172.3439 C155.6714,174.9299 150.3564,182.9439 150.3564,182.9439 C148.5784,184.9239 147.0974,184.1339 148.0854,181.1719 C149.0724,178.2099 150.5534,174.5559 150.5534,174.5559 C148.7644,179.2289 145.9124,185.5159 144.9254,185.2199 C143.9384,184.9239 141.6224,185.4739 141.7654,183.4429 C141.9094,181.4119 143.3894,172.7869 143.3894,172.7869" id="Stroke-152" stroke="#000000" stroke-width="1.5" stroke-linecap="round" stroke-linejoin="round"></path>
                <path d="M147.5913,173.3715 L143.6413,184.6275" id="Stroke-154" stroke="#000000" stroke-width="1.5" stroke-linecap="round" stroke-linejoin="round"></path>
                <path d="M148.5787,168.7308 C150.1587,168.6318 151.6897,167.5988 153.2447,169.7938" id="Stroke-156" stroke="#000000" stroke-width="1.5" stroke-linecap="round" stroke-linejoin="round"></path>
                <path d="M20.8282,91.6917 C26.1472,108.8037 30.7022,134.0827 30.7022,134.0827 L65.8532,156.7447 L55.7522,170.6607 L46.2302,169.7507 L56.9952,154.2567" id="Stroke-158" stroke="#000000" stroke-width="1.5" stroke-linecap="round" stroke-linejoin="round"></path>
                <path d="M47.6678,167.983 C47.6678,167.983 13.0728,146.813 11.8248,142.098 L0.7798,96.663 C0.7798,96.663 -0.3372,75.377 12.6848,76.324" id="Stroke-160" stroke="#000000" stroke-width="1.5" stroke-linecap="round" stroke-linejoin="round"></path>
            </g>
        </g>
    </g>
</svg>