<?xml version="1.0" encoding="UTF-8"?>
<svg width="1400px" height="300px" viewBox="0 0 1400 300" version="1.1" xmlns="http://www.w3.org/2000/svg" xmlns:xlink="http://www.w3.org/1999/xlink">
    <!-- Generator: Sketch 49.2 (51160) - http://www.bohemiancoding.com/sketch -->
    <title>Firefly/logo</title>
    <desc>Created with Sketch.</desc>
    <defs>
        <polygon id="path-1" points="101.13245 1.836 1.55383834 1.836 1.55383834 107.920325 101.13245 107.920325"></polygon>
        <polygon id="path-3" points="12.489799 1.836 0.000410362694 1.836 0.000410362694 14.2384755 12.489799 14.2384755 12.489799 1.836"></polygon>
        <polygon id="path-5" points="12.489799 1.836 0.000410362694 1.836 0.000410362694 14.2384755 12.489799 14.2384755 12.489799 1.836"></polygon>
        <polygon id="path-7" points="92.4621016 1.836 1.74937617 1.836 1.74937617 107.920121 92.4621016 107.920121 92.4621016 1.836"></polygon>
        <polygon id="path-9" points="14.1497161 1.836 1.66032746 1.836 1.66032746 14.2384755 14.1497161 14.2384755"></polygon>
        <polygon id="path-11" points="14.1497161 1.836 1.66032746 1.836 1.66032746 14.2384755 14.1497161 14.2384755"></polygon>
        <polygon id="path-13" points="12.9526881 1.836 0.463299482 1.836 0.463299482 14.2384755 12.9526881 14.2384755 12.9526881 1.836"></polygon>
        <polygon id="path-15" points="101.176974 107.920325 101.176974 1.836 0.562607254 1.836 0.562607254 107.920325 101.176974 107.920325"></polygon>
        <polygon id="path-17" points="12.962742 1.836 0.473353368 1.836 0.473353368 14.2384755 12.962742 14.2384755 12.962742 1.836"></polygon>
        <polygon id="path-19" points="12.962742 1.836 0.473353368 1.836 0.473353368 14.2384755 12.962742 14.2384755 12.962742 1.836"></polygon>
    </defs>
    <g id="Firefly/logo" stroke="none" stroke-width="1" fill="none" fill-rule="evenodd">
        <polygon id="Page-1" fill="#0F0F38" points="-1018 1276 2417 1276 2417 -868 -1018 -868"></polygon>
        <polygon id="Page-1-Copy" fill="#0F0F38" points="-855 1210 2580 1210 2580 -934 -855 -934"></polygon>
        <g id="Page-1" transform="translate(61.000000, 6.000000)">
            <polygon id="Fill-1" fill="#464CBC" points="589.48 92.6341463 589.48 104.874647 607.189839 104.874647 607.189839 185.757476 589.48 185.757476 589.48 198 684.52 198 684.52 169.143345 671.239158 169.143345 671.239158 184.883154 628.586751 184.883154 628.586751 151.509171 651.75854 151.509171 651.75854 160.25441 664.153993 160.25441 664.153993 130.377713 651.75854 130.377713 651.75854 139.268671 628.586751 139.268671 628.586751 104.874647 666.812211 104.874647 666.812211 119.011534 680.093053 119.011534 680.093053 92.6341463"></polygon>
            <polygon id="Fill-2" fill="#464CBC" points="246.28 92.6341463 246.28 104.874647 263.821481 104.874647 263.821481 185.757476 246.28 185.757476 246.28 198 302.562978 198 302.562978 185.757476 285.019467 185.757476 285.019467 155.008481 307.827452 155.008481 307.827452 163.751696 320.104458 163.751696 320.104458 133.877022 307.827452 133.877022 307.827452 142.765957 285.019467 142.765957 285.019467 104.874647 322.88389 104.874647 322.88389 124.257463 336.04 124.257463 336.04 92.6341463"></polygon>
            <polygon id="Fill-3" fill="#464CBC" points="359.8 92.6341463 359.8 104.874647 391.46075 104.874647 391.46075 185.757476 359.8 185.757476 359.8 198 444.28 198 444.28 185.757476 412.61925 185.757476 412.61925 104.874647 444.28 104.874647 444.28 92.6341463"></polygon>
            <polygon id="Fill-4" fill="#464CBC" points="816.52 92.6341463 816.52 104.874647 837.767879 104.874647 837.767879 185.757476 816.52 185.757476 816.52 198 914.2 198 914.2 159.380088 900.921356 159.380088 900.921356 184.883154 859.163299 184.883154 859.163299 104.874647 876.872256 104.874647 876.872256 92.6341463"></polygon>
            <g id="Group-32">
                <g id="Group-7" transform="translate(465.400000, 90.000000)">
                    <mask id="mask-2" fill="white">
                        <use xlink:href="#path-1"></use>
                    </mask>
                    <g id="Clip-6"></g>
                    <path d="M35.3882425,51.4302113 L42.6270404,51.4302113 C52.5270404,51.4302113 63.6068332,43.2120226 63.6068332,28.6870415 C63.6068332,14.1600226 52.377258,14.1600226 45.1384601,14.1600226 L35.3882425,14.1600226 L35.3882425,51.4302113 Z M35.3882425,95.5960981 L47.7976104,95.5960981 L47.7976104,107.920325 L1.55383834,107.920325 L1.55383834,95.5960981 L13.965258,95.5960981 L13.965258,14.1600226 L1.55383834,14.1600226 L1.55383834,1.83579623 L54.445486,1.83579623 C69.516056,1.83579623 74.6866259,4.47670189 78.6774031,7.99790943 C84.1434342,12.8395698 87.0980456,20.0287019 87.0980456,28.2468906 C87.0980456,46.2930792 72.1752062,54.6579849 66.1182528,58.1791925 L92.120885,95.5960981 L101.13245,95.5960981 L101.13245,107.920325 L75.1298176,107.920325 L43.9566155,63.7544377 L35.3882425,63.7544377 L35.3882425,95.5960981 Z" id="Fill-5" fill="#464CBC" mask="url(#mask-2)"></path>
                </g>
                <polygon id="Fill-8" fill="#D6FF66" points="596.4 191.327002 589.712173 198 583.2 191.50443 589.887827 184.829268"></polygon>
                <g id="Group-12" transform="translate(241.000000, 90.000000)">
                    <mask id="mask-4" fill="white">
                        <use xlink:href="#path-3"></use>
                    </mask>
                    <g id="Clip-11"></g>
                    <polygon id="Fill-10" fill="#D6FF66" mask="url(#mask-4)" points="12.489799 7.95409811 6.16200622 14.2384755 0.000410362694 8.12119245 6.32820311 1.83477736"></polygon>
                </g>
                <g id="Group-12-Copy" transform="translate(0.000000, 248.000000)">
                    <mask id="mask-6" fill="white">
                        <use xlink:href="#path-5"></use>
                    </mask>
                    <g id="Clip-11"></g>
                    <polygon id="Fill-10" fill="#D6FF66" mask="url(#mask-6)" points="12.489799 7.95409811 6.16200622 14.2384755 0.000410362694 8.12119245 6.32820311 1.83477736"></polygon>
                </g>
                <g id="Group-15" transform="translate(705.640000, 90.000000)">
                    <mask id="mask-8" fill="white">
                        <use xlink:href="#path-7"></use>
                    </mask>
                    <g id="Clip-14"></g>
                    <polygon id="Fill-13" fill="#464CBC" mask="url(#mask-8)" points="1.74937617 95.5958943 19.4790964 95.5958943 19.4790964 14.1598189 1.74937617 14.1598189 1.74937617 1.83559245 92.4621016 1.83559245 92.4621016 33.6752151 79.1642984 33.6752151 79.1642984 14.1598189 40.900029 14.1598189 40.900029 52.3103094 63.9480497 52.3103094 63.9480497 43.3605736 76.3574176 43.3605736 76.3574176 73.4395925 63.9480497 73.4395925 63.9480497 64.6365736 40.900029 64.6365736 40.900029 95.5958943 58.6297492 95.5958943 58.6297492 107.920121 1.74937617 107.920121"></polygon>
                </g>
                <g id="Group-18" transform="translate(700.000000, 90.000000)">
                    <mask id="mask-10" fill="white">
                        <use xlink:href="#path-9"></use>
                    </mask>
                    <g id="Clip-17"></g>
                    <polygon id="Fill-16" fill="#D6FF66" mask="url(#mask-10)" points="14.1497161 7.95409811 7.82192332 14.2384755 1.66032746 8.12119245 7.98812021 1.83477736"></polygon>
                </g>
                <g id="Group-18-Copy" transform="translate(606.000000, 0.000000)">
                    <mask id="mask-12" fill="white">
                        <use xlink:href="#path-11"></use>
                    </mask>
                    <g id="Clip-17"></g>
                    <polygon id="Fill-16" fill="#D6FF66" mask="url(#mask-12)" points="14.1497161 7.95409811 7.82192332 14.2384755 1.66032746 8.12119245 7.98812021 1.83477736"></polygon>
                </g>
                <polygon id="Fill-19" fill="#D6FF66" points="366.72 191.327002 360.032173 198 353.52 191.50443 360.207827 184.829268"></polygon>
                <g id="Group-23" transform="translate(869.320000, 90.000000)">
                    <mask id="mask-14" fill="white">
                        <use xlink:href="#path-13"></use>
                    </mask>
                    <g id="Clip-22"></g>
                    <polygon id="Fill-21" fill="#D6FF66" mask="url(#mask-14)" points="12.9526881 7.95409811 6.62489534 14.2384755 0.463299482 8.12119245 6.79109223 1.83477736"></polygon>
                </g>
                <polygon id="Fill-24" fill="#D6FF66" points="572.64 191.327002 565.952173 198 559.44 191.50443 566.127827 184.829268"></polygon>
                <g id="Group-28" transform="translate(930.040000, 90.000000)">
                    <mask id="mask-16" fill="white">
                        <use xlink:href="#path-15"></use>
                    </mask>
                    <g id="Clip-27"></g>
                    <polygon id="Fill-26" fill="#464CBC" mask="url(#mask-16)" points="9.87168497 14.1600226 0.562607254 14.1600226 0.562607254 1.83579623 45.9199959 1.83579623 45.9199959 14.1600226 35.578856 14.1600226 57.4450321 46.7352679 77.3886591 14.1600226 66.4565969 14.1600226 66.4565969 1.83579623 101.177384 1.83579623 101.177384 14.1600226 92.3135503 14.1600226 62.9110632 61.2602491 62.9110632 95.5960981 84.1863171 95.5960981 84.1863171 107.920325 20.2128249 107.920325 20.2128249 95.5960981 41.4880788 95.5960981 41.4880788 61.2602491"></polygon>
                </g>
                <g id="Group-31" transform="translate(925.000000, 90.000000)">
                    <mask id="mask-18" fill="white">
                        <use xlink:href="#path-17"></use>
                    </mask>
                    <g id="Clip-30"></g>
                    <polygon id="Fill-29" fill="#D6FF66" mask="url(#mask-18)" points="12.962742 7.95409811 6.63494922 14.2384755 0.473353368 8.12119245 6.80114611 1.83477736"></polygon>
                </g>
                <g id="Group-31-Copy" transform="translate(1243.000000, 82.000000)">
                    <mask id="mask-20" fill="white">
                        <use xlink:href="#path-19"></use>
                    </mask>
                    <g id="Clip-30"></g>
                    <polygon id="Fill-29" fill="#D6FF66" mask="url(#mask-20)" points="12.962742 7.95409811 6.63494922 14.2384755 0.473353368 8.12119245 6.80114611 1.83477736"></polygon>
                </g>
            </g>
        </g>
    </g>
</svg>