<?xml version="1.0" encoding="UTF-8"?>
<svg width="1400px" height="300px" viewBox="0 0 1400 300" version="1.1" xmlns="http://www.w3.org/2000/svg" xmlns:xlink="http://www.w3.org/1999/xlink">
    <!-- Generator: Sketch 49.2 (51160) - http://www.bohemiancoding.com/sketch -->
    <title>mark/logo</title>
    <desc>Created with Sketch.</desc>
    <defs>
        <polygon id="path-1" points="0.30295 0.310363287 72.8674082 0.310363287 72.8674082 48.9507135 0.30295 48.9507135"></polygon>
        <polygon id="path-3" points="0 0.15380249 73.8279139 0.15380249 73.8279139 63.999781 0 63.999781"></polygon>
    </defs>
    <g id="mark/logo" stroke="none" stroke-width="1" fill="none" fill-rule="evenodd">
        <polygon id="Page-1" fill="#0F0F38" points="-1018 1276 2417 1276 2417 -868 -1018 -868"></polygon>
        <polygon id="Page-1-Copy" fill="#FEEAE9" points="-855 1210 2580 1210 2580 -934 -855 -934"></polygon>
        <path d="M509.247162,145.55 C507.207151,145.55 505.733833,145.096671 504.827162,144.19 C503.92049,143.283329 502.503838,141.356681 500.577162,138.41 L479.837162,106.79 C479.157158,105.656661 478.363833,104.891669 477.457162,104.495 C476.55049,104.098331 475.643833,103.9 474.737162,103.9 L471.847162,103.9 C470.373821,103.9 469.268832,104.324996 468.532162,105.175 C467.795491,106.025004 467.427162,107.356658 467.427162,109.17 L467.427162,195.7 L469.127162,195.7 L469.127162,109.17 C469.127162,108.263329 469.29716,107.44167 469.637162,106.705 C469.977163,105.96833 470.713823,105.6 471.847162,105.6 L474.397162,105.6 C475.190499,105.6 475.898825,105.713332 476.522162,105.94 C477.145498,106.166668 477.797158,106.846661 478.477162,107.98 L499.217162,139.26 C501.257172,142.320015 502.815489,144.416661 503.892162,145.55 C504.968834,146.683339 506.753816,147.25 509.247162,147.25 C511.740507,147.25 513.525489,146.683339 514.602162,145.55 C515.678834,144.416661 517.237151,142.320015 519.277162,139.26 L540.017162,107.98 C540.697165,106.846661 541.320492,106.166668 541.887162,105.94 C542.453831,105.713332 543.133824,105.6 543.927162,105.6 L546.477162,105.6 C547.610501,105.6 548.375493,105.96833 548.772162,106.705 C549.16883,107.44167 549.367162,108.263329 549.367162,109.17 L549.367162,195.7 L551.067162,195.7 L551.067162,109.17 C551.067162,107.356658 550.698832,106.025004 549.962162,105.175 C549.225491,104.324996 548.063836,103.9 546.477162,103.9 L543.587162,103.9 C542.68049,103.9 541.802166,104.098331 540.952162,104.495 C540.102157,104.891669 539.337165,105.656661 538.657162,106.79 L517.917162,138.41 C515.990485,141.356681 514.573833,143.283329 513.667162,144.19 C512.76049,145.096671 511.287172,145.55 509.247162,145.55 Z M480.857162,211 L455.527162,211 C453.373817,211 451.8155,210.518338 450.852162,209.555 C449.888823,208.591662 449.407162,207.033344 449.407162,204.88 L449.407162,94.72 C449.407162,92.5666559 449.888823,91.0083381 450.852162,90.045 C451.8155,89.0816618 453.373817,88.6 455.527162,88.6 L482.897162,88.6 C484.710504,88.6 486.212156,88.9966627 487.402162,89.79 C488.592167,90.5833373 489.697156,91.8866576 490.717162,93.7 L506.017162,121.41 C506.583831,122.430005 507.065493,123.166664 507.462162,123.62 C507.85883,124.073336 508.397158,124.3 509.077162,124.3 L510.607162,124.3 C511.287165,124.3 511.825493,124.073336 512.222162,123.62 C512.61883,123.166664 513.100492,122.430005 513.667162,121.41 L528.797162,93.7 C529.817167,91.8866576 530.922156,90.5833373 532.112162,89.79 C533.302167,88.9966627 534.803819,88.6 536.617162,88.6 L564.157162,88.6 C566.310506,88.6 567.868823,89.0816618 568.832162,90.045 C569.7955,91.0083381 570.277162,92.5666559 570.277162,94.72 L570.277162,204.88 C570.277162,207.033344 569.7955,208.591662 568.832162,209.555 C567.868823,210.518338 566.310506,211 564.157162,211 L537.977162,211 C535.823817,211 534.2655,210.518338 533.302162,209.555 C532.338823,208.591662 531.857162,207.033344 531.857162,204.88 L531.857162,145.04 L521.827162,163.57 C520.807156,165.496676 519.588835,166.884996 518.172162,167.735 C516.755488,168.585004 514.970506,169.01 512.817162,169.01 L506.017162,169.01 C503.863817,169.01 502.078835,168.585004 500.662162,167.735 C499.245488,166.884996 498.027167,165.496676 497.007162,163.57 L486.977162,145.04 L486.977162,204.88 C486.977162,207.033344 486.4955,208.591662 485.532162,209.555 C484.568823,210.518338 483.010506,211 480.857162,211 Z M611.678581,159.49 C611.678581,156.429985 611.933578,153.59668 612.443581,150.99 C612.953583,148.38332 613.605243,145.946678 614.398581,143.68 L625.278581,115.8 C626.41192,112.966653 627.658574,110.558343 629.018581,108.575 C630.378588,106.591657 632.758564,105.6 636.158581,105.6 L652.818581,105.6 C655.99193,105.6 658.258574,106.591657 659.618581,108.575 C660.978588,110.558343 662.281908,113.023319 663.528581,115.97 L675.258581,143.68 C676.051918,145.946678 676.703578,148.38332 677.213581,150.99 C677.723583,153.59668 677.978581,156.429985 677.978581,159.49 L677.978581,164.76 L611.678581,164.76 L611.678581,159.49 Z M638.878581,124.3 L630.888581,150.14 L657.578581,150.14 L649.588581,124.3 C649.135245,123.279995 648.653583,122.543336 648.143581,122.09 C647.633578,121.636664 647.038584,121.41 646.358581,121.41 L642.108581,121.41 C641.428577,121.41 640.833583,121.636664 640.323581,122.09 C639.813578,122.543336 639.331916,123.279995 638.878581,124.3 Z M677.978581,195.7 L679.678581,195.7 L679.678581,159.49 C679.678581,156.316651 679.423583,153.398347 678.913581,150.735 C678.403578,148.071653 677.695252,145.493346 676.788581,143 L665.058581,115.29 C663.698574,112.003317 662.253588,109.283344 660.723581,107.13 C659.193573,104.976656 656.558599,103.9 652.818581,103.9 L636.158581,103.9 C632.305228,103.9 629.585255,104.976656 627.998581,107.13 C626.411906,109.283344 624.995254,111.946651 623.748581,115.12 L612.868581,143 C611.96191,145.493346 611.253583,148.071653 610.743581,150.735 C610.233578,153.398347 609.978581,156.316651 609.978581,159.49 L609.978581,195.7 L611.678581,195.7 L611.678581,166.46 L677.978581,166.46 L677.978581,195.7 Z M629.188581,204.88 C629.188581,207.033344 628.706919,208.591662 627.743581,209.555 C626.780243,210.518338 625.221925,211 623.068581,211 L598.078581,211 C595.925237,211 594.366919,210.518338 593.403581,209.555 C592.440243,208.591662 591.958581,207.033344 591.958581,204.88 L591.958581,160 C591.958581,156.599983 592.496909,152.690022 593.573581,148.27 C594.650253,143.849978 596.321903,138.693363 598.588581,132.8 L613.378581,94.21 C614.058584,92.2833237 615.106907,90.8666712 616.523581,89.96 C617.940255,89.0533288 619.781903,88.6 622.048581,88.6 L667.778581,88.6 C669.931925,88.6 671.716907,89.0533288 673.133581,89.96 C674.550255,90.8666712 675.598577,92.2833237 676.278581,94.21 L691.068581,132.8 C693.335259,138.693363 695.006909,143.849978 696.083581,148.27 C697.160253,152.690022 697.698581,156.599983 697.698581,160 L697.698581,204.88 C697.698581,207.033344 697.216919,208.591662 696.253581,209.555 C695.290243,210.518338 693.731925,211 691.578581,211 L665.908581,211 C663.641903,211 661.970253,210.518338 660.893581,209.555 C659.816909,208.591662 659.278581,207.033344 659.278581,204.88 L659.278581,181.08 L629.188581,181.08 L629.188581,204.88 Z M776.5,105.6 C782.506697,105.6 786.954986,107.243317 789.845,110.53 C792.735014,113.816683 794.18,118.066641 794.18,123.28 L794.18,135.18 C794.18,141.413365 792.990012,146.229983 790.61,149.63 C788.229988,153.030017 783.526702,154.73 776.5,154.73 L739.44,154.73 L739.44,105.6 L776.5,105.6 Z M757.8,119.2 L757.8,140.96 L770.55,140.96 C773.496681,140.96 775.479995,140.195008 776.5,138.665 C777.520005,137.134992 778.03,135.236678 778.03,132.97 L778.03,127.19 C778.03,124.923322 777.520005,123.025008 776.5,121.495 C775.479995,119.964992 773.496681,119.2 770.55,119.2 L757.8,119.2 Z M739.44,195.7 L739.44,156.26 L787.55,156.26 C794.010032,156.26 798.769985,157.648319 801.83,160.425 C804.890015,163.201681 806.42,167.366639 806.42,172.92 L806.42,195.7 L808.12,195.7 L808.12,172.92 C808.12,167.026637 806.420017,162.521682 803.02,159.405 C799.619983,156.288318 794.463368,154.73 787.55,154.73 L785.68,154.73 C789.76002,153.483327 792.479993,151.18835 793.84,147.845 C795.200007,144.50165 795.88,140.223359 795.88,135.01 L795.88,123.28 C795.88,117.726639 794.293349,113.108352 791.12,109.425 C787.946651,105.741648 783.073366,103.9 776.5,103.9 L737.74,103.9 L737.74,195.7 L739.44,195.7 Z M751.68,211 L725.5,211 C723.346656,211 721.788338,210.518338 720.825,209.555 C719.861662,208.591662 719.38,207.033344 719.38,204.88 L719.38,94.72 C719.38,92.5666559 719.861662,91.0083381 720.825,90.045 C721.788338,89.0816618 723.346656,88.6 725.5,88.6 L782.11,88.6 C794.803397,88.6 803.558309,91.2349737 808.375,96.505 C813.191691,101.775026 815.6,108.603291 815.6,116.99 L815.6,124.81 C815.6,129.570024 814.891674,133.62165 813.475,136.965 C812.058326,140.30835 809.593351,142.716659 806.08,144.19 C812.200031,144.870003 817.158314,147.363312 820.955,151.67 C824.751686,155.976688 826.65,161.699964 826.65,168.84 L826.65,204.88 C826.65,207.033344 826.168338,208.591662 825.205,209.555 C824.241662,210.518338 822.683344,211 820.53,211 L794.18,211 C792.026656,211 790.468338,210.518338 789.505,209.555 C788.541662,208.591662 788.06,207.033344 788.06,204.88 L788.06,178.87 C788.06,176.376654 787.578338,174.535006 786.615,173.345 C785.651662,172.154994 783.980012,171.56 781.6,171.56 L757.8,171.56 L757.8,204.88 C757.8,207.033344 757.318338,208.591662 756.355,209.555 C755.391662,210.518338 753.833344,211 751.68,211 Z M866.691419,195.7 L866.691419,150.82 L912.421419,150.82 C918.654784,150.82 923.35807,151.953322 926.531419,154.22 C929.704768,156.486678 931.291419,160.339973 931.291419,165.78 L931.291419,195.7 L932.991419,195.7 L932.991419,165.78 C932.991419,159.886637 931.291436,155.63668 927.891419,153.03 C924.491402,150.42332 919.334787,149.12 912.421419,149.12 L905.451419,149.12 L925.001419,103.9 L923.131419,103.9 L903.581419,149.12 L866.691419,149.12 L866.691419,103.9 L864.991419,103.9 L864.991419,195.7 L866.691419,195.7 Z M878.931419,211 L852.581419,211 C850.428075,211 848.869757,210.518338 847.906419,209.555 C846.943081,208.591662 846.461419,207.033344 846.461419,204.88 L846.461419,94.72 C846.461419,92.5666559 846.943081,91.0083381 847.906419,90.045 C848.869757,89.0816618 850.428075,88.6 852.581419,88.6 L878.931419,88.6 C881.084763,88.6 882.643081,89.0816618 883.606419,90.045 C884.569757,91.0083381 885.051419,92.5666559 885.051419,94.72 L885.051419,133.82 L891.851419,133.82 L909.361419,94.21 C910.154757,92.1699898 911.231412,90.7250042 912.591419,89.875 C913.951426,89.0249958 915.708075,88.6 917.861419,88.6 L944.041419,88.6 C945.968096,88.6 947.271416,89.0816618 947.951419,90.045 C948.631423,91.0083381 948.574757,92.3966576 947.781419,94.21 L930.441419,133.82 C936.788118,134.160002 941.859734,136.398313 945.656419,140.535 C949.453105,144.671687 951.351419,150.139966 951.351419,156.94 L951.351419,204.88 C951.351419,207.033344 950.869757,208.591662 949.906419,209.555 C948.943081,210.518338 947.384763,211 945.231419,211 L919.051419,211 C916.898075,211 915.339757,210.518338 914.376419,209.555 C913.413081,208.591662 912.931419,207.033344 912.931419,204.88 L912.931419,171.73 C912.931419,169.916658 912.47809,168.500005 911.571419,167.48 C910.664748,166.459995 909.304762,165.95 907.491419,165.95 L885.051419,165.95 L885.051419,204.88 C885.051419,207.033344 884.569757,208.591662 883.606419,209.555 C882.643081,210.518338 881.084763,211 878.931419,211 Z" id="Mark" fill="#000000"></path>
        <g id="Group" transform="translate(212.000000, 118.000000)">
            <g id="Group-6" transform="translate(0.000000, 7.000000)">
                <mask id="mask-2" fill="white">
                    <use xlink:href="#path-1"></use>
                </mask>
                <g id="Clip-5"></g>
                <path d="M61.8732357,31.2373321 C61.8732357,31.5107318 61.812899,31.7155993 61.6899908,31.8526636 C61.5678276,31.9882699 61.3324398,32.1085657 60.9830827,32.211364 L53.6011439,36.8066654 C53.2175214,36.9430007 52.8517765,37.0450699 52.5016745,37.1143311 C52.1530622,37.1821342 51.80445,37.2164003 51.4550929,37.2164003 L46.928348,37.2164003 C47.7864704,36.5347238 48.3987765,35.7261899 48.7451541,34.7820498 C49.1123888,33.7846879 49.2963786,32.6743207 49.2963786,31.4509484 L49.2963786,17.8494979 C49.2963786,16.6268546 49.1123888,15.5164875 48.7451541,14.5191256 C48.4367663,13.6785128 47.9123582,12.9428854 47.1972561,12.3005785 L51.5072357,12.3005785 C51.8565929,12.3005785 52.2052051,12.3341155 52.5538173,12.4033768 C52.9031745,12.4711799 53.2696643,12.5739782 53.6540316,12.7103135 L60.9830827,17.3063439 C61.3324398,17.4084131 61.5678276,17.5279799 61.6899908,17.6650443 C61.812899,17.8006505 61.8732357,18.005518 61.8732357,18.2796467 L61.8732357,31.2373321 Z M40.0857153,30.015418 C40.0857153,30.547636 39.8816133,30.9923661 39.4741541,31.3517955 C39.06595,31.7104958 38.1288684,31.889846 36.6621643,31.889846 C35.1954602,31.889846 34.2576337,31.7104958 33.8501745,31.3517955 C33.4427153,30.9923661 33.2386133,30.547636 33.2386133,30.015418 L33.2386133,19.2857574 C33.2386133,18.7805148 33.4427153,18.3481789 33.8501745,17.9894785 C34.2576337,17.6307782 35.1954602,17.4506989 36.6621643,17.4506989 C38.1288684,17.4506989 39.06595,17.6307782 39.4741541,17.9894785 C39.8816133,18.3481789 40.0857153,18.7805148 40.0857153,19.2857574 L40.0857153,30.015418 Z M21.7157867,37.2164003 C21.3664296,37.2164003 21.0170724,37.1821342 20.6684602,37.1143311 C20.3191031,37.0450699 19.9533582,36.9430007 19.5697357,36.8066654 L12.1877969,32.211364 C11.8376949,32.1085657 11.6023071,31.9882699 11.4808888,31.8526636 C11.3579806,31.7155993 11.2976439,31.5107318 11.2976439,31.2373321 L11.2976439,18.2796467 C11.2976439,18.005518 11.3579806,17.8006505 11.4808888,17.6650443 C11.6023071,17.5279799 11.8376949,17.4084131 12.1877969,17.3063439 L19.516848,12.7103135 C19.9012153,12.5739782 20.2669602,12.4711799 20.6163173,12.4033768 C20.9649296,12.3341155 21.3142867,12.3005785 21.6636439,12.3005785 L26.0861031,12.3005785 C25.3717459,12.9428854 24.8465929,13.6785128 24.5382051,14.5191256 C24.1709704,15.5164875 23.9869806,16.6268546 23.9869806,17.8494979 L23.9869806,31.4509484 C23.9869806,32.6743207 24.1709704,33.7846879 24.5382051,34.7820498 C24.8845827,35.7261899 25.4968888,36.5347238 26.3557561,37.2164003 L21.7157867,37.2164003 Z M72.5014398,11.6159858 C72.2571133,11.1887533 71.8034704,10.8555702 71.1397663,10.6171657 L58.3133684,1.95003215 C57.5453786,1.6423664 56.8734806,1.38573526 56.2976745,1.18159685 C55.7218684,0.976729377 55.1721337,0.804669862 54.6484704,0.668334567 C54.1248071,0.531999273 53.5750724,0.438678858 52.9992663,0.387644256 C52.4234602,0.335880588 51.716552,0.310363287 50.8785418,0.310363287 L37.0577051,0.310363287 C36.8878684,0.310363287 36.7306949,0.320570208 36.5854398,0.339525917 C36.4394398,0.320570208 36.2830112,0.310363287 36.1131745,0.310363287 L22.2915929,0.310363287 C21.4543276,0.310363287 20.7474194,0.335880588 20.1716133,0.387644256 C19.5958071,0.438678858 19.0460724,0.531999273 18.5216643,0.668334567 C17.9987459,0.804669862 17.4490112,0.976729377 16.8732051,1.18159685 C16.297399,1.38573526 15.6247561,1.6423664 14.8575112,1.95003215 L2.03111327,10.6171657 C1.36740918,10.8555702 0.913766327,11.1887533 0.669439796,11.6159858 C0.425113265,12.0424892 0.30295,12.5805398 0.30295,13.2301373 L0.30295,36.0309394 C0.30295,36.6790789 0.425113265,37.2171294 0.669439796,37.6443619 C0.913766327,38.0715944 1.36740918,38.4047775 2.03111327,38.643911 L14.8575112,47.3110446 C15.6247561,47.6187103 16.297399,47.8746124 16.8732051,48.0794799 C17.4490112,48.2843474 17.9987459,48.4549488 18.5216643,48.5920131 C19.0460724,48.7283484 19.5958071,48.8223979 20.1716133,48.8734325 C20.7474194,48.9251962 21.4543276,48.9507135 22.2915929,48.9507135 L36.1131745,48.9507135 C36.2830112,48.9507135 36.4394398,48.9405065 36.5854398,48.9215508 C36.7306949,48.9405065 36.8878684,48.9507135 37.0577051,48.9507135 L50.8785418,48.9507135 C51.716552,48.9507135 52.4234602,48.9251962 52.9992663,48.8734325 C53.5750724,48.8223979 54.1248071,48.7283484 54.6484704,48.5920131 C55.1721337,48.4549488 55.7218684,48.2843474 56.2976745,48.0794799 C56.8734806,47.8746124 57.5453786,47.6187103 58.3133684,47.3110446 L71.1397663,38.643911 C71.8034704,38.4047775 72.2571133,38.0715944 72.5014398,37.6443619 C72.7457663,37.2171294 72.8679296,36.6790789 72.8679296,36.0309394 L72.8679296,13.2301373 C72.8679296,12.5805398 72.7457663,12.0424892 72.5014398,11.6159858 Z" id="Fill-4" fill="#AB671E" mask="url(#mask-2)"></path>
            </g>
            <g id="Page-1" transform="translate(902.000000, 0.000000)">
                <g id="Group-3">
                    <mask id="mask-4" fill="white">
                        <use xlink:href="#path-3"></use>
                    </mask>
                    <g id="Clip-2"></g>
                    <path d="M59.3445916,26.1930615 L36.9138583,49.2884278 L14.4831249,26.1930615 C13.9439793,25.6410192 13.6757443,25.1006205 13.6750754,24.5725503 C13.6757443,24.0437952 13.9560197,23.4917529 14.5172396,22.9171084 L22.701417,14.5371616 C23.2626369,13.9618322 23.8078028,13.6693731 24.334908,13.6577295 C24.862682,13.6460859 25.3951385,13.9159428 25.9342842,14.4679851 L36.9138583,25.6444438 L47.8934323,14.4679851 C48.432578,13.9159428 48.9650345,13.6460859 49.4928085,13.6577295 C50.0205826,13.6693731 50.5650796,13.9618322 51.1262995,14.5371616 L59.3104769,22.9171084 C59.8716968,23.4917529 60.1519722,24.0437952 60.1526411,24.5725503 C60.1519722,25.1006205 59.8837372,25.6410192 59.3445916,26.1930615 L53.8834951,65.4712644 M59.124635,3.6521931 C56.6158194,1.08410115 54.0294117,-0.0701057471 51.3646932,0.189572414 C48.6992563,0.448514943 45.8606738,2.12134253 42.8460718,5.20805517 L36.9138583,11.2821701 L30.9816447,5.20805517 C27.9670427,2.12134253 25.1284602,0.448514943 22.4630233,0.189572414 C19.7983049,-0.0701057471 17.2118971,1.08410115 14.7030816,3.6521931 L3.41700388,15.2089747 C0.908906796,17.7770667 -0.218335922,20.4253425 0.0345572816,23.1545379 C0.288887379,25.8822621 1.9219165,28.7902161 4.93651845,31.8761931 L35.6127515,63.2965149 C36.068965,63.7658483 36.5029068,64.0005149 36.9138583,63.9997793 C37.3248097,64.0005149 37.7587515,63.7658483 38.2171204,63.2965149 L68.8919165,31.8761931 C71.9058,28.7902161 73.5395476,25.8822621 73.7931592,23.1545379 C74.0460524,20.4253425 72.9188097,17.7770667 70.4114311,15.2089747 L59.124635,3.6521931 Z" id="Fill-1" fill="#6A0100" mask="url(#mask-4)"></path>
                </g>
            </g>
        </g>
    </g>
</svg>