<?xml version="1.0" encoding="UTF-8"?>
<svg width="113px" height="63px" viewBox="0 0 113 63" version="1.1" xmlns="http://www.w3.org/2000/svg" xmlns:xlink="http://www.w3.org/1999/xlink">
    <!-- Generator: Sketch 49.2 (51160) - http://www.bohemiancoding.com/sketch -->
    <title>samia1</title>
    <desc>Created with Sketch.</desc>
    <defs></defs>
    <g id="samia1" stroke="none" stroke-width="1" fill="none" fill-rule="evenodd">
        <path d="M33.1292201,37.9780439 L33.13,37.976 C36.4900168,37.6399983 39.1779899,36.9440053 41.194,35.888 L42.778,30.632 L45.082,30.848 L43.786,36.824 L49.5972167,36.2500527 L49.598,36.248 L51.614,36.032 C52.5740048,35.9359995 53.2939976,35.8400005 53.774,35.744 C53.4859986,35.1679971 53.342,34.6400024 53.342,34.16 C53.342,33.1039947 53.737996,31.5560102 54.53,29.516 C55.322004,27.4759898 56.1259959,26.1680029 56.942,25.592 C57.6620036,25.0639974 58.5619946,24.6440016 59.642,24.332 C60.7220054,24.0199984 61.861994,23.864 63.062,23.864 C64.7420084,23.864 66.2059938,24.1879968 67.454,24.836 C68.7020062,25.4840032 69.326,26.2639954 69.326,27.176 C69.326,29.5280118 68.9420038,31.8439886 68.174,34.124 C67.4059962,36.4040114 66.3860064,38.3959915 65.114,40.1 C63.8419936,41.8040085 62.510007,43.0399962 61.118,43.808 C57.0907408,45.3901376 51.8663861,46.5173322 45.4447794,47.1896176 L45.442,47.192 L37.522,47.984 L38.386,45.032 C36.7566507,47.1405697 33.6202635,48.4357726 28.9767446,48.9176475 L28.974,48.92 L19.974,49.928 L20.118,48.056 C20.6940029,40.2799611 21.0059998,35.3840101 21.054,33.368 C19.0379899,36.5360158 17.2620077,38.5999952 15.726,39.56 C14.8619957,40.0880026 13.8420059,40.5079984 12.666,40.82 C11.4899941,41.1320016 10.3500055,41.288 9.246,41.288 C6.70198728,41.288 4.66200768,40.4960079 3.126,38.912 C1.58999232,37.3279921 0.821999999,35.5040103 0.821999999,33.44 C0.821999999,30.847987 1.721991,28.0040155 3.522,24.908 C5.322009,21.8119845 7.51798704,19.1840108 10.11,17.024 C12.702013,14.8639892 15.0779892,13.784 17.238,13.784 C21.0780192,13.784 24.0419896,15.1999858 26.13,18.032 C28.2180104,20.8640142 29.262,24.8479743 29.262,29.984 C29.2139998,30.992005 29.1420005,32.3359916 29.046,34.016 C28.9499995,35.6960084 28.8540005,37.1599938 28.758,38.408 L33.1292201,37.9780439 Z M83.2766456,49.4937324 L83.274,49.496 L76.362,50.216 C76.3139998,45.5119765 76.086002,39.764034 75.678,32.972 C75.269998,26.179966 74.8260024,20.1440264 74.346,14.864 C75.6900067,13.2319918 77.2019916,11.6720074 78.882,10.184 C80.5620084,8.69599256 82.0739933,7.5920036 83.418,6.872 C83.6580012,7.8320048 83.778,9.34398968 83.778,11.408 C83.8260002,15.1040185 83.5860026,20.0599689 83.058,26.276 C82.5299974,32.4920311 82.0500022,36.799988 81.618,39.2 L87.4291145,38.5543206 L87.43,38.552 C95.1580386,37.7359959 103.437956,36.224011 112.27,34.016 L113.278,35.456 L109.246,47.264 L107.158,46.976 L107.878,43.376 C104.373982,44.8160072 100.474021,46.0879945 96.178,47.192 C91.8894851,48.2940764 87.5890765,49.0613129 83.2766456,49.4937324 Z M31.402,55.904 L44.434,52.376 L42.994,59.792 L30.178,62.6 L31.402,55.904 Z M10.686,3.92 L23.718,0.392 L22.278,7.808 L9.462,10.616 L10.686,3.92 Z M15.222,31.28 C17.2860103,31.28 19.0859923,30.776005 20.622,29.768 C20.0459971,27.9439909 18.9420082,26.6480038 17.31,25.88 C15.6779918,25.1119962 13.4940137,24.728 10.758,24.728 C9.22199232,24.728 7.854006,24.9439978 6.654,25.376 C6.99000168,27.1040086 7.9979916,28.5199945 9.678,29.624 C11.3580084,30.7280055 13.2059899,31.28 15.222,31.28 Z" id="سامية" fill="#000000"></path>
    </g>
</svg>