<?xml version="1.0" encoding="UTF-8"?>
<svg width="200px" height="248px" viewBox="0 0 200 248" version="1.1" xmlns="http://www.w3.org/2000/svg" xmlns:xlink="http://www.w3.org/1999/xlink">
    <!-- Generator: Sketch 49.2 (51160) - http://www.bohemiancoding.com/sketch -->
    <title>preview/screen</title>
    <desc>Created with Sketch.</desc>
    <defs>
        <polygon id="path-1" points="0 0.0566947827 15.9885124 0.0566947827 15.9885124 22.1564885 0 22.1564885"></polygon>
        <polygon id="path-3" points="0 0 75 0 75 72 0 72"></polygon>
    </defs>
    <g id="preview/screen" stroke="none" stroke-width="1" fill="none" fill-rule="evenodd">
        <g id="Page-1" transform="translate(72.000000, -7.000000)">
            <path d="M123.97546,99.5686832 C120.978986,97.2783206 118.400745,95.3012405 115.814222,93.3344656 C115.049186,92.7532443 114.411485,92.9619275 113.73962,93.5972519 C111.995775,95.2455916 110.212073,96.8527099 108.420089,98.4490076 C105.445354,101.098511 102.427658,103.700611 99.4741458,106.372786 C97.3239724,108.31895 95.2576526,110.331584 92.837284,111.989198 C91.091368,113.185649 89.6601621,114.83708 88.0886824,116.285496 C88.1647718,116.421527 88.2408612,116.557557 88.3169507,116.693588 C89.2905848,116.347328 90.3061458,116.086603 91.2300889,115.638836 C93.9620618,114.314084 96.6541783,112.90792 99.3690699,111.54813 C101.085999,110.688664 102.824151,109.87145 104.537975,109.006832 C107.900921,107.311603 111.231775,105.551966 114.616978,103.902595 C117.612417,102.442844 120.664276,101.09645 123.97546,99.5686832 M119.908558,6.13167939 C119.845409,5.89877863 119.78226,5.66587786 119.719111,5.4329771 C119.150251,5.3639313 118.560688,5.16967557 118.016674,5.25727099 C117.324105,5.3685687 116.655346,5.67824428 115.998493,5.95494275 C113.249956,7.11274809 110.512807,8.2994084 107.761165,9.45051527 C107.373989,9.61230916 106.921593,9.61179389 106.510089,9.72360687 C104.660132,10.2259924 102.720111,10.5305153 100.985064,11.2951718 C96.9171268,13.0883015 92.6255794,14.136355 88.3526661,15.1756489 C83.7857474,16.2870802 79.1986417,17.2918511 74.7621621,18.8629008 C74.1451648,19.081374 73.5721648,19.4214504 72.9313572,19.7275191 C75.7839344,21.1527481 78.3958206,22.4213359 80.9735442,23.7543321 C84.2583301,25.4531679 87.5777962,27.0999618 90.7518125,28.9868702 C91.9035062,29.6716603 92.7089154,29.6288931 93.655116,28.9575 C94.2943707,28.5040649 94.8653003,27.9563359 95.5019669,27.4992939 C97.3938504,26.1405344 99.3757989,24.8951336 101.179688,23.4312595 C102.379002,22.4584351 103.246525,21.0878244 104.414265,20.0681107 C107.354837,17.5010496 110.440859,15.0978435 113.355032,12.5024427 C115.62788,10.4774427 117.730433,8.26230916 119.908558,6.13167939 M141.599222,67.0929389 C141.011211,69.9598855 139.774628,71.6314122 137.549401,73.3055153 C134.489777,75.607729 131.428601,77.9187023 128.506146,80.3873473 C125.204796,83.1759733 122.053555,86.1403053 118.85107,89.0433206 C118.724772,89.1577099 118.738747,89.4256489 118.658517,89.730687 C119.668384,90.4850382 120.720696,91.2038359 121.696401,92.0138359 C123.82794,93.7837786 126.769029,94.2485496 128.680582,96.3951527 C129.261346,97.0474809 130.090048,96.823855 130.863883,96.4456489 C132.461761,95.6639886 134.035829,94.746813 135.72843,94.2614313 C138.96456,93.3329198 141.68204,91.8376145 143.813579,89.136584 C145.861783,86.5416985 148.909501,84.9000573 150.923541,82.2242748 C151.131623,81.9475763 151.467555,81.7687786 151.731021,81.5296947 C152.403403,80.9201336 153.079926,80.3136641 153.735227,79.6860687 C155.56862,77.9295229 157.371991,76.1420611 159.225571,74.4076718 C160.820344,72.9149427 162.518121,71.5299046 164.081319,70.0072901 C167.425113,66.7492557 170.713005,63.434542 174.018495,60.1378626 C174.229682,59.9276336 174.39946,59.6766985 174.699677,59.3082824 C174.257634,59.2706679 174.038165,59.1938931 173.855964,59.2459351 C171.326896,59.9714313 168.79317,60.6819847 166.281184,61.4626145 C163.771268,62.2422137 161.288785,63.1104389 158.785598,63.9132252 C156.364712,64.6892176 153.795788,64.7592939 151.459791,66.1232061 C149.755284,67.1176718 147.531092,67.2258779 145.541896,67.7416603 C144.211108,68.086374 142.88446,68.4723092 141.599222,67.0929389 M88.6130266,33.0883969 C87.0498287,31.553416 85.5275225,30.6820992 83.907387,29.9395992 C83.008807,29.5273855 82.1666472,28.9951145 81.2701377,28.5777481 C79.2286634,27.6270802 77.5013816,26.0534542 75.1436444,25.7071947 C74.0333599,25.543855 72.8863247,25.1733779 71.92149,24.6137977 C70.9426797,24.0459733 70.1683274,23.1287977 69.1745062,22.2497519 C68.9400266,22.3785687 68.4798667,22.5702481 68.0901024,22.8562214 C66.841097,23.7728817 65.6329832,24.7451908 64.3808721,25.6572137 C62.8342379,26.7841031 61.2601702,27.8733779 59.6964547,28.9765649 C58.2103816,30.0251336 57.3392352,31.7765267 55.5596743,32.5056298 C54.9276661,32.7648092 54.2977285,33.1280725 53.7940889,33.5835687 C51.4399751,35.7121374 49.1536688,37.9149046 46.7974846,40.0419275 C44.7943138,41.8510305 42.6669154,43.5266794 40.7041187,45.3770038 C36.6222054,49.2260496 32.5925713,53.1307443 28.5815713,57.052958 C25.9862488,59.5906489 23.4509696,62.1901718 20.9167257,64.7881489 C20.5595713,65.1545038 20.3577014,65.6702863 20.0838829,66.1170229 C22.4587014,65.4966412 24.6223328,64.6753053 26.7300618,63.7292748 C29.8471404,62.3298092 32.9176336,60.8272901 36.0222894,59.4005153 C36.9891946,58.956355 38.0078612,58.6270992 38.9949534,58.2251908 C42.2171079,56.9133206 45.388536,55.4623282 48.666593,54.3091603 C52.6889805,52.8932061 56.8040211,51.7379771 60.8683355,50.4369275 C61.9403165,50.0932443 62.9346553,49.9587595 63.9315821,50.6435496 C64.841032,51.2680534 65.4968504,50.977958 66.003078,50.0298664 C66.7261864,48.6762595 67.8442352,47.730229 69.1781295,46.9506298 C70.7692786,46.0200573 72.2843382,44.9555153 73.7983626,43.9007634 C75.593452,42.6502099 77.359555,41.3579198 79.1246228,40.066145 C82.2127149,37.8061832 85.2904547,35.5333397 88.6130266,33.0883969 M69.3530835,52.5665267 C69.9198721,53.3868321 70.1911024,53.9855725 70.6388396,54.3905725 C72.2522461,55.8472328 73.9132732,57.2533969 75.5810293,58.6487405 C76.3429588,59.286126 77.215658,59.797271 77.9480835,60.4635115 C80.9932136,63.2346183 84.3188911,65.6424618 87.6776959,68.0080534 C92.2715306,71.243416 96.8741648,74.4664122 101.475764,77.6909542 C105.375476,80.4229008 109.296411,83.1265076 113.170243,85.8945229 C114.087457,86.5499427 114.856116,86.5514886 115.672395,85.8579389 C117.401747,84.3889122 119.23514,83.0198473 120.822666,81.4106679 C124.025151,78.165 127.3441,75.0708206 131.02952,72.3692748 C132.459691,71.3212214 133.841723,70.1989695 135.168888,69.0246756 C136.394083,67.9400382 136.35578,67.5278244 135.209262,66.4462786 C134.796205,66.0562214 134.372796,65.6759542 133.940588,65.3070229 C129.724612,61.7135496 125.503978,58.1257443 121.29059,54.5296947 C120.697921,54.0237023 120.183929,53.4131107 119.550886,52.9689504 C114.836964,49.6604198 110.119937,46.3565267 105.36823,43.1020992 C102.022365,40.8101908 98.6428558,38.5646565 95.2359127,36.3634351 C93.0055089,34.9232634 93.0256959,35.0386832 91.0458179,36.7179389 C89.7574737,37.8097901 88.2812352,38.6826527 86.8929913,39.6580534 C86.4887339,39.9419656 86.082406,40.2258779 85.7019588,40.5391603 C83.7888531,42.1148473 81.9616715,43.8069847 79.9579832,45.2584924 C76.568639,47.7132252 73.070078,50.0175 69.3530835,52.5665267 M22.6491837,93.7982061 C22.2868531,93.3411641 22.0000943,92.789313 21.5523572,92.4445992 C18.5688233,90.1454771 15.5718314,87.861813 12.536536,85.6307061 C10.1306607,83.8623092 7.71495068,82.0959733 5.20037615,80.4893702 C4.14547642,79.8148855 2.79605366,79.6139313 1.62934905,79.0909351 C-0.198350136,78.271145 -0.562233604,76.5228435 0.915040108,75.3779198 C1.86227588,74.6441794 3.09368238,74.714771 4.1889561,75.1687214 C5.76923523,75.823626 7.40386396,76.425458 8.8412813,77.3256298 C11.2471566,78.8327863 13.5163816,80.556355 15.8409913,82.1923282 C16.0154276,82.3149618 16.14949,82.5128244 16.3379019,82.5947519 C19.1019669,83.790687 20.978322,86.1794656 23.4250889,87.8144084 C25.8506336,89.4349237 28.1131295,91.3001908 30.4191051,93.0933206 C32.1029073,94.4031298 33.7235604,95.7938359 35.4052921,97.1057061 C37.0326743,98.3748092 38.7257935,99.5609542 40.3495523,100.834695 C44.2119967,103.86292 48.0511485,106.920515 51.8985821,109.96729 C55.4106011,112.748187 58.946948,115.499714 62.4232515,118.324408 C64.3544737,119.893397 66.2101241,121.55771 68.0523165,123.230267 C69.4685117,124.515859 69.7563057,124.640038 71.3365848,123.501813 C72.8868423,122.384714 74.3522108,121.147557 75.8149913,119.915553 C79.7209154,116.625573 83.4420509,113.124847 87.5731377,110.090954 C89.5695794,108.625019 91.3041079,106.809733 93.1897799,105.189733 C96.2090293,102.595878 99.2583003,100.036546 102.287902,97.4550573 C103.096417,96.766145 103.878016,96.0468321 104.675143,95.3450382 C106.479032,93.7580153 108.287062,92.1745992 110.087845,90.5839695 C110.291785,90.403626 110.462081,90.1851527 110.790766,89.8301336 C108.908718,88.4332443 107.125533,87.0657252 105.296799,85.7610687 C101.598438,83.1223855 97.8954195,80.4898855 94.1561675,77.9094275 C91.6421106,76.1740076 89.0504114,74.550916 86.5192732,72.8397137 C85.4581621,72.1224618 84.4524358,71.3212214 83.4399805,70.5349237 C78.1126851,66.3962977 72.8262813,62.204084 67.4415306,58.140687 C66.1164358,57.1405534 64.8337854,55.8322901 62.9574304,55.8333206 C62.1887718,55.8338359 61.3869859,55.8322901 60.6576661,56.0363359 C56.3997637,57.2291794 52.1221919,58.372042 47.925368,59.7545038 C45.168032,60.6624046 42.5297474,61.9315076 39.849536,63.0656107 C37.5632298,64.0327672 35.289864,65.0292939 33.0180509,66.0309733 C32.3084005,66.3437405 31.6241133,66.7142176 30.9279209,67.0579008 C29.3372894,67.8436832 27.7715035,68.6851145 26.1503328,69.4013359 C23.4928965,70.5756298 20.8126851,71.7030344 18.1148748,72.7825191 C16.5713463,73.4003244 15.0097014,73.222042 13.5955767,72.3713359 C12.4019561,71.654084 12.0805171,70.7760687 12.8367528,69.6867939 C13.6990997,68.4439695 13.8197041,67.0702672 14.1297556,65.6996565 C14.2803816,65.0354771 14.500368,64.2770038 14.9501756,63.8096565 C16.5770401,62.1175191 18.3188152,60.5346183 20.009864,58.9022519 C21.9001946,57.0771756 23.7724087,55.2335496 25.6694683,53.4151718 C28.2917068,50.9022137 30.8637366,48.3330916 33.5765577,45.9200954 C37.0306038,42.8480725 40.6021485,39.9064122 44.125555,36.9111641 C47.208471,34.29 50.2815523,31.6564695 53.3872434,29.0620992 C54.4245442,28.1954198 55.5565686,27.441584 56.6326905,26.6202481 C58.4898938,25.2027481 60.3527908,23.7914313 62.1825604,22.3388931 C62.9998748,21.6896565 63.5977203,21.0131107 63.892761,19.8202672 C64.3249696,18.0714504 65.8317474,16.8641794 67.5409127,16.1819656 C71.5099859,14.5980344 75.5152921,13.183626 79.8554954,12.8523092 C81.8881702,12.6972137 83.9079046,12.1366031 85.8893355,11.5976336 C89.7838721,10.5382443 93.6809967,9.46648855 97.5149724,8.21232824 C101.702997,6.84171756 105.807685,5.22171756 109.977593,3.79494275 C110.991601,3.44765267 111.483853,3.02461832 111.575471,1.89360687 C111.668124,0.754351146 112.640723,0.0566793898 113.822438,0.0185496188 C115.031588,-0.0206106865 116.243842,0.00824427532 117.453509,0.0499809165 C117.796688,0.0618320616 118.170924,0.159217558 118.470105,0.325133588 C120.653406,1.53858779 122.945406,1.96316794 125.446005,1.62515267 C127.321842,1.37215649 127.843598,1.99975191 128.636585,3.68055344 C129.254617,4.99139313 130.231875,6.16826336 131.20085,7.27351145 C132.696241,8.97853053 134.296707,10.5954389 135.899761,12.2030725 C136.945861,13.2526718 138.223336,14.1028626 139.138479,15.247271 C141.700157,18.4517176 144.979766,20.7879389 148.234013,23.1932061 C152.350607,26.236374 156.35643,29.4274237 160.462154,32.4855344 C163.994878,35.1170038 167.604208,37.6474809 171.171612,40.2336069 C171.798444,40.6880725 172.344528,41.2610496 172.996205,41.6712023 C174.976083,42.9171183 177.087436,43.8832443 179.366495,44.4696183 C179.845807,44.5927672 180.328224,44.7633206 180.760433,44.9998282 C181.986663,45.6717366 182.383157,46.5662405 181.97217,47.5947137 C181.513046,48.7453053 180.439512,49.4558588 179.271772,49.1992557 C175.218327,48.3073282 171.373999,47.0418321 168.171514,44.1563359 C165.903325,42.1127863 163.300238,40.4391985 160.870552,38.5703244 C156.63646,35.3128053 152.421002,32.0320992 148.197262,28.7616985 C146.004127,27.0633779 143.749395,25.4371947 141.632867,23.6487023 C139.416438,21.7762214 137.33252,19.748645 135.191146,17.7880534 C131.846317,14.7263359 128.501487,11.6641031 125.206349,8.64772901 C123.554639,9.12435115 122.738878,10.2826718 121.829428,11.2158206 C118.498056,14.6310115 115.221035,18.0874237 110.869962,20.2773092 C110.575956,20.4251908 110.367357,20.7472328 110.130289,20.9981679 C109.407181,21.7633397 108.757056,22.6130153 107.957341,23.2880153 C104.647192,26.0823092 101.288905,28.8204389 97.9596038,31.5925763 C97.7049371,31.8043511 97.5361946,32.1171183 97.1547122,32.6030153 C112.855533,42.3755725 127.371016,53.496584 141.250867,65.5373473 C142.181539,63.4340267 144.542382,63.0022328 146.639758,62.3138359 C149.718533,61.3028817 152.87081,60.503187 156.011699,59.691126 C161.115902,58.3710115 166.043081,56.5103817 171.057737,54.9176908 C173.889609,54.0180344 176.768067,53.2641985 179.610292,52.395458 C180.695214,52.0641412 181.723197,51.5499046 182.803978,51.2026145 C183.884758,50.8553244 184.985208,50.520916 186.103257,50.3462405 C187.765837,50.0865458 188.797962,50.6708588 189.224994,51.9224427 C189.498295,52.7226527 188.745165,54.4740458 187.735298,54.9934351 C184.139425,56.8447901 181.473707,59.7792366 178.628894,62.5240649 C176.688872,64.3960305 174.567685,66.0814695 172.609029,67.9348855 C169.569593,70.8105916 166.618151,73.7780153 163.594243,76.6702099 C161.235471,78.9265649 158.784563,81.0875954 156.444425,83.3625 C152.973298,86.7364695 149.560661,90.1702099 146.135083,93.5905534 C145.836937,93.8883779 145.501522,94.2439122 145.402658,94.6288168 C144.943016,96.4142176 143.387064,97.028416 142.085262,97.986813 C140.489455,99.1616221 139.07533,100.579122 137.555612,101.860592 C136.636845,102.636069 135.724289,103.444008 134.70614,104.072118 C133.473699,104.832653 133.160024,104.712595 132.147051,103.637748 C131.662563,103.122996 131.188945,102.598454 130.728268,102.097615 C129.33433,102.778798 128.037704,103.500687 126.673788,104.061813 C122.717138,105.688511 118.695268,107.163721 114.772262,108.866164 C111.643279,110.223893 108.60643,111.798034 105.555089,113.329924 C101.677116,115.276603 97.8053545,117.23771 93.969826,119.265802 C90.468677,121.117672 87.0027257,123.037042 83.5554087,124.986813 C81.5781187,126.104943 79.6805415,127.362195 77.7239561,128.517424 C76.6328233,129.161508 75.8051566,129.973053 75.4645659,131.227729 C75.3532786,131.635821 75.1814304,132.041851 74.9629967,132.404599 C74.2890618,133.52479 73.5374846,133.797882 72.2449995,133.471718 C71.2128748,133.211508 70.1885144,132.847214 69.1393084,132.741069 C66.1537041,132.439122 64.9145333,130.72792 65.7313301,127.654866 C63.6437881,125.956031 61.5003436,124.211851 59.3553463,122.468702 C59.0794575,122.244561 58.7575008,122.064218 58.5209507,121.805553 C55.9276986,118.974676 52.6139263,116.983168 49.8136282,114.423836 C47.6018585,112.401927 44.9340699,111.04729 42.7792379,108.959943 C41.0581675,107.293569 38.9556146,106.019313 37.0373328,104.551832 C36.5870076,104.207634 36.191032,103.791813 35.7790103,103.399695 C35.5745523,103.204408 35.4140916,102.957595 35.1920347,102.787042 C34.1029724,101.949218 32.3063301,102.55105 31.6370537,100.54666 C31.258677,99.4130725 29.5634873,98.7210687 28.4723545,97.8162595 C27.3222136,96.8630153 26.2336688,95.8278435 25.025555,94.9549809 C24.3029642,94.4335305 23.4033491,94.154771 22.6491837,93.7982061" id="Fill-1" fill="#0000FF" style="mix-blend-mode: screen;"></path>
            <path d="M125.458997,99.5686832 C122.462523,97.2783206 119.884282,95.3012405 117.297759,93.3344656 C116.532723,92.7532443 115.895021,92.9619275 115.223157,93.5972519 C113.479311,95.2455916 111.695609,96.8527099 109.903626,98.4490076 C106.928891,101.098511 103.911195,103.700611 100.957683,106.372786 C98.8075092,108.31895 96.7411894,110.331584 94.3208209,111.989198 C92.5749049,113.185649 91.1436989,114.83708 89.5722192,116.285496 C89.6483087,116.421527 89.7243981,116.557557 89.8004875,116.693588 C90.7741217,116.347328 91.7896827,116.086603 92.7136257,115.638836 C95.4455986,114.314084 98.1377152,112.90792 100.852607,111.54813 C102.569536,110.688664 104.307688,109.87145 106.021512,109.006832 C109.384458,107.311603 112.715311,105.551966 116.100515,103.902595 C119.095954,102.442844 122.147813,101.09645 125.458997,99.5686832 M121.392095,6.13167939 C121.328946,5.89877863 121.265796,5.66587786 121.202647,5.4329771 C120.633788,5.3639313 120.044225,5.16967557 119.500211,5.25727099 C118.807642,5.3685687 118.138883,5.67824428 117.48203,5.95494275 C114.733493,7.11274809 111.996344,8.2994084 109.244702,9.45051527 C108.857525,9.61230916 108.40513,9.61179389 107.993626,9.72360687 C106.143669,10.2259924 104.203647,10.5305153 102.468601,11.2951718 C98.4006637,13.0883015 94.1091163,14.136355 89.836203,15.1756489 C85.2692843,16.2870802 80.6821786,17.2918511 76.2456989,18.8629008 C75.6287016,19.081374 75.0557016,19.4214504 74.414894,19.7275191 C77.2674713,21.1527481 79.8793575,22.4213359 82.457081,23.7543321 C85.7418669,25.4531679 89.0618507,27.0999618 92.2353493,28.9868702 C93.3870431,29.6716603 94.1924523,29.6288931 95.1386528,28.9575 C95.7779076,28.5040649 96.3488371,27.9563359 96.9855038,27.4992939 C98.8773873,26.1405344 100.859336,24.8951336 102.663225,23.4312595 C103.862539,22.4584351 104.730062,21.0878244 105.897802,20.0681107 C108.838374,17.5010496 111.924395,15.0978435 114.838569,12.5024427 C117.111417,10.4774427 119.21397,8.26230916 121.392095,6.13167939 M143.082759,67.0929389 C142.494748,69.9598855 141.258165,71.6314122 139.032937,73.3055153 C135.973314,75.607729 132.912138,77.9187023 129.989683,80.3873473 C126.688333,83.1759733 123.537092,86.1403053 120.334607,89.0433206 C120.208309,89.1577099 120.222284,89.4256489 120.142054,89.730687 C121.151921,90.4850382 122.204233,91.2038359 123.179937,92.0138359 C125.311477,93.7837786 128.252566,94.2485496 130.164119,96.3951527 C130.744883,97.0474809 131.573585,96.823855 132.34742,96.4456489 C133.945298,95.6639886 135.519366,94.746813 137.211967,94.2614313 C140.448097,93.3329198 143.165577,91.8376145 145.297116,89.136584 C147.34532,86.5416985 150.393038,84.9000573 152.407078,82.2242748 C152.61516,81.9475763 152.951092,81.7687786 153.214558,81.5296947 C153.88694,80.9201336 154.563463,80.3136641 155.218764,79.6860687 C157.052157,77.9295229 158.855528,76.1420611 160.709108,74.4076718 C162.30388,72.9149427 164.001658,71.5299046 165.564856,70.0072901 C168.90865,66.7492557 172.196542,63.434542 175.502032,60.1378626 C175.713219,59.9276336 175.882997,59.6766985 176.183214,59.3082824 C175.74117,59.2706679 175.521702,59.1938931 175.339501,59.2459351 C172.810433,59.9714313 170.276707,60.6819847 167.764721,61.4626145 C165.254805,62.2422137 162.772322,63.1104389 160.269135,63.9132252 C157.848249,64.6892176 155.279325,64.7592939 152.943328,66.1232061 C151.238821,67.1176718 149.014628,67.2258779 147.025433,67.7416603 C145.694645,68.086374 144.367997,68.4723092 143.082759,67.0929389 M90.0965634,33.0883969 C88.5333656,31.553416 87.0110593,30.6820992 85.3909238,29.9395992 C84.4923439,29.5273855 83.650184,28.9951145 82.7536745,28.5777481 C80.7122003,27.6270802 78.9849184,26.0534542 76.6271813,25.7071947 C75.5168967,25.543855 74.3698615,25.1733779 73.4050268,24.6137977 C72.4262165,24.0459733 71.6518642,23.1287977 70.6580431,22.2497519 C70.4235634,22.3785687 69.9634035,22.5702481 69.5736393,22.8562214 C68.3246339,23.7728817 67.1165201,24.7451908 65.8644089,25.6572137 C64.3177748,26.7841031 62.743707,27.8733779 61.1799916,28.9765649 C59.6939184,30.0251336 58.8227721,31.7765267 57.0432111,32.5056298 C56.411203,32.7648092 55.7812653,33.1280725 55.2776257,33.5835687 C52.9235119,35.7121374 50.6372057,37.9149046 48.2810214,40.0419275 C46.2778507,41.8510305 44.1504523,43.5266794 42.1876556,45.3770038 C38.1057423,49.2260496 34.0761081,53.1307443 30.0651081,57.052958 C27.4697856,59.5906489 24.9345065,62.1901718 22.4002626,64.7881489 C22.0431081,65.1545038 21.8412382,65.6702863 21.5674198,66.1170229 C23.9422382,65.4966412 26.1058696,64.6753053 28.2135986,63.7292748 C31.3306772,62.3298092 34.4011705,60.8272901 37.5058263,59.4005153 C38.4727314,58.956355 39.4913981,58.6270992 40.4784902,58.2251908 C43.7006447,56.9133206 46.8720729,55.4623282 50.1501298,54.3091603 C54.1725173,52.8932061 58.287558,51.7379771 62.3518724,50.4369275 C63.4238534,50.0932443 64.4181921,49.9587595 65.415119,50.6435496 C66.3245688,51.2680534 66.9803873,50.977958 67.4866149,50.0298664 C68.2097233,48.6762595 69.3277721,47.730229 70.6616664,46.9506298 C72.2528154,46.0200573 73.7678751,44.9555153 75.2818995,43.9007634 C77.0769889,42.6502099 78.8430919,41.3579198 80.6081596,40.066145 C83.6962518,37.8061832 86.7739916,35.5333397 90.0965634,33.0883969 M70.8366203,52.5665267 C71.4034089,53.3868321 71.6746393,53.9855725 72.1223764,54.3905725 C73.7357829,55.8472328 75.39681,57.2533969 77.0645661,58.6487405 C77.8264957,59.286126 78.6991949,59.797271 79.4316203,60.4635115 C82.4767504,63.2346183 85.8024279,65.6424618 89.1612328,68.0080534 C93.7550675,71.243416 98.3577016,74.4664122 102.959301,77.6909542 C106.859013,80.4229008 110.779948,83.1265076 114.65378,85.8945229 C115.570994,86.5499427 116.339653,86.5514886 117.155932,85.8579389 C118.885284,84.3889122 120.718677,83.0198473 122.306203,81.4106679 C125.508688,78.165 128.827637,75.0708206 132.513057,72.3692748 C133.943227,71.3212214 135.32526,70.1989695 136.652425,69.0246756 C137.87762,67.9400382 137.839317,67.5278244 136.692799,66.4462786 C136.279742,66.0562214 135.856333,65.6759542 135.424124,65.3070229 C131.208149,61.7135496 126.987515,58.1257443 122.774127,54.5296947 C122.181458,54.0237023 121.667466,53.4131107 121.034422,52.9689504 C116.320501,49.6604198 111.603474,46.3565267 106.851767,43.1020992 C103.505902,40.8101908 100.126393,38.5646565 96.7194496,36.3634351 C94.4890458,34.9232634 94.5092328,35.0386832 92.5293547,36.7179389 C91.2410106,37.8097901 89.7647721,38.6826527 88.3765282,39.6580534 C87.9722707,39.9419656 87.5659428,40.2258779 87.1854957,40.5391603 C85.27239,42.1148473 83.4452084,43.8069847 81.4415201,45.2584924 C78.0521759,47.7132252 74.5536149,50.0175 70.8366203,52.5665267 M24.1327206,93.7982061 C23.77039,93.3411641 23.4836312,92.789313 23.035894,92.4445992 C20.0523602,90.1454771 17.0553683,87.861813 14.0200729,85.6307061 C11.6141976,83.8623092 9.19848753,82.0959733 6.68391301,80.4893702 C5.62901328,79.8148855 4.28010813,79.6139313 3.11288591,79.0909351 C1.28518672,78.271145 0.921303252,76.5228435 2.39857696,75.3779198 C3.34581274,74.6441794 4.57721924,74.714771 5.67249295,75.1687214 C7.25277209,75.823626 8.88740081,76.425458 10.3248182,77.3256298 C12.7306935,78.8327863 14.9999184,80.556355 17.3245282,82.1923282 C17.4989645,82.3149618 17.6330268,82.5128244 17.8214388,82.5947519 C20.5855038,83.790687 22.4618588,86.1794656 24.9086257,87.8144084 C27.3341705,89.4349237 29.5966664,91.3001908 31.902642,93.0933206 C33.5864442,94.4031298 35.2070973,95.7938359 36.888829,97.1057061 C38.5162111,98.3748092 40.2093304,99.5609542 41.8330892,100.834695 C45.6955336,103.86292 49.5346854,106.920515 53.382119,109.96729 C56.8941379,112.748187 60.4304848,115.499714 63.9067883,118.324408 C65.8380106,119.893397 67.693661,121.55771 69.5358534,123.230267 C70.9520485,124.515859 71.2398425,124.640038 72.8201217,123.501813 C74.3703791,122.384714 75.8357477,121.147557 77.2985282,119.915553 C81.2044523,116.625573 84.9255878,113.124847 89.0566745,110.090954 C91.0531163,108.625019 92.7876447,106.809733 94.6733168,105.189733 C97.6925661,102.595878 100.741837,100.036546 103.771439,97.4550573 C104.579954,96.766145 105.361553,96.0468321 106.15868,95.3450382 C107.962569,93.7580153 109.770599,92.1745992 111.571382,90.5839695 C111.775322,90.403626 111.945618,90.1851527 112.274303,89.8301336 C110.392254,88.4332443 108.60907,87.0657252 106.780336,85.7610687 C103.081975,83.1223855 99.3789564,80.4898855 95.6397043,77.9094275 C93.1256474,76.1740076 90.5339482,74.550916 88.00281,72.8397137 C86.9416989,72.1224618 85.9359726,71.3212214 84.9235173,70.5349237 C79.596222,66.3962977 74.3098182,62.204084 68.9250675,58.140687 C67.5999726,57.1405534 66.3173222,55.8322901 64.4409672,55.8333206 C63.6723087,55.8338359 62.8705228,55.8322901 62.141203,56.0363359 C57.8833005,57.2291794 53.6057287,58.372042 49.4089049,59.7545038 C46.6515688,60.6624046 44.0132843,61.9315076 41.3330729,63.0656107 C39.0467667,64.0327672 36.7734008,65.0292939 34.5015878,66.0309733 C33.7919374,66.3437405 33.1076501,66.7142176 32.4114577,67.0579008 C30.8208263,67.8436832 29.2550404,68.6851145 27.6338696,69.4013359 C24.9764333,70.5756298 22.296222,71.7030344 19.5984117,72.7825191 C18.0548832,73.4003244 16.4932382,73.222042 15.0791136,72.3713359 C13.885493,71.654084 13.5640539,70.7760687 14.3202897,69.6867939 C15.1826366,68.4439695 15.3032409,67.0702672 15.6132924,65.6996565 C15.7639184,65.0354771 15.9839049,64.2770038 16.4337125,63.8096565 C18.060577,62.1175191 19.802352,60.5346183 21.4934008,58.9022519 C23.3837314,57.0771756 25.2559455,55.2335496 27.1530051,53.4151718 C29.7752436,50.9022137 32.3472734,48.3330916 35.0600946,45.9200954 C38.5141407,42.8480725 42.0856854,39.9064122 45.6090919,36.9111641 C48.6920079,34.29 51.7650892,31.6564695 54.8707802,29.0620992 C55.908081,28.1954198 57.0401054,27.441584 58.1162274,26.6202481 C59.9734306,25.2027481 61.8363276,23.7914313 63.6660973,22.3388931 C64.4834117,21.6896565 65.0812572,21.0131107 65.3762978,19.8202672 C65.8085065,18.0714504 67.3152843,16.8641794 69.0244496,16.1819656 C72.9935228,14.5980344 76.998829,13.183626 81.3390322,12.8523092 C83.371707,12.6972137 85.3914415,12.1366031 87.3728724,11.5976336 C91.2674089,10.5382443 95.1645336,9.46648855 98.9985092,8.21232824 C103.186534,6.84171756 107.291222,5.22171756 111.46113,3.79494275 C112.475138,3.44765267 112.96739,3.02461832 113.059008,1.89360687 C113.151661,0.754351146 114.12426,0.0566793898 115.305975,0.0185496188 C116.515124,-0.0206106865 117.727379,0.00824427532 118.937046,0.0499809165 C119.280225,0.0618320616 119.65446,0.159217558 119.953642,0.325133588 C122.136943,1.53858779 124.428943,1.96316794 126.929542,1.62515267 C128.805379,1.37215649 129.327135,1.99975191 130.120122,3.68055344 C130.738154,4.99139313 131.715412,6.16826336 132.684387,7.27351145 C134.179778,8.97853053 135.780244,10.5954389 137.383298,12.2030725 C138.429398,13.2526718 139.706872,14.1028626 140.622016,15.247271 C143.183693,18.4517176 146.463303,20.7879389 149.71755,23.1932061 C153.834143,26.236374 157.839967,29.4274237 161.945691,32.4855344 C165.478414,35.1170038 169.087745,37.6474809 172.655149,40.2336069 C173.281981,40.6880725 173.828065,41.2610496 174.479742,41.6712023 C176.45962,42.9171183 178.570973,43.8832443 180.850032,44.4696183 C181.329344,44.5927672 181.811761,44.7633206 182.24397,44.9998282 C183.4702,45.6717366 183.866693,46.5662405 183.455707,47.5947137 C182.996582,48.7453053 181.923049,49.4558588 180.755309,49.1992557 C176.701864,48.3073282 172.857536,47.0418321 169.655051,44.1563359 C167.386862,42.1127863 164.783775,40.4391985 162.354089,38.5703244 C158.119997,35.3128053 153.904539,32.0320992 149.680799,28.7616985 C147.487664,27.0633779 145.232932,25.4371947 143.116404,23.6487023 C140.899975,21.7762214 138.816057,19.748645 136.674683,17.7880534 C133.329853,14.7263359 129.985024,11.6641031 126.689886,8.64772901 C125.038176,9.12435115 124.222414,10.2826718 123.312964,11.2158206 C119.981593,14.6310115 116.704572,18.0874237 112.353498,20.2773092 C112.059493,20.4251908 111.850894,20.7472328 111.613826,20.9981679 C110.890718,21.7633397 110.240593,22.6130153 109.440878,23.2880153 C106.130729,26.0823092 102.772441,28.8204389 99.4431407,31.5925763 C99.188474,31.8043511 99.0197314,32.1171183 98.6382491,32.6030153 C114.33907,42.3755725 128.854553,53.496584 142.734404,65.5373473 C143.665076,63.4340267 146.025918,63.0022328 148.123295,62.3138359 C151.20207,61.3028817 154.354347,60.503187 157.495236,59.691126 C162.599439,58.3710115 167.526618,56.5103817 172.541273,54.9176908 C175.373146,54.0180344 178.251604,53.2641985 181.093829,52.395458 C182.17875,52.0641412 183.206734,51.5499046 184.287515,51.2026145 C185.368295,50.8553244 186.468745,50.520916 187.586794,50.3462405 C189.249374,50.0865458 190.281498,50.6708588 190.708531,51.9224427 C190.981832,52.7226527 190.228702,54.4740458 189.218834,54.9934351 C185.622962,56.8447901 182.957244,59.7792366 180.112431,62.5240649 C178.172409,64.3960305 176.051222,66.0814695 174.092566,67.9348855 C171.05313,70.8105916 168.101688,73.7780153 165.07778,76.6702099 C162.719008,78.9265649 160.2681,81.0875954 157.927962,83.3625 C154.456834,86.7364695 151.044198,90.1702099 147.61862,93.5905534 C147.320474,93.8883779 146.985059,94.2439122 146.886195,94.6288168 C146.426553,96.4142176 144.870601,97.028416 143.568799,97.986813 C141.972992,99.1616221 140.558867,100.579122 139.039149,101.860592 C138.120382,102.636069 137.207826,103.444008 136.189677,104.072118 C134.957236,104.832653 134.643561,104.712595 133.630588,103.637748 C133.1461,103.122996 132.672482,102.598454 132.211805,102.097615 C130.817867,102.778798 129.521241,103.500687 128.157325,104.061813 C124.200675,105.688511 120.178805,107.163721 116.255799,108.866164 C113.126815,110.223893 110.089967,111.798034 107.038626,113.329924 C103.160653,115.276603 99.2888913,117.23771 95.4533629,119.265802 C91.9522138,121.117672 88.4862626,123.037042 85.0389455,124.986813 C83.0616556,126.104943 81.1640783,127.362195 79.207493,128.517424 C78.1163602,129.161508 77.2886935,129.973053 76.9481027,131.227729 C76.8368154,131.635821 76.6649672,132.041851 76.4465336,132.404599 C75.7725986,133.52479 75.0210214,133.797882 73.7285363,133.471718 C72.6964117,133.211508 71.6720512,132.847214 70.6228453,132.741069 C67.6372409,132.439122 66.3980702,130.72792 67.2148669,127.654866 C65.1273249,125.956031 62.9838805,124.211851 60.8388832,122.468702 C60.5629943,122.244561 60.2410377,122.064218 60.0044875,121.805553 C57.4112355,118.974676 54.0974631,116.983168 51.297165,114.423836 C49.0853954,112.401927 46.4176068,111.04729 44.2627748,108.959943 C42.542222,107.293569 40.4391515,106.019313 38.5208696,104.551832 C38.0705444,104.207634 37.6745688,103.791813 37.2625472,103.399695 C37.0580892,103.204408 36.8976285,102.957595 36.6755715,102.787042 C35.5865092,101.949218 33.7898669,102.55105 33.1205905,100.54666 C32.7422138,99.4130725 31.0470241,98.7210687 29.9558913,97.8162595 C28.8057504,96.8630153 27.7172057,95.8278435 26.5090919,94.9549809 C25.7865011,94.4335305 24.8868859,94.154771 24.1327206,93.7982061" id="Fill-3" fill="#00FF00" style="mix-blend-mode: screen;"></path>
            <path d="M125.458997,100.676302 C122.462523,98.3859389 119.884282,96.4088588 117.297759,94.442084 C116.532723,93.8608626 115.895021,94.0695458 115.223157,94.7048702 C113.479311,96.3532099 111.695609,97.9603282 109.903626,99.556626 C106.928891,102.20613 103.911195,104.808229 100.957683,107.480405 C98.8075092,109.426569 96.7411894,111.439202 94.3208209,113.096817 C92.5749049,114.293267 91.1436989,115.944698 89.5722192,117.393115 C89.6483087,117.529145 89.7243981,117.665176 89.8004875,117.801206 C90.7741217,117.454947 91.7896827,117.194221 92.7136257,116.746454 C95.4455986,115.421702 98.1377152,114.015538 100.852607,112.655748 C102.569536,111.796282 104.307688,110.979069 106.021512,110.11445 C109.384458,108.419221 112.715311,106.659584 116.100515,105.010214 C119.095954,103.550462 122.147813,102.204069 125.458997,100.676302 M121.392095,7.23929771 C121.328946,7.00639695 121.265796,6.77349618 121.202647,6.54059542 C120.633788,6.47154962 120.044225,6.27729389 119.500211,6.36488931 C118.807642,6.47618702 118.138883,6.7858626 117.48203,7.06256107 C114.733493,8.22036641 111.996344,9.40702672 109.244702,10.5581336 C108.857525,10.7199275 108.40513,10.7194122 107.993626,10.8312252 C106.143669,11.3336107 104.203647,11.6381336 102.468601,12.4027901 C98.4006637,14.1959198 94.1091163,15.2439733 89.836203,16.2832672 C85.2692843,17.3946985 80.6821786,18.3994695 76.2456989,19.9705191 C75.6287016,20.1889924 75.0557016,20.5290687 74.414894,20.8351374 C77.2674713,22.2603664 79.8793575,23.5289542 82.457081,24.8619504 C85.7418669,26.5607863 89.0618507,28.2075802 92.2353493,30.0944885 C93.3870431,30.7792786 94.1924523,30.7365115 95.1386528,30.0651183 C95.7779076,29.6116832 96.3488371,29.0639542 96.9855038,28.6069122 C98.8773873,27.2481527 100.859336,26.0027519 102.663225,24.5388779 C103.862539,23.5660534 104.730062,22.1954427 105.897802,21.175729 C108.838374,18.6086679 111.924395,16.2054618 114.838569,13.6100611 C117.111417,11.5850611 119.21397,9.36992748 121.392095,7.23929771 M143.082759,68.2005573 C142.494748,71.0675038 141.258165,72.7390305 139.032937,74.4131336 C135.973314,76.7153473 132.912138,79.0263206 129.989683,81.4949656 C126.688333,84.2835916 123.537092,87.2479237 120.334607,90.1509389 C120.208309,90.2653282 120.222284,90.5332672 120.142054,90.8383053 C121.151921,91.5926565 122.204233,92.3114542 123.179937,93.1214542 C125.311477,94.8913969 128.252566,95.3561679 130.164119,97.502771 C130.744883,98.1550992 131.573585,97.9314733 132.34742,97.5532672 C133.945298,96.7716069 135.519366,95.8544313 137.211967,95.3690496 C140.448097,94.4405382 143.165577,92.9452328 145.297116,90.2442023 C147.34532,87.6493168 150.393038,86.0076756 152.407078,83.3318931 C152.61516,83.0551947 152.951092,82.8763969 153.214558,82.637313 C153.88694,82.0277519 154.563463,81.4212824 155.218764,80.793687 C157.052157,79.0371412 158.855528,77.2496794 160.709108,75.5152901 C162.30388,74.0225611 164.001658,72.6375229 165.564856,71.1149084 C168.90865,67.856874 172.196542,64.5421603 175.502032,61.2454809 C175.713219,61.0352519 175.882997,60.7843168 176.183214,60.4159008 C175.74117,60.3782863 175.521702,60.3015115 175.339501,60.3535534 C172.810433,61.0790496 170.276707,61.7896031 167.764721,62.5702328 C165.254805,63.3498321 162.772322,64.2180573 160.269135,65.0208435 C157.848249,65.7968359 155.279325,65.8669122 152.943328,67.2308244 C151.238821,68.2252901 149.014628,68.3334962 147.025433,68.8492786 C145.694645,69.1939924 144.367997,69.5799275 143.082759,68.2005573 M90.0965634,34.1960153 C88.5333656,32.6610344 87.0110593,31.7897176 85.3909238,31.0472176 C84.4923439,30.6350038 83.650184,30.1027328 82.7536745,29.6853664 C80.7122003,28.7346985 78.9849184,27.1610725 76.6271813,26.814813 C75.5168967,26.6514733 74.3698615,26.2809962 73.4050268,25.721416 C72.4262165,25.1535916 71.6518642,24.236416 70.6580431,23.3573702 C70.4235634,23.486187 69.9634035,23.6778664 69.5736393,23.9638397 C68.3246339,24.8805 67.1165201,25.8528092 65.8644089,26.7648321 C64.3177748,27.8917214 62.743707,28.9809962 61.1799916,30.0841832 C59.6939184,31.1327519 58.8227721,32.884145 57.0432111,33.6132481 C56.411203,33.8724275 55.7812653,34.2356908 55.2776257,34.691187 C52.9235119,36.8197557 50.6372057,39.0225229 48.2810214,41.1495458 C46.2778507,42.9586489 44.1504523,44.6342977 42.1876556,46.4846221 C38.1057423,50.3336679 34.0761081,54.2383626 30.0651081,58.1605763 C27.4697856,60.6982672 24.9345065,63.2977901 22.4002626,65.8957672 C22.0431081,66.2621221 21.8412382,66.7779046 21.5674198,67.2246412 C23.9422382,66.6042595 26.1058696,65.7829237 28.2135986,64.8368931 C31.3306772,63.4374275 34.4011705,61.9349084 37.5058263,60.5081336 C38.4727314,60.0639733 39.4913981,59.7347176 40.4784902,59.3328092 C43.7006447,58.0209389 46.8720729,56.5699466 50.1501298,55.4167786 C54.1725173,54.0008244 58.287558,52.8455954 62.3518724,51.5445458 C63.4238534,51.2008626 64.4181921,51.0663779 65.415119,51.7511679 C66.3245688,52.3756718 66.9803873,52.0855763 67.4866149,51.1374847 C68.2097233,49.7838779 69.3277721,48.8378473 70.6616664,48.0582481 C72.2528154,47.1276756 73.7678751,46.0631336 75.2818995,45.0083817 C77.0769889,43.7578282 78.8430919,42.4655382 80.6081596,41.1737634 C83.6962518,38.9138015 86.7739916,36.640958 90.0965634,34.1960153 M70.8366203,53.674145 C71.4034089,54.4944504 71.6746393,55.0931908 72.1223764,55.4981908 C73.7357829,56.9548511 75.39681,58.3610153 77.0645661,59.7563588 C77.8264957,60.3937443 78.6991949,60.9048893 79.4316203,61.5711298 C82.4767504,64.3422366 85.8024279,66.7500802 89.1612328,69.1156718 C93.7550675,72.3510344 98.3577016,75.5740305 102.959301,78.7985725 C106.859013,81.5305191 110.779948,84.234126 114.65378,87.0021412 C115.570994,87.6575611 116.339653,87.6591069 117.155932,86.9655573 C118.885284,85.4965305 120.718677,84.1274656 122.306203,82.5182863 C125.508688,79.2726183 128.827637,76.1784389 132.513057,73.4768931 C133.943227,72.4288397 135.32526,71.3065878 136.652425,70.1322939 C137.87762,69.0476565 137.839317,68.6354427 136.692799,67.5538969 C136.279742,67.1638397 135.856333,66.7835725 135.424124,66.4146412 C131.208149,62.8211679 126.987515,59.2333626 122.774127,55.637313 C122.181458,55.1313206 121.667466,54.520729 121.034422,54.0765687 C116.320501,50.7680382 111.603474,47.464145 106.851767,44.2097176 C103.505902,41.9178092 100.126393,39.6722748 96.7194496,37.4710534 C94.4890458,36.0308817 94.5092328,36.1463015 92.5293547,37.8255573 C91.2410106,38.9174084 89.7647721,39.790271 88.3765282,40.7656718 C87.9722707,41.049584 87.5659428,41.3334962 87.1854957,41.6467786 C85.27239,43.2224656 83.4452084,44.9146031 81.4415201,46.3661107 C78.0521759,48.8208435 74.5536149,51.1251183 70.8366203,53.674145 M24.1327206,94.9058244 C23.77039,94.4487824 23.4836312,93.8969313 23.035894,93.5522176 C20.0523602,91.2530954 17.0553683,88.9694313 14.0200729,86.7383244 C11.6141976,84.9699275 9.19848753,83.2035916 6.68391301,81.5969885 C5.62901328,80.9225038 4.28010813,80.7215496 3.11288591,80.1985534 C1.28518672,79.3787634 0.921303252,77.6304618 2.39857696,76.4855382 C3.34581274,75.7517977 4.57721924,75.8223893 5.67249295,76.2763397 C7.25277209,76.9312443 8.88740081,77.5330763 10.3248182,78.4332481 C12.7306935,79.9404046 14.9999184,81.6639733 17.3245282,83.2999466 C17.4989645,83.4225802 17.6330268,83.6204427 17.8214388,83.7023702 C20.5855038,84.8983053 22.4618588,87.287084 24.9086257,88.9220267 C27.3341705,90.542542 29.5966664,92.4078092 31.902642,94.2009389 C33.5864442,95.5107481 35.2070973,96.9014542 36.888829,98.2133244 C38.5162111,99.4824275 40.2093304,100.668573 41.8330892,101.942313 C45.6955336,104.970538 49.5346854,108.028134 53.382119,111.074908 C56.8941379,113.855805 60.4304848,116.607332 63.9067883,119.432027 C65.8380106,121.001015 67.693661,122.665328 69.5358534,124.337885 C70.9520485,125.623477 71.2398425,125.747656 72.8201217,124.609431 C74.3703791,123.492332 75.8357477,122.255176 77.2985282,121.023172 C81.2044523,117.733191 84.9255878,114.232466 89.0566745,111.198573 C91.0531163,109.732637 92.7876447,107.917351 94.6733168,106.297351 C97.6925661,103.703496 100.741837,101.144164 103.771439,98.5626756 C104.579954,97.8737634 105.361553,97.1544504 106.15868,96.4526565 C107.962569,94.8656336 109.770599,93.2822176 111.571382,91.6915878 C111.775322,91.5112443 111.945618,91.292771 112.274303,90.9377519 C110.392254,89.5408626 108.60907,88.1733435 106.780336,86.868687 C103.081975,84.2300038 99.3789564,81.5975038 95.6397043,79.0170458 C93.1256474,77.281626 90.5339482,75.6585344 88.00281,73.9473321 C86.9416989,73.2300802 85.9359726,72.4288397 84.9235173,71.642542 C79.596222,67.503916 74.3098182,63.3117023 68.9250675,59.2483053 C67.5999726,58.2481718 66.3173222,56.9399084 64.4409672,56.9409389 C63.6723087,56.9414542 62.8705228,56.9399084 62.141203,57.1439542 C57.8833005,58.3367977 53.6057287,59.4796603 49.4089049,60.8621221 C46.6515688,61.7700229 44.0132843,63.039126 41.3330729,64.173229 C39.0467667,65.1403855 36.7734008,66.1369122 34.5015878,67.1385916 C33.7919374,67.4513588 33.1076501,67.8218359 32.4114577,68.1655191 C30.8208263,68.9513015 29.2550404,69.7927328 27.6338696,70.5089542 C24.9764333,71.6832481 22.296222,72.8106527 19.5984117,73.8901374 C18.0548832,74.5079427 16.4932382,74.3296603 15.0791136,73.4789542 C13.885493,72.7617023 13.5640539,71.883687 14.3202897,70.7944122 C15.1826366,69.5515878 15.3032409,68.1778855 15.6132924,66.8072748 C15.7639184,66.1430954 15.9839049,65.3846221 16.4337125,64.9172748 C18.060577,63.2251374 19.802352,61.6422366 21.4934008,60.0098702 C23.3837314,58.1847939 25.2559455,56.3411679 27.1530051,54.5227901 C29.7752436,52.0098321 32.3472734,49.4407099 35.0600946,47.0277137 C38.5141407,43.9556908 42.0856854,41.0140305 45.6090919,38.0187824 C48.6920079,35.3976183 51.7650892,32.7640878 54.8707802,30.1697176 C55.908081,29.3030382 57.0401054,28.5492023 58.1162274,27.7278664 C59.9734306,26.3103664 61.8363276,24.8990496 63.6660973,23.4465115 C64.4834117,22.7972748 65.0812572,22.120729 65.3762978,20.9278855 C65.8085065,19.1790687 67.3152843,17.9717977 69.0244496,17.289584 C72.9935228,15.7056527 76.998829,14.2912443 81.3390322,13.9599275 C83.371707,13.8048321 85.3914415,13.2442214 87.3728724,12.7052519 C91.2674089,11.6458626 95.1645336,10.5741069 98.9985092,9.31994656 C103.186534,7.94933588 107.291222,6.32933588 111.46113,4.90256107 C112.475138,4.55527099 112.96739,4.13223664 113.059008,3.00122519 C113.151661,1.86196947 114.12426,1.16429771 115.305975,1.12616794 C116.515124,1.08700763 117.727379,1.1158626 118.937046,1.15759924 C119.280225,1.16945038 119.65446,1.26683588 119.953642,1.43275191 C122.136943,2.64620611 124.428943,3.07078626 126.929542,2.73277099 C128.805379,2.47977481 129.327135,3.10737023 130.120122,4.78817176 C130.738154,6.09901145 131.715412,7.27588168 132.684387,8.38112977 C134.179778,10.0861489 135.780244,11.7030573 137.383298,13.3106908 C138.429398,14.3602901 139.706872,15.2104809 140.622016,16.3548893 C143.183693,19.5593359 146.463303,21.8955573 149.71755,24.3008244 C153.834143,27.3439924 157.839967,30.535042 161.945691,33.5931527 C165.478414,36.2246221 169.087745,38.7550992 172.655149,41.3412252 C173.281981,41.7956908 173.828065,42.3686679 174.479742,42.7788206 C176.45962,44.0247366 178.570973,44.9908626 180.850032,45.5772366 C181.329344,45.7003855 181.811761,45.8709389 182.24397,46.1074466 C183.4702,46.779355 183.866693,47.6738588 183.455707,48.7023321 C182.996582,49.8529237 181.923049,50.5634771 180.755309,50.306874 C176.701864,49.4149466 172.857536,48.1494504 169.655051,45.2639542 C167.386862,43.2204046 164.783775,41.5468168 162.354089,39.6779427 C158.119997,36.4204237 153.904539,33.1397176 149.680799,29.8693168 C147.487664,28.1709962 145.232932,26.544813 143.116404,24.7563206 C140.899975,22.8838397 138.816057,20.8562634 136.674683,18.8956718 C133.329853,15.8339542 129.985024,12.7717214 126.689886,9.75534733 C125.038176,10.2319695 124.222414,11.3902901 123.312964,12.3234389 C119.981593,15.7386298 116.704572,19.195042 112.353498,21.3849275 C112.059493,21.5328092 111.850894,21.8548511 111.613826,22.1057863 C110.890718,22.870958 110.240593,23.7206336 109.440878,24.3956336 C106.130729,27.1899275 102.772441,29.9280573 99.4431407,32.7001947 C99.188474,32.9119695 99.0197314,33.2247366 98.6382491,33.7106336 C114.33907,43.4831908 128.854553,54.6042023 142.734404,66.6449656 C143.665076,64.541645 146.025918,64.1098511 148.123295,63.4214542 C151.20207,62.4105 154.354347,61.6108053 157.495236,60.7987443 C162.599439,59.4786298 167.526618,57.618 172.541273,56.0253092 C175.373146,55.1256527 178.251604,54.3718168 181.093829,53.5030763 C182.17875,53.1717595 183.206734,52.6575229 184.287515,52.3102328 C185.368295,51.9629427 186.468745,51.6285344 187.586794,51.4538588 C189.249374,51.1941641 190.281498,51.7784771 190.708531,53.0300611 C190.981832,53.830271 190.228702,55.5816641 189.218834,56.1010534 C185.622962,57.9524084 182.957244,60.886855 180.112431,63.6316832 C178.172409,65.5036489 176.051222,67.1890878 174.092566,69.0425038 C171.05313,71.9182099 168.101688,74.8856336 165.07778,77.7778282 C162.719008,80.0341832 160.2681,82.1952137 157.927962,84.4701183 C154.456834,87.8440878 151.044198,91.2778282 147.61862,94.6981718 C147.320474,94.9959962 146.985059,95.3515305 146.886195,95.7364351 C146.426553,97.5218359 144.870601,98.1360344 143.568799,99.0944313 C141.972992,100.26924 140.558867,101.68674 139.039149,102.96821 C138.120382,103.743687 137.207826,104.551626 136.189677,105.179737 C134.957236,105.940271 134.643561,105.820214 133.630588,104.745366 C133.1461,104.230615 132.672482,103.706073 132.211805,103.205233 C130.817867,103.886416 129.521241,104.608305 128.157325,105.169431 C124.200675,106.79613 120.178805,108.27134 116.255799,109.973782 C113.126815,111.331511 110.089967,112.905653 107.038626,114.437542 C103.160653,116.384221 99.2888913,118.345328 95.4533629,120.37342 C91.9522138,122.22529 88.4862626,124.14466 85.0389455,126.094431 C83.0616556,127.212561 81.1640783,128.469813 79.207493,129.625042 C78.1163602,130.269126 77.2886935,131.080672 76.9481027,132.335347 C76.8368154,132.743439 76.6649672,133.149469 76.4465336,133.512218 C75.7725986,134.632408 75.0210214,134.9055 73.7285363,134.579336 C72.6964117,134.319126 71.6720512,133.954832 70.6228453,133.848687 C67.6372409,133.54674 66.3980702,131.835538 67.2148669,128.762485 C65.1273249,127.063649 62.9838805,125.319469 60.8388832,123.576321 C60.5629943,123.352179 60.2410377,123.171836 60.0044875,122.913172 C57.4112355,120.082294 54.0974631,118.090786 51.297165,115.531454 C49.0853954,113.509546 46.4176068,112.154908 44.2627748,110.067561 C42.542222,108.401187 40.4391515,107.126931 38.5208696,105.65945 C38.0705444,105.315252 37.6745688,104.899431 37.2625472,104.507313 C37.0580892,104.312027 36.8976285,104.065214 36.6755715,103.89466 C35.5865092,103.056836 33.7898669,103.658668 33.1205905,101.654279 C32.7422138,100.520691 31.0470241,99.828687 29.9558913,98.9238779 C28.8057504,97.9706336 27.7172057,96.9354618 26.5090919,96.0625992 C25.7865011,95.5411489 24.8868859,95.2623893 24.1327206,94.9058244" id="Fill-6" fill="#FF0202" style="mix-blend-mode: screen;"></path>
        </g>
        <g id="Page-1" transform="translate(2.000000, 144.000000)">
            <path d="M30.7869528,34.0566292 C31.6434335,34.9926292 31.3081545,35.7127487 30.8193991,36.3588372 C29.7553648,37.7643903 28.7026609,39.1487177 27.3203433,40.3166469 C26.0466953,41.3924257 25.0460086,42.8295584 24.0561373,44.2035319 C21.7735622,47.370815 19.5157082,50.5593239 17.3572532,53.8125451 C16.1423176,55.6441646 15.1375107,57.6176336 14.0513305,59.5351912 C13.3498712,60.7745628 12.6381116,62.0097929 11.9907296,63.2781558 C8.81716738,69.4998637 7.42866953,76.1937133 7.28291845,83.1081027 C7.18042918,87.9791336 8.52,92.5240142 11.4267811,96.5734566 C13.3230901,99.2147575 15.8147639,101.154576 18.2049785,103.260576 C20.7934764,105.541558 23.8516738,106.632868 27.0092704,107.80028 C30.1874678,108.975457 33.4156223,109.597213 36.7076395,109.897996 C39.2981974,110.134585 41.9315021,109.917669 44.544721,109.859687 C45.3924464,109.84105 46.2406867,109.589448 47.0837768,109.614297 C52.4193991,109.772196 57.5304721,108.533342 62.4942489,106.817169 C66.6499571,105.380554 70.6393133,103.473868 74.303176,100.952156 C78.3450644,98.1705584 82.440515,95.4686867 86.4901288,92.6979611 C87.3666953,92.0984655 88.1670386,91.3793814 88.9658369,90.6732398 C91.2525322,88.649554 93.6139056,86.6988637 95.7703004,84.5421292 C98.183176,82.1291336 100.464206,79.5742885 102.688069,76.982169 C104.354163,75.0397619 105.841545,72.9425628 107.40515,70.9111115 C108.411502,69.6034035 110.660086,63.8688504 110.935107,62.2111779 C111.295107,60.0383947 111.917768,57.8997796 112.139742,55.7171602 C112.396223,53.1970009 112.43485,50.6437088 112.391588,48.1075009 C112.346781,45.4822487 112.287039,42.8295584 111.884807,40.2436513 C111.018541,34.6721735 109.601717,29.213554 106.723262,24.3166381 C103.092876,18.1410053 98.3958798,12.9272575 91.9019742,9.69267345 C88.9869528,8.24104513 85.8571674,7.17147876 82.5496996,7.04360708 C78.4393133,6.88519115 74.3181116,6.70969115 70.2113305,6.84688142 C65.6775966,6.99804956 61.2360515,7.76993894 56.8223176,9.03312478 C50.9835193,10.7037398 45.3244635,12.780231 39.9790558,15.6006558 C36.408927,17.4840451 33.0262661,19.7748637 29.7476395,22.1459257 C28.3550215,23.1533681 27.3955365,24.7975805 26.3299571,26.2207354 C25.6006867,27.1950451 24.7539914,27.8571823 23.5323605,27.9612398 C21.7277253,28.1155142 20.8470386,27.0102265 21.5376824,25.331846 C22.8072103,22.246877 24.5593133,19.5346513 27.503176,17.7428947 C30.4717597,15.9361248 33.2848069,13.8415142 36.3558798,12.2402708 C40.0635193,10.3077 44.0085837,8.84157611 47.7795708,7.02341681 C51.0540773,5.44443451 54.6901288,5.08100973 58.0109871,3.70703628 C60.6628326,2.60951416 63.4254077,2.16739912 66.2775966,2.04729292 C67.3957082,2.0001823 68.4916738,1.47057611 69.6113305,1.41000531 C72.0097854,1.28006283 74.4175107,1.32147876 76.8211159,1.27540354 C77.8738197,1.25521327 78.9450644,1.04140354 79.9740773,1.17652301 C83.6281545,1.65591239 87.3419742,1.95980177 90.887897,2.89010708 C93.5948498,3.60039027 96.1112446,5.09809381 98.6600858,6.35247876 C103.117597,8.54596991 106.288584,12.2237044 109.370472,15.9796115 C112.280343,19.5253327 114.649957,23.3697664 116.228498,27.7287929 C117.275536,30.6185894 118.274163,33.4711115 118.332361,36.5871425 C118.342661,37.1307265 118.678455,37.6624035 118.818541,38.2116823 C119.740429,41.8247044 120.023176,45.4915673 119.779056,49.2127885 C119.686867,50.6188593 119.889785,52.0549566 119.700773,53.4418726 C118.950386,58.9564035 118.092876,64.4264124 115.637768,69.5433504 C112.880858,75.2898106 109.004292,80.1251204 104.700258,84.7492088 C100.164464,89.6228283 95.2588841,94.0532973 89.9165665,97.9526071 C84.1751073,102.142864 78.5227468,106.546412 72.0628326,109.596696 C68.544721,111.257992 64.9416309,112.77278 61.0975107,113.703085 C56.3732189,114.846165 51.6458369,115.591651 46.7819742,115.637209 C43.9478112,115.663612 41.1193133,116.063275 38.2830901,116.171992 C34.9122747,116.300899 31.6527039,115.468439 28.4307296,114.625107 C25.8211159,113.942262 23.2017167,113.169337 20.7383691,112.086311 C18.4841202,111.095435 16.3833476,109.713696 14.304206,108.364572 C11.2511588,106.383855 8.54214592,103.992085 6.28171674,101.102806 C3.22712446,97.1993549 1.9606867,92.660169 1.44257511,87.8227885 C0.955879828,83.277908 1.79896996,78.9111159 2.80429185,74.5060142 C3.56961373,71.1518416 4.47090129,67.8691115 5.82798283,64.7251248 C6.5593133,63.0301779 7.39570815,61.3564566 8.3927897,59.8080186 C10.7387124,56.1639345 13.1139914,52.5302044 15.6664378,49.0321115 C17.1641202,46.9794345 19.0403433,45.2078681 20.7172532,43.2840982 C22.4930472,41.2464345 24.2049785,39.1518239 26.0003433,37.1317619 C27.286867,35.6847929 28.7613734,34.4749301 30.7869528,34.0566292" id="Fill-7" fill="#FF0202" style="mix-blend-mode: screen;"></path>
            <path d="M29.4862146,34.7580597 C30.3426953,35.6940597 30.0074163,36.4141792 29.5186609,37.0602677 C28.4546266,38.4658208 27.4019227,39.8501482 26.0196052,41.0180774 C24.7459571,42.0938562 23.7452704,43.5309889 22.7553991,44.9049624 C20.472824,48.0722456 18.21497,51.2607544 16.056515,54.5139757 C14.8415794,56.3455951 13.8367725,58.3190642 12.7505923,60.2366217 C12.049133,61.4759934 11.3373734,62.7112235 10.6899914,63.9795863 C7.51642918,70.2012942 6.12793133,76.8951438 5.98218026,83.8095332 C5.87969099,88.6805642 7.2192618,93.2254447 10.1260429,97.2748872 C12.0223519,99.9161881 14.5140258,101.856007 16.9042403,103.962007 C19.4927382,106.242989 22.5509356,107.334299 25.7085322,108.50171 C28.8867296,109.676887 32.1148841,110.298644 35.4069013,110.599427 C37.9974592,110.836015 40.6307639,110.6191 43.2439828,110.561117 C44.0917082,110.54248 44.9399485,110.290878 45.7830386,110.315728 C51.1186609,110.473626 56.2297339,109.234772 61.1935107,107.5186 C65.3492189,106.081985 69.3385751,104.175299 73.0024378,101.653586 C77.0443262,98.8719889 81.1397768,96.1701173 85.1893906,93.3993916 C86.0659571,92.799896 86.8663004,92.0808119 87.6650987,91.3746704 C89.951794,89.3509845 92.3131674,87.4002942 94.4695622,85.2435597 C96.8824378,82.8305642 99.1634678,80.275719 101.38733,77.6835996 C103.053425,75.7411925 104.540807,73.6439934 106.104412,71.612542 C107.110764,70.3048341 109.359348,64.570281 109.634369,62.9126084 C109.994369,60.7398252 110.61703,58.6012102 110.839004,56.4185907 C111.095485,53.8984314 111.134112,51.3451394 111.09085,48.8089314 C111.046043,46.1836792 110.9863,43.5309889 110.584069,40.9450819 C109.717803,35.373604 108.300979,29.9149845 105.422524,25.0180686 C101.792137,18.8424358 97.0951416,13.6286881 90.6012361,10.394104 C87.6862146,8.94247566 84.5564292,7.87290929 81.2489614,7.74503761 C77.1385751,7.58662168 73.0173734,7.41112168 68.9105923,7.54831195 C64.3768584,7.69948009 59.9353133,8.47136947 55.5215794,9.73455531 C49.6827811,11.4051704 44.0237253,13.4816615 38.6783176,16.3020863 C35.1081888,18.1854757 31.7255279,20.4762942 28.4469013,22.8473562 C27.0542833,23.8547987 26.0947983,25.4990111 25.0292189,26.9221659 C24.2999485,27.8964757 23.4532532,28.5586128 22.2316223,28.6626704 C20.4269871,28.8169447 19.5463004,27.7116571 20.2369442,26.0332765 C21.5064721,22.9483075 23.2585751,20.2360819 26.2024378,18.4443252 C29.1710215,16.6375553 31.9840687,14.5429447 35.0551416,12.9417013 C38.7627811,11.0091305 42.7078455,9.54300664 46.4788326,7.72484735 C49.7533391,6.14586504 53.3893906,5.78244027 56.7102489,4.40846681 C59.3620944,3.31094469 62.1246695,2.86882965 64.9768584,2.74872345 C66.09497,2.70161283 67.1909356,2.17200664 68.3105923,2.11143584 C70.7090472,1.98149336 73.1167725,2.02290929 75.5203777,1.97683407 C76.5730815,1.95664381 77.6443262,1.74283407 78.6733391,1.87795354 C82.3274163,2.35734292 86.0412361,2.6612323 89.5871588,3.59153761 C92.2941116,4.3018208 94.8105064,5.79952434 97.3593476,7.05390929 C101.816858,9.24740044 104.987845,12.925135 108.069734,16.681042 C110.979605,20.2267633 113.349219,24.0711969 114.92776,28.4302235 C115.974798,31.3200199 116.973425,34.172542 117.031622,37.288573 C117.041923,37.8321571 117.377717,38.3638341 117.517803,38.9131128 C118.439691,42.526135 118.722438,46.1929978 118.478318,49.914219 C118.386129,51.3202898 118.589047,52.7563872 118.400034,54.1433031 C117.649648,59.6578341 116.792137,65.1278429 114.33703,70.244781 C111.58012,75.9912412 107.703554,80.8265509 103.399519,85.4506394 C98.8637253,90.3242588 93.9581459,94.7547279 88.6158283,98.6540376 C82.8743691,102.844294 77.2220086,107.247843 70.7620944,110.298126 C67.2439828,111.959423 63.6408927,113.47421 59.7967725,114.404515 C55.0724807,115.547595 50.3450987,116.293082 45.4812361,116.338639 C42.647073,116.365042 39.8185751,116.764706 36.9823519,116.873423 C33.6115365,117.00233 30.3519657,116.169869 27.1299914,115.326538 C24.5203777,114.643692 21.9009785,113.870768 19.4376309,112.787741 C17.183382,111.796865 15.0826094,110.415126 13.0034678,109.066002 C9.9504206,107.085285 7.24140773,104.693515 4.98097854,101.804237 C1.92638627,97.9007854 0.659948498,93.3615996 0.14183691,88.524219 C-0.344858369,83.9793385 0.49823176,79.6125465 1.50355365,75.2074447 C2.26887554,71.8532721 3.17016309,68.570542 4.52724464,65.4265553 C5.25857511,63.7316084 6.09496996,62.0578872 7.0920515,60.5094491 C9.43797425,56.865365 11.8132532,53.231635 14.3656996,49.733542 C15.863382,47.680865 17.7396052,45.9092987 19.416515,43.9855288 C21.192309,41.947865 22.9042403,39.8532544 24.6996052,37.8331925 C25.9861288,36.3862235 27.4606352,35.1763606 29.4862146,34.7580597" id="Fill-1" fill="#0000FF" style="mix-blend-mode: screen;"></path>
            <path d="M29.7639657,32.924473 C30.6204464,33.860473 30.2851674,34.5805925 29.796412,35.226681 C28.7323777,36.6322341 27.6796738,38.0165615 26.2973562,39.1844907 C25.0237082,40.2602695 24.0230215,41.6974022 23.0331502,43.0713757 C20.7505751,46.2386588 18.492721,49.4271677 16.3342661,52.6803889 C15.1193305,54.5120084 14.1145236,56.4854774 13.0283433,58.403035 C12.3268841,59.6424066 11.6151245,60.8776367 10.9677425,62.1459996 C7.79418026,68.3677075 6.4056824,75.0615571 6.25993133,81.9759465 C6.15744206,86.8469774 7.49701288,91.391858 10.403794,95.4413004 C12.300103,98.0826013 14.7917768,100.02242 17.1819914,102.12842 C19.7704893,104.409402 22.8286867,105.500712 25.9862833,106.668123 C29.1644807,107.8433 32.3926352,108.465057 35.6846524,108.76584 C38.2752103,109.002429 40.908515,108.785513 43.5217339,108.727531 C44.3694592,108.708893 45.2176996,108.457292 46.0607897,108.482141 C51.396412,108.640039 56.507485,107.401185 61.4712618,105.685013 C65.62697,104.248398 69.6163262,102.341712 73.2801888,99.8199996 C77.3220773,97.0384022 81.4175279,94.3365305 85.4671416,91.5658049 C86.3437082,90.9663093 87.1440515,90.2472252 87.9428498,89.5410836 C90.2295451,87.5173978 92.5909185,85.5667075 94.7473133,83.409973 C97.1601888,80.9969774 99.4412189,78.4421323 101.665082,75.8500128 C103.331176,73.9076058 104.818558,71.8104066 106.382163,69.7789553 C107.388515,68.4712473 109.637099,62.7366942 109.91212,61.0790217 C110.27212,58.9062385 110.894781,56.7676235 111.116755,54.585004 C111.373236,52.0648447 111.411863,49.5115527 111.368601,46.9753447 C111.323794,44.3500925 111.264052,41.6974022 110.86182,39.1114951 C109.995554,33.5400173 108.57873,28.0813978 105.700275,23.1844819 C102.069888,17.0088491 97.3728927,11.7951013 90.8789871,8.56051726 C87.9639657,7.10888894 84.8341803,6.03932257 81.5267124,5.91145088 C77.4163262,5.75303496 73.2951245,5.57753496 69.1883433,5.71472522 C64.6546094,5.86589336 60.2130644,6.63778274 55.7993305,7.90096858 C49.9605322,9.57158363 44.3014764,11.6480748 38.9560687,14.4684996 C35.3859399,16.3518889 32.003279,18.6427075 28.7246524,21.0137695 C27.3320343,22.0212119 26.3725494,23.6654243 25.30697,25.0885792 C24.5776996,26.0628889 23.7310043,26.7250261 22.5093734,26.8290836 C20.7047382,26.983358 19.8240515,25.8780704 20.5146953,24.1996898 C21.7842232,21.1147208 23.5363262,18.4024951 26.4801888,16.6107385 C29.4487725,14.8039686 32.2618197,12.709358 35.3328927,11.1081146 C39.0405322,9.17554381 42.9855966,7.70941991 46.7565837,5.89126062 C50.0310901,4.31227832 53.6671416,3.94885354 56.988,2.57488009 C59.6398455,1.47735796 62.4024206,1.03524292 65.2546094,0.915136726 C66.372721,0.868026106 67.4686867,0.338419912 68.5883433,0.277849115 C70.9867983,0.147906637 73.3945236,0.189322566 75.7981288,0.143247345 C76.8508326,0.12305708 77.9220773,-0.0907526549 78.9510901,0.0443668142 C82.6051674,0.523756195 86.3189871,0.827645575 89.8649099,1.75795088 C92.5718627,2.46823407 95.0882575,3.96593761 97.6370987,5.22032257 C102.094609,7.41381372 105.265597,11.0915482 108.347485,14.8474553 C111.257356,18.3931765 113.62697,22.2376102 115.205511,26.5966367 C116.252549,29.4864332 117.251176,32.3389553 117.309373,35.4549863 C117.319674,35.9985704 117.655468,36.5302473 117.795554,37.0795261 C118.717442,40.6925482 119.000189,44.3594111 118.756069,48.0806323 C118.66388,49.4867031 118.866798,50.9228004 118.677785,52.3097164 C117.927399,57.8242473 117.069888,63.2942562 114.614781,68.4111942 C111.857871,74.1576544 107.981305,78.9929642 103.67727,83.6170527 C99.1414764,88.4906721 94.235897,92.9211412 88.8935794,96.8204509 C83.1521202,101.010708 77.4997597,105.414256 71.0398455,108.464539 C67.5217339,110.125836 63.9186438,111.640623 60.0745236,112.570929 C55.3502318,113.714008 50.6228498,114.459495 45.7589871,114.505053 C42.924824,114.531455 40.0963262,114.931119 37.260103,115.039836 C33.8892876,115.168743 30.6297167,114.336283 27.4077425,113.492951 C24.7981288,112.810106 22.1787296,112.037181 19.715382,110.954154 C17.461133,109.963278 15.3603605,108.581539 13.2812189,107.232415 C10.2281717,105.251699 7.5191588,102.859929 5.25872961,99.97065 C2.20413734,96.0671987 0.937699571,91.5280128 0.419587983,86.6906323 C-0.0671072961,82.1457518 0.775982833,77.7789597 1.78130472,73.373858 C2.54662661,70.0196854 3.44791416,66.7369553 4.80499571,63.5929686 C5.53632618,61.8980217 6.37272103,60.2243004 7.36980258,58.6758624 C9.71572532,55.0317783 12.0910043,51.3980482 14.6434506,47.8999553 C16.141133,45.8472783 18.0173562,44.0757119 19.6942661,42.151942 C21.4700601,40.1142783 23.1819914,38.0196677 24.9773562,35.9996058 C26.2638798,34.5526367 27.7383863,33.3427739 29.7639657,32.924473" id="Fill-4" fill="#00FF02" style="mix-blend-mode: screen;"></path>
        </g>
        <g id="Page-1" transform="translate(75.000000, 95.000000)">
            <g id="Group-6" transform="translate(0.000000, 112.843511)">
                <mask id="mask-2" fill="white">
                    <use xlink:href="#path-1"></use>
                </mask>
                <g id="Clip-5"></g>
                <path d="M12.5018803,0.607851594 C13.0154564,0.42247665 13.3361823,0.294447912 13.6652028,0.190424562 C14.459414,-0.0602983835 15.315835,0.00905051639 15.7236545,0.678534127 C16.0194965,1.16330961 16.0782502,2.00816592 15.8453092,2.52694903 C14.8589389,4.73077705 13.9078208,6.98261585 12.6027984,9.01307162 C10.1959719,12.7552449 7.56380797,16.3627214 4.98970643,20.0035386 C4.56598886,20.6036733 3.97914348,21.102452 3.43930102,21.6199014 C2.67481222,22.351399 1.79074244,22.2600451 0.955058027,21.7946073 C0.15393459,21.3485072 -0.158496639,20.6210106 0.0758267826,19.7361453 C0.413141914,18.4638597 0.856213634,17.3389405 1.7962722,16.2293581 C3.92730201,13.7127932 5.7493567,10.9435049 7.58661821,8.20755748 C9.04509142,6.03640346 10.331451,3.75855882 11.7166549,1.54072766 C11.9585817,1.15397418 12.3111037,0.83123507 12.5018803,0.607851594" id="Fill-4" fill="#000000" mask="url(#mask-2)"></path>
            </g>
            <path d="M36.2266615,93.0429105 C36.9704706,92.6703432 37.4808611,92.1881973 37.9374905,92.2361379 C38.76024,92.3217462 39.6517221,92.5744619 40.3281596,93.0346921 C41.1066753,93.5640938 40.6779473,94.4270255 40.3342843,95.0817578 C40.0205643,95.680331 39.6238207,96.2775345 39.1324848,96.7316009 C36.4818567,99.1834225 33.7965221,101.596892 31.1098264,104.008991 C29.9958141,105.008896 28.8491367,105.971133 27.7187919,106.952547 C27.5643137,107.086781 27.426168,107.24156 27.264204,107.366206 C25.8391937,108.463362 24.465903,108.485963 23.6227379,107.431953 C22.8496664,106.465607 23.2409657,104.607564 24.38356,103.565883 C26.6932472,101.461288 28.9546174,99.3025893 31.2840397,97.2205955 C32.9601622,95.7234776 34.7145445,94.3160771 36.2266615,93.0429105" id="Fill-7" fill="#000000"></path>
            <path d="M51.2838924,87.9847608 C52.0580649,87.6829564 52.9782698,87.2897987 53.9204797,86.9636334 C56.7484428,85.9844608 59.5604025,84.9410025 62.4323755,84.1174689 C63.4032584,83.8393487 64.5435123,84.0788975 65.5917458,84.2061155 C66.3445801,84.2974689 67.0394015,84.6764161 67.0800773,85.5892729 C67.1187526,86.4554381 66.8166853,87.2126558 65.9704968,87.5746858 C62.903147,88.888144 59.8431321,90.223933 56.7451088,91.4575416 C55.2007648,92.0726541 53.5790703,92.487466 51.9900497,92.9861877 C51.7359931,93.0660373 51.4732679,93.1309996 51.2098759,93.1634808 C50.2816692,93.2785184 49.308119,93.4957364 48.7193212,92.4373909 C48.2685542,91.6267145 48.5499502,90.3146096 49.4081413,89.4809257 C49.9342585,88.969347 50.5557302,88.5585952 51.2838924,87.9847608" id="Fill-9" fill="#000000"></path>
            <path d="M73.4642493,84.3217975 C74.5938404,84.1029545 75.7124043,83.7898604 76.8537117,83.6833439 C79.7917511,83.4102742 82.7353042,83.1617357 85.6829924,83.036498 C87.4466431,82.9616137 89.2661186,82.7421251 90.9346604,83.6452562 C91.5383955,83.9725524 92.0077375,84.3869986 91.8044249,85.0099589 C91.6452208,85.4973527 91.2537578,86.031872 90.7995781,86.2933217 C90.2351272,86.6173902 89.5059586,86.7045401 88.8374392,86.8543088 C86.962828,87.2752105 85.074433,87.6444678 83.207403,88.0924828 C81.1150061,88.5947243 79.0246768,88.7929096 76.8723199,88.4656134 C76.0673399,88.342958 75.2258324,88.4062224 74.4015549,88.419779 C72.8122706,88.4456012 72.104467,88.160266 71.8101806,87.335247 C71.5103807,86.4966714 72.041061,85.4799227 73.1658277,84.7375348 C73.2781666,84.663296 73.3939514,84.592285 73.5076686,84.5199828 C73.4931955,84.4541362 73.4787224,84.3876441 73.4642493,84.3217975" id="Fill-11" fill="#000000"></path>
            <path d="M106.737017,84.5367309 C104.800007,85.761834 102.794996,86.7779571 100.467836,87.0033816 C100.126455,87.0369554 99.7837008,87.0814922 99.441633,87.0801218 C97.9923099,87.0718996 97.2916892,86.6299581 97.0554014,85.5994462 C96.8156793,84.5552308 97.6207062,82.9382042 98.6524044,82.573688 C101.555172,81.5493428 104.472364,80.5661085 107.388183,79.5773926 C107.711018,79.4677637 108.053772,79.3951346 108.393092,79.3622459 C109.24414,79.279339 109.843102,79.6637254 110.218827,80.4181094 C110.614472,81.2101784 110.441378,81.9529143 109.795708,82.4572073 C108.826516,83.214332 107.76116,83.8494946 106.737017,84.5367309" id="Fill-13" fill="#000000"></path>
            <path d="M118.790518,77.8696014 C117.55283,78.2477672 116.551342,78.7425572 115.518136,78.8274375 C113.835042,78.9647642 112.984721,77.4017246 113.899153,75.9332265 C114.353332,75.2024279 114.945857,74.47784 115.64096,74.0044426 C117.19988,72.9437839 118.866102,72.0487454 120.480361,71.0722769 C121.211906,70.6306234 121.939402,70.3042138 122.700641,70.9729049 C123.358627,71.5518851 123.611698,72.7622919 122.912546,73.6028139 C121.622219,75.1534319 120.117288,76.5177274 118.790518,77.8696014" id="Fill-19" fill="#000000"></path>
        </g>
        <g id="Page-1" transform="translate(-18.000000, 56.000000)">
            <mask id="mask-4" fill="white">
                <use xlink:href="#path-3"></use>
            </mask>
            <g id="Clip-2"></g>
            <path d="M40.8740068,61.0179207 C40.7545157,59.9885839 40.4689452,59.1295905 40.6031029,58.3407889 C40.8645165,56.7987096 42.4071153,56.3544469 43.4454361,57.5190314 C44.7348175,58.964811 45.8749429,60.5411302 47.0918532,62.0515376 C47.5081305,62.56856 47.9688396,63.0500586 48.3959013,63.558949 C49.5705368,64.9589327 49.2862603,66.8083151 47.7065633,67.7614682 C47.1418927,68.1021552 46.5047511,68.3422625 45.876237,68.5584018 C43.7422224,69.2924196 41.5952666,69.9900574 39.457801,70.7150872 C39.1226222,70.8285069 38.7706198,70.9599025 38.496265,71.1717618 C37.5394742,71.9100596 36.4895062,72.1527349 35.3265179,71.9079196 C34.0535288,69.8736418 34.5940423,68.1137111 36.7552335,67.2316058 C37.4182576,66.9615387 38.0942231,66.7210034 38.768463,66.4787561 C39.4276047,66.2420728 40.0923544,66.0207975 41.0508707,65.6908105 C37.8720647,64.6978535 35.0392218,63.8110402 32.2046534,62.9289349 C26.6097132,61.1874082 21.3840304,58.6596479 16.6570177,55.2420783 C12.0244762,51.8934165 7.70425062,48.1432919 5.03533042,42.9726396 C3.59496763,40.1825161 2.48245022,37.2357451 1.02785205,34.4297856 C-0.680826299,31.1329116 -0.109253765,27.729038 1.64169938,24.4582719 C3.15108225,21.6390445 4.99607525,19.0821803 7.16718813,16.7542954 C7.89189896,15.9766217 8.77880699,15.3363357 9.64069523,14.6986176 C12.6046763,12.5064083 15.5600298,10.298791 18.7975029,8.50376446 C19.1106815,8.33042498 19.4212719,8.10058968 19.7607644,8.03382189 C22.1147805,7.57201129 24.1176569,6.23151937 26.3439859,5.47738566 C28.7644338,4.65734016 31.263392,4.07055394 33.7136049,3.33439618 C37.0386472,2.33587522 40.4948277,2.1783717 43.9070079,1.80558483 C46.4452213,1.52866967 49.0248468,1.63652534 51.584629,1.54450562 C53.1211885,1.48929379 54.657748,1.40883004 56.1899938,1.2898464 C61.5135988,0.875971658 66.8359097,0.443264974 72.1582206,0.0118422861 C73.7400745,-0.116557323 74.7292186,0.808347863 74.6153354,2.33972721 C74.604551,2.48653076 74.4686678,2.72535403 74.5139622,2.75916593 C75.0764758,3.17946065 75.1838883,3.61002734 74.6606299,4.14673771 C74.0592924,4.76433983 73.4092095,5.14012269 72.479164,5.00658709 C71.6194326,4.88375147 70.7320932,4.81527168 69.8680481,4.87561949 C65.8333931,5.15852663 61.8047773,5.52532152 57.7696909,5.79966868 C55.2664189,5.96958417 52.7549507,6.13393567 50.2486591,6.11253573 C46.3567893,6.07915183 42.5749203,6.75025379 38.8120319,7.59041524 C36.2531124,8.1613655 33.7036832,8.7845316 31.1745287,9.47403751 C28.3899999,10.2328792 25.8284922,11.5275753 23.2700041,12.8411033 C19.3289575,14.8646811 15.7619135,17.3821695 12.5330679,20.3961363 C8.94531793,23.7447981 6.93208848,27.8737015 6.20478939,32.668571 C5.80662981,35.296483 6.30788814,37.6051079 8.39272592,39.4630503 C9.57124378,40.5129311 10.6790161,41.6462717 11.7548665,42.8005841 C12.1935754,43.2709547 12.4627537,43.8971168 12.8803252,44.5656508 C12.3669884,44.9221737 11.838122,45.2893966 11.1345486,45.7777431 C12.2302423,46.8999557 13.2077392,48.0649681 14.3500215,49.0399492 C17.8691828,52.043644 21.6109339,54.7802677 25.8220215,56.7306578 C28.6030994,58.0185059 31.5739824,58.9113111 34.482316,59.9175361 C35.9356201,60.4204345 37.4411206,60.7748175 38.9194444,61.2088082 C39.6501945,61.4232355 40.3334933,61.3808636 40.8740068,61.0179207" id="Fill-1" fill="#000000" mask="url(#mask-4)"></path>
        </g>
    </g>
</svg>