<?xml version="1.0" encoding="UTF-8"?>
<svg width="200px" height="200px" viewBox="0 0 200 200" version="1.1" xmlns="http://www.w3.org/2000/svg" xmlns:xlink="http://www.w3.org/1999/xlink">
    <!-- Generator: Sketch 49.2 (51160) - http://www.bohemiancoding.com/sketch -->
    <title>preview/firefly</title>
    <desc>Created with Sketch.</desc>
    <defs>
        <polygon id="path-1" points="2.52319171 0.371634859 8.29015544e-05 0.371634859 8.29015544e-05 2.88208814 2.52319171 2.88208814 2.52319171 0.371634859"></polygon>
        <polygon id="path-3" points="20.4307979 0.371634859 0.313906736 0.371634859 0.313906736 21.8447465 20.4307979 21.8447465"></polygon>
        <polygon id="path-5" points="2.52319171 0.371634859 8.29015544e-05 0.371634859 8.29015544e-05 2.88208814 2.52319171 2.88208814 2.52319171 0.371634859"></polygon>
        <polygon id="path-7" points="18.6792124 0.371634859 0.353409326 0.371634859 0.353409326 21.8447053 18.6792124 21.8447053 18.6792124 0.371634859"></polygon>
        <polygon id="path-9" points="2.8585285 0.371634859 0.335419689 0.371634859 0.335419689 2.88208814 2.8585285 2.88208814"></polygon>
        <polygon id="path-11" points="2.61670466 0.371634859 0.0935958549 0.371634859 0.0935958549 2.88208814 2.61670466 2.88208814 2.61670466 0.371634859"></polygon>
        <polygon id="path-13" points="20.4397927 21.8447465 20.4397927 0.371634859 0.113658031 0.371634859 0.113658031 21.8447465 20.4397927 21.8447465"></polygon>
        <polygon id="path-15" points="2.61873575 0.371634859 0.095626943 0.371634859 0.095626943 2.88208814 2.61873575 2.88208814 2.61873575 0.371634859"></polygon>
        <polygon id="path-17" points="2.52319171 0.371634859 8.29015544e-05 0.371634859 8.29015544e-05 2.88208814 2.52319171 2.88208814 2.52319171 0.371634859"></polygon>
        <polygon id="path-19" points="2.52319171 0.371634859 8.29015544e-05 0.371634859 8.29015544e-05 2.88208814 2.52319171 2.88208814 2.52319171 0.371634859"></polygon>
    </defs>
    <g id="preview/firefly" stroke="none" stroke-width="1" fill="none" fill-rule="evenodd">
        <g id="Group-6" transform="translate(0.000000, -63.000000)">
            <g id="Group-4">
                <polygon id="Page-1-Copy" fill="#0F0F38" points="0 355.639098 200 355.639098 200 0 0 0"></polygon>
                <g id="Group-12-Copy" transform="translate(54.933333, 224.473853)">
                    <mask id="mask-2" fill="white">
                        <use xlink:href="#path-1"></use>
                    </mask>
                    <g id="Clip-11"></g>
                    <polygon id="Fill-10" fill="#D6FF66" mask="url(#mask-2)" points="2.52319171 1.61003275 1.24484974 2.88208814 8.29015544e-05 1.64385524 1.27842487 0.371387378"></polygon>
                </g>
                <g id="Page-1-Copy-2" transform="translate(19.733333, 151.426542)">
                    <polygon id="Fill-1" fill="#464CBC" points="70.4 0.533192051 70.4 3.01085904 73.9777452 3.01085904 73.9777452 19.3827974 70.4 19.3827974 70.4 21.8608741 89.6 21.8608741 89.6 16.0198397 86.9170016 16.0198397 86.9170016 19.2058212 78.3003537 19.2058212 78.3003537 12.4504097 82.9815233 12.4504097 82.9815233 14.2205815 85.4856551 14.2205815 85.4856551 8.17307492 82.9815233 8.17307492 82.9815233 9.97274275 78.3003537 9.97274275 78.3003537 3.01085904 86.0226689 3.01085904 86.0226689 5.87238415 88.7056672 5.87238415 88.7056672 0.533192051"></polygon>
                    <polygon id="Fill-2" fill="#464CBC" points="1.06666667 0.533192051 1.06666667 3.01085904 4.61040013 3.01085904 4.61040013 19.3827974 1.06666667 19.3827974 1.06666667 21.8608741 12.4369652 21.8608741 12.4369652 19.3827974 8.89282155 19.3827974 8.89282155 13.1587243 13.5004954 13.1587243 13.5004954 14.9284864 15.9806986 14.9284864 15.9806986 8.88138944 13.5004954 8.88138944 13.5004954 10.6806476 8.89282155 10.6806476 8.89282155 3.01085904 16.5421999 3.01085904 16.5421999 6.93424143 19.2 6.93424143 19.2 0.533192051"></polygon>
                    <polygon id="Fill-3" fill="#464CBC" points="24 0.533192051 24 3.01085904 30.3961112 3.01085904 30.3961112 19.3827974 24 19.3827974 24 21.8608741 41.0666667 21.8608741 41.0666667 19.3827974 34.6705555 19.3827974 34.6705555 3.01085904 41.0666667 3.01085904 41.0666667 0.533192051"></polygon>
                    <polygon id="Fill-4" fill="#464CBC" points="116.266667 0.533192051 116.266667 3.01085904 120.559168 3.01085904 120.559168 19.3827974 116.266667 19.3827974 116.266667 21.8608741 136 21.8608741 136 14.0436053 133.317446 14.0436053 133.317446 19.2058212 124.881475 19.2058212 124.881475 3.01085904 128.459042 3.01085904 128.459042 0.533192051"></polygon>
                    <g id="Group-32">
                        <g id="Group-7" transform="translate(45.181347, 0.000000)">
                            <mask id="mask-4" fill="white">
                                <use xlink:href="#path-3"></use>
                            </mask>
                            <g id="Clip-6"></g>
                            <path d="M7.1491399,10.410272 L8.61152332,10.410272 C10.6115233,10.410272 12.8498653,8.7467832 12.8498653,5.80670187 C12.8498653,2.86620807 10.5812642,2.86620807 9.11888083,2.86620807 L7.1491399,2.86620807 L7.1491399,10.410272 Z M7.1491399,19.3501321 L9.6560829,19.3501321 L9.6560829,21.8447465 L0.313906736,21.8447465 L0.313906736,19.3501321 L2.82126425,19.3501321 L2.82126425,2.86620807 L0.313906736,2.86620807 L0.313906736,0.371593612 L10.9990881,0.371593612 C14.0436477,0.371593612 15.0882073,0.906153854 15.8944249,1.61890084 C16.9986736,2.59892795 17.5955648,4.05411972 17.5955648,5.7176085 C17.5955648,9.37043681 14.5808497,11.0636234 13.3572228,11.7763704 L18.6102798,19.3501321 L20.4307979,19.3501321 L20.4307979,21.8447465 L15.1777409,21.8447465 L8.88012435,12.9048864 L7.1491399,12.9048864 L7.1491399,19.3501321 Z" id="Fill-5" fill="#464CBC" mask="url(#mask-4)"></path>
                        </g>
                        <polygon id="Fill-8" fill="#D6FF66" points="71.8257409 20.5886537 70.547399 21.8607091 69.3026321 20.6224762 70.5809741 19.3500083"></polygon>
                        <g id="Group-12">
                            <mask id="mask-6" fill="white">
                                <use xlink:href="#path-5"></use>
                            </mask>
                            <g id="Clip-11"></g>
                            <polygon id="Fill-10" fill="#D6FF66" mask="url(#mask-6)" points="2.52319171 1.61003275 1.24484974 2.88208814 8.29015544e-05 1.64385524 1.27842487 0.371387378"></polygon>
                        </g>
                        <g id="Group-15" transform="translate(93.678756, 0.000000)">
                            <mask id="mask-8" fill="white">
                                <use xlink:href="#path-7"></use>
                            </mask>
                            <g id="Clip-14"></g>
                            <polygon id="Fill-13" fill="#464CBC" mask="url(#mask-8)" points="0.353409326 19.3500908 3.93517098 19.3500908 3.93517098 2.86616683 0.353409326 2.86616683 0.353409326 0.371552365 18.6792124 0.371552365 18.6792124 6.81638552 15.9927876 6.81638552 15.9927876 2.86616683 8.26263212 2.86616683 8.26263212 10.5884175 12.9187979 10.5884175 12.9187979 8.77685221 15.4257409 8.77685221 15.4257409 14.8653119 12.9187979 14.8653119 12.9187979 13.0834444 8.26263212 13.0834444 8.26263212 19.3500908 11.8443938 19.3500908 11.8443938 21.8447053 0.353409326 21.8447053"></polygon>
                        </g>
                        <g id="Group-18" transform="translate(92.435233, 0.000000)">
                            <mask id="mask-10" fill="white">
                                <use xlink:href="#path-9"></use>
                            </mask>
                            <g id="Clip-17"></g>
                            <polygon id="Fill-16" fill="#D6FF66" mask="url(#mask-10)" points="2.8585285 1.61003275 1.58018653 2.88208814 0.335419689 1.64385524 1.61376166 0.371387378"></polygon>
                        </g>
                        <polygon id="Fill-19" fill="#D6FF66" points="25.2015337 20.5726086 23.9231917 21.844664 22.6784249 20.6064311 23.9567668 19.3339633"></polygon>
                        <g id="Group-23" transform="translate(126.839378, 0.000000)">
                            <mask id="mask-12" fill="white">
                                <use xlink:href="#path-11"></use>
                            </mask>
                            <g id="Clip-22"></g>
                            <polygon id="Fill-21" fill="#D6FF66" mask="url(#mask-12)" points="2.61670466 1.61003275 1.33836269 2.88208814 0.0935958549 1.64385524 1.37193782 0.371387378"></polygon>
                        </g>
                        <polygon id="Fill-24" fill="#D6FF66" points="66.8737409 20.5726086 65.595399 21.844664 64.3506321 20.6064311 65.6289741 19.3339633"></polygon>
                        <g id="Group-28" transform="translate(139.274611, 0.000000)">
                            <mask id="mask-14" fill="white">
                                <use xlink:href="#path-13"></use>
                            </mask>
                            <g id="Clip-27"></g>
                            <polygon id="Fill-26" fill="#464CBC" mask="url(#mask-14)" points="1.99427979 2.86620807 0.113658031 2.86620807 0.113658031 0.371593612 9.27676684 0.371593612 9.27676684 2.86620807 7.18764767 2.86620807 11.605057 9.45994266 15.6340725 2.86620807 13.4255751 2.86620807 13.4255751 0.371593612 20.4398756 0.371593612 20.4398756 2.86620807 18.6492021 2.86620807 12.7093057 12.400024 12.7093057 19.3501321 17.0073368 19.3501321 17.0073368 21.8447465 4.08339896 21.8447465 4.08339896 19.3501321 8.38143005 19.3501321 8.38143005 12.400024"></polygon>
                        </g>
                        <g id="Group-31" transform="translate(138.031088, 0.000000)">
                            <mask id="mask-16" fill="white">
                                <use xlink:href="#path-15"></use>
                            </mask>
                            <g id="Clip-30"></g>
                            <polygon id="Fill-29" fill="#D6FF66" mask="url(#mask-16)" points="2.61873575 1.61003275 1.34039378 2.88208814 0.095626943 1.64385524 1.37396891 0.371387378"></polygon>
                        </g>
                    </g>
                </g>
                <g id="Group-12-Copy-2" transform="translate(140.266667, 106.638410)">
                    <mask id="mask-18" fill="white">
                        <use xlink:href="#path-17"></use>
                    </mask>
                    <g id="Clip-11"></g>
                    <polygon id="Fill-10" fill="#D6FF66" mask="url(#mask-18)" points="2.52319171 1.61003275 1.24484974 2.88208814 8.29015544e-05 1.64385524 1.27842487 0.371387378"></polygon>
                </g>
                <g id="Group-12-Copy-3" transform="translate(132.800000, 233.004926)">
                    <mask id="mask-20" fill="white">
                        <use xlink:href="#path-19"></use>
                    </mask>
                    <g id="Clip-11"></g>
                    <polygon id="Fill-10" fill="#D6FF66" mask="url(#mask-20)" points="2.52319171 1.61003275 1.24484974 2.88208814 8.29015544e-05 1.64385524 1.27842487 0.371387378"></polygon>
                </g>
            </g>
        </g>
    </g>
</svg>