<svg id="Layer_1" data-name="Layer 1" xmlns="http://www.w3.org/2000/svg" viewBox="0 0 112.46 62.21"><title>logoArtboard 1</title><path d="M111.45,33.62a181.33,181.33,0,0,1-24.84,4.54h0l-5.81.65q.65-3.6,1.44-12.92T83,11a20.56,20.56,0,0,0-.36-4.54,24.76,24.76,0,0,0-4.54,3.31,41.48,41.48,0,0,0-4.54,4.68q.72,7.92,1.33,18.11t.68,17.24l6.91-.72h0a86.32,86.32,0,0,0,12.9-2.3A89.31,89.31,0,0,0,107.06,43l-.72,3.6,2.09.29,4-11.81Z"/><path d="M66.63,24.44a9.41,9.41,0,0,0-4.39-1,12.28,12.28,0,0,0-3.42.47,8.56,8.56,0,0,0-2.7,1.26q-1.23.86-2.41,3.92a14.27,14.27,0,0,0-1.19,4.64A3.58,3.58,0,0,0,53,35.35q-.72.15-2.16.29l-2,.22h0L43,36.43l1.3-6L42,30.24,40.37,35.5a22.32,22.32,0,0,1-8.06,2.09h0L27.94,38q.14-1.87.29-4.39t.22-4q0-7.7-3.13-12a10.39,10.39,0,0,0-8.89-4.25q-3.24,0-7.13,3.24A29.35,29.35,0,0,0,2.7,24.52,17.24,17.24,0,0,0,0,33a7.63,7.63,0,0,0,2.3,5.47A8.13,8.13,0,0,0,8.42,40.9a13.29,13.29,0,0,0,3.42-.47,11.46,11.46,0,0,0,3.06-1.26q2.3-1.44,5.33-6.19-.07,3-.94,14.69l-.14,1.87,9-1h0q7-.72,9.41-3.88l-.86,3,7.92-.79h0A61.15,61.15,0,0,0,60.3,43.42a13,13,0,0,0,4-3.71,21.26,21.26,0,0,0,3.06-6,21.65,21.65,0,0,0,1.15-6.95Q68.5,25.42,66.63,24.44ZM14.4,30.89a9.88,9.88,0,0,1-5.54-1.66,6.48,6.48,0,0,1-3-4.25,12.07,12.07,0,0,1,4.1-.65,15.58,15.58,0,0,1,6.55,1.15,6.12,6.12,0,0,1,3.31,3.89A9.62,9.62,0,0,1,14.4,30.89Z"/><polygon points="29.36 62.21 42.17 59.4 43.61 51.98 30.58 55.51 29.36 62.21"/><polygon points="22.9 0 9.86 3.53 8.64 10.22 21.46 7.42 22.9 0"/></svg>