<?xml version="1.0" encoding="UTF-8"?>
<svg width="200px" height="248px" viewBox="0 0 200 248" version="1.1" xmlns="http://www.w3.org/2000/svg" xmlns:xlink="http://www.w3.org/1999/xlink" style="background: #FFFFFF;">
    <!-- Generator: Sketch 49.2 (51160) - http://www.bohemiancoding.com/sketch -->
    <title>preview/inked</title>
    <desc>Created with Sketch.</desc>
    <defs>
        <path d="M0,0 L200,0 L200,248 L0,248 L0,0 Z" id="path-1"></path>
    </defs>
    <g id="preview/inked" stroke="none" stroke-width="1" fill="none" fill-rule="evenodd">
        <g id="Page-1">
            <g id="Group-3">
                <mask id="mask-2" fill="white">
                    <use xlink:href="#path-1"></use>
                </mask>
                <g id="Clip-2"></g>
                <path d="M107.320174,57.441969 C107.320174,58.6054452 106.88391,59.5796357 106.008852,60.3670643 C105.136323,61.1481833 103.133299,61.5418976 99.999782,61.5444214 C96.8675291,61.5418976 94.8645058,61.1481833 93.9919767,60.3670643 C93.1169186,59.5796357 92.6793895,58.6054452 92.6793895,57.441969 L92.6793895,39.30335 C92.6793895,38.1979214 93.1169186,37.2514929 93.9919767,36.46785 C94.8645058,35.6829452 96.8675291,35.2904929 99.999782,35.287969 C103.133299,35.2904929 105.136323,35.6829452 106.008852,36.46785 C106.88391,37.2514929 107.320174,38.1979214 107.320174,39.30335 L107.320174,57.441969 Z M180.22314,81.3399214 C179.728706,80.8477786 178.925727,80.5979214 177.819259,80.5979214 L160.148648,80.5979214 C159.039651,80.5979214 158.237936,80.8477786 157.742238,81.3399214 C157.247805,81.83585 156.999956,82.6371595 156.999956,83.7413262 L156.999956,84.2978262 C156.999956,84.2978262 156.997427,84.2978262 156.996163,84.2978262 L110.218488,84.2978262 L110.218488,77.7043738 C111.365422,77.528969 112.460509,77.3283262 113.455698,77.0822548 C116.98375,76.2090167 119.753081,75.0026357 121.764956,73.4593262 C123.776831,71.9185405 125.176672,70.0547071 125.964477,67.8741357 C126.751017,65.6897786 127.145552,63.2618738 127.145552,60.5841119 L127.145552,36.1612071 C127.145552,33.485969 126.751017,31.0555405 125.964477,28.8711833 C125.176672,26.68935 123.776831,24.8128976 121.764956,23.2418262 C119.753081,21.6707548 116.98375,20.447969 113.455698,19.5759929 C109.926381,18.7027548 105.451192,18.2661357 100.027602,18.2661357 C94.6040116,18.2661357 90.1136483,18.7027548 86.5565116,19.5759929 C82.9981105,20.447969 80.2148692,21.6707548 78.2029942,23.2418262 C76.1911192,24.8128976 74.7912791,26.68935 74.0034738,28.8711833 C73.2169331,31.0555405 72.8223983,33.485969 72.8223983,36.1612071 L72.8223983,60.5841119 C72.8223983,63.2618738 73.2169331,65.6897786 74.0034738,67.8741357 C74.7912791,70.0547071 76.1911192,71.9185405 78.2029942,73.4593262 C80.2148692,75.0026357 82.9981105,76.2090167 86.5565116,77.0822548 C87.5415843,77.3245405 88.618968,77.5213976 89.7494622,77.6955405 L89.7494622,84.2978262 L42.9705233,84.2978262 L42.9679942,84.2978262 L42.9679942,83.7413262 C42.9679942,82.6371595 42.7201453,81.83585 42.2257122,81.3399214 C41.7300145,80.8477786 40.9282994,80.5979214 39.8193023,80.5979214 L22.1486919,80.5979214 C21.0409593,80.5979214 20.2392442,80.8477786 19.744811,81.3399214 C19.2491134,81.83585 19,82.6371595 19,83.7413262 L19,101.462255 C19,102.567683 19.2491134,103.368993 19.744811,103.862398 C20.2392442,104.357064 21.0409593,104.604398 22.1486919,104.604398 L39.8193023,104.604398 C40.9282994,104.604398 41.7300145,104.357064 42.2257122,103.862398 C42.7201453,103.368993 42.9679942,102.567683 42.9679942,101.462255 L42.9679942,101.144255 L42.9705233,101.144255 L89.7481977,101.144255 L89.7481977,131.456469 L86.8271221,131.456469 C85.7193895,131.456469 84.8013372,131.660898 84.0717006,132.067231 C83.3433285,132.474826 82.7742878,133.231969 82.365843,134.33866 L73.7922965,155.725421 C73.2675145,157.003731 72.8299855,158.125564 72.4809738,159.084612 C72.1306977,160.044921 71.8398547,160.961064 71.6059157,161.835564 C71.3732413,162.708802 71.2126453,163.624945 71.1253924,164.585255 C71.036875,165.544302 70.9938808,166.724183 70.9938808,168.121112 L70.9938808,206.081731 L63.3307994,206.081731 C62.2230669,206.081731 61.4200872,206.329064 60.9243895,206.822469 C60.4299564,207.317136 60.180843,208.117183 60.180843,209.223874 L60.180843,226.857731 C60.180843,227.96316 60.4299564,228.763207 60.9243895,229.256612 C61.4200872,229.751279 62.2230669,229.999874 63.3307994,229.999874 L91.7992733,229.999874 C92.9070058,229.999874 93.7099855,229.751279 94.2044186,229.256612 C94.7001163,228.763207 94.9479651,227.96316 94.9479651,226.857731 L94.9479651,209.223874 C94.9479651,208.117183 94.7001163,207.317136 94.2044186,206.822469 C93.7099855,206.329064 92.9070058,206.081731 91.7992733,206.081731 L91.0253779,206.081731 L91.0253779,167.160802 C91.0253779,166.577802 91.084811,165.994802 91.1998837,165.413064 C91.3174855,164.831326 91.4932558,164.220564 91.7246657,163.58204 L95.8369331,151.273421 C96.011439,150.690421 96.2162936,150.296707 96.448968,150.09354 C96.682907,149.890374 97.0331831,149.789421 97.498532,149.789421 L102.03189,149.789421 C102.499767,149.789421 102.848779,149.890374 103.081453,150.09354 C103.315392,150.296707 103.518983,150.690421 103.693488,151.273421 L107.805756,163.492445 C108.03843,164.133493 108.214201,164.744255 108.330538,165.327255 C108.44814,165.907731 108.505044,166.490731 108.505044,167.073731 L108.505044,206.081731 L107.98532,206.081731 C106.876323,206.081731 106.074608,206.329064 105.580174,206.822469 C105.083212,207.317136 104.836628,208.117183 104.836628,209.223874 L104.836628,226.857731 C104.836628,227.96316 105.083212,228.763207 105.580174,229.256612 C106.074608,229.751279 106.876323,229.999874 107.98532,229.999874 L136.453794,229.999874 C137.561526,229.999874 138.364506,229.751279 138.860203,229.256612 C139.354637,228.763207 139.60375,227.96316 139.60375,226.857731 L139.60375,209.223874 C139.60375,208.117183 139.354637,207.317136 138.860203,206.822469 C138.364506,206.329064 137.561526,206.081731 136.453794,206.081731 L128.97407,206.081731 L128.97407,168.121112 C128.97407,166.724183 128.931076,165.544302 128.842558,164.585255 C128.755305,163.624945 128.595974,162.708802 128.362035,161.835564 C128.12936,160.961064 127.837253,160.044921 127.486977,159.084612 C127.137965,158.125564 126.700436,157.003731 126.175654,155.725421 L117.602108,134.33866 C117.194927,133.231969 116.627151,132.474826 115.89625,132.067231 C115.167878,131.660898 114.249826,131.456469 113.140828,131.456469 L110.217224,131.456469 L110.217224,101.144255 L156.996163,101.144255 C156.997427,101.144255 156.998692,101.144255 156.998692,101.144255 L156.999956,101.462255 C156.999956,102.567683 157.247805,103.368993 157.742238,103.862398 C158.237936,104.357064 159.039651,104.604398 160.148648,104.604398 L177.819259,104.604398 C178.925727,104.604398 179.728706,104.357064 180.22314,103.862398 C180.718837,103.368993 180.967951,102.567683 180.967951,101.462255 L180.967951,83.7413262 C180.967951,82.6371595 180.718837,81.83585 180.22314,81.3399214 Z" id="Fill-1" fill="#000000" mask="url(#mask-2)"></path>
            </g>
            <path d="M100.369003,69.3075645 C100.358877,69.3075645 100.351283,69.3075645 100.341158,69.3075645 C100.332298,69.3075645 100.323439,69.3075645 100.313313,69.3075645 C93.8343334,69.3075645 89.4272602,68.2996157 87.0933593,66.2824503 C84.7569271,64.2652849 83.5912423,61.6205288 83.5912423,58.3443784 L83.5912423,37.8405452 C83.5912423,34.5669305 84.7569271,31.9196387 87.0933593,29.9024733 C89.4272602,27.8853079 93.8343334,26.8773592 100.313313,26.8773592 C100.323439,26.8773592 100.332298,26.8773592 100.341158,26.8773592 C100.351283,26.8773592 100.358877,26.8773592 100.369003,26.8773592 C106.847983,26.8773592 111.284166,27.8853079 113.677554,29.9024733 C116.069676,31.9196387 117.267002,34.5669305 117.267002,37.8405452 L117.267002,58.3443784 C117.267002,61.6205288 116.069676,64.2652849 113.677554,66.2824503 C111.284166,68.2996157 106.847983,69.3075645 100.369003,69.3075645 Z M169.124154,88.6525735 L169.124154,92.0795993 L160.716289,92.0795993 L157.567295,92.0795993 L152.836209,92.0795993 L100.938556,92.0795993 L100.938556,84.1871703 L100.938556,78.245978 L100.938556,74.7111841 L100.938556,70.1735129 C107.449177,70.1113877 111.939785,69.0235638 114.378737,66.8948267 C116.8873,64.7039645 118.142848,61.8525472 118.142848,58.3443784 L118.142848,37.8405452 C118.142848,34.3323764 116.8873,31.4809591 114.378737,29.2900969 C111.867642,27.0954311 107.198574,26 100.369003,26 C93.5406973,26 88.8994746,27.0954311 86.4478661,29.2900969 C83.9962576,31.4809591 82.7698205,34.3323764 82.7698205,37.8405452 L82.7698205,58.3443784 C82.7698205,61.8525472 83.9962576,64.7039645 86.4478661,66.8948267 C88.8615044,69.0527246 93.406536,70.1443521 100.06271,70.1785843 L100.06271,74.7111841 L100.06271,78.2434423 L100.06271,84.1871703 L100.06271,92.0795993 L48.1637908,92.0795993 L43.4327054,92.0795993 L40.2837111,92.0795993 L31.8758457,92.0795993 L31.8758457,88.6525735 L31,88.6525735 L31,96.983682 L31.8758457,96.983682 L31.8758457,92.9569584 L40.2837111,92.9569584 L43.4327054,92.9569584 L48.1637908,92.9569584 L100.06271,92.9569584 L100.06271,131.569637 L100.06271,139.440512 L100.06271,139.463334 L94.7734628,139.463334 C92.9648161,139.463334 91.6219371,140.017389 90.7460914,141.129302 C89.8702458,142.23868 89.0829972,143.642201 88.3818144,145.33733 L82.6040174,159.372541 C82.0787631,160.656883 81.7142493,161.986868 81.5092103,163.362496 C81.3054369,164.735589 81.2029174,166.241807 81.2029174,167.879882 L81.2029174,194.654551 L81.1965891,194.654551 L81.1965891,206.54581 L81.1965891,212.615057 L81.1965891,218.122641 L68.5411253,218.122641 L68.5411253,219 L87.5793777,219 L87.5793777,218.122641 L82.0724347,218.122641 L82.0724347,212.615057 L82.0724347,206.54581 L82.0724347,204.723896 L82.0787631,204.723896 L82.0787631,167.879882 C82.0787631,166.357182 82.195205,164.909286 82.4280888,163.537461 C82.6622383,162.164369 83.0128297,160.891437 83.4785974,159.72247 L89.2576601,145.688527 C89.8411353,144.168363 90.4992852,142.895431 91.2270472,141.873536 C91.9586061,140.850373 93.139479,140.338157 94.7734628,140.338157 L100.06271,140.338157 L100.938556,140.338157 L106.051874,140.338157 C107.685858,140.338157 108.869262,140.850373 109.59829,141.873536 C110.328583,142.895431 110.985468,144.168363 111.567677,145.688527 L117.34674,159.72247 C117.813773,160.891437 118.164364,162.164369 118.397248,163.537461 C118.631398,164.909286 118.74784,166.357182 118.74784,167.879882 L118.74784,194.654551 L118.744043,194.654551 L118.744043,206.54581 L118.744043,212.615057 L118.744043,218.122641 L113.2371,218.122641 L113.2371,219 L132.275352,219 L132.275352,218.122641 L119.621154,218.122641 L119.621154,212.615057 L119.621154,206.54581 L119.621154,204.723896 L119.62242,204.723896 L119.62242,167.879882 C119.62242,166.241807 119.521166,164.735589 119.316127,163.362496 C119.112354,161.986868 118.74784,160.656883 118.222585,159.372541 L112.443523,145.33733 C111.743606,143.642201 110.955091,142.23868 110.079246,141.129302 C109.2034,140.017389 107.861787,139.463334 106.051874,139.463334 L100.938556,139.463334 L100.938556,139.440512 L100.938556,131.569637 L100.938556,92.9569584 L152.836209,92.9569584 L157.567295,92.9569584 L160.716289,92.9569584 L169.124154,92.9569584 L169.124154,96.983682 L170,96.983682 L170,88.6525735 L169.124154,88.6525735 Z" id="Fill-4" fill="#FFFFFF"></path>
        </g>
    </g>
</svg>