<?xml version="1.0" encoding="UTF-8"?>
<svg width="200px" height="160px" viewBox="0 0 200 160" version="1.1" xmlns="http://www.w3.org/2000/svg" xmlns:xlink="http://www.w3.org/1999/xlink">
    <!-- Generator: Sketch 49.2 (51160) - http://www.bohemiancoding.com/sketch -->
    <title>preview/parks</title>
    <desc>Created with Sketch.</desc>
    <defs>
        <polygon id="path-1" points="0 12.7826087 0 0 27.8173913 0 27.8173913 25.5652174 13.9086957 25.5652174 0 25.5652174"></polygon>
        <polygon id="path-3" points="0 27.7357706 10.057314 27.7357706 10.057314 -5.68434189e-14 0 -5.68434189e-14"></polygon>
    </defs>
    <g id="preview/parks" stroke="none" stroke-width="1" fill="none" fill-rule="evenodd">
        <rect id="Rectangle-4" fill="#FFFFFF" x="0" y="0" width="200" height="160"></rect>
        <g id="Group" transform="translate(4.000000, 12.000000)">
            <path d="M31.4589998,56.74 C31.7590013,56.74 31.9089998,56.9099983 31.9089998,57.25 L31.9089998,78.46 C31.9089998,78.6200008 31.8440004,78.7499995 31.7139998,78.85 C31.5839991,78.9500005 31.4190008,79 31.2189998,79 L27.1089998,79 C26.9289989,79 26.7840003,78.9700003 26.6739998,78.91 C26.5639992,78.8499997 26.4390005,78.7300009 26.2989998,78.55 L18.0489998,67.36 C17.9689994,67.2599995 17.8990001,67.2199999 17.8389998,67.24 C17.7789995,67.2600001 17.7489998,67.3199995 17.7489998,67.42 L17.7489998,78.34 C17.7689999,78.5800012 17.7240003,78.7499995 17.6139998,78.85 C17.5039992,78.9500005 17.3090012,79 17.0289998,79 L12.9489998,79 C12.4489973,79 12.1989998,78.800002 12.1989998,78.4 L12.1989998,57.43 C12.1989998,56.9699977 12.4189976,56.74 12.8589998,56.74 L17.7489998,56.74 C18.0090011,56.74 18.2039991,56.7749996 18.3339998,56.845 C18.4640004,56.9150003 18.608999,57.0599989 18.7689998,57.28 L25.9689998,67.3 C26.0890004,67.4800009 26.1989993,67.57 26.2989998,67.57 C26.3990003,67.57 26.4489998,67.4400013 26.4489998,67.18 L26.4489998,57.37 C26.4489998,56.9499979 26.6689976,56.74 27.1089998,56.74 L31.4589998,56.74 Z M56.7229998,56.74 C57.0830016,56.74 57.2629998,56.8599988 57.2629998,57.1 C57.2629998,57.1600003 57.2230002,57.2699992 57.1429998,57.43 L50.1229998,68.77 C49.9829991,68.970001 49.898,69.1899988 49.8679998,69.43 C49.8379997,69.6700012 49.8229998,70.1099968 49.8229998,70.75 L49.8229998,78.13 C49.8229998,78.4500016 49.7430006,78.6749994 49.5829998,78.805 C49.422999,78.9350007 49.1730015,79 48.8329998,79 L43.7929998,79 C43.4929983,79 43.2880004,78.9400006 43.1779998,78.82 C43.0679993,78.6999994 43.0129998,78.5100013 43.0129998,78.25 L43.0129998,70.36 C43.0129998,70.0799986 42.9830001,69.8550008 42.9229998,69.685 C42.8629995,69.5149991 42.7530006,69.3000013 42.5929998,69.04 L35.5729998,57.58 C35.4929994,57.4399993 35.4529998,57.3100006 35.4529998,57.19 C35.4529998,56.8899985 35.6729976,56.74 36.1129998,56.74 L42.1429998,56.74 C42.4230012,56.74 42.6279992,56.7799996 42.7579998,56.86 C42.8880005,56.9400004 43.0229991,57.1099987 43.1629998,57.37 L46.8529998,64.03 C46.9530003,64.230001 47.0329995,64.33 47.0929998,64.33 C47.1930003,64.33 47.2829994,64.2400009 47.3629998,64.06 L50.9929998,57.37 C51.1130004,57.1099987 51.2429991,56.9400004 51.3829998,56.86 C51.5230005,56.7799996 51.7329984,56.74 52.0129998,56.74 L56.7229998,56.74 Z M87.5709999,63.97 C87.5709999,65.4100072 87.2260034,66.6599947 86.5359999,67.72 C85.8459965,68.7800053 84.8760062,69.5949971 83.6259999,70.165 C82.3759937,70.7350029 80.941008,71.02 79.3209999,71.02 L75.2109999,71.02 C74.9709987,71.02 74.8509999,71.1299989 74.8509999,71.35 L74.8509999,78.13 C74.8509999,78.4500016 74.7710007,78.6749994 74.6109999,78.805 C74.4509991,78.9350007 74.2010016,79 73.8609999,79 L68.8209999,79 C68.5209984,79 68.3160005,78.9400006 68.2059999,78.82 C68.0959994,78.6999994 68.0409999,78.5100013 68.0409999,78.25 L68.0409999,57.43 C68.0409999,56.9699977 68.230998,56.74 68.6109999,56.74 L78.5409999,56.74 C80.2210083,56.74 81.7459931,57.0149973 83.1159999,57.565 C84.4860068,58.1150028 85.5709959,58.9299946 86.3709999,60.01 C87.1710039,61.0900054 87.5709999,62.4099922 87.5709999,63.97 Z M80.6109999,63.88 C80.6109999,63.1799965 80.3710023,62.6150022 79.8909999,62.185 C79.4109975,61.7549978 78.8210034,61.54 78.1209999,61.54 L75.5409999,61.54 C75.2809986,61.54 75.1010004,61.5899995 75.0009999,61.69 C74.9009994,61.7900005 74.8509999,61.9499989 74.8509999,62.17 L74.8509999,65.56 C74.8509999,65.8000012 74.8909995,65.9699995 74.9709999,66.07 C75.0510003,66.1700005 75.180999,66.22 75.3609999,66.22 L78.3009999,66.22 C79.0010034,66.22 79.5609978,65.9950022 79.9809999,65.545 C80.401002,65.0949978 80.6109999,64.5400033 80.6109999,63.88 Z M88.265,79 C88.1049992,79 87.9750005,78.9450006 87.875,78.835 C87.7749995,78.7249994 87.725,78.570001 87.725,78.37 C87.725,78.2299993 87.7549997,78.0700009 87.815,77.89 L95.075,57.43 C95.1750005,57.1699987 95.2849994,56.9900005 95.405,56.89 C95.5250006,56.7899995 95.7149987,56.74 95.975,56.74 L101.885,56.74 C102.125001,56.74 102.339999,56.8149992 102.53,56.965 C102.720001,57.1150008 102.865,57.3099988 102.965,57.55 L110.165,77.98 C110.205,78.1400008 110.225,78.2599996 110.225,78.34 C110.225,78.5200009 110.185,78.6749994 110.105,78.805 C110.025,78.9350007 109.905001,79 109.745,79 L103.865,79 C103.524998,79 103.305001,78.8300017 103.205,78.49 L102.035,75.04 C101.975,74.8999993 101.92,74.8050003 101.87,74.755 C101.82,74.7049997 101.725001,74.68 101.585,74.68 L95.225,74.68 C94.9849988,74.68 94.8350003,74.7899989 94.775,75.01 L93.545,78.55 C93.4249994,78.8500015 93.1850018,79 92.825,79 L88.265,79 Z M100.085,69.58 C100.305001,69.58 100.415,69.480001 100.415,69.28 C100.415,69.2399998 100.395,69.1400008 100.355,68.98 L98.555,63.85 C98.5149998,63.7499995 98.4550004,63.7 98.375,63.7 C98.2949996,63.7 98.2350002,63.7499995 98.195,63.85 L96.365,68.95 C96.3249998,69.0300004 96.305,69.1299994 96.305,69.25 C96.305,69.4700011 96.4249988,69.58 96.665,69.58 L100.085,69.58 Z M133.239,78.04 C133.279,78.1200004 133.299,78.2299993 133.299,78.37 C133.299,78.5500009 133.244001,78.6999994 133.134,78.82 C133.024,78.9400006 132.879001,79 132.699,79 L126.879,79 C126.458998,79 126.189001,78.7900021 126.069,78.37 L123.249,70.63 C123.189,70.4699992 123.089001,70.3500004 122.949,70.27 C122.808999,70.1899996 122.599001,70.15 122.319,70.15 L120.939,70.15 C120.818999,70.15 120.729,70.1899996 120.669,70.27 C120.609,70.3500004 120.579,70.4199997 120.579,70.48 L120.579,78.13 C120.579,78.4500016 120.499001,78.6749994 120.339,78.805 C120.178999,78.9350007 119.929002,79 119.589,79 L114.549,79 C114.248999,79 114.044001,78.9400006 113.934,78.82 C113.824,78.6999994 113.769,78.5100013 113.769,78.25 L113.769,57.43 C113.769,56.9699977 113.958998,56.74 114.339,56.74 L124.359,56.74 C127.259015,56.74 129.508992,57.2949945 131.109,58.405 C132.709008,59.5150055 133.509,61.0799899 133.509,63.1 C133.509,64.4800069 133.144004,65.7099946 132.414,66.79 C131.683996,67.8700054 130.739006,68.6299978 129.579,69.07 C129.458999,69.1300003 129.399,69.2299993 129.399,69.37 C129.399,69.4300003 129.419,69.5199994 129.459,69.64 L133.239,78.04 Z M124.089,65.68 C124.849004,65.68 125.433998,65.4850019 125.844,65.095 C126.254002,64.7049981 126.459,64.1800033 126.459,63.52 C126.459,62.7799963 126.214003,62.2050021 125.724,61.795 C125.233998,61.3849979 124.629004,61.18 123.909,61.18 L121.269,61.18 C121.008999,61.18 120.829001,61.2249995 120.729,61.315 C120.629,61.4050005 120.579,61.5599989 120.579,61.78 L120.579,65.05 C120.579,65.2700011 120.614,65.4299995 120.684,65.53 C120.754,65.6300005 120.888999,65.68 121.089,65.68 L124.089,65.68 Z M157.993,78.07 C158.073001,78.2300008 158.113,78.3899992 158.113,78.55 C158.113,78.8500015 157.933002,79 157.573,79 L151.723,79 C151.182997,79 150.823001,78.800002 150.643,78.4 L146.983,70.06 C146.903,69.9399994 146.823001,69.88 146.743,69.88 C146.643,69.88 146.503001,69.9899989 146.323,70.21 L144.193,72.94 C144.073,73.0800007 144.013,73.2999985 144.013,73.6 L144.013,78.13 C144.013,78.4500016 143.933001,78.6749994 143.773,78.805 C143.612999,78.9350007 143.363002,79 143.023,79 L138.013,79 C137.712999,79 137.503001,78.9400006 137.383,78.82 C137.263,78.6999994 137.203,78.5100013 137.203,78.25 L137.203,57.43 C137.203,57.2099989 137.253,57.0400006 137.353,56.92 C137.453001,56.7999994 137.592999,56.74 137.773,56.74 L143.473,56.74 C143.833002,56.74 144.013,56.9499979 144.013,57.37 L144.013,64.96 C144.013,65.2000012 144.063,65.32 144.163,65.32 C144.243001,65.32 144.343,65.2500007 144.463,65.11 L149.983,57.37 C150.163001,57.1299988 150.337999,56.9650004 150.508,56.875 C150.678001,56.7849996 150.932998,56.74 151.273,56.74 L155.833,56.74 C156.073001,56.74 156.262999,56.7849996 156.403,56.875 C156.543001,56.9650004 156.613,57.0899992 156.613,57.25 C156.613,57.3900007 156.563001,57.5099995 156.463,57.61 L151.543,63.64 C151.402999,63.8000008 151.333,63.9699991 151.333,64.15 C151.333,64.2900007 151.373,64.4399992 151.453,64.6 L157.993,78.07 Z M174.887,62.71 C174.406998,62.1899974 173.892003,61.7900014 173.342,61.51 C172.791997,61.2299986 171.997005,61.09 170.957,61.09 C169.916995,61.09 169.147003,61.2399985 168.647,61.54 C168.146998,61.8400015 167.897,62.1999979 167.897,62.62 C167.897,63.3400036 168.536994,63.8499985 169.817,64.15 L174.797,65.44 C176.617009,65.9000023 177.986996,66.7049942 178.907,67.855 C179.827005,69.0050057 180.287,70.379992 180.287,71.98 C180.287,73.4600074 179.897004,74.7499945 179.117,75.85 C178.336996,76.9500055 177.222007,77.799997 175.772,78.4 C174.321993,79.000003 172.62701,79.3 170.687,79.3 C168.486989,79.3 166.482009,78.9350036 164.672,78.205 C162.861991,77.4749963 161.607004,76.5200059 160.907,75.34 C160.807,75.139999 160.757,74.9900005 160.757,74.89 C160.757,74.689999 160.866999,74.5100008 161.087,74.35 L164.177,72.22 C164.397001,72.0799993 164.596999,72.01 164.777,72.01 C164.997001,72.01 165.176999,72.0999991 165.317,72.28 C165.997004,73.1600044 166.686997,73.7799982 167.387,74.14 C168.087004,74.5000018 169.016994,74.68 170.177,74.68 C171.297006,74.68 172.181997,74.5250015 172.832,74.215 C173.482003,73.9049984 173.807,73.4800027 173.807,72.94 C173.807,72.5599981 173.647002,72.2300014 173.327,71.95 C173.006999,71.6699986 172.537003,71.4600007 171.917,71.32 L167.357,70.21 C165.556991,69.7699978 164.127005,68.9450061 163.067,67.735 C162.006995,66.524994 161.477,65.1300079 161.477,63.55 C161.477,62.2499935 161.856996,61.0550054 162.617,59.965 C163.377004,58.8749945 164.456993,58.0150031 165.857,57.385 C167.257007,56.7549968 168.876991,56.44 170.717,56.44 C172.517009,56.44 174.186992,56.7349971 175.727,57.325 C177.267008,57.915003 178.376997,58.6999951 179.057,59.68 C179.197001,59.8600009 179.267,60.0299992 179.267,60.19 C179.267,60.3300007 179.197001,60.4599994 179.057,60.58 L175.787,62.95 C175.687,63.0300004 175.577001,63.07 175.457,63.07 C175.316999,63.07 175.127001,62.9500012 174.887,62.71 Z" id="NY-PARKS" fill="#417505"></path>
            <g id="Group-2" transform="translate(26.000000, 0.000000)">
                <g id="Page-1" transform="translate(6.533333, 0.000000)" fill="#000000">
                    <path d="M13.4400002,10.1920002 L12.6000002,10.1920002 C9.35776814,10.1920002 6.7200001,12.8297682 6.7200001,16.0720002 C6.7200001,19.3142323 9.35776814,21.9520003 12.6000002,21.9520003 L13.4400002,21.9520003 L13.4400002,24.4720004 L13.4400002,25.3120004 C13.4400002,25.7751764 13.0631762,26.1520004 12.6000002,26.1520004 L2.52000004,26.1520004 C2.05682403,26.1520004 1.68000003,25.7751764 1.68000003,25.3120004 L1.68000003,24.4720004 L1.68000003,9.35200014 C1.68000003,8.88882414 2.05682403,8.51200013 2.52000004,8.51200013 L12.6000002,8.51200013 C13.0631762,8.51200013 13.4400002,8.88882414 13.4400002,9.35200014 L13.4400002,10.1920002 Z M13.4400002,20.2720003 L12.6000002,20.2720003 C10.2841202,20.2720003 8.40000013,18.3878803 8.40000013,16.0720002 C8.40000013,13.7561202 10.2841202,11.8720002 12.6000002,11.8720002 L13.4400002,11.8720002 L13.4400002,20.2720003 Z M3.36000005,5.99200009 C3.36000005,5.52882408 3.73682406,5.15200008 4.20000006,5.15200008 L10.9200002,5.15200008 C11.3831762,5.15200008 11.7600002,5.52882408 11.7600002,5.99200009 L11.7600002,6.8320001 L3.36000005,6.8320001 L3.36000005,5.99200009 Z M6.7200001,2.52000004 C6.7200001,2.05682403 7.09682411,1.68000003 7.56000012,1.68000003 L8.40000013,1.68000003 L8.40000013,3.47200005 L6.7200001,3.47200005 L6.7200001,2.52000004 Z M13.4400002,6.97648011 L13.4400002,5.99200009 C13.4400002,4.60247207 12.3095282,3.47200005 10.9200002,3.47200005 L10.0800002,3.47200005 L10.0800002,0.840000013 C10.0800002,0.376096006 9.70390415,0 9.24000014,0 L7.56000012,0 C6.17047209,0 5.04000008,1.13047202 5.04000008,2.52000004 L5.04000008,3.47200005 L4.20000006,3.47200005 C2.81047204,3.47200005 1.68000003,4.60247207 1.68000003,5.99200009 L1.68000003,6.97648011 C0.702296011,7.32323211 0,8.25692013 0,9.35200014 L0,25.3120004 C0,26.7015284 1.13047202,27.8320004 2.52000004,27.8320004 L12.6000002,27.8320004 C13.9895282,27.8320004 15.1200002,26.7015284 15.1200002,25.3120004 L15.1200002,9.35200014 C15.1200002,8.25692013 14.4177042,7.32323211 13.4400002,6.97648011 Z" id="Fill-1"></path>
                </g>
                <g id="Page-1" transform="translate(57.000000, 0.933333)">
                    <mask id="mask-2" fill="white">
                        <use xlink:href="#path-1"></use>
                    </mask>
                    <g id="Clip-2"></g>
                    <path d="M24.1652174,23.7391304 L3.65217391,23.7391304 C2.64526957,23.7391304 1.82608696,22.9199478 1.82608696,21.9130435 C1.82608696,20.9061391 2.64526957,20.0869565 3.65217391,20.0869565 L8.2173913,20.0869565 C8.72163478,20.0869565 9.13043478,19.6781565 9.13043478,19.173913 C9.13043478,18.6696696 8.72163478,18.2608696 8.2173913,18.2608696 L5.47826087,18.2608696 C4.47135652,18.2608696 3.65217391,17.441687 3.65217391,16.4347826 C3.65217391,15.4278783 4.47135652,14.6086957 5.47826087,14.6086957 L9.13043478,14.6086957 C9.63467826,14.6086957 10.0434783,14.1998957 10.0434783,13.6956522 C10.0434783,13.1914087 9.63467826,12.7826087 9.13043478,12.7826087 C8.12353043,12.7826087 7.30434783,11.9634261 7.30434783,10.9565217 C7.30434783,9.94961739 7.96125217,9.13043478 9.13043478,9.13043478 C12.3091043,9.13043478 14.9512087,5.27538261 14.880113,2.50216522 C16.1259304,3.5672 16.8608696,5.12807826 16.8608696,6.82238261 L16.8608696,7.30434783 L15.9478261,7.30434783 C15.4435826,7.30434783 15.0347826,7.71314783 15.0347826,8.2173913 C15.0347826,8.72163478 15.4435826,9.11826087 15.9478261,9.11826087 L18.2063913,9.11826087 L18.2404783,9.11826087 L18.6869565,9.11826087 C19.6938609,9.11826087 20.5130435,9.94961739 20.5130435,10.9565217 C20.5130435,11.9634261 19.6938609,12.7826087 18.6869565,12.7826087 C18.182713,12.7826087 17.773913,13.1914087 17.773913,13.6956522 C17.773913,14.1998957 18.182713,14.6086957 18.6869565,14.6086957 L22.3391304,14.6086957 C23.3460348,14.6086957 24.1652174,15.4278783 24.1652174,16.4347826 C24.1652174,17.441687 23.3460348,18.2608696 22.3391304,18.2608696 L19.6,18.2608696 C19.0957565,18.2608696 18.6869565,18.6696696 18.6869565,19.173913 C18.6869565,19.6781565 19.0957565,20.0869565 19.6,20.0869565 L24.1652174,20.0869565 C25.1721217,20.0869565 25.9913043,20.9061391 25.9913043,21.9130435 C25.9913043,22.9199478 25.1721217,23.7391304 24.1652174,23.7391304 M25.3729304,18.4660609 C25.7634087,17.8848783 25.9913043,17.1860348 25.9913043,16.4347826 C25.9913043,14.4209739 24.3529391,12.7826087 22.3391304,12.7826087 L21.8490087,12.7826087 C22.1606,12.2451304 22.3391304,11.6212174 22.3391304,10.9565217 C22.3391304,8.94271304 20.7007652,7.30434783 18.6869565,7.30434783 L18.6869565,6.82238261 C18.6869565,5.42487826 18.2986087,4.05774783 17.5638522,2.86896522 C16.8290957,1.68012174 15.7800696,0.721365217 14.5300522,0.0964173913 C14.2470696,-0.0451043478 13.910887,-0.0300695652 13.6417217,0.136408696 C13.3725565,0.302765217 13.2086957,0.596582609 13.2086957,0.913043478 C13.2086957,3.5798 10.9694261,7.30434783 9.13043478,7.30434783 C6.87594783,7.30434783 5.47826087,8.94271304 5.47826087,10.9565217 C5.47826087,11.6212174 5.6567913,12.2451304 5.96838261,12.7826087 L5.47826087,12.7826087 C3.46445217,12.7826087 1.82608696,14.4209739 1.82608696,16.4347826 C1.82608696,17.1860348 2.05398261,17.8848783 2.44446087,18.4660609 C1.02230435,18.9658 0,20.3222783 0,21.9130435 C0,23.9268522 1.63836522,25.5652174 3.65217391,25.5652174 L24.1652174,25.5652174 C26.1790261,25.5652174 27.8173913,23.9268522 27.8173913,21.9130435 C27.8173913,20.3222783 26.795087,18.9658 25.3729304,18.4660609" id="Fill-1" fill="#000000" mask="url(#mask-2)"></path>
                </g>
                <g id="Page-1" transform="translate(121.400000, 0.000000)">
                    <mask id="mask-4" fill="white">
                        <use xlink:href="#path-3"></use>
                    </mask>
                    <g id="Clip-2"></g>
                    <path d="M3.08581133,23.4280736 L3.0832399,16.4023595 L4.39832558,16.4023595 C4.81249699,16.4023595 5.14643984,16.0684166 5.14643984,15.6541881 C5.14643984,15.2400167 4.81249699,14.9060738 4.39832558,14.9060738 L3.0832399,14.9060738 L3.0832399,13.8860738 L4.39832558,13.8860738 C4.81249699,13.8860738 5.14643984,13.552131 5.14643984,13.1379596 C5.14643984,12.723731 4.81249699,12.3897882 4.39832558,12.3897882 L3.0832399,12.3897882 L3.08838276,11.3697882 L4.40346843,11.3697882 C4.81769699,11.3697882 5.15163984,11.0358454 5.15163984,10.621674 C5.15163984,10.2074454 4.81769699,9.87350255 4.40346843,9.87350255 L3.08838276,9.87350255 L3.08838276,9.86835969 C3.08838276,8.7965883 3.9582113,7.92675975 5.02741127,7.92933118 C5.78849696,7.92933118 6.96638264,8.52733116 6.96895407,9.87093112 L6.9715255,23.4255021 L3.08581133,23.4280736 Z M8.46009688,23.4228736 L8.46266831,9.87350255 C8.46266831,8.95710258 7.99409689,7.08024549 5.77552553,6.51847408 L5.7729541,0.748131405 C5.7729541,0.333902847 5.43901126,-3.99999987e-05 5.0247827,-3.99999987e-05 C4.61061128,-3.99999987e-05 4.27666844,0.333902847 4.27666844,0.748131405 L4.27666844,6.52104551 C2.73889706,6.86275978 1.58952566,8.23481688 1.58952566,9.87607398 L1.59466852,23.4280736 L0.748154262,23.4255021 C0.333982847,23.4255021 -1.71428566e-05,23.759445 -1.71428566e-05,24.1736164 C-1.71428566e-05,24.3807592 0.168268566,24.9217878 0.748154262,24.9217878 L2.34283993,24.9217878 L4.28438272,24.9217878 L4.28438272,26.2420735 L3.2152399,26.2394449 C2.80106848,26.2394449 2.46712564,26.5734449 2.46712564,26.9876163 C2.46712564,27.194702 2.61981135,27.7357877 3.2152399,27.7357877 L6.8395255,27.7357877 C7.25369692,27.7357877 7.58763976,27.4018449 7.58763976,26.9876163 C7.58763976,26.5734449 7.25369692,26.2394449 6.8395255,26.2394449 L5.7729541,26.2394449 L5.7729541,24.9192164 L9.30918256,24.9192164 C9.72341112,24.9192164 10.057354,24.5852735 10.057354,24.171045 C10.057354,23.7568164 9.72341112,23.4228736 9.30918256,23.4228736 L8.46009688,23.4228736 Z" id="Fill-1" fill="#000000" mask="url(#mask-4)"></path>
                </g>
            </g>
            <g id="Group-3" transform="translate(26.000000, 108.000000)" fill="#000000">
                <g id="Page-1">
                    <path d="M19.4837997,26.0371168 L7.46276351,26.0371168 C6.50045443,26.0371168 4.88612719,25.7699077 4.88612719,23.9805169 C4.88612719,23.2158623 5.38859991,22.3378078 6.45527261,20.6517624 C6.45877261,20.6461624 6.46233625,20.6404351 6.46583625,20.6347078 C6.48715443,20.5993896 8.61299076,17.0853261 10.3953816,15.479017 C11.4822271,14.5006716 13.1472089,14.4820261 13.1634361,14.4818988 L13.7820452,14.4818988 C13.7994816,14.4818988 13.8166634,14.4813897 13.8339088,14.4804352 C14.1312179,14.4916352 15.6288361,14.5909079 16.5315815,15.4575715 C18.2710179,17.1347715 20.4679996,20.6145987 20.4900815,20.6495351 C20.4999451,20.6652533 20.5101906,20.680526 20.5208815,20.6953533 C21.6553905,22.4852532 22.0593542,23.254935 22.0593542,23.9763805 C22.0592269,25.6795441 20.6585905,26.0371168 19.4837997,26.0371168 M22.0063451,19.6296351 C21.7180087,19.1752715 19.6043906,15.8828534 17.7978815,14.1412534 C16.2907179,12.6941625 14.0348725,12.6522898 13.7791179,12.6522898 C13.7558907,12.6523534 13.7324725,12.6532443 13.709627,12.6550898 L13.1626725,12.6550898 C12.9210452,12.6550898 10.7561998,12.6961989 9.17279984,14.1215261 C7.21922715,15.8820897 5.05762718,19.433126 4.90636355,19.6833442 C3.76122721,21.4938624 3.0594454,22.671326 3.0594454,23.9805169 C3.0594454,26.3395168 4.78787264,27.8637986 7.46276351,27.8637986 L19.4837997,27.8637986 C22.1579905,27.8637986 23.8859087,26.3380532 23.8859087,23.9765714 C23.8859087,22.6558623 23.1824087,21.4801169 22.0342178,19.6713169 C22.0252451,19.6571897 22.0159542,19.6431897 22.0063451,19.6296351" id="Fill-1"></path>
                    <path d="M9.06392439,1.8267327 C9.9387971,1.8267327 10.9136425,3.22011449 10.9136425,5.21963264 C10.9136425,7.21978715 9.93866983,8.61367803 9.06392439,8.61367803 C8.18917895,8.61367803 7.21433351,7.21978715 7.21433351,5.21963264 C7.21446078,3.22011449 8.18917895,1.8267327 9.06392439,1.8267327 M9.06392439,10.4403598 C11.1255516,10.4403598 12.7403243,8.14709622 12.7403243,5.21963264 C12.7404516,2.29280541 11.1255516,5.090909e-05 9.06392439,5.090909e-05 C7.0025517,5.090909e-05 5.38771536,2.29280541 5.38771536,5.21963264 C5.38771536,8.14722349 7.0025517,10.4403598 9.06392439,10.4403598" id="Fill-3"></path>
                    <path d="M2.21427178,13.054497 C1.59610815,11.7120243 1.77161724,10.4139062 2.34008087,10.1510244 C2.41790814,10.1151971 2.50203541,10.0978244 2.59761723,10.0978244 C3.1712354,10.0978244 4.07875357,10.7429698 4.63098992,11.9382516 C5.24915354,13.2788152 5.07364446,14.576997 4.50785356,14.8400697 C4.4297081,14.8758334 4.34519902,14.893397 4.24936265,14.893397 C3.67504448,14.8932697 2.7664445,14.2483152 2.21427178,13.054497 Z M4.24948993,16.7199515 C4.60884447,16.7199515 4.95216264,16.6460697 5.27403536,16.4983061 C6.87690806,15.752997 7.32318987,13.4139789 6.28967171,11.1727698 C5.48772627,9.43715165 4.00417175,8.27107895 2.5977445,8.27107895 C2.23800814,8.27107895 1.89424451,8.34527895 1.5746627,8.49234258 C-0.0303736358,9.2351062 -0.478182719,11.5746334 0.555653627,13.8197879 C1.35753543,15.5543879 2.84191722,16.7198243 4.24923538,16.7199515 L4.24948993,16.7199515 Z" id="Fill-5"></path>
                    <path d="M17.8799533,1.8267327 C18.7543169,1.8267327 19.7285897,3.22011449 19.7285897,5.21963264 C19.7285897,7.21978715 18.7543169,8.61367803 17.8799533,8.61367803 C17.0041261,8.61367803 16.0280715,7.21978715 16.0280715,5.21963264 C16.0280715,3.22011449 17.0041261,1.8267327 17.8799533,1.8267327 M17.8799533,10.4403598 C19.9408169,10.4403598 21.5552714,8.14709622 21.5552714,5.21963264 C21.5552714,2.29280541 19.9408169,5.090909e-05 17.8799533,5.090909e-05 C15.817117,5.090909e-05 14.2013261,2.29280541 14.2013261,5.21963264 C14.2013261,8.14722349 15.817117,10.4403598 17.8799533,10.4403598" id="Fill-8"></path>
                    <path d="M24.7307005,13.0536443 C24.1790369,14.2485443 23.270946,14.8932443 22.6965005,14.8932443 C22.6005369,14.8932443 22.5160278,14.8758716 22.4415732,14.8417625 C21.8697369,14.5761443 21.6937187,13.2786625 22.3145551,11.9391171 C22.8679369,10.7423716 23.7745005,10.0967171 24.3467187,10.0967171 C24.441855,10.0967171 24.5257278,10.1140898 24.6033005,10.1500444 C25.1737368,10.4143262 25.3493096,11.7122534 24.7307005,13.0536443 M25.3710096,8.49263531 C25.0523187,8.34499895 24.7076641,8.27009895 24.3467187,8.27009895 C22.9423278,8.27009895 21.459346,9.43655347 20.6568915,11.1717898 C19.6187278,13.4120443 20.0646915,15.7519534 21.6759642,16.5003806 C21.9937005,16.6461715 22.3370823,16.7200533 22.6965005,16.7200533 C24.1041369,16.7200533 25.5881368,15.5544261 26.3893186,13.8190625 C27.4239822,11.5754989 26.9764277,9.23571711 25.3710096,8.49263531" id="Fill-10"></path>
                </g>
                <g id="Page-1" transform="translate(62.600000, 0.000000)">
                    <path d="M15.3861489,7.59615574 L15.3815617,7.59615574 C15.3815617,11.321943 12.3724553,14.3815685 8.59608936,14.3815685 L8.55015745,14.3815685 C4.82437021,14.3815685 1.76474468,11.3724621 1.76474468,7.59615574 L1.76474468,1.76625787 L7.50271915,1.76625787 L6.25773191,4.82594298 C6.04183404,5.85503234 6.78145106,6.11686213 7.11685532,6.11686213 L8.31126383,6.11686213 L6.44610638,8.69876 C6.11070213,9.0800366 6.20721277,9.70026638 6.63906809,9.98967915 C6.78145106,10.1320621 7.40168085,10.4123004 7.97591915,9.79671745 L10.9390936,5.73558553 C11.2836723,5.43693872 11.2469149,4.3113983 10.2224128,4.25170468 L8.55015745,4.25170468 L9.56089787,1.76625787 L15.3861489,1.76625787 L15.3861489,7.59615574 Z M16.2931106,-5.95744681e-06 L0.943987234,-5.95744681e-06 C0.426642553,-5.95744681e-06 2.9787234e-05,0.426606809 2.9787234e-05,0.944011064 L2.9787234e-05,7.64733021 C2.9787234e-05,12.0496451 3.36753617,15.6713557 7.64730638,16.1433047 L7.64730638,26.1081472 L4.91063404,26.1081472 C4.39322979,26.1081472 3.96661702,26.53476 3.96661702,27.0521047 C3.96661702,27.5695089 4.39322979,27.9961217 4.91063404,27.9961217 L12.2765404,27.9961217 C12.7939447,27.9961217 13.2659532,27.5695089 13.2659532,27.0521047 C13.2659532,26.53476 12.8393404,26.1081472 12.3219362,26.1081472 L9.53534043,26.1081472 L9.53534043,16.1433047 C13.8196383,15.6758834 17.1872043,12.0541728 17.2326,7.64733021 L17.2326,0.944011064 C17.2371277,0.426606809 16.8105149,-5.95744681e-06 16.2931106,-5.95744681e-06 Z" id="Fill-1"></path>
                </g>
                <g id="Group" transform="translate(115.800000, 0.000000)">
                    <path d="M20.642967,8.39896426 L1.47450245,8.39896426 L1.47450245,6.18718819 C1.47450245,5.74490018 1.76934245,5.44994817 2.21174247,5.44994817 L19.905671,5.44994817 C20.348015,5.44994817 20.642967,5.74478818 20.642967,6.18718819 L20.642967,8.39896426 Z M16.9567109,26.4479328 L5.16070256,26.4479328 C3.98111852,26.4479328 2.94898249,25.4157408 2.94898249,24.2361567 L2.94898249,9.8734443 L19.168487,9.8734443 L19.168375,24.2361567 L19.168487,24.2361567 C19.168487,25.4157408 18.136351,26.4479328 16.9567109,26.4479328 Z M8.84695867,2.26774807 C8.84695867,1.82546006 9.14185468,1.53050805 9.58425469,1.53050805 L12.5332148,1.53050805 C12.9755028,1.53050805 13.2705108,1.82534806 13.2705108,2.26774807 L13.2705108,3.97552412 L8.84695867,3.97552412 L8.84695867,2.26774807 Z M19.905671,3.97552412 L14.7449349,3.97552412 L14.7449349,2.26774807 C14.7449349,1.08816403 13.7127988,0.0560280017 12.5332148,0.0560280017 L9.58425469,0.0560280017 C8.40461466,0.0560280017 7.37247863,1.08816403 7.37247863,2.26774807 L7.37247863,3.97552412 L2.21174247,3.97552412 C1.03215843,3.97552412 2.24000007e-05,5.00766015 2.24000007e-05,6.18730019 L2.24000007e-05,9.13626028 C2.24000007e-05,9.57854829 0.294862409,9.8735563 0.737262423,9.8735563 L1.47455845,9.8735563 L1.47455845,24.2362687 C1.47455845,26.3005968 3.09648649,27.9224689 5.16081456,27.9224689 L16.9568229,27.9224689 C19.021151,27.9224689 20.643023,26.3005968 20.643023,24.2362687 L20.643023,9.8734443 L21.3803191,9.8734443 C21.8226631,9.8734443 22.1176151,9.43110029 22.1176151,9.13614828 L22.1176151,6.18718819 C22.1174471,5.00771615 21.085255,3.97552412 19.905671,3.97552412 Z" id="Fill-1"></path>
                    <path d="M6.6352834,12.8224044 C6.19299539,12.8224044 5.89798738,13.1173004 5.89798738,13.5597004 L5.89798738,22.7616767 C5.89798738,23.2040207 6.19288339,23.4989727 6.6352834,23.4989727 C7.07762742,23.4989727 7.37257943,23.2040767 7.37257943,22.7616767 L7.37257943,13.5597004 C7.37257943,13.1173564 7.07768342,12.8224044 6.6352834,12.8224044" id="Fill-4"></path>
                    <path d="M11.0587235,12.8224044 C10.6163795,12.8224044 10.3214275,13.1173004 10.3214275,13.5597004 L10.3214275,22.7616767 C10.3215395,23.2040207 10.6163795,23.4989727 11.0587235,23.4989727 C11.5010676,23.4989727 11.7960196,23.2040767 11.7960196,22.7616767 L11.7960196,13.5597004 C11.7960196,13.1173564 11.5011236,12.8224044 11.0587235,12.8224044" id="Fill-6"></path>
                    <path d="M15.4822421,12.8224044 C15.0398421,12.8224044 14.7449461,13.1173004 14.7449461,13.5597004 L14.7449461,22.7616767 C14.7449461,23.2040207 15.0398981,23.4989727 15.4822421,23.4989727 C15.9245861,23.4989727 16.2195381,23.2040767 16.2195381,22.7616767 L16.2195381,13.5597004 C16.2195381,13.1173564 15.9246421,12.8224044 15.4822421,12.8224044" id="Fill-8"></path>
                </g>
            </g>
        </g>
    </g>
</svg>