<?xml version="1.0" encoding="UTF-8"?>
<svg width="113px" height="44px" viewBox="0 0 113 44" version="1.1" xmlns="http://www.w3.org/2000/svg" xmlns:xlink="http://www.w3.org/1999/xlink">
    <!-- Generator: Sketch 49.2 (51160) - http://www.bohemiancoding.com/sketch -->
    <title>samia1</title>
    <desc>Created with Sketch.</desc>
    <defs>
        <polygon id="path-1" points="0 42.147 104.247 42.147 104.247 0 0 0"></polygon>
    </defs>
    <g id="samia1" stroke="none" stroke-width="1" fill="none" fill-rule="evenodd">
        <g id="Page-1" transform="translate(4.000000, 0.000000)">
            <path d="M30.8239,16.9248 C29.2509,16.9248 27.9819,16.5838 27.0209,15.9018 L25.2119,18.3928 C27.4309,19.8098 29.4859,20.5178 31.3749,20.5178 C33.0009,20.5178 34.3459,20.1328 35.4129,19.3628 C36.7419,18.4368 37.4059,17.0818 37.4059,15.2988 C37.4059,14.1798 37.0169,13.2098 36.2389,12.3878 C35.4609,11.5668 34.2069,10.7968 32.4759,10.0788 C30.6049,9.3108 29.6699,8.6028 29.6699,7.9558 C29.6699,7.0998 30.2469,6.6698 31.4009,6.6698 C32.3799,6.6698 33.6649,6.9768 35.2559,7.5878 C36.0429,6.4868 36.6199,5.6568 36.9869,5.0968 C35.2379,3.8908 33.4109,3.2868 31.5059,3.2868 C29.8269,3.2868 28.4899,3.6908 27.4929,4.4938 C26.4269,5.3508 25.8929,6.4958 25.8929,7.9298 C25.8929,10.2378 27.3269,11.8898 30.1939,12.8858 C32.2569,13.5848 33.2889,14.3118 33.2889,15.0628 C33.2889,16.3038 32.4679,16.9248 30.8239,16.9248" id="Fill-1" fill="#1D1D1B"></path>
            <path d="M45.7536,9.0048 C46.3996,10.9448 46.9066,12.4758 47.2746,13.5938 L44.1276,13.5938 C44.7036,11.8988 45.2456,10.3678 45.7536,9.0048 M42.9466,16.9248 L48.4016,16.9248 C48.6646,17.7458 48.9956,18.8388 49.3986,20.2018 L53.4896,20.2018 L47.3266,3.6028 L44.0746,3.6028 L37.9116,20.2018 L41.9246,20.2018 C42.0996,19.5208 42.4406,18.4278 42.9466,16.9248" id="Fill-3" fill="#1D1D1B"></path>
            <path d="M58.9938,7.0117 C59.0808,8.2527 59.8768,11.3297 61.3808,16.2417 C61.9738,18.1487 62.3678,19.4687 62.5598,20.2017 L66.0218,20.2017 C67.5078,15.7277 68.7058,11.2687 69.6148,6.8277 L69.6148,20.2017 L73.6798,20.2017 L73.6798,3.6027 L67.5958,3.6027 C67.1768,5.1407 66.6158,7.0807 65.9178,9.4237 C65.1828,11.9247 64.6238,13.9437 64.2388,15.4827 C63.5738,12.7197 62.4298,8.7597 60.8038,3.6027 L55.0338,3.6027 L55.0338,20.2017 L58.9938,20.2017 L58.9938,7.0117 Z" id="Fill-5" fill="#1D1D1B"></path>
            <mask id="mask-2" fill="white">
                <use xlink:href="#path-1"></use>
            </mask>
            <g id="Clip-8"></g>
            <polygon id="Fill-7" fill="#1D1D1B" mask="url(#mask-2)" points="77.037 20.203 80.996 20.203 80.996 3.603 77.037 3.603"></polygon>
            <path d="M90.4245,9.0048 C91.0705,10.9448 91.5775,12.4758 91.9455,13.5938 L88.7975,13.5938 C89.3745,11.8988 89.9165,10.3678 90.4245,9.0048 M87.6175,16.9248 L93.0725,16.9248 C93.3345,17.7458 93.6665,18.8388 94.0695,20.2018 L98.1605,20.2018 L91.9975,3.6028 L88.7455,3.6028 L82.5825,20.2018 L86.5955,20.2018 C86.7695,19.5208 87.1115,18.4278 87.6175,16.9248" id="Fill-9" fill="#1D1D1B" mask="url(#mask-2)"></path>
            <polygon id="Fill-10" fill="#1D1D1B" mask="url(#mask-2)" points="17.8688 24.3017 17.8688 -0.0003 16.1208 -0.0003 16.1208 26.0497 100.0268 26.0497 95.2248 30.8517 96.4618 32.0877 104.2478 24.3017"></polygon>
            <polygon id="Fill-11" fill="#1D1D1B" mask="url(#mask-2)" points="8.1481 10.0595 6.9121 8.8235 2.4611 13.2735 3.6981 14.5095"></polygon>
            <polygon id="Fill-12" fill="#1D1D1B" mask="url(#mask-2)" points="14.4421 28.9414 13.2061 27.7054 8.4041 32.5064 8.4041 13.6254 0.0001 22.0294 3.7651 25.7944 5.0021 24.5574 2.4721 22.0294 6.6561 17.8454 6.6561 35.4914 84.2681 35.4914 80.0851 39.6744 77.5551 37.1454 76.3191 38.3814 80.0851 42.1474 88.4891 33.7434 9.6401 33.7434"></polygon>
            <polygon id="Fill-13" fill="#1D1D1B" mask="url(#mask-2)" points="1.443 36.0771 5.893 40.5281 7.13 39.2921 2.678 34.8411"></polygon>
        </g>
    </g>
</svg>