<?xml version="1.0" encoding="UTF-8"?>
<svg width="200px" height="144px" viewBox="0 0 200 144" version="1.1" xmlns="http://www.w3.org/2000/svg" xmlns:xlink="http://www.w3.org/1999/xlink" style="background: #FFFFFF;">
    <!-- Generator: Sketch 49.2 (51160) - http://www.bohemiancoding.com/sketch -->
    <title>preview/monkeybars</title>
    <desc>Created with Sketch.</desc>
    <defs>
        <polygon id="path-1" points="0 190.014 190.000831 190.014 190.000831 0.0131692871 0 0.0131692871"></polygon>
    </defs>
    <g id="preview/monkeybars" stroke="none" stroke-width="1" fill="none" fill-rule="evenodd">
        <g id="Page-1" transform="translate(-1.000000, -30.000000)">
            <polygon id="Fill-1" fill="#0000FF" points="0 201.986 201.986 201.986 201.986 0 0 0"></polygon>
            <g id="Group-18" transform="translate(6.000000, 7.000000)">
                <path d="M167.653491,89.0992578 C167.091915,89.0832665 166.646981,89.0465806 166.210514,88.9986068 L167.15494,84.1457245 C167.302624,84.1683004 167.372233,84.1955797 167.653491,84.208749 L167.653491,89.0992578 Z M164.891703,88.8151775 C164.255815,88.6994759 163.634977,88.5583764 163.042359,88.3740063 L165.04315,83.5869705 C165.285841,83.6970281 165.536999,83.7957977 165.796622,83.8795168 L164.891703,88.8151775 Z M160.158285,87.1012888 L163.365947,82.5193175 C163.560665,82.6820523 163.762907,82.8344398 163.974557,82.9783613 L161.891928,87.9591738 C161.284259,87.71272 160.709514,87.4211143 160.158285,87.1012888 Z M157.628842,85.1870389 L162.044315,81.1102038 C162.183534,81.2973958 162.326514,81.4817659 162.479843,81.6567292 L159.13014,86.4418838 C158.594903,86.0599745 158.09447,85.6413793 157.628842,85.1870389 Z M155.676024,82.7620087 L161.113059,79.5703379 C161.194896,79.7396573 161.2852,79.9023921 161.375504,80.0660675 L156.797295,84.2915273 C156.390929,83.8108483 156.011841,83.3047715 155.676024,82.7620087 Z M154.343104,79.8657062 L160.467764,77.8620932 C160.522322,78.0530479 160.585347,78.2402399 160.650252,78.4264912 L155.078703,81.6971778 C154.78992,81.1177291 154.553813,80.4997133 154.343104,79.8657062 Z M153.663005,76.7699831 L160.114074,76.1134 C160.13665,76.2987107 160.16487,76.4821401 160.196853,76.6665101 L154.004466,78.6917583 C153.85396,78.0728018 153.74108,77.4312694 153.663005,76.7699831 Z M153.527549,74.6751257 C153.527549,74.325199 153.552007,73.9884415 153.569879,73.6479213 L160.032237,74.3835201 C160.029415,74.492637 160.020008,74.6026947 160.020008,74.7127523 C160.020008,74.7729547 160.026593,74.8340978 160.027533,74.8943003 L153.564235,75.5527647 C153.550125,75.261159 153.527549,74.973316 153.527549,74.6751257 Z M154.023279,70.5418509 L160.210022,72.6470555 C160.179921,72.8191969 160.149819,72.992279 160.126303,73.165361 L153.679937,72.4325843 C153.760834,71.7825859 153.872773,71.1514008 154.023279,70.5418509 Z M155.093754,67.5561854 L160.657778,70.9115316 C160.596635,71.0902576 160.535491,71.268043 160.482814,71.4495911 L154.36568,69.3688437 C154.574508,68.7414212 154.809674,68.1309307 155.093754,67.5561854 Z M156.849032,64.8884641 L161.41219,69.2023463 C161.309657,69.3867163 161.209947,69.572027 161.118703,69.7629816 L155.685431,66.4866511 C156.032536,65.9194311 156.426674,65.391719 156.849032,64.8884641 Z M159.188461,62.7080064 L162.531579,67.6079219 C162.37637,67.7847666 162.228685,67.9700773 162.086645,68.1610319 L157.675875,63.9910712 C158.146206,63.5282648 158.648521,63.097441 159.188461,62.7080064 Z M161.974706,61.1577932 L164.047928,66.2853492 C163.830635,66.42833 163.622749,66.5816581 163.422387,66.7472149 L160.211903,62.0420167 C160.771598,61.7109032 161.357631,61.4136536 161.974706,61.1577932 Z M165.01493,60.2651036 L165.896332,65.4152356 C165.631065,65.4942513 165.374264,65.5883176 165.126869,65.6964939 L163.119494,60.730732 C163.726222,60.5360147 164.363051,60.3883305 165.01493,60.2651036 Z M167.653491,59.967854 L167.653491,65.1264519 C167.372233,65.1358585 167.317674,65.1574938 167.203854,65.1716037 L166.387358,60.0760303 C166.785259,60.0289971 167.091915,59.9876079 167.653491,59.967854 Z M168.777584,59.9377528 C174.116789,60.0384038 178.108964,62.4662559 180.41453,66.987084 L174.562664,69.4497407 C173.413173,66.903365 171.306087,65.3682024 168.777584,65.1367992 L168.777584,59.9377528 Z M183.188547,72.4212963 C183.073786,72.3046541 182.916695,72.2284603 182.753019,72.2284603 L168.042926,72.2284603 C167.705228,72.2284603 167.653491,72.5219473 167.653491,72.8596454 L167.653491,78.6832923 C167.653491,79.0200498 167.705228,79.2533343 168.042926,79.2533343 L173.385894,79.2533343 C173.073593,80.9399438 172.194073,81.8599125 170.813179,82.4704031 C170.014556,82.8240925 169.128451,83.0348011 168.07773,83.0112845 C163.589825,82.9614293 161.24193,78.7999346 161.24193,74.7071083 C161.24193,70.5465542 163.56819,66.3380263 168.055154,66.324857 C170.597767,66.344611 172.617372,67.8524943 173.596602,70.4637758 C173.654923,70.6189853 173.774388,70.7450342 173.926775,70.80994 C174.00391,70.8438038 174.086688,70.8607358 174.168526,70.8607358 C174.249423,70.8607358 174.329379,70.8447445 174.404632,70.812762 L181.438913,67.8637823 C181.5913,67.7998172 181.711705,67.6765903 181.770967,67.5223215 C181.831169,67.367112 181.826466,67.1959113 181.756857,67.0444645 C179.243404,61.5933203 174.606875,58.7111277 168.345819,58.7111277 L168.031638,58.724297 C168.026934,58.724297 168.023172,58.727119 168.017528,58.727119 C158.618419,58.8917351 152.306568,65.2929493 152.306568,74.6751257 C152.306568,83.8729321 158.787739,90.3108322 168.069264,90.3334081 C168.073027,90.3334081 168.07679,90.3362301 168.080552,90.3362301 C169.088003,90.3362301 170.095453,90.2487484 171.162165,90.0690817 C175.059334,89.4134394 178.14565,87.5349346 180.338337,84.482482 C183.00888,80.7348791 183.288257,77.0013862 183.36351,72.8662301 C183.366332,72.701614 183.303308,72.5388792 183.188547,72.4212963 Z" id="Fill-2" fill="#FFFFFF"></path>
                <path d="M46.5404488,71.2790488 L46.5404488,88.2457939 L40.3584092,88.2457939 L40.3584092,60.9881916 L46.5404488,60.9881916 L46.5404488,71.2790488 Z M61.4339719,88.2467346 L67.6160116,88.2467346 L67.6160116,86.8413835 L61.4339719,86.8413835 L61.4339719,88.2467346 Z M61.4339719,85.4360324 L67.6160116,85.4360324 L67.6160116,84.0306814 L61.4339719,84.0306814 L61.4339719,85.4360324 Z M61.4339719,82.9075293 L67.6160116,82.9075293 L67.6160116,81.5021782 L61.4339719,81.5021782 L61.4339719,82.9075293 Z M61.4339719,80.3780855 L67.6160116,80.3780855 L67.6160116,78.9727345 L61.4339719,78.9727345 L61.4339719,80.3780855 Z M61.4339719,77.6238232 L61.4339719,77.5194096 L61.4339719,76.4442313 L67.6160116,76.4442313 L67.6160116,77.8486417 L61.4339719,77.8486417 L61.4339719,77.6238232 Z M61.4339719,75.0388803 L67.6160116,75.0388803 L67.6160116,73.6335292 L61.4339719,73.6335292 L61.4339719,75.0388803 Z M61.4339719,72.5103771 L67.6160116,72.5103771 L67.6160116,71.1050261 L61.4339719,71.1050261 L61.4339719,72.5103771 Z M61.4339719,69.9809333 L67.6160116,69.9809333 L67.6160116,68.5755823 L61.4339719,68.5755823 L61.4339719,69.9809333 Z M61.4339719,67.4524302 L67.6160116,67.4524302 L67.6160116,66.0470791 L61.4339719,66.0470791 L61.4339719,67.4524302 Z M61.4339719,64.6417281 L67.6160116,64.6417281 L67.6160116,63.236377 L61.4339719,63.236377 L61.4339719,64.6417281 Z M61.4339719,62.1122843 L67.6160116,62.1122843 L67.6160116,60.9881916 L61.4339719,60.9881916 L61.4339719,62.1122843 Z M47.6645416,88.6860244 L47.6645416,73.0446739 L60.1076366,88.9437661 C60.1969996,89.1714067 60.4030049,89.3698866 60.6616873,89.3698866 L60.6955512,89.3698866 L60.6974325,89.3708273 C60.6993138,89.3708273 60.7002545,89.3698866 60.7011952,89.3698866 L68.0600047,89.3698866 C68.3977028,89.3698866 68.7401043,89.0227819 68.7401043,88.6850837 L68.7401043,60.2168476 C68.7401043,59.8791494 68.3977028,59.5837811 68.0600047,59.5837811 L60.6616873,59.5837811 C60.3239892,59.5837811 60.0286209,59.8791494 60.0286209,60.2168476 L60.0286209,75.8121055 L47.4980442,59.8405822 C47.4933408,59.8330569 47.4895782,59.8330569 47.4839342,59.8264723 C47.4124438,59.7427533 47.3259028,59.6816101 47.2196078,59.6458649 C47.1979725,59.637399 47.1782186,59.6251703 47.154702,59.620467 C47.1123722,59.6110604 47.0747456,59.5837811 47.0295938,59.5837811 L39.6303358,59.5837811 C39.2926376,59.5837811 39.2343165,59.8791494 39.2343165,60.2168476 L39.2343165,88.6860244 C39.2343165,89.0237225 39.2926376,89.3698866 39.6303358,89.3698866 L47.0295938,89.3698866 C47.3672919,89.3698866 47.6645416,89.0237225 47.6645416,88.6860244 Z" id="Fill-4" fill="#FFFFFF"></path>
                <path d="M30.8190479,82.0580162 L24.8514795,79.6160541 C24.9295546,79.2999912 24.9859944,79.001801 25.0245616,78.7440592 L31.3298281,78.7412372 C31.268685,79.8559233 31.1275855,80.9762534 30.8190479,82.0580162 Z M28.5906164,85.8818128 C28.5529899,85.9184987 28.507838,85.9495406 28.4702115,85.9852858 L23.9926539,81.5848626 C24.1742019,81.3205362 24.3265894,81.0477438 24.4516976,80.7721294 L30.413622,83.2122102 C30.0063148,84.1603989 29.4306288,85.0643764 28.5906164,85.8818128 Z M24.5739838,88.1488115 L22.3690689,83.0146709 C22.6672592,82.8613427 22.9372296,82.6863794 23.1723954,82.4907214 L27.5079129,86.7509858 C26.6679005,87.3294937 25.6820853,87.8007661 24.5739838,88.1488115 Z M20.4068451,88.8467837 L20.4068451,83.5856535 C20.6881035,83.5574336 21.0069884,83.5056972 21.3155259,83.4323254 L23.5260849,88.4658151 C22.5346257,88.6859303 21.5309379,88.8110385 20.4068451,88.8467837 Z M19.0024347,88.8467837 C17.878342,88.8110385 16.8238584,88.6849896 15.8333398,88.4658151 L17.9978063,83.4313847 C18.3063438,83.5028752 18.7211764,83.550849 19.0024347,83.5771876 L19.0024347,88.8467837 Z M11.7047683,86.7509858 L16.0384045,82.491662 C16.277333,82.6910827 16.5426,82.8698087 16.8407903,83.0221962 L14.6386974,88.1478709 C13.5305959,87.8007661 12.5447807,87.3294937 11.7047683,86.7509858 Z M10.6201835,85.8789908 C9.78863706,85.0700203 9.22235771,84.1707462 8.81128782,83.2065662 L14.7647463,80.7702481 C14.8926765,81.0571504 15.0450639,81.3280615 15.2190867,81.5848626 L10.7424697,85.9843451 C10.7039025,85.9485999 10.65781,85.9166174 10.6201835,85.8789908 Z M7.89037838,78.691382 L14.1862383,78.691382 C14.2332715,78.9726404 14.2953552,79.3018726 14.3677863,79.5887749 L8.40303992,82.0175677 C8.10955295,80.977194 7.95716548,79.8154748 7.89037838,78.691382 Z M8.04276585,76.3030378 L8.04276585,60.9880975 L13.9435471,60.9880975 L13.9435471,75.2861807 C13.9435471,75.9568736 13.9924616,76.7244549 14.0479608,77.56823 L7.84240455,77.56823 C7.83487924,77.2869716 8.04276585,76.7150483 8.04276585,76.3030378 Z M31.9920552,59.8649454 L24.6134917,59.8649454 C24.2757936,59.8649454 24.0603817,60.0022823 24.0603817,60.3399804 L24.0603817,75.2861807 C24.0603817,76.1882768 24.0171111,77.1486941 23.9098755,78.0630189 C23.5571267,81.0975989 22.3333237,82.3928924 19.6910003,82.3928924 C15.6245126,82.3928924 15.3488982,79.1739424 15.3488982,75.2861807 L15.3488982,60.3399804 C15.3488982,60.0022823 14.9368877,59.8649454 14.5991895,59.8649454 L7.2196854,59.8649454 C6.88198725,59.8649454 6.63741478,60.0022823 6.63741478,60.3399804 L6.63741478,76.3030378 C6.63741478,80.3394243 6.86129266,83.9120637 9.78017109,86.7519264 C12.7319727,89.6557542 17.204827,90.0894001 19.6138659,90.0894001 C22.0219641,90.0894001 26.4985811,89.6557542 29.4475607,86.7547484 C32.0390883,84.2318893 32.5686818,80.9903633 32.6636888,78.1505006 C32.6843834,77.5381288 32.7709244,76.9201129 32.7709244,76.3030378 L32.7709244,60.3399804 C32.7709244,60.0022823 32.3297533,59.8649454 31.9920552,59.8649454 Z" id="Fill-6" fill="#FFFFFF"></path>
                <path d="M146.34502,82.0580162 L140.377452,79.6160541 C140.455527,79.2999912 140.511967,79.001801 140.550534,78.7440592 L146.8558,78.7412372 C146.794657,79.8559233 146.653558,80.9762534 146.34502,82.0580162 Z M144.116589,85.8818128 C144.078962,85.9184987 144.03381,85.9495406 143.996184,85.9852858 L139.518626,81.5848626 C139.700174,81.3205362 139.852562,81.0477438 139.97767,80.7721294 L145.939594,83.2122102 C145.532287,84.1603989 144.956601,85.0643764 144.116589,85.8818128 Z M140.099956,88.1488115 L137.895041,83.0146709 C138.193231,82.8613427 138.463202,82.6863794 138.698368,82.4907214 L143.033885,86.7509858 C142.193873,87.3294937 141.208058,87.8007661 140.099956,88.1488115 Z M135.899894,88.8467837 L135.899894,83.5856535 C136.181152,83.5574336 136.516029,83.5056972 136.824566,83.4323254 L139.026659,88.4658151 C138.036141,88.6859303 137.023987,88.8110385 135.899894,88.8467837 Z M134.494543,88.8467837 C133.37045,88.8110385 132.333839,88.6849896 131.34238,88.4658151 L133.499321,83.4313847 C133.807859,83.5028752 134.214225,83.550849 134.494543,83.5771876 L134.494543,88.8467837 Z M127.230741,86.7509858 L131.564377,82.491662 C131.803305,82.6910827 132.068572,82.8698087 132.366763,83.0221962 L130.16467,88.1478709 C129.056568,87.8007661 128.070753,87.3294937 127.230741,86.7509858 Z M126.146156,85.8789908 C125.314609,85.0700203 124.74833,84.1707462 124.33726,83.2065662 L130.290718,80.7702481 C130.418649,81.0571504 130.571036,81.3280615 130.745059,81.5848626 L126.268442,85.9843451 C126.229875,85.9485999 126.183782,85.9166174 126.146156,85.8789908 Z M123.416351,78.691382 L129.712211,78.691382 C129.759244,78.9726404 129.821327,79.3018726 129.893759,79.5887749 L123.929012,82.0175677 C123.635525,80.977194 123.483138,79.8154748 123.416351,78.691382 Z M123.535815,76.3030378 L123.535815,60.9880975 L129.717854,60.9880975 L129.717854,75.2861807 C129.717854,75.9568736 129.518434,76.7244549 129.573933,77.56823 L123.368377,77.56823 C123.360851,77.2869716 123.535815,76.7150483 123.535815,76.3030378 Z M147.518027,59.8649454 L140.139464,59.8649454 C139.801766,59.8649454 139.553431,60.0022823 139.553431,60.3399804 L139.553431,75.2861807 C139.553431,76.1882768 139.526151,77.1486941 139.418916,78.0630189 C139.066167,81.0975989 137.834839,82.3928924 135.191575,82.3928924 C131.125087,82.3928924 130.841947,79.1739424 130.841947,75.2861807 L130.841947,60.3399804 C130.841947,60.0022823 130.46286,59.8649454 130.125162,59.8649454 L122.745658,59.8649454 C122.407959,59.8649454 122.130464,60.0022823 122.130464,60.3399804 L122.130464,76.3030378 C122.130464,80.3394243 122.370333,83.9120637 125.289211,86.7519264 C128.241013,89.6557542 132.722333,90.0894001 135.131372,90.0894001 C137.53947,90.0894001 142.020791,89.6557542 144.96977,86.7547484 C147.561298,84.2318893 148.075841,80.9903633 148.170848,78.1505006 C148.191542,77.5381288 148.263973,76.9201129 148.263973,76.3030378 L148.263973,60.3399804 C148.263973,60.0022823 147.855726,59.8649454 147.518027,59.8649454 Z" id="Fill-8" fill="#FFFFFF"></path>
                <mask id="mask-2" fill="white">
                    <use xlink:href="#path-1"></use>
                </mask>
                <g id="Clip-11"></g>
                <path d="M102.741134,87.965194 L108.923174,87.965194 L108.923174,86.559843 L102.741134,86.559843 L102.741134,87.965194 Z M102.741134,85.4366909 L108.923174,85.4366909 L108.923174,84.0313398 L102.741134,84.0313398 L102.741134,85.4366909 Z M102.741134,81.501896 L108.923174,81.501896 L108.923174,82.2995786 L108.923174,82.9072471 L102.741134,82.9072471 L102.741134,81.501896 Z M102.741134,80.096545 L108.923174,80.096545 L108.923174,78.9724523 L102.741134,78.9724523 L102.741134,80.096545 Z M102.741134,77.5680419 L108.923174,77.5680419 L108.923174,76.1626908 L102.741134,76.1626908 L102.741134,77.5680419 Z M102.741134,75.0395387 L108.923174,75.0395387 L108.923174,73.6341877 L102.741134,73.6341877 L102.741134,75.0395387 Z M102.741134,72.5100949 L108.923174,72.5100949 L108.923174,60.7075917 L102.741134,60.7075917 L102.741134,72.5100949 Z M102.112771,89.3696044 L109.511088,89.3696044 L118.421993,89.3696044 C118.75875,89.3696044 119.040008,88.9312553 119.040008,88.5944978 L119.040008,82.2995786 C119.040008,81.9628211 118.75875,81.7831544 118.421993,81.7831544 L110.328525,81.7831544 L110.328525,60.125321 C110.328525,59.7885636 109.848787,59.583499 109.511088,59.583499 L102.112771,59.583499 C101.775073,59.583499 101.617041,59.7885636 101.617041,60.125321 L101.617041,88.5944978 C101.617041,88.9312553 101.775073,89.3696044 102.112771,89.3696044 Z" id="Fill-10" fill="#FFFFFF" mask="url(#mask-2)"></path>
                <path d="M75.4835318,88.2464524 L81.6655715,88.2464524 L81.6655715,86.8411013 L75.4835318,86.8411013 L75.4835318,88.2464524 Z M75.4835318,85.7170086 L81.6655715,85.7170086 L81.6655715,84.3116575 L75.4835318,84.3116575 L75.4835318,85.7170086 Z M75.4835318,83.1885055 L81.6655715,83.1885055 L81.6655715,81.7831544 L75.4835318,81.7831544 L75.4835318,83.1885055 Z M75.4835318,80.3778033 L81.6655715,80.3778033 L81.6655715,78.9724523 L75.4835318,78.9724523 L75.4835318,80.3778033 Z M75.4835318,77.8493002 L81.6655715,77.8493002 L81.6655715,76.4439491 L75.4835318,76.4439491 L75.4835318,77.8493002 Z M75.4835318,75.3198564 L81.6655715,75.3198564 L81.6655715,73.9145053 L75.4835318,73.9145053 L75.4835318,75.3198564 Z M75.4835318,72.7913533 L81.6655715,72.7913533 L81.6655715,60.98885 L75.4835318,60.98885 L75.4835318,72.7913533 Z M82.7896642,66.0467969 L83.6682438,66.0467969 C85.1554326,66.0467969 86.2973979,66.3835544 87.0602759,66.9695877 C87.7827053,67.5292824 88.1345134,68.3420156 88.1345134,69.4162531 C88.1345134,70.4904907 87.7827053,71.3803582 87.0602759,71.9391123 C86.3829983,72.4611804 85.3398026,72.7904126 83.6767098,72.7904126 L82.7896642,72.7904126 L82.7896642,66.0467969 Z M74.6961966,89.3696044 L82.0954546,89.3696044 C82.4331528,89.3696044 82.7896642,89.1758278 82.7896642,88.8390703 L82.7896642,79.05429 C85.6003663,78.8680386 87.8269165,78.484248 89.7515138,77.8690541 C91.2537532,77.3893158 93.3984656,76.299087 94.5564222,74.8081355 C95.6814556,73.356692 96.2411503,71.459374 96.2411503,69.167918 C96.2411503,67.8914378 96.0257384,66.6770414 95.6118465,65.5567113 C95.1923107,64.423212 94.5601849,63.4129395 93.7408671,62.5541139 C92.9149647,61.6896442 91.8567184,61.0499931 90.5952888,60.5514416 C89.3423252,60.0604153 87.8683057,59.8647573 86.2174415,59.8647573 L82.0954546,59.8647573 L74.6961966,59.8647573 C74.3594391,59.8647573 74.0791214,60.033136 74.0791214,60.3698935 L74.0791214,88.8390703 C74.0791214,89.1758278 74.3594391,89.3696044 74.6961966,89.3696044 Z" id="Fill-12" fill="#FFFFFF" mask="url(#mask-2)"></path>
                <path d="M155.593058,114.660374 L149.630193,114.660374 L152.779534,109.090706 L152.780475,109.062486 L157.55246,100.890943 L164.03363,100.890943 L155.593058,114.660374 Z M149.107184,117.470135 L155.289224,117.470135 L155.289224,115.784467 L149.107184,115.784467 L149.107184,117.470135 Z M149.107184,120.280837 L155.289224,120.280837 L155.289224,118.875486 L149.107184,118.875486 L149.107184,120.280837 Z M149.107184,122.809341 L155.289224,122.809341 L155.289224,121.403989 L149.107184,121.403989 L149.107184,122.809341 Z M149.107184,125.338784 L155.289224,125.338784 L155.289224,123.933433 L149.107184,123.933433 L149.107184,125.338784 Z M149.107184,128.148546 L155.289224,128.148546 L155.289224,126.462877 L149.107184,126.462877 L149.107184,128.148546 Z M165.132325,99.7668507 L157.203474,99.7668507 C156.98618,99.7668507 156.785819,99.7903673 156.675762,99.9775593 L152.251822,107.484053 L147.826941,100.000135 C147.717824,99.8138839 147.517463,99.7668507 147.30017,99.7668507 L139.371318,99.7668507 C139.149322,99.7668507 138.945198,99.7960113 138.837021,99.9888473 C138.729786,100.182624 138.766472,100.374519 138.883114,100.562652 L147.983091,115.10907 L147.983091,128.663089 C147.983091,128.999846 148.194741,129.553897 148.532439,129.553897 L148.553133,129.553897 L155.911943,129.553897 L155.932637,129.553897 C156.270336,129.553897 156.413316,128.999846 156.413316,128.663089 L156.413316,115.170213 L165.585725,100.516559 C165.702367,100.328427 165.740934,100.182624 165.633699,99.9888473 C165.525522,99.7960113 165.354322,99.7668507 165.132325,99.7668507 Z" id="Fill-13" fill="#FFFFFF" mask="url(#mask-2)"></path>
                <path d="M134.364355,128.429616 L133.883676,127.024265 L140.410939,127.024265 L140.933948,128.429616 L134.364355,128.429616 Z M133.457556,125.619855 L132.977817,124.214503 L139.422302,124.214503 L139.945311,125.619855 L133.457556,125.619855 Z M132.094535,121.68506 L138.433665,121.68506 L138.957614,123.090411 L132.573332,123.090411 L132.094535,121.68506 Z M131.669355,120.561908 L131.190557,119.156557 L137.445028,119.156557 L137.968977,120.561908 L131.669355,120.561908 Z M130.257419,116.627113 L136.456391,116.627113 L136.98034,118.032464 L130.738098,118.032464 L130.257419,116.627113 Z M129.35156,113.817351 L135.468694,113.817351 L135.991703,115.222702 L129.831298,115.222702 L129.35156,113.817351 Z M123.550489,118.032464 L126.632102,109.938056 L129.470084,118.032464 L123.550489,118.032464 Z M121.289134,120.460316 L118.2903,128.429616 L112.579532,128.429616 L118.570617,111.340585 L122.092461,101.172014 L123.554252,101.172014 L125.987748,108.109406 L122.131028,118.187673 L122.131028,118.156631 L121.289134,120.460316 Z M130.562194,101.172014 L131.049458,102.296106 L125.298242,102.296106 L124.851427,101.172014 L130.562194,101.172014 Z M131.515086,103.420199 L132.038095,104.82555 L126.205041,104.82555 L125.724362,103.420199 L131.515086,103.420199 Z M133.026732,107.635312 L127.111841,107.635312 L126.631162,106.229961 L132.502782,106.229961 L133.026732,107.635312 Z M134.015369,110.164755 L128.01864,110.164755 L127.537961,108.759404 L133.49142,108.759404 L134.015369,110.164755 Z M135.004006,112.693259 L128.924499,112.693259 L128.444761,111.287907 L134.480057,111.287907 L135.004006,112.693259 Z M131.554594,100.11753 C131.46429,99.8814235 131.23665,99.7666626 130.983611,99.7666626 L123.99072,99.7666626 L121.656934,99.7666626 C121.39637,99.7666626 121.164026,99.8898895 121.079367,100.136343 L111.142199,128.580122 C111.077293,128.766373 111.106454,129.054216 111.220274,129.21507 C111.335035,129.376864 111.520345,129.553709 111.718825,129.553709 L118.711717,129.553709 C118.964755,129.553709 119.192396,129.324187 119.282699,129.08714 L121.109468,124.214503 L131.694753,124.214503 L133.351261,129.069267 C133.435921,129.31478 133.668264,129.553709 133.928828,129.553709 L141.618751,129.553709 L141.819112,129.553709 C142.020414,129.553709 142.208547,129.363695 142.322367,129.198138 C142.436188,129.033522 142.461586,128.797415 142.390095,128.610223 L131.554594,100.11753 Z" id="Fill-14" fill="#FFFFFF" mask="url(#mask-2)"></path>
                <path d="M91.5011476,112.412094 L97.6831873,112.412094 L97.6831873,100.890849 L91.5011476,100.890849 L91.5011476,112.412094 Z M91.5011476,115.222796 L97.6831873,115.222796 L97.6831873,113.817445 L91.5011476,113.817445 L91.5011476,115.222796 Z M91.5011476,117.7513 L97.6831873,117.7513 L97.6831873,116.345948 L91.5011476,116.345948 L91.5011476,117.7513 Z M91.5011476,120.280743 L97.6831873,120.280743 L97.6831873,118.875392 L91.5011476,118.875392 L91.5011476,120.280743 Z M97.6831873,122.249552 L97.6831873,122.809246 L91.5011476,122.809246 L91.5011476,121.404836 L97.6831873,121.404836 L97.6831873,122.249552 Z M91.5011476,125.619949 L97.6831873,125.619949 L97.6831873,124.214598 L91.5011476,124.214598 L91.5011476,125.619949 Z M91.5011476,128.148452 L97.6831873,128.148452 L97.6831873,126.743101 L91.5011476,126.743101 L91.5011476,128.148452 Z M107.120863,121.685154 L98.80728,121.685154 L98.80728,100.075294 C98.80728,99.7375961 98.5485976,99.486439 98.2108994,99.486439 L90.8116414,99.486439 C90.4739432,99.486439 90.0957966,99.7375961 90.0957966,100.075294 L90.0957966,128.54353 C90.0957966,128.881228 90.4739432,129.272544 90.8116414,129.272544 L98.2108994,129.272544 L107.120863,129.272544 C107.458561,129.272544 107.799081,128.881228 107.799081,128.54353 L107.799081,122.249552 C107.799081,121.911854 107.458561,121.685154 107.120863,121.685154 Z" id="Fill-15" fill="#FFFFFF" mask="url(#mask-2)"></path>
                <path d="M77.9505156,111.87507 C77.2741786,112.397138 76.2300423,112.693447 74.5669494,112.693447 L73.5171691,112.693447 L73.5171691,106.230149 L74.5584835,106.230149 C76.0456723,106.230149 77.1876376,106.450264 77.9505156,107.036297 C78.672945,107.595992 79.0247531,108.381446 79.0247531,109.455683 C79.0247531,110.529921 78.672945,111.315375 77.9505156,111.87507 Z M66.2110368,112.693447 L72.3930764,112.693447 L72.3930764,101.172202 L66.2110368,101.172202 L66.2110368,112.693447 Z M66.2110368,115.22289 L72.3930764,115.22289 L72.3930764,114.098798 L66.2110368,114.098798 L66.2110368,115.22289 Z M66.2110368,118.032652 L72.3930764,118.032652 L72.3930764,116.627301 L66.2110368,116.627301 L66.2110368,118.032652 Z M66.2110368,120.561155 L72.3930764,120.561155 L72.3930764,119.155804 L66.2110368,119.155804 L66.2110368,120.561155 Z M66.2110368,123.090599 L72.3930764,123.090599 L72.3930764,121.685248 L66.2110368,121.685248 L66.2110368,123.090599 Z M66.2110368,125.620043 L72.3930764,125.620043 L72.3930764,124.214692 L66.2110368,124.214692 L66.2110368,125.620043 Z M66.2110368,128.429804 L72.3930764,128.429804 L72.3930764,127.024453 L66.2110368,127.024453 L66.2110368,128.429804 Z M84.6292255,102.504181 C83.803323,101.638771 82.7460174,100.975603 81.4845878,100.477052 C80.2316242,99.9869659 78.7585454,99.7668507 77.1076812,99.7668507 L72.9856943,99.7668507 L65.5864363,99.7668507 C65.2496788,99.7668507 64.8056857,99.9822626 64.8056857,100.319961 L64.8056857,128.788197 C64.8056857,129.125895 65.2496788,129.553897 65.5864363,129.553897 L72.9856943,129.553897 C73.3233925,129.553897 73.5171691,129.125895 73.5171691,128.788197 L73.5171691,119.003417 C76.3269306,118.817165 78.6353185,118.433375 80.5599158,117.818181 C82.0621552,117.338442 84.2482568,116.248214 85.4052728,114.757262 C86.5303061,113.305819 87.1106954,111.408501 87.1106954,109.117045 C87.1106954,107.841505 86.9056308,106.626168 86.4917389,105.505838 C86.0722031,104.372339 85.4476026,103.362066 84.6292255,102.504181 Z" id="Fill-16" fill="#FFFFFF" mask="url(#mask-2)"></path>
                <path d="M47.2259102,127.867664 L45.8694737,126.462313 L53.0363879,126.462313 L54.4257476,127.867664 L47.2259102,127.867664 Z M35.1647246,128.736837 C33.9597348,128.736837 32.844108,128.553407 31.8488862,128.192193 C30.8621303,127.8338 30.0014233,127.324901 29.2865192,126.676784 C28.5763183,126.03337 28.012861,125.263908 27.6149604,124.386269 C27.2170598,123.513333 27.0148172,122.540687 27.0148172,121.494669 C27.0148172,120.549303 27.143688,119.706468 27.3986078,118.991564 C27.6497649,118.283245 28.0890547,117.589976 28.7089519,116.925867 C29.1802242,116.409443 29.708877,115.960747 30.2808004,115.591066 C30.865893,115.211979 31.6033731,114.8169 32.481012,114.412415 L32.8459894,114.238392 L35.4403389,117.027459 C33.9239896,118.091349 33.1846282,119.177816 33.1846282,120.33295 C33.1846282,120.81551 33.2928045,121.26891 33.5044537,121.67998 C33.7113997,122.077881 33.9964207,122.424045 34.3548134,122.710006 C34.6953335,122.979977 35.0894715,123.195389 35.52688,123.349658 C36.9896115,123.869844 38.8182611,123.529324 40.5678949,122.551034 L43.6495081,125.949651 C40.7052318,127.799936 37.8540811,128.736837 35.1647246,128.736837 Z M49.5004343,115.094396 L52.6629445,118.143086 C52.3412376,118.552274 51.9931922,118.961463 51.6235115,119.365008 C51.1240192,119.910592 50.5304606,120.504151 49.8607083,121.128751 L49.7450067,121.235046 L46.9775751,118.38954 L46.7301806,118.128976 C47.7997149,117.083899 48.7290903,116.067042 49.5004343,115.094396 Z M43.4425622,123.93381 L50.5520959,123.93381 L51.8963039,125.33822 L44.7547876,125.33822 L43.4425622,123.93381 Z M36.8005382,118.477962 C36.8061821,118.483606 36.8108854,118.48925 36.8165294,118.494894 L39.7194166,121.631066 C38.7655839,122.121151 37.8343272,122.382656 36.9454003,122.382656 C36.5794823,122.382656 36.2361401,122.327156 35.9285432,122.21804 C35.616243,122.107041 35.3378066,121.955594 35.1026408,121.769343 C34.8787629,121.590617 34.7000369,121.374264 34.5721066,121.128751 C34.4469984,120.88606 34.3858553,120.625496 34.3858553,120.33295 C34.3858553,119.572894 35.026447,118.760161 36.2775293,117.912623 L36.8005382,118.477962 Z M39.4118197,110.404248 C38.0591457,108.862501 37.7628368,108.006497 37.7628368,107.553098 C37.7628368,107.061131 37.9189869,106.665111 38.2397531,106.344345 C38.5624006,106.021698 38.9574793,105.865548 39.4494462,105.865548 C39.978099,105.865548 40.3966942,106.044274 40.7287484,106.411132 C41.0758532,106.797745 41.2451726,107.241738 41.2451726,107.770391 C41.2451726,108.697885 40.6280974,109.582109 39.4118197,110.404248 Z M40.7240451,113.536657 L41.9412634,114.941068 L35.0527856,114.941068 L33.8581431,113.536657 L40.7240451,113.536657 Z M46.9267793,119.999955 L39.9019053,119.999955 L38.5887392,118.594604 L45.5703427,118.594604 L46.1262748,119.160884 L46.9267793,119.999955 Z M41.967602,122.363842 L41.1285303,121.41001 C41.1087764,121.388374 41.0824378,121.423179 41.0598619,121.405306 L41.0156507,121.404366 L48.067804,121.404366 L49.4110712,122.809717 L42.3288168,122.809717 L41.967602,122.363842 Z M44.4424873,117.470512 L37.4749938,117.470512 L36.8212327,116.762192 C36.8137074,116.753726 36.8108854,116.747141 36.8033601,116.738675 L36.1702937,116.06516 L43.0982794,116.06516 L44.4424873,117.470512 Z M56.2600412,128.161151 L50.5389266,122.138083 L50.6790855,122.007331 C51.3723544,121.361095 51.9884889,120.744961 52.5086757,120.175859 C53.0335659,119.604877 53.5161262,119.020725 53.94695,118.439395 C54.1275574,118.196704 54.0993375,117.859005 53.8811036,117.649238 L49.8513017,113.764298 C49.7280748,113.644834 49.5578147,113.585572 49.3856733,113.5978 C49.2144726,113.61191 49.0564412,113.699392 48.9539088,113.83767 C48.148701,114.914729 47.1158526,116.06422 45.8986342,117.253218 L43.406817,114.630649 C44.0652813,114.26379 44.6710685,113.896931 45.1602135,113.536657 C45.8468977,113.032462 46.4131771,112.49158 46.8421196,111.930945 C47.2861127,111.354318 47.6068789,110.725015 47.7968929,110.059025 C47.9812629,109.415611 48.0743886,108.694122 48.0743886,107.916194 C48.0743886,106.769525 47.9455177,105.688703 47.3839417,104.702888 L47.3839417,104.701947 C46.821425,103.723657 46.2786622,102.858247 45.4584038,102.129233 C44.641908,101.403981 43.6664401,100.833939 42.557398,100.433217 C40.3712963,99.6468221 37.5888141,99.6327121 35.3603825,100.434157 C34.2532218,100.833939 33.2796352,101.396456 32.46408,102.107597 C31.6419403,102.826264 30.9872385,103.692615 30.5197289,104.680312 C30.0484565,105.675534 29.8085873,106.764822 29.8085873,107.916194 C29.8085873,109.635726 30.5535927,111.447444 32.0191463,113.302432 L31.9721131,113.325008 C31.050263,113.749247 30.2619871,114.172546 29.62798,114.581734 C28.971397,115.007855 28.3637284,115.523338 27.8266096,116.110312 C27.0985362,116.890122 26.5727054,117.724491 26.2651084,118.58896 C25.9659775,119.434617 25.81359,120.411966 25.81359,121.494669 C25.81359,122.713769 26.0515779,123.854794 26.5219095,124.88388 C26.9875379,125.910143 27.6469429,126.814121 28.4813113,127.567592 C29.3100358,128.319182 30.3052576,128.908978 31.4378163,129.320989 C32.5666123,129.730177 33.8195759,129.938064 35.1647246,129.938064 C38.1532121,129.938064 41.2978497,128.878877 44.5149184,126.812239 L46.5241754,129.031264 C46.6379956,129.154491 46.7979084,129.273015 46.9644058,129.273015 L55.8245141,129.273015 C56.0653239,129.273015 56.2826171,129.081119 56.3757428,128.860064 C56.4707498,128.639948 56.425598,128.335173 56.2600412,128.161151 Z" id="Fill-17" fill="#FFFFFF" mask="url(#mask-2)"></path>
            </g>
        </g>
    </g>
</svg>