<?xml version="1.0" encoding="UTF-8"?>
<svg width="200px" height="144px" viewBox="0 0 200 144" version="1.1" xmlns="http://www.w3.org/2000/svg" xmlns:xlink="http://www.w3.org/1999/xlink" style="background: #FFFFFF;">
    <!-- Generator: Sketch 49.2 (51160) - http://www.bohemiancoding.com/sketch -->
    <title>preview/festival</title>
    <desc>Created with Sketch.</desc>
    <defs></defs>
    <g id="preview/festival" stroke="none" stroke-width="1" fill="none" fill-rule="evenodd">
        <g id="Group" transform="translate(-8.000000, -3.000000)">
            <g id="Page-1">
                <polygon id="Fill-1" fill="#E42026" points="0 150 215 150 215 0 0 0"></polygon>
                <g id="Group-26" transform="translate(22.000000, 29.000000)">
                    <path d="M2.08620034,78.4031015 L2.08620034,84.2691477 L9.73052107,84.2691477 C11.8444285,84.2691477 12.9312367,82.872067 12.9312367,81.2766125 C12.9312367,79.6398962 11.785767,78.4031015 9.73052107,78.4031015 L2.08620034,78.4031015 Z M0.0309543923,76.5674824 L10.1652443,76.5674824 C13.2072598,76.5674824 15.0446203,78.6025333 15.0446203,81.2358797 C15.0446203,84.049614 12.8322455,86.0243593 10.1652443,86.0243593 L2.08620034,86.0243593 L2.08620034,92.5289048 L0.0309543923,92.5289048 L0.0309543923,76.5674824 Z" id="Fill-2" fill="#FEFEFE"></path>
                    <path d="M18.9969881,85.7253703 L24.3503696,85.7253703 L21.7032715,78.7024079 L18.9969881,85.7253703 Z M24.9825515,87.4409071 L18.3250002,87.4409071 L16.3692693,92.528799 L14.2956916,92.528799 L20.7353575,76.5673766 L22.6711855,76.5673766 L28.9924809,92.528799 L26.8984765,92.528799 L24.9825515,87.4409071 Z" id="Fill-4" fill="#FEFEFE"></path>
                    <path d="M33.3595643,78.4031015 L33.3595643,84.2691477 L38.8318399,84.2691477 C40.9452236,84.2691477 42.0320317,82.872067 42.0320317,81.2766125 C42.0320317,79.6398962 40.8860383,78.4031015 38.8318399,78.4031015 L33.3595643,78.4031015 Z M31.3053659,76.5674824 L39.2660394,76.5674824 C42.3085786,76.5674824 44.1459391,78.6025333 44.1459391,81.2358797 C44.1459391,83.4312167 42.8024871,85.1070788 40.9452236,85.745578 L44.1459391,92.5289048 L41.8544761,92.5289048 L38.9308311,86.0243593 L33.3595643,86.0243593 L33.3595643,92.5289048 L31.3053659,92.5289048 L31.3053659,76.5674824 Z" id="Fill-6" fill="#FEFEFE"></path>
                    <path d="M46.4388164,80.9369965 C46.4388164,77.984136 48.7496586,76.2484973 51.7722948,76.2484973 C53.6091316,76.2484973 55.3087425,76.6875647 56.2761327,77.2858601 L55.9005946,79.1209502 C54.8336894,78.4427763 53.1943113,78.0835874 51.7131096,78.0835874 C49.8553223,78.0835874 48.4930148,79.0617026 48.4930148,80.7375647 C48.4930148,84.568031 56.6317678,82.6726352 56.6317678,88.0795121 C56.6317678,90.7535913 54.6561338,92.8679918 51.2192011,92.8679918 C49.4216465,92.8679918 47.7817446,92.5484777 46.4974778,91.9496532 L46.596469,89.954806 C48.0190093,90.633509 49.5007348,91.0122708 51.2783863,91.0122708 C53.4514789,91.0122708 54.5576664,89.8749275 54.5576664,88.3588225 C54.5576664,84.5881328 46.4388164,86.3840772 46.4388164,80.9369965" id="Fill-8" fill="#FEFEFE"></path>
                    <path d="M69.0583064,91.0122179 C75.0244906,91.0122179 77.3547121,88.45875 77.3547121,84.4685266 C77.3547121,80.6380603 75.0244906,78.1041654 69.0583064,78.1041654 C63.092646,78.1041654 60.761377,80.6179585 60.761377,84.5277743 C60.761377,88.45875 63.092646,91.0122179 69.0583064,91.0122179 M69.0776856,76.2484444 C76.2490484,76.2484444 79.4885225,79.5398629 79.4885225,84.5076724 C79.4885225,89.6960737 76.1102512,92.8679389 69.0776856,92.8679389 C62.0257408,92.8679389 58.6280904,89.6759718 58.6280904,84.5277743 C58.6280904,79.6006975 61.8481852,76.2484444 69.0776856,76.2484444" id="Fill-10" fill="#FEFEFE"></path>
                    <polygon id="Fill-12" fill="#FEFEFE" points="97.6842056 92.5289577 84.6063677 79.1813088 84.6063677 92.5289577 82.5521693 92.5289577 82.5521693 76.5675353 84.6859797 76.5675353 97.7826731 89.9548589 97.7826731 76.5675353 99.8174922 76.5675353 99.8174922 92.5289577"></polygon>
                    <path d="M102.999614,81.3358072 C102.999614,78.3829467 105.508439,76.2484444 110.901626,76.2484444 C113.923739,76.2484444 116.472369,76.9266183 117.973474,77.485239 L117.59846,79.3203292 C115.820285,78.6622571 113.508918,78.0840635 110.842965,78.0840635 C106.417168,78.0840635 105.05486,79.4605133 105.05486,81.1363754 C105.05486,84.9668417 118.329633,82.2731897 118.329633,87.6805956 C118.329633,90.3536168 116.551458,92.8679389 110.348009,92.8679389 C107.32642,92.8679389 104.600234,92.3288911 103.059323,91.7506975 L103.158314,89.7553213 C104.935966,90.4340243 107.444267,91.0122179 110.408242,91.0122179 C115.14882,91.0122179 116.255008,89.47654 116.255008,87.959377 C116.255008,84.1892163 102.999614,86.7828879 102.999614,81.3358072" id="Fill-14" fill="#FEFEFE"></path>
                    <path d="M101.924957,38.3538068 L101.924957,31.6873883 C108.07184,26.9645043 114.747199,21.2888969 114.747199,17.1754173 C114.747199,15.1181485 112.975309,13.7089009 109.95791,13.7089009 C107.770152,13.7089009 104.640145,14.3944808 102.075277,15.6138186 L100.793106,9.89959444 C103.584238,8.29990792 106.902801,7.27153801 110.636707,7.27153801 C117.46291,7.27153801 122.478988,9.86203566 122.478988,15.6894651 C122.478988,21.9744769 116.25616,27.0792966 110.372731,31.573654 L110.372731,31.6873883 L123.157785,31.6873883 L123.157785,38.3538068 L101.924957,38.3538068 Z" id="Fill-16" fill="#FEFEFE"></path>
                    <path d="M139.070699,32.3354095 C143.030871,32.3354095 143.935934,27.6119965 143.935934,22.8124079 C143.935934,19.0036305 143.407981,13.8993397 139.146645,13.8993397 C134.997919,13.8993397 134.130043,18.6227527 134.130043,23.0795513 C134.130043,27.6119965 135.035629,32.3354095 139.070699,32.3354095 M139.032989,7.27153801 C147.745262,7.27153801 151.478645,13.9374275 151.478645,23.1171101 C151.478645,32.2973217 147.745262,38.9632112 139.032989,38.9632112 C130.321239,38.9632112 126.587333,32.2973217 126.587333,23.1171101 C126.587333,13.9374275 130.321239,7.27153801 139.032989,7.27153801" id="Fill-18" fill="#FEFEFE"></path>
                    <polygon id="Fill-20" fill="#FEFEFE" points="8.30384308 71.9719279 8.30384308 65.3055094 14.9792023 65.3055094 14.9792023 49.3075862 8.30384308 50.2597806 8.30384308 43.4034522 21.2779759 40.8896591 22.521913 40.8896591 22.521913 65.3055094 28.8206866 65.3055094 28.8206866 71.9719279"></polygon>
                    <path d="M47.4868661,54.1834032 C47.4496789,49.993219 45.827585,46.9461971 42.6593427,46.9461971 C39.9441554,46.9461971 38.4734289,49.1172002 38.4734289,51.2501156 C38.4734289,53.8025255 40.5852413,55.0213342 43.1878195,55.0213342 C44.5077022,55.0213342 46.1669834,54.7166321 47.4868661,54.1834032 Z M32.7026084,65.2299158 C33.6836164,65.3055623 34.6646245,65.3441791 35.4942651,65.3441791 C42.0187805,65.3441791 45.1859753,62.6394181 46.5818037,59.2496062 C44.5831241,60.3160639 42.3953661,60.9254683 40.0949991,60.9254683 C34.8903663,60.9254683 30.5536089,57.6499197 30.5536089,51.7457857 C30.5536089,45.1941595 35.9090854,40.8516242 43.074163,40.8516242 C50.7682412,40.8516242 55.2935533,45.8797394 55.2935533,53.878701 C55.2935533,65.2680035 46.2046943,72.5432974 36.7764369,72.5432974 C36.0216944,72.5432974 35.3428976,72.4671219 35.0412101,72.4671219 L32.7026084,65.2299158 Z" id="Fill-22" fill="#FEFEFE"></path>
                    <path d="M130.615279,84.5841654 L132.922979,78.1669044 L134.969321,84.5841654 L130.615279,84.5841654 Z M162.966024,83.4373002 L162.933027,43.301779 L158.390954,43.301779 L158.423951,82.5660423 L136.026799,70.7863401 L163.595063,0.299094828 L159.093844,0.299094828 L132.29394,68.8232328 L120.180349,62.4525235 L127.412993,43.301779 L122.463432,43.301779 L117.69876,56.9038754 L105.452658,19.2202547 L100.217647,19.2202547 L114.110984,59.2155917 L81.218145,41.6507798 L81.218145,27.2472531 L96.3648467,27.2472531 L96.3648467,22.6603213 L70.4317701,22.6603213 L70.4317701,27.2472531 L76.6760724,27.2472531 L76.6760724,39.1322257 L38.0406959,19.2202547 L46.020225,19.2202547 L46.020225,15.2067555 L36.9376511,15.2067555 L36.9376511,11.7666889 L43.7497125,11.7666889 L43.7497125,7.75266066 L36.9376511,7.75266066 L36.9376511,4.31259404 L127.412993,4.30571708 L127.412993,0.292217868 L31.8283432,0.299094828 L31.8283432,15.7854781 L13.8910323,6.60632445 L0.0369776666,6.60632445 L0.0306925108,71.9697061 L4.57224134,71.9697061 L4.57852649,18.0733895 L12.5266298,18.0733895 L12.5266298,14.0598903 L4.57852649,14.0598903 L4.57852649,10.6198237 L12.4999178,10.6198237 L50.2391358,30.5201567 C47.9937639,31.4522492 46.5120384,33.3021513 46.5120384,36.0587539 C46.5120384,42.8595376 56.2440784,41.1566967 56.2440784,44.0407876 C56.2440784,44.9300313 55.7203154,45.665337 53.626311,45.665337 C51.2232865,45.665337 49.0580503,45.1072453 47.0829401,44.146058 L46.8928141,48.5414929 C48.8679243,49.4788754 51.3186113,49.7661207 53.4838475,49.7661207 C58.5517781,49.7661207 60.9788958,46.7370846 60.9788958,43.300192 C60.9788958,36.8353213 51.2232865,38.5900039 51.2232865,35.4657484 C51.2232865,34.4558934 52.2399104,33.9062657 53.7132557,33.8295611 C55.1981237,33.7512696 57.0056298,34.0289929 59.0011667,34.9891223 L92.0039961,52.4010541 L92.0039961,71.9697061 L96.5450211,71.9697061 L96.5450211,54.8206857 L130.497956,73.6900039 L130.495861,73.6900039 L122.857826,92.6111638 L127.92628,92.6111638 L129.235164,89.1710972 L136.206973,89.1710972 L137.396439,92.6111638 L142.560218,92.6111638 L136.60189,76.6079506 L158.180401,88.024232 L171.480839,88.024232 L171.480839,83.4373002 L162.966024,83.4373002 Z" id="Fill-24" fill="#020303"></path>
                </g>
            </g>
        </g>
    </g>
</svg>