<?xml version="1.0" encoding="UTF-8"?>
<svg width="200px" height="144px" viewBox="0 0 200 144" version="1.1" xmlns="http://www.w3.org/2000/svg" xmlns:xlink="http://www.w3.org/1999/xlink" style="background: #FFFFFF;">
    <!-- Generator: Sketch 49.2 (51160) - http://www.bohemiancoding.com/sketch -->
    <title>preview/festival</title>
    <desc>Created with Sketch.</desc>
    <defs></defs>
    <g id="preview/festival" stroke="none" stroke-width="1" fill="none" fill-rule="evenodd">
        <g id="Group" transform="translate(-20.000000, -39.000000)">
            <g id="Page-1">
                <polygon id="Fill-1" fill="#E42026" points="0 272 391 272 391 0 0 0"></polygon>
                <g id="Group-26" transform="translate(37.416268, 52.524138)">
                    <polygon id="Fill-20" fill="#FEFEFE" points="15.1014077 130.509096 15.1014077 118.420657 27.241247 118.420657 27.241247 89.4110897 15.1014077 91.1377354 15.1014077 78.7049266 38.696226 74.1465818 40.9584558 74.1465818 40.9584558 118.420657 52.4134348 118.420657 52.4134348 130.509096"></polygon>
                    <path d="M86.3598355,98.2525712 C86.2922068,90.6543705 83.3422592,85.1291041 77.580479,85.1291041 C72.6426267,85.1291041 69.9679568,89.0658564 69.9679568,92.9335429 C69.9679568,97.5619129 73.8085085,99.7720194 78.5415695,99.7720194 C80.9419143,99.7720194 83.9594907,99.2194928 86.3598355,98.2525712 Z M59.4731157,118.283581 C61.2571815,118.420753 63.0412474,118.490778 64.5500355,118.490778 C76.4155497,118.490778 82.1754249,113.586145 84.7138848,107.439286 C81.0790769,109.373129 77.10041,110.478182 72.9169519,110.478182 C63.4517825,110.478182 55.5649352,104.538521 55.5649352,93.832358 C55.5649352,81.9520759 65.3044296,74.0776119 78.3348731,74.0776119 C92.3273595,74.0776119 100.557113,83.1952608 100.557113,97.7000445 C100.557113,118.352646 84.028072,131.545179 66.8817991,131.545179 C65.509221,131.545179 64.2747579,131.407048 63.7261076,131.407048 L59.4731157,118.283581 Z" id="Fill-22" fill="#FEFEFE"></path>
                    <path d="M237.537555,153.379287 L241.734348,141.742653 L245.455835,153.379287 L237.537555,153.379287 Z M296.370769,151.299638 L296.31076,78.5205592 L288.050526,78.5205592 L288.110535,149.719757 L247.378968,128.35923 L297.514743,0.542358621 L289.328805,0.542358621 L240.590374,124.799462 L218.560543,113.247243 L231.713861,78.5205592 L222.712568,78.5205592 L214.047513,103.185694 L191.776695,34.8527285 L182.256279,34.8527285 L207.522766,107.377606 L147.703696,75.5267473 L147.703696,49.4083524 L175.249558,49.4083524 L175.249558,41.090716 L128.087545,41.090716 L128.087545,49.4083524 L139.443462,49.4083524 L139.443462,70.9597693 L69.1809866,34.8527285 L83.6925952,34.8527285 L83.6925952,27.5749166 L67.1749841,27.5749166 L67.1749841,21.3369292 L79.5634306,21.3369292 L79.5634306,14.058158 L67.1749841,14.058158 L67.1749841,7.82017053 L231.713861,7.80770031 L231.713861,0.529888401 L57.883173,0.542358621 L57.883173,28.6243335 L25.262296,11.9794683 L0.0672477564,11.9794683 L0.0558175429,130.505067 L8.31509936,130.505067 L8.32652957,32.7730796 L22.7809871,32.7730796 L22.7809871,25.4952677 L8.32652957,25.4952677 L8.32652957,19.2572803 L22.7324087,19.2572803 L91.3651261,55.3432176 C87.2816823,57.0334119 84.5870094,60.3879009 84.5870094,65.3865404 C84.5870094,77.7186282 102.285743,74.63081 102.285743,79.8606282 C102.285743,81.4731235 101.333225,82.8064777 97.5250586,82.8064777 C93.154907,82.8064777 89.2171984,81.7944715 85.6252538,80.0515185 L85.2794899,88.0219072 C88.8714345,89.721694 93.3282652,90.2425655 97.2659738,90.2425655 C106.482536,90.2425655 110.896503,84.7499135 110.896503,78.5176815 C110.896503,66.794716 93.154907,69.9765404 93.154907,64.3112238 C93.154907,62.4800201 95.003744,61.4833618 97.6831766,61.3442708 C100.383565,61.2023022 103.670703,61.7059072 107.299796,63.4469417 L167.318895,95.0205781 L167.318895,130.505067 L175.577224,130.505067 L175.577224,99.4081768 L237.324191,133.62454 L237.320381,133.62454 L223.429814,167.93491 L232.647328,167.93491 L235.02767,161.696923 L247.706635,161.696923 L249.869803,167.93491 L259.260675,167.93491 L248.424833,138.91575 L287.667614,159.617274 L311.855851,159.617274 L311.855851,151.299638 L296.370769,151.299638 Z" id="Fill-24" fill="#020303"></path>
                </g>
            </g>
        </g>
    </g>
</svg>