<?xml version="1.0" encoding="UTF-8"?>
<svg width="200px" height="144px" viewBox="0 0 200 144" version="1.1" xmlns="http://www.w3.org/2000/svg" xmlns:xlink="http://www.w3.org/1999/xlink" style="background: #FFFFFF;">
    <!-- Generator: Sketch 49.2 (51160) - http://www.bohemiancoding.com/sketch -->
    <title>preview/festival</title>
    <desc>Created with Sketch.</desc>
    <defs></defs>
    <g id="preview/festival" stroke="none" stroke-width="1" fill="none" fill-rule="evenodd">
        <g id="Group" transform="translate(-177.000000, -71.000000)">
            <g id="Page-1">
                <polygon id="Fill-1" fill="#E42026" points="0 306 439 306 439 0 0 0"></polygon>
                <g id="Group-26" transform="translate(44.920930, 59.160000)">
                    <path d="M141.007426,185.664924 C153.189541,185.664924 157.947528,180.45585 157.947528,172.315794 C157.947528,164.501643 153.189541,159.332497 141.007426,159.332497 C128.82638,159.332497 124.066254,164.460635 124.066254,172.43666 C124.066254,180.45585 128.82638,185.664924 141.007426,185.664924 M141.046995,155.546826 C155.689917,155.546826 162.304471,162.26132 162.304471,172.395652 C162.304471,182.97999 155.406513,189.450595 141.046995,189.450595 C126.647908,189.450595 119.71038,182.938982 119.71038,172.43666 C119.71038,162.385423 126.285364,155.546826 141.046995,155.546826" id="Fill-10" fill="#FEFEFE"></path>
                    <path d="M210.31084,165.925047 C210.31084,159.901211 215.43351,155.546826 226.445646,155.546826 C232.616378,155.546826 237.820326,156.930301 240.885373,158.069888 L240.119646,161.813471 C236.48886,160.471004 231.769373,159.291489 226.325868,159.291489 C217.289008,159.291489 214.507366,162.099447 214.507366,165.518206 C214.507366,173.332357 241.612599,167.837307 241.612599,178.868415 C241.612599,184.321378 237.981814,189.450595 225.315237,189.450595 C219.145574,189.450595 213.579082,188.350938 210.432758,187.171423 L210.634884,183.100855 C214.2646,184.48541 219.386201,185.664924 225.438224,185.664924 C235.117824,185.664924 237.376504,182.532142 237.376504,179.437129 C237.376504,171.746001 210.31084,177.037091 210.31084,165.925047" id="Fill-14" fill="#FEFEFE"></path>
                    <path d="M208.116541,78.2417659 L208.116541,64.6422722 C220.667617,55.0075888 234.297769,43.4293498 234.297769,35.0378513 C234.297769,30.841023 230.679817,27.9661578 224.51871,27.9661578 C220.051613,27.9661578 213.660574,29.3647408 208.423473,31.8521899 L205.805457,20.1951726 C211.504561,16.9318121 218.280602,14.8339375 225.904718,14.8339375 C239.842872,14.8339375 250.085004,20.1185527 250.085004,32.0065089 C250.085004,44.8279328 237.378857,55.2417651 225.365715,64.4102542 L225.365715,64.6422722 L251.471012,64.6422722 L251.471012,78.2417659 L208.116541,78.2417659 Z" id="Fill-16" fill="#FEFEFE"></path>
                    <path d="M283.962963,65.9642353 C292.049082,65.9642353 293.897093,56.3284728 293.897093,46.5373121 C293.897093,38.7674062 292.819086,28.3546531 284.118034,28.3546531 C275.646913,28.3546531 273.874833,37.9904156 273.874833,47.0822847 C273.874833,56.3284728 275.723913,65.9642353 283.962963,65.9642353 M283.885963,14.8339375 C301.675209,14.8339375 309.298256,28.4323521 309.298256,47.1589046 C309.298256,65.8865363 301.675209,79.4849509 283.885963,79.4849509 C266.097785,79.4849509 258.47367,65.8865363 258.47367,47.1589046 C258.47367,28.4323521 266.097785,14.8339375 283.885963,14.8339375" id="Fill-18" fill="#FEFEFE"></path>
                    <path d="M266.698175,172.551697 L271.410176,159.460485 L275.588521,172.551697 L266.698175,172.551697 Z M332.753881,170.212092 L332.686506,88.3356292 L323.412227,88.3356292 L323.479603,168.434726 L277.747742,144.404134 L334.038292,0.610153448 L324.84743,0.610153448 L270.125765,140.399395 L245.391504,127.403148 L260.159552,88.3356292 L250.053241,88.3356292 L240.324446,116.083906 L215.319614,39.2093196 L204.630452,39.2093196 L232.998707,120.799807 L165.836119,84.9675908 L165.836119,55.5843964 L196.763571,55.5843964 L196.763571,46.2270555 L143.811847,46.2270555 L143.811847,55.5843964 L156.561841,55.5843964 L156.561841,79.8297404 L77.6737931,39.2093196 L93.966878,39.2093196 L93.966878,31.0217812 L75.4215294,31.0217812 L75.4215294,24.0040453 L89.3308082,24.0040453 L89.3308082,15.8154277 L75.4215294,15.8154277 L75.4215294,8.79769185 L260.159552,8.78366285 L260.159552,0.596124451 L64.9890356,0.610153448 L64.9890356,32.2023752 L28.3635497,13.4769019 L0.0755032355,13.4769019 L0.0626698244,146.8182 L9.33587882,146.8182 L9.34871223,36.8697146 L25.5776301,36.8697146 L25.5776301,28.6821762 L9.34871223,28.6821762 L9.34871223,21.6644403 L25.5230881,21.6644403 L102.581305,62.2611197 C97.9965691,64.1625884 94.9710924,67.9363886 94.9710924,73.559858 C94.9710924,87.4334567 114.84256,83.9596613 114.84256,89.8432067 C114.84256,91.6572639 113.773109,93.1572875 109.497444,93.1572875 C104.590804,93.1572875 100.169693,92.0187804 96.1367939,90.0579583 L95.7485832,99.0246456 C99.7814827,100.936906 104.785444,101.522886 109.206554,101.522886 C119.554561,101.522886 124.510396,95.3436527 124.510396,88.3323917 C124.510396,75.1440555 104.590804,78.723608 104.590804,72.3501268 C104.590804,70.2900226 106.666608,69.168782 109.674973,69.0123047 C112.706867,68.85259 116.397542,69.4191456 120.47215,71.3778094 L187.859322,106.89815 L187.859322,146.8182 L197.131462,146.8182 L197.131462,111.834199 L266.458618,150.327608 L266.45434,150.327608 L250.858537,188.926774 L261.207614,188.926774 L263.880172,181.909038 L278.115633,181.909038 L280.544356,188.926774 L291.088073,188.926774 L278.921999,156.280219 L322.982308,179.569433 L350.139945,179.569433 L350.139945,170.212092 L332.753881,170.212092 Z" id="Fill-24" fill="#020303"></path>
                </g>
            </g>
        </g>
    </g>
</svg>