<?xml version="1.0" encoding="UTF-8"?>
<svg width="1400px" height="300px" viewBox="0 0 1400 300" version="1.1" xmlns="http://www.w3.org/2000/svg" xmlns:xlink="http://www.w3.org/1999/xlink">
    <!-- Generator: Sketch 49.2 (51160) - http://www.bohemiancoding.com/sketch -->
    <title>kooz/logo</title>
    <desc>Created with Sketch.</desc>
    <defs></defs>
    <g id="kooz/logo" stroke="none" stroke-width="1" fill="none" fill-rule="evenodd">
        <g id="Group-11" transform="translate(340.000000, 53.000000)">
            <path d="M236.593787,28.4016574 L196.404326,28.4016574 L196.404326,68.5851343 L168,97.0018869 L196.404326,125.418639 L196.404326,165.590795 L236.58624,165.590795 L236.590013,165.590795 L264.998113,194 L293.398666,165.590795 L293.417534,165.590795 L333.588127,165.590795 L333.580579,125.418639 L333.588127,125.407318 L362,97.0018869 L333.588127,68.5964557 L333.580579,68.5964557 L333.580579,68.5851343 L333.580579,28.4016574 L293.409987,28.4016574 L293.398666,28.4016574 L264.998113,0 L236.593787,28.4016574 Z M232.661635,97.0018869 L264.998113,64.6716984 L297.330818,97.0018869 L264.998113,129.332075 L232.661635,97.0018869 Z" id="Fill-8" fill="#262321"></path>
            <polygon id="Fill-9" fill="#262321" points="720 165 720 125 680 165"></polygon>
            <polygon id="Fill-10" fill="#262321" points="582 28 582 68 622 28"></polygon>
            <polygon id="Fill-11" fill="#262321" points="678.954832 28 682.832724 31.8787111 585.96457 128.861581 582 124.903635 582 165 622.0414 165 618.253954 161.19675 715.125877 64.2138805 719 68.0888185 719 28"></polygon>
            <polygon id="Fill-12" fill="#1D1D1B" points="36.0940734 109.880676 29.4186265 103.184676 22.7582314 96.4962255 29.5616181 89.6718922 36.0940734 83.1193244 36.0978363 73.8566509 36.0978363 73.6603758 36.0978363 73.4754243 36.0978363 64.2089762 36.0978363 41.5618525 36.0978363 31.9179524 40 28 36.0978363 28 30.378175 28 0 28 0 68.115605 0 73.6603758 0 73.7132191 0 96.4962255 0 119.320752 0 124.888169 0 165 30.3894638 165 35.9059266 165 36.0978363 165 40 165 36.0978363 161.082048 36.0978363 128.787249 36.0978363 119.517027 36.0978363 119.320752 36.0978363 119.147124"></polygon>
            <polygon id="Fill-13" fill="#1D1D1B" points="101.710808 128.787249 92.2470227 119.332075 92.2470227 119.320752 92.2318927 119.320752 85.5406711 112.643625 69.3591866 96.4962255 85.5482361 80.3563754 92.2318927 73.6792484 92.2470227 73.6641503 101.710808 64.2240743 101.718373 64.2127507 117.896075 48.0691261 138 28 97.7997154 28 101.710808 31.9141779 92.2318927 41.376901 76.0579732 57.5129766 69.3591866 64.1976526 69.3591866 64.2127507 69.3478391 64.2127507 59.8727062 73.6641503 53.1739196 80.3526008 46.6642574 86.8485508 37.1323871 96.3603427 37 96.2395581 37 96.4886764 37 96.4962255 37.2572092 96.4962255 46.6642574 105.887233 53.3138716 112.515291 60.1488278 119.320752 69.3591866 128.526807 69.3591866 128.787249 69.6201783 128.787249 76.1903603 135.347366 92.2318927 151.351333 101.710808 160.798959 101.85076 160.949939 97.7883679 165 138 165 117.896075 144.934648"></polygon>
            <path d="M512.293954,119.274129 L480.13935,119.145643 L480.13935,151.350261 L457.5,128.517557 L434.720831,151.289797 L434.856871,119.141864 L402.649363,119.141864 L425.4701,96.4943315 L402.69471,73.714534 L434.856871,73.8467989 L434.856871,41.6384023 L457.5,64.4748848 L480.27539,41.6950873 L480.143129,73.8543569 L512.350637,73.8543569 L489.522342,96.5056685 L512.293954,119.274129 Z M525.818613,119.330814 L525.818613,71.5189364 L525.82995,68.2085345 L525.818613,68.1934185 L525.818613,67.9402256 L525.818613,28 L485.618746,28 L480.332074,28 L389,28 L389,68.3785894 L389,73.665407 L389,164.814829 L429.184752,164.814829 L429.199868,164.814829 L429.381254,165 L434.667926,165 L434.667926,164.814829 L482.965962,164.814829 L485.788796,164.829945 L485.800132,164.814829 L486.049539,164.814829 L525.818613,164.814829 L525.818613,124.81414 L525.818613,124.802803 L526,124.617632 L526,119.330814 L525.818613,119.330814 Z" id="Fill-14" fill="#262321"></path>
        </g>
    </g>
</svg>