<?xml version="1.0" encoding="UTF-8"?>
<svg width="400px" height="266px" viewBox="0 0 400 266" version="1.1" xmlns="http://www.w3.org/2000/svg" xmlns:xlink="http://www.w3.org/1999/xlink">
    <!-- Generator: Sketch 49.2 (51160) - http://www.bohemiancoding.com/sketch -->
    <title>kooz/number</title>
    <desc>Created with Sketch.</desc>
    <defs>
        <polygon id="path-1" points="0.19 24.402 23.933 48.146 47.675 24.402 23.933 0.66"></polygon>
        <polygon id="path-3" points="0.19 24.402 23.933 48.146 47.675 24.402 23.933 0.66"></polygon>
        <polygon id="path-5" points="0.19 24.402 23.933 48.146 47.675 24.402 23.933 0.66"></polygon>
        <polygon id="path-7" points="0.19 24.402 23.933 48.146 47.675 24.402 23.933 0.66"></polygon>
        <polygon id="path-9" points="0.19 24.402 23.933 48.146 47.675 24.402 23.933 0.66"></polygon>
        <polygon id="path-11" points="0.19 24.402 23.933 48.146 47.675 24.402 23.933 0.66"></polygon>
        <polygon id="path-13" points="0.19 24.402 23.933 48.146 47.675 24.402 23.933 0.66"></polygon>
        <polygon id="path-15" points="0.19 24.402 23.933 48.146 47.675 24.402 23.933 0.66"></polygon>
        <polygon id="path-17" points="0.19 24.402 23.933 48.146 47.675 24.402 23.933 0.66"></polygon>
        <polygon id="path-19" points="0.19 24.402 23.933 48.146 47.675 24.402 23.933 0.66"></polygon>
        <polygon id="path-21" points="0 256 350.343 256 350.343 0.445 0 0.445"></polygon>
    </defs>
    <g id="kooz/number" stroke="none" stroke-width="1" fill="none" fill-rule="evenodd">
        <g id="Page-1" transform="translate(25.000000, 5.000000)">
            <polygon id="Fill-1" fill="#6F6F6E" points="24.7479 226.678 1.0059 202.936 24.7049 179.237 48.4469 202.978"></polygon>
            <path d="M0.5544,202.978 L24.7054,227.13 L48.8524,202.978 L24.7054,178.828 L0.5544,202.978 Z M0.9624,202.978 L24.7054,179.238 L48.4474,202.978 L24.7054,226.721 L0.9624,202.978 Z" id="Fill-2" fill="#12110C"></path>
            <path d="M320.933,178.8074 L296.783,202.9574 L320.933,227.1074 L345.081,202.9574 L320.933,178.8074 Z M320.933,179.2154 L344.675,202.9574 L320.933,226.7014 L297.19,202.9574 L320.933,179.2154 Z" id="Fill-3" fill="#12110C"></path>
            <g id="Group-8" transform="translate(297.000000, 178.555000)">
                <mask id="mask-2" fill="white">
                    <use xlink:href="#path-1"></use>
                </mask>
                <g id="Clip-5"></g>
                <polygon id="Fill-4" fill="#6F6F6E" mask="url(#mask-2)" points="17.683 2.914 20.735 2.914 20.735 -0.138 17.683 -0.138"></polygon>
                <polygon id="Fill-6" fill="#6F6F6E" mask="url(#mask-2)" points="26.961 2.914 30.013 2.914 30.013 -0.138 26.961 -0.138"></polygon>
                <polygon id="Fill-7" fill="#6F6F6E" mask="url(#mask-2)" points="13.18 7.379 16.232 7.379 16.232 4.327 13.18 4.327"></polygon>
            </g>
            <polygon id="Fill-9" fill="#6F6F6E" points="319.458 185.934 322.511 185.934 322.511 182.882 319.458 182.882"></polygon>
            <g id="Group-13" transform="translate(297.000000, 178.555000)">
                <mask id="mask-4" fill="white">
                    <use xlink:href="#path-3"></use>
                </mask>
                <g id="Clip-11"></g>
                <polygon id="Fill-10" fill="#6F6F6E" mask="url(#mask-4)" points="31.736 7.379 34.788 7.379 34.788 4.327 31.736 4.327"></polygon>
                <polygon id="Fill-12" fill="#6F6F6E" mask="url(#mask-4)" points="8.405 12.154 11.457 12.154 11.457 9.102 8.405 9.102"></polygon>
            </g>
            <polygon id="Fill-14" fill="#6F6F6E" points="314.682 190.709 317.735 190.709 317.735 187.657 314.682 187.657"></polygon>
            <polygon id="Fill-15" fill="#6F6F6E" points="323.96 190.709 327.012 190.709 327.012 187.657 323.96 187.657"></polygon>
            <g id="Group-19" transform="translate(297.000000, 178.555000)">
                <mask id="mask-6" fill="white">
                    <use xlink:href="#path-5"></use>
                </mask>
                <g id="Clip-17"></g>
                <polygon id="Fill-16" fill="#6F6F6E" mask="url(#mask-6)" points="36.238 12.154 39.29 12.154 39.29 9.102 36.238 9.102"></polygon>
                <polygon id="Fill-18" fill="#6F6F6E" mask="url(#mask-6)" points="3.902 16.62 6.954 16.62 6.954 13.568 3.902 13.568"></polygon>
            </g>
            <polygon id="Fill-20" fill="#6F6F6E" points="310.18 195.175 313.233 195.175 313.233 192.122 310.18 192.122"></polygon>
            <polygon id="Fill-21" fill="#6F6F6E" points="319.458 195.175 322.511 195.175 322.511 192.122 319.458 192.122"></polygon>
            <polygon id="Fill-22" fill="#6F6F6E" points="328.736 195.175 331.788 195.175 331.788 192.122 328.736 192.122"></polygon>
            <g id="Group-26" transform="translate(297.000000, 178.555000)">
                <mask id="mask-8" fill="white">
                    <use xlink:href="#path-7"></use>
                </mask>
                <g id="Clip-24"></g>
                <polygon id="Fill-23" fill="#6F6F6E" mask="url(#mask-8)" points="41.014 16.62 44.066 16.62 44.066 13.568 41.014 13.568"></polygon>
                <polygon id="Fill-25" fill="#6F6F6E" mask="url(#mask-8)" points="-0.872 21.395 2.18 21.395 2.18 18.343 -0.872 18.343"></polygon>
            </g>
            <polygon id="Fill-27" fill="#6F6F6E" points="305.405 199.95 308.457 199.95 308.457 196.898 305.405 196.898"></polygon>
            <polygon id="Fill-28" fill="#6F6F6E" points="314.682 199.95 317.735 199.95 317.735 196.898 314.682 196.898"></polygon>
            <polygon id="Fill-29" fill="#6F6F6E" points="323.96 199.95 327.012 199.95 327.012 196.898 323.96 196.898"></polygon>
            <polygon id="Fill-30" fill="#6F6F6E" points="333.238 199.95 336.29 199.95 336.29 196.898 333.238 196.898"></polygon>
            <g id="Group-33" transform="translate(297.000000, 178.555000)">
                <mask id="mask-10" fill="white">
                    <use xlink:href="#path-9"></use>
                </mask>
                <g id="Clip-32"></g>
                <polygon id="Fill-31" fill="#6F6F6E" mask="url(#mask-10)" points="45.516 21.395 48.568 21.395 48.568 18.343 45.516 18.343"></polygon>
            </g>
            <polygon id="Fill-34" fill="#6F6F6E" points="300.902 204.414 303.954 204.414 303.954 201.362 300.902 201.362"></polygon>
            <polygon id="Fill-35" fill="#6F6F6E" points="310.18 204.414 313.233 204.414 313.233 201.362 310.18 201.362"></polygon>
            <polygon id="Fill-36" fill="#6F6F6E" points="319.458 204.414 322.511 204.414 322.511 201.362 319.458 201.362"></polygon>
            <polygon id="Fill-37" fill="#6F6F6E" points="328.736 204.414 331.788 204.414 331.788 201.362 328.736 201.362"></polygon>
            <polygon id="Fill-38" fill="#6F6F6E" points="338.014 204.414 341.066 204.414 341.066 201.362 338.014 201.362"></polygon>
            <g id="Group-41" transform="translate(297.000000, 178.555000)">
                <mask id="mask-12" fill="white">
                    <use xlink:href="#path-11"></use>
                </mask>
                <g id="Clip-40"></g>
                <polygon id="Fill-39" fill="#6F6F6E" mask="url(#mask-12)" points="-0.872 30.635 2.18 30.635 2.18 27.583 -0.872 27.583"></polygon>
            </g>
            <polygon id="Fill-42" fill="#6F6F6E" points="305.405 209.19 308.457 209.19 308.457 206.138 305.405 206.138"></polygon>
            <polygon id="Fill-43" fill="#6F6F6E" points="314.682 209.19 317.735 209.19 317.735 206.138 314.682 206.138"></polygon>
            <polygon id="Fill-44" fill="#6F6F6E" points="323.96 209.19 327.012 209.19 327.012 206.138 323.96 206.138"></polygon>
            <polygon id="Fill-45" fill="#6F6F6E" points="333.238 209.19 336.29 209.19 336.29 206.138 333.238 206.138"></polygon>
            <g id="Group-49" transform="translate(297.000000, 178.555000)">
                <mask id="mask-14" fill="white">
                    <use xlink:href="#path-13"></use>
                </mask>
                <g id="Clip-47"></g>
                <polygon id="Fill-46" fill="#6F6F6E" mask="url(#mask-14)" points="45.516 30.635 48.568 30.635 48.568 27.583 45.516 27.583"></polygon>
                <polygon id="Fill-48" fill="#6F6F6E" mask="url(#mask-14)" points="3.902 35.1 6.954 35.1 6.954 32.048 3.902 32.048"></polygon>
            </g>
            <polygon id="Fill-50" fill="#6F6F6E" points="310.18 213.655 313.233 213.655 313.233 210.604 310.18 210.604"></polygon>
            <polygon id="Fill-51" fill="#6F6F6E" points="319.458 213.655 322.511 213.655 322.511 210.604 319.458 210.604"></polygon>
            <polygon id="Fill-52" fill="#6F6F6E" points="328.736 213.655 331.788 213.655 331.788 210.604 328.736 210.604"></polygon>
            <g id="Group-56" transform="translate(297.000000, 178.555000)">
                <mask id="mask-16" fill="white">
                    <use xlink:href="#path-15"></use>
                </mask>
                <g id="Clip-54"></g>
                <polygon id="Fill-53" fill="#6F6F6E" mask="url(#mask-16)" points="41.014 35.1 44.066 35.1 44.066 32.048 41.014 32.048"></polygon>
                <polygon id="Fill-55" fill="#6F6F6E" mask="url(#mask-16)" points="8.405 39.875 11.457 39.875 11.457 36.823 8.405 36.823"></polygon>
            </g>
            <polygon id="Fill-57" fill="#6F6F6E" points="314.682 218.43 317.735 218.43 317.735 215.378 314.682 215.378"></polygon>
            <polygon id="Fill-58" fill="#6F6F6E" points="323.96 218.43 327.012 218.43 327.012 215.378 323.96 215.378"></polygon>
            <g id="Group-62" transform="translate(297.000000, 178.555000)">
                <mask id="mask-18" fill="white">
                    <use xlink:href="#path-17"></use>
                </mask>
                <g id="Clip-60"></g>
                <polygon id="Fill-59" fill="#6F6F6E" mask="url(#mask-18)" points="36.238 39.875 39.29 39.875 39.29 36.823 36.238 36.823"></polygon>
                <polygon id="Fill-61" fill="#6F6F6E" mask="url(#mask-18)" points="13.18 44.341 16.232 44.341 16.232 41.289 13.18 41.289"></polygon>
            </g>
            <polygon id="Fill-63" fill="#6F6F6E" points="319.458 222.896 322.511 222.896 322.511 219.843 319.458 219.843"></polygon>
            <g id="Group-68" transform="translate(297.000000, 178.555000)">
                <mask id="mask-20" fill="white">
                    <use xlink:href="#path-19"></use>
                </mask>
                <g id="Clip-65"></g>
                <polygon id="Fill-64" fill="#6F6F6E" mask="url(#mask-20)" points="31.736 44.341 34.788 44.341 34.788 41.289 31.736 41.289"></polygon>
                <polygon id="Fill-66" fill="#6F6F6E" mask="url(#mask-20)" points="17.683 49.116 20.735 49.116 20.735 46.064 17.683 46.064"></polygon>
                <polygon id="Fill-67" fill="#6F6F6E" mask="url(#mask-20)" points="26.961 49.116 30.013 49.116 30.013 46.064 26.961 46.064"></polygon>
            </g>
            <polygon id="Fill-69" fill="#6F6F6E" points="151.3341 201.7658 151.3341 205.0128 153.7441 207.4228 153.7441 199.3558"></polygon>
            <polygon id="Fill-70" fill="#6F6F6E" points="157.3029 195.7972 157.3029 210.9812 159.7129 213.3912 159.7129 193.3872"></polygon>
            <polygon id="Fill-71" fill="#6F6F6E" points="163.2726 189.8277 163.2726 216.9507 165.6826 219.3607 165.6826 187.4177"></polygon>
            <polygon id="Fill-72" fill="#6F6F6E" points="169.2414 183.8591 169.2414 222.9191 171.6514 225.3291 171.6514 181.4491"></polygon>
            <polygon id="Fill-73" fill="#6F6F6E" points="175.2111 225.3727 177.6211 222.9627 177.6211 183.9017 175.2111 181.4917"></polygon>
            <polygon id="Fill-74" fill="#6F6F6E" points="181.1799 219.4039 183.5899 216.9939 183.5899 189.8699 181.1799 187.4599"></polygon>
            <polygon id="Fill-75" fill="#6F6F6E" points="187.1496 213.4342 189.5596 211.0242 189.5596 195.8392 187.1496 193.4292"></polygon>
            <polygon id="Fill-76" fill="#6F6F6E" points="193.1184 207.4654 195.5284 205.0554 195.5284 201.8084 193.1184 199.3984"></polygon>
            <g id="Group-214" transform="translate(0.000000, 0.555000)">
                <path d="M31.0062,252.1425 C30.9722,252.1075 30.9502,252.1155 30.8532,252.2135 C30.6512,252.4145 30.3572,252.7505 30.1902,253.0085 C30.1542,253.0715 30.1542,253.0785 30.1902,253.1345 C30.3222,253.3435 30.8392,253.7335 31.0762,253.8745 C31.1322,253.9085 31.1522,253.9085 31.1942,253.8595 C31.3832,253.6435 31.7952,253.1695 31.9212,253.0085 C31.9632,252.9665 31.9762,252.9385 31.9272,252.9105 C31.5712,252.6815 31.2022,252.3525 31.0062,252.1425" id="Fill-77" fill="#1D1D1B"></path>
                <path d="M40.392,253.4902 C40.357,253.4552 40.336,253.4632 40.239,253.5592 C40.037,253.7622 39.743,254.0972 39.576,254.3552 C39.541,254.4192 39.541,254.4252 39.576,254.4812 C39.708,254.6922 40.225,255.0822 40.462,255.2212 C40.517,255.2562 40.538,255.2562 40.58,255.2072 C40.769,254.9902 41.181,254.5172 41.307,254.3552 C41.349,254.3142 41.362,254.2862 41.314,254.2582 C40.957,254.0282 40.588,253.6992 40.392,253.4902" id="Fill-79" fill="#1D1D1B"></path>
                <path d="M36.6005,250.2934 C36.1675,250.0424 35.9795,249.8324 35.9795,249.5744 C35.9795,249.3854 36.3915,248.9384 36.8165,248.9384 C37.1935,248.9384 37.3335,249.1904 37.3335,249.6164 C37.3335,249.7984 36.7535,250.2304 36.6005,250.2934 M4.7225,249.7134 C4.4985,249.7134 4.3455,249.6724 4.3455,249.5954 C4.3875,249.4414 5.1905,248.9454 5.6715,248.6394 C5.7485,249.0304 5.7765,249.1554 5.8255,249.4634 C5.4965,249.6304 5.0435,249.7134 4.7225,249.7134 M43.4035,245.0094 C43.4115,244.9814 43.4175,244.9594 43.4175,244.9394 C43.4175,244.8834 43.3905,244.8354 43.3615,244.7864 C43.2435,244.6044 43.0825,244.3524 42.9435,243.8494 C42.9155,243.7804 42.8945,243.7454 42.8525,243.7454 C42.7545,243.7454 42.6285,243.9484 42.4895,244.2134 C42.3855,244.4094 42.2165,244.7574 42.2165,244.8904 C42.2165,244.9244 42.2245,244.9674 42.2315,245.0094 C42.2735,245.2534 42.4125,245.8884 42.4265,246.0904 C42.5735,247.8924 42.8875,249.7424 42.9015,250.6284 C42.8595,250.7054 42.7405,250.7814 42.5455,250.8454 C42.3225,250.9214 42.0705,250.9564 41.7985,250.9564 L41.7605,250.9564 L41.6905,250.9564 C41.6215,250.9564 41.5435,250.9564 41.4465,250.9434 C41.0695,250.8714 40.7555,250.5454 40.7555,250.2514 C40.7555,249.9854 40.7065,249.8804 40.6295,249.8804 C40.5735,249.8804 40.5115,249.9084 40.3775,250.1404 C39.9455,250.8804 39.2195,250.9564 38.7095,250.9564 L38.4495,250.9564 L38.3605,250.9564 L38.3175,250.9564 C37.8215,250.9494 37.4515,250.8864 37.2215,250.7614 C37.7455,250.2784 37.9895,249.5054 37.9895,248.8624 C37.9895,248.2484 37.7665,247.7514 37.3405,247.7514 C36.5795,247.7514 35.2735,249.2114 35.2735,250.3774 C35.2735,250.5094 35.2945,250.6354 35.3295,250.7614 C35.1975,250.8944 34.9045,250.9564 34.4565,250.9564 L34.3455,250.9564 L33.9375,250.9564 C33.6105,250.9494 33.2885,250.9004 32.9825,250.8024 C32.6885,250.7124 32.5355,250.5804 32.5285,250.3914 C32.8635,250.4184 33.0095,250.4324 33.2885,250.4324 C33.3515,250.4324 33.4215,250.4324 33.5055,250.4254 C33.5475,250.4184 33.5545,250.4114 33.5755,250.3914 C33.7915,250.1964 34.1335,249.6234 34.1335,249.4414 C34.1335,249.4144 34.1265,249.3854 34.0915,249.3854 C34.0005,249.3934 33.9525,249.3934 33.8615,249.3934 C33.4215,249.3934 32.7585,249.3434 32.1165,249.2044 C31.1875,249.0304 30.0015,248.5204 29.0725,248.3114 C29.0035,248.2974 28.9195,248.2834 28.8355,248.2834 C28.6125,248.2834 28.3605,248.3524 28.1165,248.5764 C27.7185,248.9454 27.5025,249.3014 27.5025,249.5184 C27.5025,249.5954 27.5445,249.6234 27.6005,249.6234 C27.7185,249.6234 27.9135,249.5124 28.0115,249.4694 C28.1025,249.4344 28.2075,249.4144 28.3255,249.4144 C28.8635,249.4144 29.6875,249.7484 30.6435,250.0144 C29.8275,250.3694 29.1635,250.6074 28.6685,250.7404 C28.1935,250.8864 27.6065,250.9564 26.9155,250.9564 L26.8465,250.9564 L26.7485,250.9564 L24.4735,250.9564 L24.4655,250.9564 L22.1005,250.9564 L22.0925,250.9564 L19.7265,250.9564 L19.7195,250.9564 L17.3535,250.9564 L17.3465,250.9564 L14.9795,250.9564 L14.9735,250.9564 L12.6065,250.9564 L12.5995,250.9564 L10.2335,250.9564 L10.2265,250.9564 L7.9895,250.9564 L7.8535,250.9564 L7.8145,250.9564 C7.6545,250.9564 7.4515,250.8804 7.2075,250.7184 C6.8165,250.4534 6.5515,250.0634 6.4465,249.6234 C6.3135,249.1004 6.2235,248.2274 6.0485,247.1794 C6.0145,246.9774 5.9715,246.9004 5.9225,246.9004 C5.8595,246.9004 5.7905,247.0124 5.7135,247.1514 C5.5945,247.3614 5.5245,247.5084 5.5245,247.7724 C5.5245,247.8494 5.5325,247.9404 5.5455,248.0454 C5.2735,248.2484 4.5895,248.6594 4.3515,248.8474 C3.8005,249.2954 3.6545,249.4634 3.4935,250.6074 C3.4935,250.8804 3.8215,250.9434 4.1985,250.9434 C4.7085,250.9434 5.2105,250.8514 5.5325,250.6284 C5.7555,250.4754 5.8465,250.2934 5.9575,250.1124 C6.0555,250.8304 6.2865,251.3404 6.6565,251.6534 C7.0255,251.9684 7.4105,252.1224 7.8085,252.1224 L7.8535,252.1224 L7.9685,252.1224 L10.2265,252.1224 L10.2415,252.1224 L12.5995,252.1224 L12.6145,252.1224 L14.9735,252.1224 L14.9865,252.1224 L17.3465,252.1224 L17.3605,252.1224 L19.7195,252.1224 L19.7335,252.1224 L22.0925,252.1224 L22.1065,252.1224 L24.4655,252.1224 L24.4795,252.1224 L26.7485,252.1224 L26.8535,252.1224 L26.9155,252.1224 C27.3695,252.1074 27.8375,252.0114 28.2215,251.8634 C28.6045,251.7304 29.1845,251.4384 30.0155,251.0254 C30.5735,250.7544 30.8105,250.6624 31.0275,250.5804 C31.3485,250.4534 31.5855,250.3834 32.2485,250.3834 C32.2565,250.9914 32.3755,251.4324 32.6195,251.6954 C32.8705,251.9684 33.3385,252.1154 34.0215,252.1224 L34.3315,252.1224 L34.4435,252.1224 L34.5105,252.1224 C34.5445,252.1224 34.5695,252.1124 34.6005,252.1084 C35.2085,252.0744 35.7305,251.8584 36.0905,251.6274 C36.5585,251.8994 37.2145,252.1154 38.3105,252.1224 L38.3545,252.1224 L38.4025,252.1224 L38.4495,252.1224 C38.4605,252.1224 38.4665,252.1184 38.4765,252.1174 C39.5525,252.0934 40.1575,251.5704 40.2805,251.2634 C40.3225,251.3404 40.6085,252.0324 41.3905,252.1074 C41.5305,252.1224 41.6005,252.1224 41.6835,252.1224 L41.6865,252.1224 L41.7745,252.1224 L41.8055,252.1224 C42.3635,252.1224 42.6915,251.9404 42.9635,251.5914 C43.3065,251.0754 43.4805,250.3974 43.4805,249.5534 C43.4805,248.7144 43.2015,247.2984 43.1175,245.5604 C43.2155,245.4274 43.3615,245.1344 43.4035,245.0094" id="Fill-81" fill="#1D1D1B"></path>
                <path d="M4.3109,246.0068 C4.4079,246.0698 4.4429,246.0278 4.5059,245.9858 C4.6309,245.8958 4.9319,245.5608 5.0849,245.3858 C5.3369,245.6288 5.6229,245.8608 5.8179,246.0068 C5.8949,246.0628 5.9159,246.0628 5.9719,245.9928 C6.1949,245.7208 6.4189,245.4698 6.6559,245.2178 C6.7399,245.1348 6.7399,245.1138 6.6559,245.0578 C6.3909,244.8768 6.1109,244.5898 5.8669,244.3318 C5.8179,244.2768 5.7839,244.2968 5.6929,244.3878 C5.5669,244.5058 5.2879,244.8278 5.1339,245.0098 C4.9319,244.8978 4.5889,244.5898 4.4009,244.3808 C4.3309,244.3038 4.2969,244.2968 4.2409,244.3518 C3.9899,244.6048 3.7239,244.9028 3.5359,245.1348 C3.4729,245.2118 3.4729,245.2388 3.5209,245.3008 C3.7239,245.5678 4.0529,245.8468 4.3109,246.0068" id="Fill-83" fill="#1D1D1B"></path>
                <path d="M45.8685,243.7661 C45.7995,243.7661 45.6945,243.9201 45.6315,244.0321 C45.4215,244.4091 45.1915,244.9401 45.1915,245.2881 C45.1915,245.9931 45.7495,250.2511 45.7495,251.7871 C45.7495,252.0531 45.7705,252.1301 45.8265,252.1301 C45.9175,252.1301 46.0085,251.9331 46.1405,251.5501 C46.2665,251.1791 46.3225,250.5381 46.3225,249.7851 C46.3225,247.8991 46.0155,245.2741 45.9595,244.1711 C45.9455,243.8641 45.9315,243.7661 45.8685,243.7661" id="Fill-85" fill="#1D1D1B"></path>
                <path d="M35.7557,246.4746 C35.8527,246.5376 35.8877,246.4956 35.9507,246.4536 C36.0767,246.3636 36.3767,246.0286 36.5307,245.8536 C36.7817,246.0976 37.0677,246.3286 37.2637,246.4746 C37.3397,246.5306 37.3607,246.5306 37.4167,246.4606 C37.6407,246.1886 37.8637,245.9376 38.1007,245.6846 C38.1847,245.6026 38.1847,245.5816 38.1007,245.5266 C37.8357,245.3446 37.5567,245.0576 37.3117,244.7996 C37.2637,244.7446 37.2287,244.7646 37.1377,244.8556 C37.0127,244.9746 36.7327,245.2956 36.5797,245.4756 C36.3767,245.3646 36.0347,245.0576 35.8467,244.8486 C35.7767,244.7716 35.7407,244.7646 35.6857,244.8206 C35.4347,245.0726 35.1687,245.3726 34.9807,245.6026 C34.9177,245.6796 34.9177,245.7066 34.9667,245.7686 C35.1687,246.0356 35.4967,246.3146 35.7557,246.4746" id="Fill-87" fill="#1D1D1B"></path>
                <path d="M333.1654,251.0459 C332.7324,250.7949 332.5444,250.5869 332.5444,250.3289 C332.5444,250.1389 332.9574,249.6919 333.3814,249.6919 C333.7604,249.6919 333.8984,249.9439 333.8984,250.3699 C333.8984,250.5509 333.3194,250.9839 333.1654,251.0459 M301.2874,250.4679 C301.0644,250.4679 300.9114,250.4259 300.9114,250.3489 C300.9524,250.1949 301.7554,249.7009 302.2364,249.3929 C302.3134,249.7849 302.3424,249.9079 302.3904,250.2159 C302.0624,250.3839 301.6084,250.4679 301.2874,250.4679 M339.9704,245.7629 C339.9774,245.7349 339.9824,245.7129 339.9824,245.6929 C339.9824,245.6379 339.9564,245.5879 339.9274,245.5389 C339.8094,245.3579 339.6484,245.1079 339.5094,244.6049 C339.4814,244.5349 339.4604,244.4979 339.4174,244.4979 C339.3204,244.4979 339.1944,244.7019 339.0554,244.9669 C338.9514,245.1629 338.7834,245.5119 338.7834,245.6439 C338.7834,245.6789 338.7894,245.7209 338.7964,245.7629 C338.8384,246.0059 338.9774,246.6429 338.9924,246.8449 C339.1384,248.6459 339.4534,250.4949 339.4674,251.3809 C339.4244,251.4589 339.3064,251.5359 339.1114,251.5999 C338.8874,251.6749 338.6364,251.7109 338.3644,251.7109 L338.3264,251.7109 L338.2574,251.7109 C338.1864,251.7109 338.1084,251.7109 338.0124,251.6959 C337.6354,251.6279 337.3214,251.2979 337.3214,251.0039 C337.3214,250.7389 337.2714,250.6349 337.1954,250.6349 C337.1404,250.6349 337.0754,250.6629 336.9444,250.8929 C336.5124,251.6319 335.7864,251.7109 335.2754,251.7109 L335.0154,251.7109 L334.9274,251.7109 L334.8834,251.7109 C334.3874,251.7029 334.0174,251.6409 333.7874,251.5149 C334.3114,251.0319 334.5554,250.2579 334.5554,249.6159 C334.5554,249.0019 334.3314,248.5059 333.9054,248.5059 C333.1444,248.5059 331.8394,249.9639 331.8394,251.1299 C331.8394,251.2629 331.8604,251.3899 331.8954,251.5149 C331.7634,251.6479 331.4694,251.7109 331.0224,251.7109 L330.9114,251.7109 L330.5034,251.7109 C330.1764,251.7029 329.8554,251.6539 329.5474,251.5569 C329.2544,251.4649 329.1004,251.3329 329.0944,251.1449 C329.4284,251.1719 329.5754,251.1859 329.8554,251.1859 C329.9174,251.1859 329.9874,251.1859 330.0714,251.1789 C330.1124,251.1719 330.1204,251.1659 330.1414,251.1449 C330.3574,250.9489 330.6994,250.3769 330.6994,250.1949 C330.6994,250.1669 330.6924,250.1389 330.6574,250.1389 C330.5664,250.1479 330.5184,250.1479 330.4274,250.1479 C329.9874,250.1479 329.3244,250.0969 328.6814,249.9569 C327.7534,249.7849 326.5664,249.2749 325.6384,249.0639 C325.5684,249.0509 325.4844,249.0349 325.4014,249.0349 C325.1784,249.0349 324.9264,249.1059 324.6824,249.3299 C324.2834,249.7009 324.0684,250.0559 324.0684,250.2729 C324.0684,250.3489 324.1094,250.3769 324.1654,250.3769 C324.2834,250.3769 324.4804,250.2639 324.5774,250.2229 C324.6674,250.1889 324.7734,250.1669 324.8924,250.1669 C325.4284,250.1669 326.2524,250.5019 327.2094,250.7669 C326.3924,251.1239 325.7294,251.3609 325.2324,251.4939 C324.7584,251.6409 324.1724,251.7109 323.4804,251.7109 L323.4114,251.7109 L323.3134,251.7109 L321.0384,251.7109 L321.0314,251.7109 L318.6654,251.7109 L318.6574,251.7109 L316.2924,251.7109 L316.2844,251.7109 L313.9194,251.7109 L313.9124,251.7109 L311.5454,251.7109 L311.5384,251.7109 L309.1724,251.7109 L309.1654,251.7109 L306.7994,251.7109 L306.7924,251.7109 L304.5544,251.7109 L304.4194,251.7109 L304.3804,251.7109 C304.2194,251.7109 304.0174,251.6319 303.7734,251.4729 C303.3824,251.2079 303.1174,250.8179 303.0124,250.3769 C302.8784,249.8529 302.7884,248.9809 302.6144,247.9329 C302.5794,247.7319 302.5374,247.6529 302.4884,247.6529 C302.4254,247.6529 302.3564,247.7659 302.2784,247.9059 C302.1604,248.1149 302.0904,248.2619 302.0904,248.5269 C302.0904,248.6039 302.0974,248.6949 302.1114,248.7989 C301.8394,249.0019 301.1554,249.4129 300.9174,249.6019 C300.3674,250.0479 300.2194,250.2159 300.0594,251.3609 C300.0594,251.6319 300.3874,251.6959 300.7634,251.6959 C301.2734,251.6959 301.7764,251.6049 302.0974,251.3809 C302.3204,251.2269 302.4114,251.0459 302.5244,250.8659 C302.6214,251.5849 302.8524,252.0939 303.2214,252.4089 C303.5914,252.7229 303.9754,252.8759 304.3734,252.8759 L304.4194,252.8759 L304.5334,252.8759 L306.7924,252.8759 L306.8064,252.8759 L309.1654,252.8759 L309.1804,252.8759 L311.5384,252.8759 L311.5524,252.8759 L313.9124,252.8759 L313.9254,252.8759 L316.2844,252.8759 L316.2994,252.8759 L318.6574,252.8759 L318.6724,252.8759 L321.0314,252.8759 L321.0454,252.8759 L323.3134,252.8759 L323.4184,252.8759 L323.4804,252.8759 C323.9354,252.8619 324.4024,252.7639 324.7864,252.6179 C325.1704,252.4839 325.7494,252.1919 326.5814,251.7789 C327.1394,251.5069 327.3774,251.4169 327.5934,251.3329 C327.9134,251.2079 328.1514,251.1379 328.8134,251.1379 C328.8214,251.7439 328.9394,252.1849 329.1844,252.4499 C329.4364,252.7229 329.9034,252.8699 330.5874,252.8759 L330.8964,252.8759 L331.0094,252.8759 L331.0764,252.8759 C331.1104,252.8759 331.1344,252.8649 331.1654,252.8619 C331.7734,252.8279 332.2964,252.6109 332.6564,252.3799 C333.1234,252.6519 333.7804,252.8699 334.8764,252.8759 L334.9204,252.8759 L334.9684,252.8759 L335.0154,252.8759 C335.0264,252.8759 335.0334,252.8719 335.0434,252.8709 C336.1194,252.8469 336.7244,252.3229 336.8474,252.0169 C336.8894,252.0939 337.1744,252.7859 337.9564,252.8619 C338.0964,252.8759 338.1654,252.8759 338.2494,252.8759 L338.2524,252.8759 L338.3414,252.8759 L338.3714,252.8759 C338.9294,252.8759 339.2564,252.6929 339.5294,252.3439 C339.8724,251.8269 340.0464,251.1519 340.0464,250.3059 C340.0464,249.4689 339.7674,248.0529 339.6834,246.3139 C339.7814,246.1819 339.9274,245.8879 339.9704,245.7629" id="Fill-89" fill="#1D1D1B"></path>
                <path d="M342.5253,244.9248 C342.5103,244.6178 342.4973,244.5208 342.4343,244.5208 C342.3643,244.5208 342.2603,244.6738 342.1963,244.7858 C341.9883,245.1628 341.7573,245.6938 341.7573,246.0418 C341.7573,246.7468 342.3163,251.0048 342.3163,252.5408 C342.3163,252.8058 342.3373,252.8828 342.3923,252.8828 C342.4833,252.8828 342.5743,252.6878 342.7073,252.3028 C342.8323,251.9338 342.8883,251.2908 342.8883,250.5378 C342.8883,248.6528 342.5813,246.0288 342.5253,244.9248" id="Fill-91" fill="#1D1D1B"></path>
                <path d="M336.9584,254.2441 C336.9224,254.2091 336.9034,254.2161 336.8054,254.3131 C336.6024,254.5171 336.3084,254.8511 336.1414,255.1091 C336.1074,255.1731 336.1074,255.1791 336.1414,255.2351 C336.2744,255.4441 336.7914,255.8351 337.0284,255.9741 C337.0844,256.0101 337.1044,256.0101 337.1464,255.9611 C337.3364,255.7451 337.7464,255.2701 337.8724,255.1091 C337.9144,255.0671 337.9284,255.0391 337.8804,255.0111 C337.5234,254.7821 337.1544,254.4531 336.9584,254.2441" id="Fill-93" fill="#1D1D1B"></path>
                <path d="M332.3212,247.229 C332.4192,247.291 332.4532,247.249 332.5162,247.207 C332.6422,247.118 332.9432,246.783 333.0952,246.607 C333.3472,246.852 333.6332,247.082 333.8282,247.229 C333.9052,247.285 333.9262,247.285 333.9832,247.215 C334.2062,246.941 334.4292,246.691 334.6662,246.439 C334.7502,246.356 334.7502,246.335 334.6662,246.278 C334.4012,246.098 334.1222,245.811 333.8772,245.554 C333.8282,245.497 333.7932,245.518 333.7032,245.609 C333.5782,245.727 333.2992,246.048 333.1442,246.229 C332.9432,246.118 332.6012,245.811 332.4122,245.602 C332.3412,245.526 332.3072,245.518 332.2512,245.574 C332.0002,245.825 331.7352,246.126 331.5462,246.356 C331.4842,246.434 331.4842,246.461 331.5312,246.523 C331.7352,246.788 332.0622,247.067 332.3212,247.229" id="Fill-95" fill="#1D1D1B"></path>
                <path d="M327.5717,252.8969 C327.5367,252.8619 327.5157,252.8699 327.4187,252.9669 C327.2157,253.1679 326.9227,253.5029 326.7557,253.7629 C326.7197,253.8249 326.7197,253.8329 326.7557,253.8889 C326.8887,254.0979 327.4047,254.4879 327.6417,254.6279 C327.6977,254.6619 327.7187,254.6619 327.7597,254.6139 C327.9487,254.3969 328.3617,253.9229 328.4867,253.7629 C328.5287,253.7209 328.5417,253.6929 328.4927,253.6649 C328.1367,253.4339 327.7677,253.1059 327.5717,252.8969" id="Fill-97" fill="#1D1D1B"></path>
                <path d="M300.8763,246.7612 C300.9743,246.8232 301.0093,246.7822 301.0713,246.7402 C301.1973,246.6492 301.4973,246.3132 301.6503,246.1392 C301.9023,246.3832 302.1883,246.6152 302.3843,246.7612 C302.4603,246.8162 302.4823,246.8162 302.5373,246.7462 C302.7613,246.4742 302.9843,246.2242 303.2213,245.9732 C303.3063,245.8882 303.3063,245.8662 303.2213,245.8102 C302.9563,245.6292 302.6773,245.3442 302.4323,245.0852 C302.3843,245.0292 302.3493,245.0512 302.2573,245.1412 C302.1323,245.2602 301.8543,245.5812 301.7003,245.7622 C301.4973,245.6502 301.1553,245.3442 300.9673,245.1352 C300.8973,245.0572 300.8613,245.0512 300.8053,245.1072 C300.5553,245.3572 300.2893,245.6572 300.1013,245.8882 C300.0383,245.9652 300.0383,245.9932 300.0873,246.0552 C300.2893,246.3212 300.6183,246.5992 300.8763,246.7612" id="Fill-99" fill="#1D1D1B"></path>
                <path d="M184.2826,246.9297 C184.3796,246.9917 184.4146,246.9507 184.4776,246.9077 C184.6036,246.8177 184.9036,246.4837 185.0556,246.3077 C185.3076,246.5527 185.5946,246.7827 185.7896,246.9297 C185.8666,246.9857 185.8876,246.9857 185.9446,246.9147 C186.1676,246.6427 186.3906,246.3917 186.6276,246.1397 C186.7116,246.0557 186.7116,246.0357 186.6276,245.9807 C186.3626,245.7987 186.0836,245.5117 185.8376,245.2537 C185.7896,245.1987 185.7546,245.2177 185.6646,245.3097 C185.5386,245.4277 185.2606,245.7497 185.1056,245.9297 C184.9036,245.8177 184.5616,245.5117 184.3716,245.3017 C184.3026,245.2257 184.2676,245.2177 184.2126,245.2737 C183.9616,245.5267 183.6956,245.8257 183.5066,246.0557 C183.4446,246.1337 183.4446,246.1617 183.4936,246.2237 C183.6956,246.4887 184.0236,246.7667 184.2826,246.9297" id="Fill-101" fill="#1D1D1B"></path>
                <path d="M194.3949,244.2216 C194.3249,244.2216 194.2209,244.3746 194.1579,244.4866 C193.9479,244.8636 193.7189,245.3936 193.7189,245.7426 C193.7189,246.4466 194.2759,250.7056 194.2759,252.2406 C194.2759,252.5066 194.2969,252.5836 194.3529,252.5836 C194.4439,252.5836 194.5349,252.3876 194.6679,252.0036 C194.7929,251.6346 194.8489,250.9926 194.8489,250.2386 C194.8489,248.3526 194.5419,245.7276 194.4859,244.6256 C194.4719,244.3196 194.4569,244.2216 194.3949,244.2216" id="Fill-103" fill="#1D1D1B"></path>
                <path d="M185.1263,250.7466 C184.6933,250.4956 184.5053,250.2876 184.5053,250.0296 C184.5053,249.8396 184.9163,249.3926 185.3433,249.3926 C185.7203,249.3926 185.8593,249.6446 185.8593,250.0706 C185.8593,250.2526 185.2803,250.6846 185.1263,250.7466 M153.2483,250.1686 C153.0243,250.1686 152.8713,250.1256 152.8713,250.0486 C152.9133,249.8956 153.7163,249.4006 154.1983,249.0936 C154.2753,249.4836 154.3023,249.6106 154.3513,249.9166 C154.0233,250.0846 153.5693,250.1686 153.2483,250.1686 M191.9293,245.4636 C191.9383,245.4366 191.9433,245.4126 191.9433,245.3936 C191.9433,245.3386 191.9163,245.2886 191.8873,245.2406 C191.7703,245.0586 191.6083,244.8076 191.4693,244.3046 C191.4413,244.2346 191.4203,244.1996 191.3783,244.1996 C191.2813,244.1996 191.1553,244.4036 191.0163,244.6676 C190.9103,244.8636 190.7433,245.2126 190.7433,245.3446 C190.7433,245.3796 190.7513,245.4226 190.7563,245.4636 C190.7983,245.7066 190.9383,246.3426 190.9523,246.5446 C191.0993,248.3466 191.4143,250.1966 191.4263,251.0816 C191.3853,251.1596 191.2673,251.2356 191.0723,251.2996 C190.8483,251.3746 190.5963,251.4106 190.3243,251.4106 L190.2873,251.4106 L190.2173,251.4106 C190.1473,251.4106 190.0713,251.4106 189.9743,251.3966 C189.5973,251.3276 189.2813,250.9976 189.2813,250.7056 C189.2813,250.4396 189.2333,250.3356 189.1563,250.3356 C189.1013,250.3356 189.0383,250.3636 188.9043,250.5926 C188.4723,251.3326 187.7463,251.4106 187.2373,251.4106 L186.9773,251.4106 L186.8893,251.4106 L186.8423,251.4106 C186.3483,251.4036 185.9773,251.3416 185.7483,251.2156 C186.2713,250.7326 186.5163,249.9586 186.5163,249.3166 C186.5163,248.7026 186.2933,248.2056 185.8663,248.2056 C185.1053,248.2056 183.8003,249.6656 183.8003,250.8296 C183.8003,250.9636 183.8223,251.0906 183.8553,251.2156 C183.7243,251.3476 183.4313,251.4106 182.9843,251.4106 L182.8723,251.4106 L182.4643,251.4106 C182.1373,251.4036 181.8153,251.3546 181.5083,251.2576 C181.2153,251.1656 181.0623,251.0346 181.0553,250.8456 C181.3893,250.8716 181.5363,250.8866 181.8153,250.8866 C181.8783,250.8866 181.9473,250.8866 182.0313,250.8806 C182.0733,250.8716 182.0813,250.8666 182.1013,250.8456 C182.3183,250.6496 182.6593,250.0776 182.6593,249.8956 C182.6593,249.8676 182.6533,249.8396 182.6173,249.8396 C182.5273,249.8476 182.4773,249.8476 182.3883,249.8476 C181.9473,249.8476 181.2853,249.7986 180.6433,249.6586 C179.7133,249.4836 178.5273,248.9746 177.6003,248.7636 C177.5293,248.7506 177.4463,248.7366 177.3623,248.7366 C177.1393,248.7366 176.8873,248.8066 176.6433,249.0306 C176.2453,249.4006 176.0273,249.7556 176.0273,249.9736 C176.0273,250.0486 176.0693,250.0776 176.1263,250.0776 C176.2453,250.0776 176.4413,249.9646 176.5393,249.9236 C176.6283,249.8896 176.7343,249.8676 176.8513,249.8676 C177.3893,249.8676 178.2143,250.2026 179.1693,250.4676 C178.3533,250.8246 177.6893,251.0616 177.1943,251.1946 C176.7193,251.3416 176.1333,251.4106 175.4413,251.4106 L175.3733,251.4106 L175.2743,251.4106 L172.9993,251.4106 L172.9923,251.4106 L170.6263,251.4106 L170.6193,251.4106 L168.2533,251.4106 L168.2453,251.4106 L165.8793,251.4106 L165.8733,251.4106 L163.5063,251.4106 L163.4993,251.4106 L161.1333,251.4106 L161.1253,251.4106 L158.7593,251.4106 L158.7533,251.4106 L156.5153,251.4106 L156.3803,251.4106 L156.3413,251.4106 C156.1803,251.4106 155.9793,251.3326 155.7333,251.1746 C155.3423,250.9086 155.0773,250.5186 154.9733,250.0776 C154.8393,249.5546 154.7503,248.6816 154.5743,247.6326 C154.5403,247.4316 154.4993,247.3536 154.4493,247.3536 C154.3873,247.3536 154.3173,247.4656 154.2393,247.6056 C154.1213,247.8156 154.0513,247.9616 154.0513,248.2276 C154.0513,248.3036 154.0583,248.3946 154.0713,248.4996 C153.8003,248.7026 153.1163,249.1146 152.8793,249.3026 C152.3263,249.7486 152.1813,249.9166 152.0203,251.0616 C152.0203,251.3326 152.3493,251.3966 152.7253,251.3966 C153.2343,251.3966 153.7373,251.3056 154.0583,251.0816 C154.2813,250.9296 154.3733,250.7466 154.4853,250.5666 C154.5833,251.2856 154.8123,251.7946 155.1823,252.1086 C155.5523,252.4226 155.9373,252.5756 156.3343,252.5756 L156.3803,252.5756 L156.4953,252.5756 L158.7533,252.5756 L158.7683,252.5756 L161.1253,252.5756 L161.1413,252.5756 L163.4993,252.5756 L163.5133,252.5756 L165.8733,252.5756 L165.8863,252.5756 L168.2453,252.5756 L168.2603,252.5756 L170.6193,252.5756 L170.6323,252.5756 L172.9923,252.5756 L173.0063,252.5756 L175.2743,252.5756 L175.3793,252.5756 L175.4413,252.5756 C175.8963,252.5616 176.3623,252.4656 176.7473,252.3186 C177.1313,252.1846 177.7113,251.8916 178.5413,251.4806 C179.1003,251.2076 179.3363,251.1186 179.5543,251.0346 C179.8753,250.9086 180.1133,250.8386 180.7743,250.8386 C180.7833,251.4456 180.9003,251.8846 181.1453,252.1506 C181.3973,252.4226 181.8633,252.5696 182.5483,252.5756 L182.8583,252.5756 L182.9703,252.5756 L183.0373,252.5756 C183.0703,252.5756 183.0953,252.5656 183.1263,252.5616 C183.7323,252.5276 184.2573,252.3126 184.6173,252.0806 C185.0843,252.3526 185.7403,252.5696 186.8373,252.5756 L186.8803,252.5756 L186.9303,252.5756 L186.9773,252.5756 C186.9863,252.5756 186.9933,252.5716 187.0033,252.5716 C188.0783,252.5476 188.6843,252.0256 188.8073,251.7186 C188.8483,251.7946 189.1363,252.4866 189.9183,252.5616 C190.0583,252.5756 190.1273,252.5756 190.2103,252.5756 L190.2123,252.5756 L190.3003,252.5756 L190.3333,252.5756 C190.8903,252.5756 191.2173,252.3936 191.4913,252.0446 C191.8323,251.5286 192.0073,250.8526 192.0073,250.0076 C192.0073,249.1686 191.7283,247.7526 191.6443,246.0146 C191.7423,245.8816 191.8873,245.5896 191.9293,245.4636" id="Fill-105" fill="#1D1D1B"></path>
                <path d="M179.5321,252.5981 C179.4981,252.5611 179.4761,252.5701 179.3791,252.6661 C179.1771,252.8691 178.8841,253.2031 178.7171,253.4631 C178.6811,253.5261 178.6811,253.5321 178.7171,253.5891 C178.8481,253.7981 179.3641,254.1901 179.6021,254.3291 C179.6571,254.3621 179.6801,254.3621 179.7211,254.3141 C179.9091,254.0981 180.3221,253.6221 180.4481,253.4631 C180.4901,253.4221 180.5041,253.3931 180.4541,253.3661 C180.0981,253.1341 179.7281,252.8061 179.5321,252.5981" id="Fill-107" fill="#1D1D1B"></path>
                <path d="M188.9193,253.9438 C188.8843,253.9108 188.8633,253.9158 188.7643,254.0138 C188.5643,254.2168 188.2703,254.5518 188.1023,254.8088 C188.0663,254.8738 188.0663,254.8798 188.1023,254.9358 C188.2343,255.1448 188.7523,255.5358 188.9883,255.6748 C189.0443,255.7118 189.0663,255.7118 189.1083,255.6628 C189.2953,255.4458 189.7083,254.9718 189.8343,254.8088 C189.8763,254.7668 189.8903,254.7408 189.8403,254.7118 C189.4853,254.4828 189.1143,254.1538 188.9193,253.9438" id="Fill-109" fill="#1D1D1B"></path>
                <path d="M152.8373,246.4609 C152.9353,246.5239 152.9693,246.4829 153.0323,246.4409 C153.1583,246.3499 153.4583,246.0139 153.6113,245.8399 C153.8633,246.0829 154.1493,246.3149 154.3443,246.4609 C154.4203,246.5159 154.4423,246.5159 154.4993,246.4469 C154.7223,246.1749 154.9453,245.9239 155.1823,245.6739 C155.2663,245.5889 155.2663,245.5679 155.1823,245.5119 C154.9183,245.3299 154.6383,245.0439 154.3933,244.7859 C154.3443,244.7299 154.3093,244.7519 154.2193,244.8409 C154.0943,244.9609 153.8143,245.2819 153.6613,245.4639 C153.4583,245.3519 153.1163,245.0439 152.9273,244.8359 C152.8573,244.7569 152.8233,244.7519 152.7673,244.8069 C152.5163,245.0589 152.2513,245.3569 152.0623,245.5889 C152.0003,245.6649 152.0003,245.6929 152.0473,245.7569 C152.2513,246.0219 152.5783,246.3019 152.8373,246.4609" id="Fill-111" fill="#1D1D1B"></path>
                <path d="M173.4315,178.7275 L149.2815,202.8765 L173.4315,227.0285 L197.5795,202.8765 L173.4315,178.7275 Z M173.4315,179.1355 L197.1735,202.8765 L173.4315,226.6195 L149.6875,202.8765 L173.4315,179.1355 Z" id="Fill-113" fill="#12110C"></path>
                <polygon id="Fill-115" fill="#BCB9B8" points="321.5868 148.6943 307.0518 134.1583 317.3198 123.8903 317.3198 135.8623 314.2178 135.8623 314.2178 131.3803 311.4398 134.1583 321.5868 144.3053 335.8468 130.0453 327.6198 121.8183 335.8468 113.5903 321.5868 99.3303 311.4398 109.4773 314.2178 112.2553 314.2178 107.7733 317.3198 107.7733 317.3198 119.7463 307.0518 109.4773 321.5868 94.9423 340.2348 113.5903 332.0068 121.8183 340.2348 130.0453"></polygon>
                <polygon id="Fill-117" fill="#BCB9B8" points="328.955 135.8628 325.853 135.8628 325.853 128.2778 319.393 121.8178 325.853 115.3578 325.853 107.7728 328.955 107.7728 328.955 116.6428 323.781 121.8178 328.955 126.9928"></polygon>
                <polygon id="Fill-119" fill="#1D1D1B" points="316.5448 139.2705 314.9928 139.2705 314.9928 119.0865 317.4728 116.6075 321.5868 120.7205 325.6998 116.6075 329.8138 120.7205 335.0828 115.4525 336.1798 116.5485 329.8138 122.9145 325.6998 118.8015 321.5868 122.9145 317.4728 118.8015 316.5448 119.7295"></polygon>
                <polygon id="Fill-121" fill="#BCB9B8" points="162.1967 135.2461 159.9837 133.0711 183.3767 109.2761 173.4317 99.3301 163.2837 109.4771 166.0627 112.2551 166.0627 107.6971 169.1647 107.6971 169.1647 119.7461 158.8967 109.4771 173.4317 94.9421 187.7457 109.2571"></polygon>
                <polygon id="Fill-123" fill="#BCB9B8" points="194.6283 140.8213 154.4273 140.8213 154.4273 125.3013 156.9763 127.8513 178.1513 106.6763 180.3453 108.8703 157.5303 131.6863 157.5303 137.7183 187.1383 137.7183 184.6743 135.2563 186.8693 133.0613"></polygon>
                <polygon id="Fill-125" fill="#1D1D1B" points="168.389 139.2705 166.838 139.2705 166.838 119.0865 170.7 115.2245 179.249 115.2245 179.249 116.7755 171.343 116.7755 168.389 119.7295"></polygon>
                <path d="M19.2123,137.7187 L28.9583,137.7187 L28.9583,136.5057 L23.1413,130.6887 L23.1413,100.8817 L20.4263,103.5957 L20.4263,136.5057 L19.2123,137.7187 Z M32.0613,140.8217 L16.8203,140.8217 L14.2713,138.2727 L17.3233,135.2197 L17.3233,105.9167 L13.7183,105.9167 L26.2433,93.3907 L26.2433,129.4027 L32.0613,135.2197 L32.0613,140.8217 Z" id="Fill-127" fill="#BCB9B8"></path>
                <mask id="mask-22" fill="white">
                    <use xlink:href="#path-21"></use>
                </mask>
                <g id="Clip-130"></g>
                <polygon id="Fill-129" fill="#1D1D1B" mask="url(#mask-22)" points="29.735 139.27 31.286 139.27 31.286 119.408 29.735 119.408"></polygon>
                <path d="M313.3705,12.4174 L321.5865,20.6334 L329.8025,12.4174 L321.5865,4.2014 L313.3705,12.4174 Z M321.5865,20.6554 L313.3485,12.4174 L313.3545,12.4124 L321.5865,4.1794 L329.8245,12.4174 L329.8195,12.4234 L321.5865,20.6554 Z" id="Fill-131" fill="#12110C" mask="url(#mask-22)"></path>
                <path d="M305.1425,20.645 L313.3585,28.861 L321.5755,20.645 L313.3585,12.428 L305.1425,20.645 Z M313.3585,28.883 L313.3545,28.877 L305.1215,20.645 L305.1265,20.64 L313.3585,12.407 L313.3645,12.412 L321.5985,20.645 L321.5925,20.65 L313.3585,28.883 Z" id="Fill-132" fill="#12110C" mask="url(#mask-22)"></path>
                <path d="M296.9164,28.872 L305.1324,37.088 L313.3484,28.872 L305.1324,20.656 L296.9164,28.872 Z M305.1324,37.11 L305.1264,37.104 L296.8944,28.872 L296.8994,28.867 L305.1324,20.633 L305.1384,20.64 L313.3704,28.872 L313.3644,28.877 L305.1324,37.11 Z" id="Fill-133" fill="#12110C" mask="url(#mask-22)"></path>
                <path d="M321.598,20.645 L329.813,28.861 L338.03,20.645 L329.813,12.428 L321.598,20.645 Z M329.813,28.883 L321.576,20.645 L321.581,20.64 L329.813,12.407 L338.052,20.645 L338.046,20.65 L329.813,28.883 Z" id="Fill-134" fill="#12110C" mask="url(#mask-22)"></path>
                <path d="M305.1425,37.0991 L313.3585,45.3151 L321.5755,37.0991 L313.3585,28.8831 L305.1425,37.0991 Z M313.3585,45.3371 L313.3545,45.3321 L305.1215,37.0991 L305.1265,37.0931 L313.3585,28.8611 L313.3645,28.8671 L321.5985,37.0991 L321.5925,37.1041 L313.3585,45.3371 Z" id="Fill-135" fill="#12110C" mask="url(#mask-22)"></path>
                <path d="M329.8246,28.872 L338.0416,37.088 L346.2576,28.872 L338.0416,20.656 L329.8246,28.872 Z M338.0416,37.11 L329.8026,28.872 L329.8086,28.867 L338.0416,20.633 L346.2796,28.872 L346.2736,28.877 L338.0416,37.11 Z" id="Fill-136" fill="#12110C" mask="url(#mask-22)"></path>
                <path d="M321.598,37.0991 L329.813,45.3151 L338.03,37.0991 L329.813,28.8831 L321.598,37.0991 Z M329.813,45.3371 L321.576,37.0991 L321.581,37.0931 L329.813,28.8611 L338.052,37.0991 L338.046,37.1041 L329.813,45.3371 Z" id="Fill-137" fill="#12110C" mask="url(#mask-22)"></path>
                <path d="M313.3705,45.3266 L321.5865,53.5426 L329.8025,45.3266 L321.5865,37.1096 L313.3705,45.3266 Z M321.5865,53.5646 L313.3485,45.3266 L313.3545,45.3206 L321.5865,37.0876 L329.8245,45.3266 L329.8195,45.3316 L321.5865,53.5646 Z" id="Fill-138" fill="#12110C" mask="url(#mask-22)"></path>
                <polygon id="Fill-139" fill="#12110C" mask="url(#mask-22)" points="321.579 53.553 321.594 53.553 321.594 4.19 321.579 4.19"></polygon>
                <polygon id="Fill-140" fill="#12110C" mask="url(#mask-22)" points="296.905 28.88 346.268 28.88 346.268 28.864 296.905 28.864"></polygon>
                <polygon id="Fill-141" fill="#12110C" mask="url(#mask-22)" points="321.579 53.553 321.594 53.553 321.594 4.19 321.579 4.19"></polygon>
                <polygon id="Fill-142" fill="#12110C" mask="url(#mask-22)" points="296.905 28.88 346.268 28.88 346.268 28.864 296.905 28.864"></polygon>
                <path d="M304.142,23.046 L315.762,23.046 L315.762,11.427 L304.142,11.427 L304.142,23.046 Z M304.127,23.062 L315.777,23.062 L315.777,11.412 L304.127,11.412 L304.127,23.062 Z" id="Fill-143" fill="#12110C" mask="url(#mask-22)"></path>
                <path d="M304.142,34.682 L315.762,34.682 L315.762,23.062 L304.142,23.062 L304.142,34.682 Z M304.127,34.697 L315.777,34.697 L315.777,23.046 L304.127,23.046 L304.127,34.697 Z" id="Fill-144" fill="#12110C" mask="url(#mask-22)"></path>
                <path d="M304.142,46.317 L315.762,46.317 L315.762,34.697 L304.142,34.697 L304.142,46.317 Z M304.127,46.332 L315.777,46.332 L315.777,34.682 L304.127,34.682 L304.127,46.332 Z" id="Fill-145" fill="#12110C" mask="url(#mask-22)"></path>
                <path d="M315.777,23.046 L327.397,23.046 L327.397,11.427 L315.777,11.427 L315.777,23.046 Z M315.762,23.062 L327.411,23.062 L327.411,11.412 L315.762,11.412 L315.762,23.062 Z" id="Fill-146" fill="#12110C" mask="url(#mask-22)"></path>
                <path d="M315.777,34.682 L327.397,34.682 L327.397,23.062 L315.777,23.062 L315.777,34.682 Z M315.762,34.697 L327.411,34.697 L327.411,23.046 L315.762,23.046 L315.762,34.697 Z" id="Fill-147" fill="#12110C" mask="url(#mask-22)"></path>
                <path d="M315.777,46.317 L327.397,46.317 L327.397,34.697 L315.777,34.697 L315.777,46.317 Z M315.762,46.332 L327.411,46.332 L327.411,34.682 L315.762,34.682 L315.762,46.332 Z" id="Fill-148" fill="#12110C" mask="url(#mask-22)"></path>
                <path d="M327.411,23.046 L339.031,23.046 L339.031,11.427 L327.411,11.427 L327.411,23.046 Z M327.396,23.062 L339.047,23.062 L339.047,11.412 L327.396,11.412 L327.396,23.062 Z" id="Fill-149" fill="#12110C" mask="url(#mask-22)"></path>
                <path d="M327.411,34.682 L339.031,34.682 L339.031,23.062 L327.411,23.062 L327.411,34.682 Z M327.396,34.697 L339.047,34.697 L339.047,23.046 L327.396,23.046 L327.396,34.697 Z" id="Fill-150" fill="#12110C" mask="url(#mask-22)"></path>
                <path d="M327.411,46.317 L339.031,46.317 L339.031,34.697 L327.411,34.697 L327.411,46.317 Z M327.396,46.332 L339.047,46.332 L339.047,34.682 L327.396,34.682 L327.396,46.332 Z" id="Fill-151" fill="#12110C" mask="url(#mask-22)"></path>
                <polygon id="Fill-152" fill="#12110C" mask="url(#mask-22)" points="339.0336 46.33 304.1286 11.425 304.1396 11.413 339.0446 46.319"></polygon>
                <polygon id="Fill-153" fill="#12110C" mask="url(#mask-22)" points="304.1395 46.33 304.1285 46.319 339.0335 11.413 339.0445 11.425"></polygon>
                <polygon id="Fill-154" fill="#12110C" mask="url(#mask-22)" points="339.0336 46.33 304.1286 11.425 304.1396 11.413 339.0446 46.319"></polygon>
                <polygon id="Fill-155" fill="#12110C" mask="url(#mask-22)" points="304.1395 46.33 304.1285 46.319 339.0335 11.413 339.0445 11.425"></polygon>
                <polygon id="Fill-156" fill="#BCB9B8" mask="url(#mask-22)" points="321.5868 55.7475 307.0518 41.2125 317.3198 30.9445 317.3198 42.9165 314.2178 42.9165 314.2178 38.4345 311.4398 41.2125 321.5868 51.3595 335.8468 37.0995 327.6198 28.8725 335.8468 20.6445 321.5868 6.3845 311.4398 16.5315 314.2178 19.3095 314.2178 14.8275 317.3198 14.8275 317.3198 26.7995 307.0518 16.5315 321.5868 1.9965 340.2348 20.6445 332.0068 28.8725 340.2348 37.0995"></polygon>
                <polygon id="Fill-157" fill="#BCB9B8" mask="url(#mask-22)" points="328.955 42.917 325.853 42.917 325.853 35.332 319.393 28.872 325.853 22.412 325.853 14.827 328.955 14.827 328.955 23.697 323.781 28.872 328.955 34.047"></polygon>
                <polygon id="Fill-158" fill="#1D1D1B" mask="url(#mask-22)" points="316.5448 46.3247 314.9928 46.3247 314.9928 26.1407 317.4728 23.6617 321.5868 27.7747 325.6998 23.6617 329.8138 27.7747 335.0828 22.5057 336.1798 23.6027 329.8138 29.9687 325.6998 25.8547 321.5868 29.9687 317.4728 25.8547 316.5448 26.7837"></polygon>
                <path d="M165.2147,12.4174 L173.4317,20.6334 L181.6477,12.4174 L173.4317,4.2014 L165.2147,12.4174 Z M173.4317,20.6554 L173.4257,20.6504 L165.1927,12.4174 L165.1987,12.4124 L173.4317,4.1794 L173.4367,4.1854 L181.6697,12.4174 L181.6637,12.4234 L173.4317,20.6554 Z" id="Fill-159" fill="#12110C" mask="url(#mask-22)"></path>
                <path d="M156.9877,20.645 L165.2037,28.861 L173.4197,20.645 L165.2037,12.428 L156.9877,20.645 Z M165.2037,28.883 L165.1987,28.877 L156.9657,20.645 L156.9717,20.64 L165.2037,12.407 L165.2097,12.412 L173.4427,20.645 L173.4367,20.65 L165.2037,28.883 Z" id="Fill-160" fill="#12110C" mask="url(#mask-22)"></path>
                <path d="M148.7601,28.872 L156.9761,37.088 L165.1931,28.872 L156.9761,20.656 L148.7601,28.872 Z M156.9761,37.11 L156.9711,37.104 L148.7391,28.872 L148.7441,28.867 L156.9761,20.633 L156.9821,20.64 L165.2151,28.872 L165.2091,28.877 L156.9761,37.11 Z" id="Fill-161" fill="#12110C" mask="url(#mask-22)"></path>
                <path d="M173.4423,20.645 L181.6583,28.861 L189.8743,20.645 L181.6583,12.428 L173.4423,20.645 Z M181.6583,28.883 L181.6523,28.877 L173.4203,20.645 L173.4263,20.64 L181.6583,12.407 L181.6643,12.412 L189.8963,20.645 L189.8913,20.65 L181.6583,28.883 Z" id="Fill-162" fill="#12110C" mask="url(#mask-22)"></path>
                <path d="M156.9877,37.0991 L165.2037,45.3151 L173.4197,37.0991 L165.2037,28.8831 L156.9877,37.0991 Z M165.2037,45.3371 L165.1987,45.3321 L156.9657,37.0991 L156.9717,37.0931 L165.2037,28.8611 L165.2097,28.8671 L173.4427,37.0991 L173.4367,37.1041 L165.2037,45.3371 Z" id="Fill-163" fill="#12110C" mask="url(#mask-22)"></path>
                <path d="M181.6693,28.872 L189.8853,37.088 L198.1023,28.872 L189.8853,20.656 L181.6693,28.872 Z M189.8853,37.11 L189.8793,37.104 L181.6483,28.872 L181.6523,28.867 L189.8853,20.633 L189.8913,20.64 L198.1233,28.872 L198.1183,28.877 L189.8853,37.11 Z" id="Fill-164" fill="#12110C" mask="url(#mask-22)"></path>
                <path d="M173.4423,37.0991 L181.6583,45.3151 L189.8743,37.0991 L181.6583,28.8831 L173.4423,37.0991 Z M181.6583,45.3371 L181.6523,45.3321 L173.4203,37.0991 L173.4263,37.0931 L181.6583,28.8611 L181.6643,28.8671 L189.8963,37.0991 L189.8913,37.1041 L181.6583,45.3371 Z" id="Fill-165" fill="#12110C" mask="url(#mask-22)"></path>
                <path d="M165.2147,45.3266 L173.4317,53.5426 L181.6477,45.3266 L173.4317,37.1096 L165.2147,45.3266 Z M173.4317,53.5646 L173.4257,53.5586 L165.1927,45.3266 L165.1987,45.3206 L173.4317,37.0876 L173.4367,37.0936 L181.6697,45.3266 L181.6637,45.3316 L173.4317,53.5646 Z" id="Fill-166" fill="#12110C" mask="url(#mask-22)"></path>
                <polygon id="Fill-167" fill="#12110C" mask="url(#mask-22)" points="173.424 53.553 173.438 53.553 173.438 4.19 173.424 4.19"></polygon>
                <polygon id="Fill-168" fill="#12110C" mask="url(#mask-22)" points="148.75 28.88 198.113 28.88 198.113 28.864 148.75 28.864"></polygon>
                <polygon id="Fill-169" fill="#12110C" mask="url(#mask-22)" points="173.424 53.553 173.438 53.553 173.438 4.19 173.424 4.19"></polygon>
                <polygon id="Fill-170" fill="#12110C" mask="url(#mask-22)" points="148.75 28.88 198.113 28.88 198.113 28.864 148.75 28.864"></polygon>
                <path d="M155.987,23.046 L167.606,23.046 L167.606,11.427 L155.987,11.427 L155.987,23.046 Z M155.971,23.062 L167.621,23.062 L167.621,11.412 L155.971,11.412 L155.971,23.062 Z" id="Fill-171" fill="#12110C" mask="url(#mask-22)"></path>
                <path d="M155.987,34.682 L167.606,34.682 L167.606,23.062 L155.987,23.062 L155.987,34.682 Z M155.971,34.697 L167.621,34.697 L167.621,23.046 L155.971,23.046 L155.971,34.697 Z" id="Fill-172" fill="#12110C" mask="url(#mask-22)"></path>
                <path d="M155.987,46.317 L167.606,46.317 L167.606,34.697 L155.987,34.697 L155.987,46.317 Z M155.971,46.332 L167.621,46.332 L167.621,34.682 L155.971,34.682 L155.971,46.332 Z" id="Fill-173" fill="#12110C" mask="url(#mask-22)"></path>
                <path d="M167.621,23.046 L179.241,23.046 L179.241,11.427 L167.621,11.427 L167.621,23.046 Z M167.606,23.062 L179.256,23.062 L179.256,11.412 L167.606,11.412 L167.606,23.062 Z" id="Fill-174" fill="#12110C" mask="url(#mask-22)"></path>
                <path d="M167.621,34.682 L179.241,34.682 L179.241,23.062 L167.621,23.062 L167.621,34.682 Z M167.606,34.697 L179.256,34.697 L179.256,23.046 L167.606,23.046 L167.606,34.697 Z" id="Fill-175" fill="#12110C" mask="url(#mask-22)"></path>
                <path d="M167.621,46.317 L179.241,46.317 L179.241,34.697 L167.621,34.697 L167.621,46.317 Z M167.606,46.332 L179.256,46.332 L179.256,34.682 L167.606,34.682 L167.606,46.332 Z" id="Fill-176" fill="#12110C" mask="url(#mask-22)"></path>
                <path d="M179.256,23.046 L190.876,23.046 L190.876,11.427 L179.256,11.427 L179.256,23.046 Z M179.241,23.062 L190.891,23.062 L190.891,11.412 L179.241,11.412 L179.241,23.062 Z" id="Fill-177" fill="#12110C" mask="url(#mask-22)"></path>
                <path d="M179.256,34.682 L190.876,34.682 L190.876,23.062 L179.256,23.062 L179.256,34.682 Z M179.241,34.697 L190.891,34.697 L190.891,23.046 L179.241,23.046 L179.241,34.697 Z" id="Fill-178" fill="#12110C" mask="url(#mask-22)"></path>
                <path d="M179.256,46.317 L190.876,46.317 L190.876,34.697 L179.256,34.697 L179.256,46.317 Z M179.241,46.332 L190.891,46.332 L190.891,34.682 L179.241,34.682 L179.241,46.332 Z" id="Fill-179" fill="#12110C" mask="url(#mask-22)"></path>
                <polygon id="Fill-180" fill="#12110C" mask="url(#mask-22)" points="190.8783 46.33 155.9733 11.425 155.9833 11.413 190.8893 46.319"></polygon>
                <polygon id="Fill-181" fill="#12110C" mask="url(#mask-22)" points="155.9838 46.33 155.9738 46.319 190.8788 11.413 190.8888 11.425"></polygon>
                <polygon id="Fill-182" fill="#12110C" mask="url(#mask-22)" points="190.8783 46.33 155.9733 11.425 155.9833 11.413 190.8893 46.319"></polygon>
                <polygon id="Fill-183" fill="#12110C" mask="url(#mask-22)" points="155.9838 46.33 155.9738 46.319 190.8788 11.413 190.8888 11.425"></polygon>
                <polygon id="Fill-184" fill="#BCB9B8" mask="url(#mask-22)" points="162.1967 42.2998 159.9837 40.1248 183.3767 16.3298 173.4317 6.3838 163.2837 16.5308 166.0627 19.3088 166.0627 14.7518 169.1647 14.7518 169.1647 26.7998 158.8967 16.5308 173.4317 1.9958 187.7457 16.3108"></polygon>
                <polygon id="Fill-185" fill="#BCB9B8" mask="url(#mask-22)" points="194.6283 47.8755 154.4273 47.8755 154.4273 32.3555 156.9763 34.9055 178.1513 13.7295 180.3453 15.9245 157.5303 38.7395 157.5303 44.7725 187.1383 44.7725 184.6743 42.3095 186.8693 40.1155"></polygon>
                <polygon id="Fill-186" fill="#1D1D1B" mask="url(#mask-22)" points="168.389 46.3247 166.838 46.3247 166.838 26.1407 170.7 22.2787 179.249 22.2787 179.249 23.8297 171.343 23.8297 168.389 26.7837"></polygon>
                <path d="M16.476,12.4174 L24.692,20.6334 L32.909,12.4174 L24.692,4.2014 L16.476,12.4174 Z M24.692,20.6554 L24.687,20.6504 L16.454,12.4174 L16.46,12.4124 L24.692,4.1794 L24.698,4.1854 L32.931,12.4174 L32.926,12.4234 L24.692,20.6554 Z" id="Fill-187" fill="#12110C" mask="url(#mask-22)"></path>
                <path d="M8.2489,20.645 L16.4649,28.861 L24.6809,20.645 L16.4649,12.428 L8.2489,20.645 Z M16.4649,28.883 L16.4599,28.877 L8.2269,20.645 L8.2329,20.64 L16.4649,12.407 L16.4709,12.412 L24.7039,20.645 L24.6979,20.65 L16.4649,28.883 Z" id="Fill-188" fill="#12110C" mask="url(#mask-22)"></path>
                <path d="M0.0219,28.872 L8.2379,37.088 L16.4539,28.872 L8.2379,20.656 L0.0219,28.872 Z M8.2379,37.11 L8.2329,37.104 L-0.0001,28.872 L0.0059,28.867 L8.2379,20.633 L8.2439,20.64 L16.4759,28.872 L16.4709,28.877 L8.2379,37.11 Z" id="Fill-189" fill="#12110C" mask="url(#mask-22)"></path>
                <path d="M24.7035,20.645 L32.9205,28.861 L41.1355,20.645 L32.9205,12.428 L24.7035,20.645 Z M32.9205,28.883 L32.9145,28.877 L24.6815,20.645 L24.6865,20.64 L32.9205,12.407 L32.9255,12.412 L41.1575,20.645 L41.1525,20.65 L32.9205,28.883 Z" id="Fill-190" fill="#12110C" mask="url(#mask-22)"></path>
                <path d="M8.2489,37.0991 L16.4649,45.3151 L24.6809,37.0991 L16.4649,28.8831 L8.2489,37.0991 Z M16.4649,45.3371 L16.4599,45.3321 L8.2269,37.0991 L8.2329,37.0931 L16.4649,28.8611 L16.4709,28.8671 L24.7039,37.0991 L24.6979,37.1041 L16.4649,45.3371 Z" id="Fill-191" fill="#12110C" mask="url(#mask-22)"></path>
                <path d="M32.9305,28.872 L41.1465,37.088 L49.3635,28.872 L41.1465,20.656 L32.9305,28.872 Z M41.1465,37.11 L41.1415,37.104 L32.9095,28.872 L32.9145,28.867 L41.1465,20.633 L41.1525,20.64 L49.3855,28.872 L49.3795,28.877 L41.1465,37.11 Z" id="Fill-192" fill="#12110C" mask="url(#mask-22)"></path>
                <path d="M24.7035,37.0991 L32.9205,45.3151 L41.1355,37.0991 L32.9205,28.8831 L24.7035,37.0991 Z M32.9205,45.3371 L32.9145,45.3321 L24.6815,37.0991 L24.6865,37.0931 L32.9205,28.8611 L32.9255,28.8671 L41.1575,37.0991 L41.1525,37.1041 L32.9205,45.3371 Z" id="Fill-193" fill="#12110C" mask="url(#mask-22)"></path>
                <path d="M16.476,45.3266 L24.692,53.5426 L32.909,45.3266 L24.692,37.1096 L16.476,45.3266 Z M24.692,53.5646 L24.687,53.5586 L16.454,45.3266 L16.46,45.3206 L24.692,37.0876 L24.698,37.0936 L32.931,45.3266 L32.926,45.3316 L24.692,53.5646 Z" id="Fill-194" fill="#12110C" mask="url(#mask-22)"></path>
                <polygon id="Fill-195" fill="#12110C" mask="url(#mask-22)" points="24.685 53.553 24.7 53.553 24.7 4.19 24.685 4.19"></polygon>
                <polygon id="Fill-196" fill="#12110C" mask="url(#mask-22)" points="0.011 28.88 49.374 28.88 49.374 28.864 0.011 28.864"></polygon>
                <polygon id="Fill-197" fill="#12110C" mask="url(#mask-22)" points="24.685 53.553 24.7 53.553 24.7 4.19 24.685 4.19"></polygon>
                <polygon id="Fill-198" fill="#12110C" mask="url(#mask-22)" points="0.011 28.88 49.374 28.88 49.374 28.864 0.011 28.864"></polygon>
                <path d="M7.248,23.046 L18.868,23.046 L18.868,11.427 L7.248,11.427 L7.248,23.046 Z M7.233,23.062 L18.883,23.062 L18.883,11.412 L7.233,11.412 L7.233,23.062 Z" id="Fill-199" fill="#12110C" mask="url(#mask-22)"></path>
                <path d="M7.248,34.682 L18.868,34.682 L18.868,23.062 L7.248,23.062 L7.248,34.682 Z M7.233,34.697 L18.883,34.697 L18.883,23.046 L7.233,23.046 L7.233,34.697 Z" id="Fill-200" fill="#12110C" mask="url(#mask-22)"></path>
                <path d="M7.248,46.317 L18.868,46.317 L18.868,34.697 L7.248,34.697 L7.248,46.317 Z M7.233,46.332 L18.883,46.332 L18.883,34.682 L7.233,34.682 L7.233,46.332 Z" id="Fill-201" fill="#12110C" mask="url(#mask-22)"></path>
                <path d="M18.883,23.046 L30.503,23.046 L30.503,11.427 L18.883,11.427 L18.883,23.046 Z M18.868,23.062 L30.518,23.062 L30.518,11.412 L18.868,11.412 L18.868,23.062 Z" id="Fill-202" fill="#12110C" mask="url(#mask-22)"></path>
                <path d="M18.883,34.682 L30.503,34.682 L30.503,23.062 L18.883,23.062 L18.883,34.682 Z M18.868,34.697 L30.518,34.697 L30.518,23.046 L18.868,23.046 L18.868,34.697 Z" id="Fill-203" fill="#12110C" mask="url(#mask-22)"></path>
                <path d="M18.883,46.317 L30.503,46.317 L30.503,34.697 L18.883,34.697 L18.883,46.317 Z M18.868,46.332 L30.518,46.332 L30.518,34.682 L18.868,34.682 L18.868,46.332 Z" id="Fill-204" fill="#12110C" mask="url(#mask-22)"></path>
                <path d="M30.518,23.046 L42.137,23.046 L42.137,11.427 L30.518,11.427 L30.518,23.046 Z M30.502,23.062 L42.152,23.062 L42.152,11.412 L30.502,11.412 L30.502,23.062 Z" id="Fill-205" fill="#12110C" mask="url(#mask-22)"></path>
                <path d="M30.518,34.682 L42.137,34.682 L42.137,23.062 L30.518,23.062 L30.518,34.682 Z M30.502,34.697 L42.152,34.697 L42.152,23.046 L30.502,23.046 L30.502,34.697 Z" id="Fill-206" fill="#12110C" mask="url(#mask-22)"></path>
                <path d="M30.518,46.317 L42.137,46.317 L42.137,34.697 L30.518,34.697 L30.518,46.317 Z M30.502,46.332 L42.152,46.332 L42.152,34.682 L30.502,34.682 L30.502,46.332 Z" id="Fill-207" fill="#12110C" mask="url(#mask-22)"></path>
                <polygon id="Fill-208" fill="#12110C" mask="url(#mask-22)" points="42.1395 46.33 7.2345 11.425 7.2455 11.413 42.1505 46.319"></polygon>
                <polygon id="Fill-209" fill="#12110C" mask="url(#mask-22)" points="7.2455 46.33 7.2345 46.319 42.1395 11.413 42.1505 11.425"></polygon>
                <polygon id="Fill-210" fill="#12110C" mask="url(#mask-22)" points="42.1395 46.33 7.2345 11.425 7.2455 11.413 42.1505 46.319"></polygon>
                <polygon id="Fill-211" fill="#12110C" mask="url(#mask-22)" points="7.2455 46.33 7.2345 46.319 42.1395 11.413 42.1505 11.425"></polygon>
                <path d="M19.2123,44.7729 L28.9583,44.7729 L28.9583,43.5589 L23.1413,37.7419 L23.1413,7.9359 L20.4263,10.6499 L20.4263,43.5589 L19.2123,44.7729 Z M32.0613,47.8759 L16.8203,47.8759 L14.2713,45.3269 L17.3233,42.2739 L17.3233,12.9709 L13.7183,12.9709 L26.2433,0.4449 L26.2433,36.4569 L32.0613,42.2739 L32.0613,47.8759 Z" id="Fill-212" fill="#BCB9B8" mask="url(#mask-22)"></path>
                <polygon id="Fill-213" fill="#1D1D1B" mask="url(#mask-22)" points="29.735 46.325 31.286 46.325 31.286 26.463 29.735 26.463"></polygon>
            </g>
        </g>
    </g>
</svg>