<?xml version="1.0" encoding="UTF-8"?>
<svg width="585px" height="266px" viewBox="0 0 585 266" version="1.1" xmlns="http://www.w3.org/2000/svg" xmlns:xlink="http://www.w3.org/1999/xlink">
    <!-- Generator: Sketch 49.2 (51160) - http://www.bohemiancoding.com/sketch -->
    <title>festival/logo2018</title>
    <desc>Created with Sketch.</desc>
    <defs></defs>
    <g id="festival/logo2018" stroke="none" stroke-width="1" fill="none" fill-rule="evenodd">
        <g id="Page-1" transform="translate(-3.000000, 8.000000)">
            <polygon id="Fill-1" fill="#E71C24" points="0 120 591 120 591 80 0 80"></polygon>
            <g id="Group-76" transform="translate(46.000000, 0.000000)">
                <path d="M11.0126268,88.1181386 L11.0126268,98.7411005 L31.2008592,98.7411005 C36.2735352,98.7411005 37.4122576,95.8389266 37.4122576,93.1962636 C37.4122576,91.0196332 36.2735352,88.1181386 31.2008592,88.1181386 L11.0126268,88.1181386 Z M0.660296149,78.7906929 L32.7019641,78.7906929 C43.0027198,78.7906929 48.1276494,85.3715353 48.1276494,92.9374321 C48.1276494,102.005367 40.7252749,107.550204 32.7019641,107.550204 L11.0126268,107.550204 L11.0126268,120.246535 L0.660296149,120.246535 L0.660296149,78.7906929 Z" id="Fill-2" fill="#FFFFFF"></path>
                <path d="M61.5343078,103.871196 L71.0071485,103.871196 L66.5554088,90.0355978 L61.5343078,103.871196 Z M73.6985509,112.318207 L58.532098,112.318207 L55.6846133,120.246196 L44.6590927,120.246196 L61.2750754,78.7903533 L71.9388922,78.7903533 L87.5199811,120.246196 L76.2868032,120.246196 L73.6985509,112.318207 Z" id="Fill-4" fill="#FFFFFF"></path>
                <path d="M102.167901,88.1181386 L102.167901,98.7411005 L115.626949,98.7411005 C120.181839,98.7411005 121.579115,95.8389266 121.579115,93.1962636 C121.579115,91.0196332 120.181839,88.1181386 115.626949,88.1181386 L102.167901,88.1181386 Z M91.8155707,78.7906929 L117.64584,78.7906929 C127.42881,78.7906929 132.295186,85.3715353 132.295186,92.9374321 C132.295186,98.9476223 129.136893,103.404823 124.892132,105.737024 L132.191357,120.246535 L120.544221,120.246535 L114.798356,107.550204 L102.167901,107.550204 L102.167901,120.246535 L91.8155707,120.246535 L91.8155707,78.7906929 Z" id="Fill-6" fill="#FFFFFF"></path>
                <path d="M136.279425,91.4339674 C136.279425,82.6764946 143.267163,77.9611413 152.274471,77.9611413 C157.502551,77.9611413 163.248417,79.308288 166.50918,81.1737772 L164.542543,89.9835598 C161.074122,87.9108696 155.897617,86.8225543 151.912089,86.8225543 C148.7029,86.8225543 146.528605,88.0664402 146.528605,90.2423913 C146.528605,96.9788043 167.751731,93.1961957 167.751731,107.135734 C167.751731,114.54606 162.472077,121.075951 151.446556,121.075951 C146.735584,121.075951 141.403676,120.453668 137.10734,118.432609 L137.521976,108.949592 C141.818312,111.022283 146.528605,112.213859 151.756685,112.213859 C156.312253,112.213859 157.450976,110.60788 157.450976,108.690082 C157.450976,102.472011 136.279425,106.099728 136.279425,91.4339674" id="Fill-8" fill="#FFFFFF"></path>
                <path d="M199.068567,112.369633 C209.266172,112.369633 216.409314,108.223573 216.409314,99.1040082 C216.409314,90.8132473 209.266172,86.6665082 199.120142,86.6665082 C188.974111,86.6665082 181.830969,90.7086277 181.830969,99.4151495 C181.830969,108.171943 188.974111,112.369633 199.068567,112.369633 M199.22397,77.9613451 C215.529146,77.9613451 227.073131,85.3200408 227.073131,99.3112092 C227.073131,113.872351 214.701231,121.075476 199.171717,121.075476 C183.539053,121.075476 171.167831,113.76909 171.167831,99.3628397 C171.167831,85.7860734 182.555734,77.9613451 199.22397,77.9613451" id="Fill-10" fill="#FFFFFF"></path>
                <polygon id="Fill-12" fill="#FFFFFF" points="245.137422 93.7148098 243.584064 93.7148098 243.584064 120.246739 233.231733 120.246739 233.231733 78.7902174 245.344401 78.7902174 269.466587 104.699864 271.019267 104.699864 271.019267 78.7902174 281.372276 78.7902174 281.372276 120.246739 269.673566 120.246739"></polygon>
                <path d="M287.738332,91.4339674 C287.738332,82.6764946 297.314322,77.9611413 310.462563,77.9611413 C319.314467,77.9611413 328.165693,79.308288 331.427135,81.1737772 L329.459819,89.9835598 C325.992077,87.9108696 317.191747,86.8225543 310.10018,86.8225543 C301.352105,86.8225543 297.987512,88.0664402 297.987512,90.2423913 C297.987512,97.8599185 332.669686,90.5535326 332.669686,107.135734 C332.669686,114.54606 325.318887,121.075951 309.634648,121.075951 C302.335423,121.075951 292.862583,120.453668 288.566247,118.432609 L288.980883,108.949592 C293.277219,111.022283 301.093551,112.213859 309.944777,112.213859 C318.952085,112.213859 322.368252,110.60788 322.368252,108.690082 C322.368252,101.590897 287.738332,108.586821 287.738332,91.4339674" id="Fill-14" fill="#FFFFFF"></path>
                <path d="M428.973914,104.60163 L428.973914,99.161413 C434.035732,95.3067935 439.532544,90.675 439.532544,87.3169837 C439.532544,85.6383152 438.072835,84.4881793 435.588412,84.4881793 C433.787357,84.4881793 431.209963,85.047962 429.098101,86.0432065 L428.04217,81.3788043 C430.340652,80.0737772 433.07345,79.2347826 436.147593,79.2347826 C441.768593,79.2347826 445.898668,81.3482337 445.898668,86.1043478 C445.898668,91.2341033 440.774417,95.3998641 435.929757,99.0683424 L435.929757,99.161413 L446.45785,99.161413 L446.45785,104.60163 L428.973914,104.60163 Z" id="Fill-16" fill="#FFFFFF"></path>
                <path d="M459.56483,99.689606 C462.825594,99.689606 463.570717,95.8349864 463.570717,91.9185462 C463.570717,88.8091712 463.136401,84.6440897 459.626584,84.6440897 C456.211096,84.6440897 455.49651,88.4987092 455.49651,92.1359375 C455.49651,95.8349864 456.242312,99.689606 459.56483,99.689606 M459.533614,79.2351223 C466.707294,79.2351223 469.781437,84.6746603 469.781437,92.1665082 C469.781437,99.6590353 466.707294,105.099253 459.533614,105.099253 C452.359934,105.099253 449.28579,99.6590353 449.28579,92.1665082 C449.28579,84.6746603 452.359934,79.2351223 459.533614,79.2351223" id="Fill-18" fill="#FFFFFF"></path>
                <polygon id="Fill-20" fill="#FFFFFF" points="472.921135 104.60163 472.921135 99.161413 478.417948 99.161413 478.417948 86.1043478 472.921135 86.8815217 472.921135 81.286413 483.603953 79.2347826 484.628668 79.2347826 484.628668 99.161413 489.814673 99.161413 489.814673 104.60163"></polygon>
                <path d="M503.201176,89.7421875 C504.598453,88.7469429 504.878044,87.6593071 504.878044,86.6959918 C504.878044,85.2340353 503.666709,83.8970788 501.275935,83.8970788 C499.039886,83.8970788 497.890984,85.016644 497.890984,86.4161005 C497.890984,88.373981 500.374729,88.9643342 503.201176,89.7421875 M499.195289,94.0940897 C498.108142,94.8719429 497.331802,96.1151495 497.331802,97.1409647 C497.331802,99.0689538 498.822049,100.342731 501.586063,100.342731 C504.008054,100.342731 504.90926,99.0064538 504.90926,97.5757473 C504.90926,95.6484375 502.145245,95.0268342 499.195289,94.0940897 M495.779122,92.7883832 C493.698476,91.7313179 492.11458,90.1463995 492.11458,87.3169158 C492.11458,82.2496603 496.524245,79.2347147 501.834438,79.2347147 C507.207063,79.2347147 510.809172,82.0315897 510.809172,85.8250679 C510.809172,88.373981 509.132305,89.9901495 506.989905,91.016644 C509.194738,92.0431386 510.964576,93.6905571 510.964576,96.8305027 C510.964576,102.550611 505.467763,105.098845 500.716753,105.098845 C496.400058,105.098845 491.866206,103.015965 491.866206,98.2598505 C491.866206,95.4310462 493.511856,93.7836277 495.779122,92.7883832" id="Fill-22" fill="#FFFFFF"></path>
                <path d="M85.1938114,24.1811821 L49.8825578,24.0453125" id="Stroke-24" stroke="#000000" stroke-width="4"></path>
                <path d="M146.460065,54.1361413 L78.6735057,10.3902174" id="Stroke-26" stroke="#000000" stroke-width="4"></path>
                <polyline id="Stroke-28" stroke="#000000" stroke-width="4" points="171.966226 47.8648098 192.086597 47.8648098 192.086597 37.8342391 169.185246 37.8342391 169.185246 29.2370924 186.361089 29.2370924 186.361089 19.2065217 169.185246 19.2065217 169.185246 10.609375 192.086597 10.609375 192.086597 0.579483696 156.302346 0.579483696 156.302346 39.2819293"></polyline>
                <path d="M262.355747,102.406318 L160.011201,63.8132473" id="Stroke-30" stroke="#000000" stroke-width="4"></path>
                <path d="M182.880453,104.605571 C177.219415,106.934375 173.482939,111.556658 173.482939,118.445924 C173.482939,135.442527 198.021118,131.187772 198.021118,138.394973 C198.021118,140.617799 196.701205,142.454755 191.42155,142.454755 C185.361484,142.454755 179.902674,141.060054 174.922968,138.65788 L174.443185,149.642935 C179.42289,151.985326 185.602393,152.703397 191.061882,152.703397 C203.840954,152.703397 209.96006,145.133424 209.96006,136.545109 C209.96006,120.388179 185.361484,124.77269 185.361484,116.964946 C185.361484,114.441848 187.926663,113.067527 191.640744,112.875272 C195.384006,112.680978 199.940931,113.374592 204.971533,115.774049" id="Stroke-32" stroke="#000000" stroke-width="4"></path>
                <path d="M98.0796299,41.0533967 L193.232852,90.7870924" id="Stroke-34" stroke="#000000" stroke-width="4"></path>
                <polyline id="Stroke-36" stroke="#000000" stroke-width="4" points="51.127009 24.9772418 51.127009 72.2632473 62.5780236 72.2632473 62.5780236 53.6362092 82.6169599 53.6362092 82.6169599 43.6056386 62.5780236 43.6056386 62.5780236 35.0078125 82.5504552 35.0078125"></polyline>
                <polyline id="Stroke-38" stroke="#000000" stroke-width="4" points="246.26868 52.8690217 245.341008 64.2942935 261.034069 65.570788 258.630401 95.1747283"></polyline>
                <path d="M276.908593,52.1491848 L236.500911,42.6389946" id="Stroke-40" stroke="#000000" stroke-width="4"></path>
                <polyline id="Stroke-42" stroke="#000000" stroke-width="4" points="271.773212 100.899049 271.773212 64.903125 286.086641 64.903125 286.086641 53.4398098"></polyline>
                <path d="M349.06824,170.431318 L277.415589,109.809035" id="Stroke-44" stroke="#000000" stroke-width="4"></path>
                <polyline id="Stroke-46" stroke="#000000" stroke-width="4" points="388.06928 103.404823 375.590158 103.404823 362.871483 137.398709 351.592159 103.404823 338.393022 103.404823 353.826851 143.175883"></polyline>
                <path d="M377.042334,161.890421 L388.825193,111.780367" id="Stroke-48" stroke="#000000" stroke-width="4"></path>
                <path d="M304.775397,187.011005 L401.67267,174.406386" id="Stroke-50" stroke="#000000" stroke-width="4"></path>
                <polyline id="Stroke-52" stroke="#000000" stroke-width="4" points="294.234614 152.901019 282.885393 151.377242 277.194495 193.854144"></polyline>
                <path d="M296.09118,165.395924 L286.317711,213.311685" id="Stroke-54" stroke="#000000" stroke-width="4"></path>
                <path d="M265.758138,160.755299 L219.63445,78.8972826" id="Stroke-56" stroke="#000000" stroke-width="4"></path>
                <path d="M475.294333,216.676087 L371.509758,184.267799" id="Stroke-58" stroke="#000000" stroke-width="4"></path>
                <path d="M436.566301,143.301223 L442.829275,177.81413" id="Stroke-60" stroke="#000000" stroke-width="4"></path>
                <polyline id="Stroke-62" stroke="#000000" stroke-width="4" points="459.767262 165.597622 459.783549 128.342187 448.332534 128.336753"></polyline>
                <polyline id="Stroke-64" stroke="#000000" stroke-width="4" points="452.487989 190.414402 485.452579 184.243886 483.348182 172.975543 462.243135 176.92663"></polyline>
                <path d="M435.052031,214.228736 L485.326152,249.550747" id="Stroke-66" stroke="#000000" stroke-width="4"></path>
                <polyline id="Stroke-68" stroke="#000000" stroke-width="4" points="417.59809 242.31481 422.510612 249.979891 435.172961 246.953397 411.283541 211.545788"></polyline>
                <polyline id="Stroke-70" stroke="#000000" stroke-width="4" points="373.313256 240.345109 386.092327 240.345109 389.391772 231.747962 406.970715 231.747962"></polyline>
                <path d="M366.971427,165.918071 L358.671918,215.27337" id="Stroke-72" stroke="#000000" stroke-width="4"></path>
                <polygon id="Stroke-74" stroke="#000000" stroke-width="4" points="396.32271 217.407201 402.142545 201.371196 407.301406 217.407201"></polygon>
            </g>
        </g>
    </g>
</svg>