<?xml version="1.0" encoding="UTF-8"?>
<svg width="410px" height="266px" viewBox="0 0 410 266" version="1.1" xmlns="http://www.w3.org/2000/svg" xmlns:xlink="http://www.w3.org/1999/xlink">
    <!-- Generator: Sketch 49.2 (51160) - http://www.bohemiancoding.com/sketch -->
    <title>festival/logo2019</title>
    <desc>Created with Sketch.</desc>
    <defs></defs>
    <g id="festival/logo2019" stroke="none" stroke-width="1" fill="none" fill-rule="evenodd">
        <g id="Page-1" transform="translate(0.000000, -9.000000)">
            <polygon id="Fill-1" fill="#E42026" points="0 283.361 409.464 283.361 409.464 0 0 0"></polygon>
            <g id="Group-26" transform="translate(40.000000, 55.361000)">
                <path d="M3.9831,148.2109 L3.9831,159.2999 L18.5781,159.2999 C22.6141,159.2999 24.6891,156.6589 24.6891,153.6429 C24.6891,150.5489 22.5021,148.2109 18.5781,148.2109 L3.9831,148.2109 Z M0.0591,144.7409 L19.4081,144.7409 C25.2161,144.7409 28.7241,148.5879 28.7241,153.5659 C28.7241,158.8849 24.5001,162.6179 19.4081,162.6179 L3.9831,162.6179 L3.9831,174.9139 L0.0591,174.9139 L0.0591,144.7409 Z" id="Fill-2" fill="#FEFEFE"></path>
                <path d="M36.2702,162.0527 L46.4912,162.0527 L41.4372,148.7767 L36.2702,162.0527 Z M47.6982,165.2957 L34.9872,165.2957 L31.2532,174.9137 L27.2942,174.9137 L39.5892,144.7407 L43.2852,144.7407 L55.3542,174.9137 L51.3562,174.9137 L47.6982,165.2957 Z" id="Fill-4" fill="#FEFEFE"></path>
                <path d="M63.6921,148.2109 L63.6921,159.2999 L74.1401,159.2999 C78.1751,159.2999 80.2501,156.6589 80.2501,153.6429 C80.2501,150.5489 78.0621,148.2109 74.1401,148.2109 L63.6921,148.2109 Z M59.7701,144.7409 L74.9691,144.7409 C80.7781,144.7409 84.2861,148.5879 84.2861,153.5659 C84.2861,157.7159 81.7211,160.8839 78.1751,162.0909 L84.2861,174.9139 L79.9111,174.9139 L74.3291,162.6179 L63.6921,162.6179 L63.6921,174.9139 L59.7701,174.9139 L59.7701,144.7409 Z" id="Fill-6" fill="#FEFEFE"></path>
                <path d="M88.6638,153.0009 C88.6638,147.4189 93.0758,144.1379 98.8468,144.1379 C102.3538,144.1379 105.5988,144.9679 107.4458,146.0989 L106.7288,149.5679 C104.6918,148.2859 101.5618,147.6069 98.7338,147.6069 C95.1868,147.6069 92.5858,149.4559 92.5858,152.6239 C92.5858,159.8649 108.1248,156.2819 108.1248,166.5029 C108.1248,171.5579 104.3528,175.5549 97.7908,175.5549 C94.3588,175.5549 91.2278,174.9509 88.7758,173.8189 L88.9648,170.0479 C91.6808,171.3309 94.5098,172.0469 97.9038,172.0469 C102.0528,172.0469 104.1648,169.8969 104.1648,167.0309 C104.1648,159.9029 88.6638,163.2979 88.6638,153.0009" id="Fill-8" fill="#FEFEFE"></path>
                <path d="M131.8503,172.0468 C143.2413,172.0468 147.6903,167.2198 147.6903,159.6768 C147.6903,152.4358 143.2413,147.6458 131.8503,147.6458 C120.4603,147.6458 116.0093,152.3978 116.0093,159.7888 C116.0093,167.2198 120.4603,172.0468 131.8503,172.0468 M131.8873,144.1378 C145.5793,144.1378 151.7643,150.3598 151.7643,159.7508 C151.7643,169.5588 145.3143,175.5548 131.8873,175.5548 C118.4233,175.5548 111.9363,169.5208 111.9363,159.7888 C111.9363,150.4748 118.0843,144.1378 131.8873,144.1378" id="Fill-10" fill="#FEFEFE"></path>
                <polygon id="Fill-12" fill="#FEFEFE" points="186.5046 174.914 161.5356 149.682 161.5356 174.914 157.6136 174.914 157.6136 144.741 161.6876 144.741 186.6926 170.048 186.6926 144.741 190.5776 144.741 190.5776 174.914"></polygon>
                <path d="M196.6531,153.7548 C196.6531,148.1728 201.4431,144.1378 211.7401,144.1378 C217.5101,144.1378 222.3761,145.4198 225.2421,146.4758 L224.5261,149.9448 C221.1311,148.7008 216.7181,147.6078 211.6281,147.6078 C203.1781,147.6078 200.5771,150.2098 200.5771,153.3778 C200.5771,160.6188 225.9221,155.5268 225.9221,165.7488 C225.9221,170.8018 222.5271,175.5548 210.6831,175.5548 C204.9141,175.5548 199.7091,174.5358 196.7671,173.4428 L196.9561,169.6708 C200.3501,170.9538 205.1391,172.0468 210.7981,172.0468 C219.8491,172.0468 221.9611,169.1438 221.9611,166.2758 C221.9611,159.1488 196.6531,164.0518 196.6531,153.7548" id="Fill-14" fill="#FEFEFE"></path>
                <path d="M194.6013,72.5029 L194.6013,59.9009 C206.3373,50.9729 219.0823,40.2439 219.0823,32.4679 C219.0823,28.5789 215.6993,25.9149 209.9383,25.9149 C205.7613,25.9149 199.7853,27.2109 194.8883,29.5159 L192.4403,18.7139 C197.7693,15.6899 204.1053,13.7459 211.2343,13.7459 C224.2673,13.7459 233.8443,18.6429 233.8443,29.6589 C233.8443,41.5399 221.9633,51.1899 210.7303,59.6859 L210.7303,59.9009 L235.1403,59.9009 L235.1403,72.5029 L194.6013,72.5029 Z" id="Fill-16" fill="#FEFEFE"></path>
                <path d="M265.5222,61.1259 C273.0832,61.1259 274.8112,52.1969 274.8112,43.1239 C274.8112,35.9239 273.8032,26.2749 265.6672,26.2749 C257.7462,26.2749 256.0892,35.2039 256.0892,43.6289 C256.0892,52.1969 257.8182,61.1259 265.5222,61.1259 M265.4502,13.7459 C282.0842,13.7459 289.2122,26.3469 289.2122,43.6999 C289.2122,61.0539 282.0842,73.6549 265.4502,73.6549 C248.8172,73.6549 241.6882,61.0539 241.6882,43.6999 C241.6882,26.3469 248.8172,13.7459 265.4502,13.7459" id="Fill-18" fill="#FEFEFE"></path>
                <polygon id="Fill-20" fill="#FEFEFE" points="15.8542 136.0536 15.8542 123.4516 28.5992 123.4516 28.5992 93.2096 15.8542 95.0096 15.8542 82.0486 40.6252 77.2966 43.0002 77.2966 43.0002 123.4516 55.0262 123.4516 55.0262 136.0536"></polygon>
                <path d="M90.6648,102.4267 C90.5938,94.5057 87.4968,88.7457 81.4478,88.7457 C76.2638,88.7457 73.4558,92.8497 73.4558,96.8817 C73.4558,101.7067 77.4878,104.0107 82.4568,104.0107 C84.9768,104.0107 88.1448,103.4347 90.6648,102.4267 Z M62.4378,123.3087 C64.3108,123.4517 66.1838,123.5247 67.7678,123.5247 C80.2248,123.5247 86.2718,118.4117 88.9368,112.0037 C85.1208,114.0197 80.9438,115.1717 76.5518,115.1717 C66.6148,115.1717 58.3348,108.9797 58.3348,97.8187 C58.3348,85.4337 68.5598,77.2247 82.2398,77.2247 C96.9298,77.2247 105.5698,86.7297 105.5698,101.8507 C105.5698,123.3807 88.2168,137.1337 70.2158,137.1337 C68.7748,137.1337 67.4788,136.9897 66.9028,136.9897 L62.4378,123.3087 Z" id="Fill-22" fill="#FEFEFE"></path>
                <path d="M249.3786,159.8954 L253.7846,147.7644 L257.6916,159.8954 L249.3786,159.8954 Z M311.1446,157.7274 L311.0816,81.8564 L302.4096,81.8564 L302.4726,156.0804 L259.7106,133.8124 L312.3456,0.5654 L303.7516,0.5654 L252.5836,130.1014 L229.4556,118.0584 L243.2646,81.8564 L233.8146,81.8564 L224.7176,107.5694 L201.3366,36.3334 L191.3416,36.3334 L217.8676,111.9394 L155.0666,78.7354 L155.0666,51.5074 L183.9856,51.5074 L183.9856,42.8364 L134.4726,42.8364 L134.4726,51.5074 L146.3946,51.5074 L146.3946,73.9744 L72.6296,36.3334 L87.8646,36.3334 L87.8646,28.7464 L70.5236,28.7464 L70.5236,22.2434 L83.5296,22.2434 L83.5296,14.6554 L70.5236,14.6554 L70.5236,8.1524 L243.2646,8.1394 L243.2646,0.5524 L60.7686,0.5654 L60.7686,29.8404 L26.5216,12.4884 L0.0706,12.4884 L0.0586,136.0494 L8.7296,136.0494 L8.7416,34.1654 L23.9166,34.1654 L23.9166,26.5784 L8.7416,26.5784 L8.7416,20.0754 L23.8656,20.0754 L95.9196,57.6944 C91.6326,59.4564 88.8036,62.9534 88.8036,68.1644 C88.8036,81.0204 107.3846,77.8014 107.3846,83.2534 C107.3846,84.9344 106.3846,86.3244 102.3866,86.3244 C97.7986,86.3244 93.6646,85.2694 89.8936,83.4524 L89.5306,91.7614 C93.3016,93.5334 97.9806,94.0764 102.1146,94.0764 C111.7906,94.0764 116.4246,88.3504 116.4246,81.8534 C116.4246,69.6324 97.7986,72.9494 97.7986,67.0434 C97.7986,65.1344 99.7396,64.0954 102.5526,63.9504 C105.3876,63.8024 108.8386,64.3274 112.6486,66.1424 L175.6596,99.0574 L175.6596,136.0494 L184.3296,136.0494 L184.3296,103.6314 L249.1546,139.3014 L249.1506,139.3014 L234.5676,175.0694 L244.2446,175.0694 L246.7436,168.5664 L260.0546,168.5664 L262.3256,175.0694 L272.1846,175.0694 L260.8086,144.8174 L302.0076,166.3984 L327.4016,166.3984 L327.4016,157.7274 L311.1446,157.7274 Z" id="Fill-24" fill="#020303"></path>
            </g>
        </g>
    </g>
</svg>