<?xml version="1.0" encoding="UTF-8"?>
<svg width="1400px" height="300px" viewBox="0 0 1400 300" version="1.1" xmlns="http://www.w3.org/2000/svg" xmlns:xlink="http://www.w3.org/1999/xlink">
    <!-- Generator: Sketch 49.2 (51160) - http://www.bohemiancoding.com/sketch -->
    <title>festical/logo</title>
    <desc>Created with Sketch.</desc>
    <defs>
        <polygon id="path-1" points="0 389 1679.76424 389 1679.76424 0.730937984 0 0.730937984"></polygon>
    </defs>
    <g id="festical/logo" stroke="none" stroke-width="1" fill="none" fill-rule="evenodd">
        <g id="Page-1" transform="translate(-140.000000, -45.000000)">
            <polygon id="Fill-1" fill="#E4251F" points="0 389 1680 389 1680 1 0 1"></polygon>
            <g id="Group-29">
                <path d="M277.719979,172.708499 L277.719979,193.307228 L316.885764,193.307228 C326.726429,193.307228 328.934445,187.681678 328.934445,182.556243 C328.934445,178.33405 326.726429,172.708499 316.885764,172.708499 L277.719979,172.708499 Z M257.632786,154.619445 L319.796469,154.619445 C339.780681,154.619445 349.721298,167.379988 349.721298,182.053096 C349.721298,199.639003 335.36162,210.393019 319.796469,210.393019 L277.719979,210.393019 L277.719979,235.013895 L257.632786,235.013895 L257.632786,154.619445 Z" id="Fill-2" fill="#FEFEFE"></path>
                <path d="M375.725005,203.256814 L394.100909,203.256814 L385.465718,176.426333 L375.725005,203.256814 Z M399.32261,219.639411 L369.900567,219.639411 L364.375983,235.015713 L342.986394,235.015713 L375.222219,154.621264 L395.90912,154.621264 L426.136832,235.015713 L404.344408,235.015713 L399.32261,219.639411 Z" id="Fill-4" fill="#FEFEFE"></path>
                <path d="M454.546943,172.708499 L454.546943,193.307228 L480.658477,193.307228 C489.49357,193.307228 492.207401,187.681678 492.207401,182.556243 C492.207401,178.33405 489.49357,172.708499 480.658477,172.708499 L454.546943,172.708499 Z M434.462779,154.619445 L484.574752,154.619445 C503.553394,154.619445 512.994253,167.379988 512.994253,182.053096 C512.994253,193.710352 506.866932,202.351755 498.634576,206.874019 L512.79435,235.013895 L490.196259,235.013895 L479.050168,210.393019 L454.546943,210.393019 L454.546943,235.013895 L434.462779,235.013895 L434.462779,154.619445 Z" id="Fill-6" fill="#FEFEFE"></path>
                <path d="M520.716858,179.140298 C520.716858,162.15453 534.273896,153.006949 551.747209,153.006949 C561.890757,153.006949 573.036847,155.622709 579.364071,159.241732 L575.547746,176.32146 C568.817689,172.305375 558.774092,170.192763 551.044521,170.192763 C544.820278,170.192763 540.59809,172.605445 540.59809,176.824608 C540.59809,189.888251 581.775018,182.553212 581.775018,209.589802 C581.775018,223.956778 571.52849,236.620329 550.138901,236.620329 C541.003954,236.620329 530.660503,235.413988 522.325166,231.497926 L523.127806,213.105771 C531.463143,217.124887 540.59809,219.434515 550.744667,219.434515 C559.58279,219.434515 561.790806,216.32167 561.790806,212.602623 C561.790806,200.545274 520.716858,207.577212 520.716858,179.140298" id="Fill-8" fill="#FEFEFE"></path>
                <path d="M642.523632,219.737919 C662.304914,219.737919 676.164834,211.699686 676.164834,194.010725 C676.164834,177.93426 662.304914,169.892996 642.623584,169.892996 C622.942254,169.892996 609.082333,177.731182 609.082333,194.616926 C609.082333,211.596632 622.942254,219.737919 642.523632,219.737919 M642.823486,153.007252 C674.456575,153.007252 696.851735,167.277236 696.851735,194.413849 C696.851735,222.653748 672.851295,236.620632 642.723535,236.620632 C612.395872,236.620632 588.395432,222.453702 588.395432,194.513872 C588.395432,168.186539 610.48771,153.007252 642.823486,153.007252" id="Fill-10" fill="#FEFEFE"></path>
                <polygon id="Fill-12" fill="#FEFEFE" points="731.891953 183.561022 728.875239 183.561022 728.875239 235.01541 708.797133 235.01541 708.797133 154.62096 732.291758 154.62096 779.090193 204.865976 782.103877 204.865976 782.103877 154.62096 802.185012 154.62096 802.185012 235.01541 779.493027 235.01541"></polygon>
                <path d="M814.52961,179.140298 C814.52961,162.15453 833.108446,153.006949 858.611185,153.006949 C875.784644,153.006949 892.958104,155.622709 899.282298,159.241732 L895.472032,176.32146 C888.738945,172.305375 871.671495,170.192763 857.908497,170.192763 C840.940997,170.192763 834.410843,172.605445 834.410843,176.824608 C834.410843,191.59774 901.693246,177.430809 901.693246,209.589802 C901.693246,223.956778 887.43352,236.620329 857.005906,236.620329 C842.84916,236.620329 824.470226,235.413988 816.134889,231.497926 L816.9345,213.105771 C825.269837,217.124887 840.438212,219.434515 857.611671,219.434515 C875.081956,219.434515 881.709034,216.32167 881.709034,212.602623 C881.709034,198.835786 814.52961,212.402577 814.52961,179.140298" id="Fill-14" fill="#FEFEFE"></path>
                <polygon id="Fill-16" fill="#1D1D1B" points="954.506329 199.638094 954.506329 235.012985 944.062927 235.012985 944.062927 154.618536 994.171871 154.618536 994.171871 163.863109 954.506329 163.863109 954.506329 190.293497 982.323093 190.293497 982.323093 199.638094"></polygon>
                <polygon id="Fill-18" fill="#1D1D1B" points="1004.41264 235.014198 1004.41264 154.619748 1054.41861 154.619748 1054.41861 163.864322 1014.85605 163.864322 1014.85605 190.294709 1042.56983 190.294709 1042.56983 199.339236 1014.85605 199.339236 1014.85605 225.769624 1054.41861 225.769624 1054.41861 235.014198"></polygon>
                <path d="M1063.55446,176.625774 C1063.55446,161.75565 1075.30026,153.008161 1090.66854,153.008161 C1100.00642,153.008161 1108.64161,155.220797 1113.56043,158.233619 L1111.65227,167.481223 C1106.23066,164.065278 1097.89533,162.252735 1090.36566,162.252735 C1080.92783,162.252735 1073.99787,167.181153 1073.99787,175.619479 C1073.99787,194.914874 1115.37167,185.3672 1115.37167,212.603836 C1115.37167,226.070603 1105.32807,236.724595 1087.85173,236.724595 C1078.71678,236.724595 1070.38144,235.11513 1063.85432,232.099278 L1064.3571,222.048456 C1071.58692,225.467433 1079.11659,227.376967 1088.15764,227.376967 C1099.20378,227.376967 1104.82529,221.648363 1104.82529,214.010223 C1104.82529,195.017929 1063.55446,204.062456 1063.55446,176.625774" id="Fill-20" fill="#1D1D1B"></path>
                <polygon id="Fill-22" fill="#1D1D1B" points="1159.55289 163.864019 1159.55289 235.013895 1149.20641 235.013895 1149.20641 163.864019 1119.28158 163.864019 1119.28158 154.619445 1189.5807 154.619445 1189.5807 163.864019"></polygon>
                <mask id="mask-2" fill="white">
                    <use xlink:href="#path-1"></use>
                </mask>
                <g id="Clip-25"></g>
                <polygon id="Fill-24" fill="#1D1D1B" mask="url(#mask-2)" points="1199.01035 235.015713 1209.45375 235.015713 1209.45375 154.621264 1199.01035 154.621264"></polygon>
                <polygon id="Fill-26" fill="#1D1D1B" mask="url(#mask-2)" points="1258.25879 224.661791 1286.07555 154.621264 1296.42203 154.621264 1263.68039 235.015713 1252.83718 235.015713 1220.70131 154.621264 1231.4476 154.621264"></polygon>
                <path d="M1314.08798,200.745321 L1341.30503,200.745321 L1327.84492,165.370429 L1314.08798,200.745321 Z M1344.51559,209.389755 L1310.67146,209.389755 L1300.73084,235.013895 L1290.18446,235.013895 L1322.9261,154.619445 L1332.76677,154.619445 L1364.89961,235.013895 L1354.25631,235.013895 L1344.51559,209.389755 Z" id="Fill-27" fill="#1D1D1B" mask="url(#mask-2)"></path>
                <polygon id="Fill-28" fill="#1D1D1B" mask="url(#mask-2)" points="1376.64359 154.620051 1387.08699 154.620051 1387.08699 225.769927 1422.13054 225.769927 1422.13054 235.014501 1376.64359 235.014501"></polygon>
            </g>
        </g>
    </g>
</svg>