<?xml version="1.0" encoding="UTF-8"?>
<svg width="400px" height="266px" viewBox="0 0 400 266" version="1.1" xmlns="http://www.w3.org/2000/svg" xmlns:xlink="http://www.w3.org/1999/xlink">
    <!-- Generator: Sketch 49.2 (51160) - http://www.bohemiancoding.com/sketch -->
    <title>festival/og</title>
    <desc>Created with Sketch.</desc>
    <defs>
        <polygon id="path-1" points="0 0.0004 327.3302 0.0004 327.3302 174.504 0 174.504"></polygon>
    </defs>
    <g id="festival/og" stroke="none" stroke-width="1" fill="none" fill-rule="evenodd">
        <g id="Page-1" transform="translate(36.000000, 45.000000)">
            <mask id="mask-2" fill="white">
                <use xlink:href="#path-1"></use>
            </mask>
            <g id="Clip-2"></g>
            <path d="M249.3072,159.3294 L253.7132,147.1994 L257.6202,159.3294 L249.3072,159.3294 Z M244.1732,174.5044 L246.6722,168.0004 L259.9832,168.0004 L262.2542,174.5044 L272.1132,174.5044 L260.7372,144.2524 L301.9362,165.8334 L327.3302,165.8334 L327.3302,157.1624 L311.0732,157.1624 L311.0732,128.9804 L302.4012,128.9804 L302.4012,155.5144 L229.3842,117.4934 L243.7262,81.2904 L234.2772,81.2904 L224.6462,107.0044 L216.1052,81.2904 L206.1102,81.2904 L217.7962,111.3744 L154.9942,78.1704 L154.9942,50.9414 L165.8322,50.9414 L165.8322,42.2704 L134.4012,42.2704 L134.4012,50.9414 L146.3232,50.9414 L146.3232,73.4084 L72.5582,35.7674 L87.7932,35.7674 L87.7932,28.1814 L70.4522,28.1814 L70.4522,21.6774 L83.4582,21.6774 L83.4582,14.0904 L70.4522,14.0904 L70.4522,7.5874 L87.7932,7.5874 L87.7932,0.0004 L60.6972,0.0004 L60.6972,29.2754 L26.4502,11.9224 L-0.0008,11.9224 L-0.0008,47.6904 L8.6712,47.6904 L8.6712,33.6004 L23.8452,33.6004 L23.8452,26.0134 L8.6712,26.0134 L8.6712,19.5104 L23.7942,19.5104 L95.8482,57.1294 C91.5612,58.8914 88.7322,62.3884 88.7322,67.5984 C88.7322,80.4544 107.3132,77.2364 107.3132,82.6884 C107.3132,84.3694 106.3132,85.7594 102.3152,85.7594 C97.7272,85.7594 93.5932,84.7044 89.8222,82.8874 L89.4592,91.1964 C93.2302,92.9684 97.9092,93.5114 102.0432,93.5114 C111.7192,93.5114 116.3532,87.7854 116.3532,81.2884 C116.3532,69.0674 97.7272,72.3844 97.7272,66.4774 C97.7272,64.5694 99.6682,63.5304 102.4812,63.3844 C105.3162,63.2374 108.7672,63.7624 112.5772,65.5774 L175.5872,98.4914 L175.5872,135.4844 L184.2592,135.4844 L184.2592,103.0664 L249.0832,138.7354 L249.0792,138.7354 L234.4962,174.5044 L244.1732,174.5044 Z" id="Fill-1" fill="#E42026" mask="url(#mask-2)"></path>
        </g>
    </g>
</svg>