<?xml version="1.0" encoding="UTF-8"?>
<svg width="1400px" height="300px" viewBox="0 0 1400 300" version="1.1" xmlns="http://www.w3.org/2000/svg" xmlns:xlink="http://www.w3.org/1999/xlink">
    <!-- Generator: Sketch 49.2 (51160) - http://www.bohemiancoding.com/sketch -->
    <title>monkeybars/logo</title>
    <desc>Created with Sketch.</desc>
    <defs>
        <polygon id="path-1" points="84.961891 118.876229 84.961891 0.0241268617 0.0878027036 0.0241268617 0.0878027036 118.876229 84.961891 118.876229"></polygon>
    </defs>
    <g id="monkeybars/logo" stroke="none" stroke-width="1" fill="none" fill-rule="evenodd">
        <rect id="Rectangle" fill="#0000FF" x="0" y="0" width="1787" height="300"></rect>
        <g id="Logo-/-White" transform="translate(101.000000, 91.000000)">
            <g id="Group-65">
                <g id="Group-53" transform="translate(1112.186278, 0.000000)">
                    <mask id="mask-2" fill="white">
                        <use xlink:href="#path-1"></use>
                    </mask>
                    <g id="Clip-52"></g>
                    <path d="M43.9375221,69.5791242 L59.7646104,51.477489 C62.6644858,52.6739163 65.2599941,53.9921357 67.5223762,55.4416993 L47.3167157,71.0573448 C46.5306338,70.6657 45.7349655,70.2764432 44.8338472,69.9206195 C44.5630324,69.8131559 44.2203199,69.6889758 43.9375221,69.5791242 Z M34.1522402,66.0399919 L50.0248638,48.1222387 C51.7360299,48.6308994 53.447196,49.1395601 55.1343962,49.7055347 L39.2689625,67.8525435 C38.4613112,67.565974 37.706385,67.291345 36.8196462,66.985671 C35.9233211,66.7062658 35.0461688,66.3385017 34.1522402,66.0399919 Z M21.6108785,60.9820415 L42.8782288,45.6195324 C43.6259653,45.9490872 44.3760983,46.2738659 45.1837495,46.5699876 L29.4237658,64.3635607 C28.3668691,63.9719159 27.2860064,63.6495253 26.2434893,63.2363877 C24.6162038,62.5963826 23.0704025,61.8417498 21.6108785,60.9820415 Z M11.5044534,50.1879266 C11.3846238,49.9395664 11.3007431,49.6458328 11.1904999,49.3855322 L37.5793657,42.3717456 C37.8597668,42.6177177 38.1162021,42.8780182 38.4229658,43.1096618 L17.5989848,58.1497804 C17.5750189,58.1306758 17.5438632,58.1139592 17.5198973,58.0924665 C15.0490118,56.0267786 13.0286854,53.3688472 11.5044534,50.1879266 Z M11.7009738,24.2247368 C13.3426388,20.1984364 15.6817118,16.6999014 18.6558815,13.8270429 C21.6180682,10.9541844 25.3208017,8.68789792 29.6538385,7.0878853 C38.2024794,3.93562165 49.19085,3.87114353 60.7496094,6.79653972 C65.6338623,8.03595248 70.4342345,9.81029483 75.0404828,12.0837456 L66.1251635,29.5071665 C63.6063461,27.7232719 61.0731492,26.328634 58.5663148,25.3495218 C50.8421014,22.3572594 43.1969754,22.8993532 38.4661044,26.4456499 C36.2540507,28.093424 34.8448551,30.2331424 34.317605,32.7215202 L9.52726562,32.7215202 C9.90832362,29.6838843 10.6368873,26.8349067 11.7009738,24.2247368 Z M9.21331217,37.915591 C9.21331217,37.7293209 9.21810536,37.5454389 9.21810536,37.3615568 L34.3223982,37.3615568 C34.4014857,37.7102163 34.5644539,38.0111142 34.6794903,38.340669 L9.83882248,44.9437061 C9.42900538,42.8374209 9.21331217,40.4971039 9.21331217,37.915591 Z M77.7558206,66.8853717 L52.6515277,74.8830466 C52.3016254,74.4866256 51.8510663,74.1260258 51.4292662,73.7558736 L71.4192335,58.3026174 C72.524062,59.2602369 73.561786,60.2417372 74.4317486,61.2853275 C75.8121851,62.9354898 76.8618921,64.8507288 77.7558206,66.8853717 Z M80.303397,79.8168169 L80.303397,80.0842817 L55.1128269,80.0890578 C55.0505155,79.7236818 54.8875473,79.4180078 54.7964769,79.0717364 L79.2441037,71.2842123 C79.8911834,73.9110987 80.303397,76.717091 80.303397,79.8168169 Z M84.8808862,81.9732518 C84.9216283,81.2616044 84.9623703,80.549957 84.9623703,79.8168169 C84.9623703,71.0692852 82.6232973,63.8357954 78.017049,58.3145578 C76.6917341,56.7312618 75.0788282,55.2649815 73.3125405,53.8655675 C73.0585018,53.545565 72.7277722,53.3425783 72.3730768,53.1969055 C68.214991,50.0995677 63.0551302,47.4368601 56.7281294,45.3377391 C54.5256621,44.5998228 52.2968322,43.9216085 50.0368467,43.267275 C50.0200706,43.2624989 50.0032945,43.2577227 49.9841217,43.2505585 C49.8690853,43.2171254 49.7564456,43.1789161 49.6414092,43.145483 C47.4389419,42.5221945 45.4377882,41.7747259 43.6786903,40.9150177 C42.0825605,40.1484445 40.7955911,39.2409746 39.8393512,38.2045485 C39.0988045,37.4069303 38.7345226,36.3705042 38.7345226,35.0403445 C38.7345226,32.9937612 39.5349841,31.4438982 41.2629263,30.1567239 C44.6780688,27.5990918 50.715082,27.2862535 56.8695283,29.6695559 C59.6855229,30.7704601 62.5830017,32.5113693 65.4708941,34.8397459 C66.0221101,35.2791523 66.7267079,35.4415417 67.4217193,35.3030331 C68.109541,35.1573603 68.6919127,34.7107896 69.0106593,34.0875011 L80.2458789,12.1315072 C80.8234573,11.0043341 80.3848811,9.62641278 79.2680696,9.02939315 C73.7127712,6.07772809 67.8674853,3.81382964 61.89518,2.29739978 C49.3993535,-0.857251961 37.4930884,-0.74501227 28.0361395,2.73680622 C23.0919718,4.56129822 18.8380224,7.17385613 15.4132936,10.4980614 C11.9693921,13.8198787 9.27322695,17.8509552 7.38950627,22.4766633 C5.84610153,26.2474393 4.92341392,30.4265768 4.64540934,34.8970598 C4.64301275,34.9567617 4.66937525,35.0092995 4.67177184,35.0690014 C4.61185706,36.0075163 4.55433887,36.9460311 4.55433887,37.915591 C4.55433887,43.6063822 5.47942308,48.4111962 7.30322898,52.1915245 C9.11265534,55.9694647 11.5427988,59.1503853 14.5217617,61.6435393 C14.9171992,61.9778703 15.3821379,62.2286185 15.7943516,62.5438449 C16.0507869,62.8375786 16.355154,63.0501175 16.6978665,63.1838499 C19.1016475,64.9032665 21.6707932,66.4268606 24.5227368,67.5492575 C25.8192926,68.0626944 27.1398144,68.4615035 28.4531464,68.9415073 C28.4579395,68.9462834 28.4579395,68.9510596 28.4627327,68.9558357 C28.9084987,69.3450925 29.4549215,69.5361388 30.0061375,69.5361388 C30.0301034,69.5361388 30.0540693,69.5218104 30.0804318,69.5194223 C31.8491161,70.1450988 33.6106106,70.8448059 35.3625188,71.3940639 C36.7357656,71.8645154 37.9891828,72.3110861 39.177892,72.7433283 C39.1802886,72.7457164 39.1826852,72.7457164 39.1850818,72.7457164 C40.6158467,73.2663175 41.9411616,73.7654259 43.1106982,74.2311012 C45.0471438,74.9952863 46.6336872,75.8335019 47.8271896,76.7218671 C48.8553273,77.4932165 49.5862876,78.3194917 50.0008979,79.1720357 C50.4274911,80.062789 50.6383911,81.1230958 50.6383911,82.4102702 C50.6383911,84.4329727 49.7732217,86.2240316 47.994951,87.8837462 C46.1879213,89.5625654 43.2592868,90.4127213 39.283342,90.4127213 C35.6093677,90.4127213 31.8011843,89.5625654 27.9810179,87.8909104 C24.0769708,86.1643296 20.0650771,83.4944578 16.0579767,79.9481612 C15.5211402,79.4777097 14.7997663,79.2794992 14.097565,79.4012912 C13.3977604,79.5278594 12.7938194,79.9672658 12.4559001,80.5953305 L0.360304267,103.274912 C-0.193308301,104.313726 0.120645147,105.598513 1.08407481,106.269563 C13.1437217,114.635002 26.4304234,118.876229 40.584691,118.876229 C47.4221657,118.876229 53.6533029,117.944879 59.1199274,116.10367 C64.6248974,114.233805 69.3509752,111.566321 73.1711416,108.172861 C77.0200671,104.736416 79.9798572,100.566831 81.9786143,95.7835099 C83.6466418,91.7787022 84.624451,87.3201596 84.888076,82.5296741 C84.8928692,82.4628079 84.8617135,82.3983298 84.8593169,82.3314636 L84.8808862,81.9732518 Z" id="Fill-51" fill="#FFFFFF" mask="url(#mask-2)"></path>
                </g>
                <path d="M728.186318,59.2786251 L705.442667,59.2786251 L717.456779,38.6336862 C717.456779,38.6312982 717.456779,38.6312982 717.456779,38.6312982 L735.663682,7.66508388 L760.382124,7.66508388 L728.186318,59.2786251 Z M703.582912,111.221721 L727.153387,111.221721 L727.153387,105.113016 L703.582912,105.113016 L703.582912,111.221721 Z M703.582912,70.8655821 L727.153387,70.8655821 L727.153387,63.9186617 L703.582912,63.9186617 L703.582912,70.8655821 Z M703.582912,100.470592 L727.153387,100.470592 L727.153387,95.2430878 L703.582912,95.2430878 L703.582912,100.470592 Z M703.582912,80.7331226 L727.153387,80.7331226 L727.153387,75.5080068 L703.582912,75.5080068 L703.582912,80.7331226 Z M703.582912,90.6030512 L727.153387,90.6030512 L727.153387,85.3755473 L703.582912,85.3755473 L703.582912,90.6030512 Z M764.571365,3.02265922 L734.331177,3.02265922 C733.504353,3.02265922 732.739841,3.46206567 732.320437,4.171325 L715.441246,32.8760289 L698.56445,4.171325 C698.147443,3.46206567 697.382931,3.02265922 696.556107,3.02265922 L666.311126,3.02265922 C665.465129,3.02265922 664.686237,3.4811703 664.274023,4.21669849 C663.864206,4.95222668 663.885776,5.85492036 664.331542,6.57134392 L698.923939,62.0296916 L698.923939,113.542934 C698.923939,114.82772 699.966456,115.864146 701.253426,115.864146 L701.33491,115.864146 L729.401389,115.864146 L729.482873,115.864146 C730.769843,115.864146 731.81236,114.82772 731.81236,113.542934 L731.81236,62.2637233 L766.548553,6.57134392 C766.994319,5.85492036 767.018285,4.95222668 766.608468,4.21669849 C766.193858,3.4811703 765.417362,3.02265922 764.571365,3.02265922 Z" id="Fill-54" fill="#FFFFFF"></path>
                <path d="M611.021048,26.8454142 L649.239488,26.8454142 L649.239488,7.66436746 L611.021048,7.66436746 L611.021048,26.8454142 Z M611.021048,111.223393 L649.239488,111.223393 L649.239488,92.0423461 L611.021048,92.0423461 L611.021048,111.223393 Z M582.801186,111.223393 L606.364471,111.223393 L606.364471,105.995889 L582.801186,105.995889 L582.801186,111.223393 Z M606.359678,7.66436746 L606.362075,12.5312715 L582.801186,12.5312715 L582.801186,7.66436746 L606.359678,7.66436746 Z M582.801186,101.353464 L606.364471,101.353464 L606.364471,96.1259604 L582.801186,96.1259604 L582.801186,101.353464 Z M606.362075,22.4012001 L582.801186,22.4012001 L582.801186,17.1713081 L606.362075,17.1713081 L606.362075,22.4012001 Z M582.801186,42.1386691 L606.364471,42.1386691 L606.364471,36.9111652 L582.801186,36.9111652 L582.801186,42.1386691 Z M582.801186,61.8785262 L606.364471,61.8785262 L606.364471,56.6510223 L582.801186,56.6510223 L582.801186,61.8785262 Z M582.801186,52.0085977 L606.364471,52.0085977 L606.364471,46.7810938 L582.801186,46.7810938 L582.801186,52.0085977 Z M582.801186,71.7436786 L606.364471,71.7436786 L606.364471,66.5185628 L582.801186,66.5185628 L582.801186,71.7436786 Z M582.801186,81.6136072 L606.364471,81.6136072 L606.364471,76.3861033 L582.801186,76.3861033 L582.801186,81.6136072 Z M606.364471,91.4835357 L582.801186,91.4835357 L582.801186,86.2560318 L606.364471,86.2560318 L606.364471,89.7211338 L606.364471,91.4835357 Z M606.364471,32.2687405 L582.801186,32.2687405 L582.801186,27.0412366 L606.364471,27.0412366 L606.364471,29.1666265 L606.364471,32.2687405 Z M651.568974,3.02433088 L608.693958,3.02433088 L608.689165,3.02433088 L580.4717,3.02433088 C579.18473,3.02433088 578.142213,4.06075696 578.142213,5.34315513 L578.142213,113.544605 C578.142213,114.827003 579.18473,115.865818 580.4717,115.865818 L608.693958,115.865818 L651.568974,115.865818 C652.855944,115.865818 653.898461,114.827003 653.898461,113.544605 L653.898461,89.7211338 C653.898461,88.4387356 652.855944,87.3999214 651.568974,87.3999214 L611.021048,87.3999214 L611.021048,66.5185628 L640.37929,66.5185628 C641.66626,66.5185628 642.708777,65.4821367 642.708777,64.1997385 L642.708777,44.4598814 C642.708777,43.1774833 641.66626,42.1386691 640.37929,42.1386691 L611.021048,42.1386691 L611.021048,31.4878389 L651.568974,31.4878389 C652.855944,31.4878389 653.898461,30.4490247 653.898461,29.1666265 L653.898461,5.34315513 C653.898461,4.06075696 652.855944,3.02433088 651.568974,3.02433088 Z" id="Fill-56" fill="#FFFFFF"></path>
                <path d="M385.532971,111.223393 L408.957254,111.223393 L408.957254,105.995889 L385.532971,105.995889 L385.532971,111.223393 Z M328.74095,111.223393 L305.177665,111.223393 L305.177665,7.66436746 L328.74095,7.66436746 L328.74095,47.3852776 L328.74095,111.223393 Z M385.396366,12.5312715 L408.957254,12.5312715 L408.957254,7.66675554 L385.396366,7.66675554 L385.396366,12.5312715 Z M385.532971,101.353464 L408.957254,101.353464 L408.957254,96.1259604 L385.532971,96.1259604 L385.532971,101.353464 Z M385.396366,22.4012001 L408.957254,22.4012001 L408.957254,17.1736962 L385.396366,17.1736962 L385.396366,22.4012001 Z M385.532971,91.4835357 L408.957254,91.4835357 L408.957254,86.2560318 L385.532971,86.2560318 L385.532971,91.4835357 Z M385.532971,81.6136072 L408.957254,81.6136072 L408.957254,76.3861033 L385.532971,76.3861033 L385.532971,81.6136072 Z M408.957254,66.5185628 L408.957254,71.7460667 L385.532971,71.7460667 L385.532971,71.5024827 C385.532971,71.359198 385.422728,71.2445702 385.396366,71.1036736 L385.396366,66.5185628 L408.957254,66.5185628 Z M385.396366,61.8785262 L408.957254,61.8785262 L408.957254,56.6510223 L385.396366,56.6510223 L385.396366,61.8785262 Z M385.396366,52.0085977 L408.957254,52.0085977 L408.957254,46.7810938 L385.396366,46.7810938 L385.396366,52.0085977 Z M385.396366,32.2687405 L408.957254,32.2687405 L408.957254,27.0412366 L385.396366,27.0412366 L385.396366,32.2687405 Z M385.396366,42.1386691 L408.957254,42.1386691 L408.957254,36.9111652 L385.396366,36.9111652 L385.396366,42.1386691 Z M411.28674,3.02433088 L383.066879,3.02433088 C381.779909,3.02433088 380.737392,4.06075696 380.737392,5.34315513 L380.737392,64.6152642 L332.901432,3.91269609 C332.882259,3.88642723 332.843914,3.88403915 332.824741,3.86015836 C332.553926,3.54254392 332.211214,3.30851222 331.80619,3.17239175 C331.719912,3.14134673 331.640825,3.13895865 331.554548,3.11985402 C331.393976,3.08642092 331.242991,3.02433088 331.070436,3.02433088 L302.848178,3.02433088 C301.561209,3.02433088 300.518692,4.06075696 300.518692,5.34315513 L300.518692,113.544605 C300.518692,114.827003 301.561209,115.865818 302.848178,115.865818 L331.070436,115.865818 C332.357406,115.865818 333.399923,114.827003 333.399923,113.544605 L333.399923,54.0957783 L380.90755,114.382821 C381.24547,115.247305 382.077087,115.865818 383.066879,115.865818 L411.28674,115.865818 C412.57371,115.865818 413.616227,114.827003 413.616227,113.544605 L413.616227,5.34315513 C413.616227,4.06075696 412.57371,3.02433088 411.28674,3.02433088 Z" id="Fill-58" fill="#FFFFFF"></path>
                <path d="M113.071947,111.223393 L97.5012938,7.66436746 L118.751868,7.66436746 L136.390779,111.223393 L113.071947,111.223393 Z M5.8125075,111.223393 L6.70403943,105.995889 L30.0492343,105.995889 L29.1648922,111.223393 L5.8125075,111.223393 Z M46.6695943,7.66436746 L45.8475636,12.5312715 L22.6269914,12.5312715 L23.4562119,7.66436746 L46.6695943,7.66436746 Z M37.5074262,61.8785262 L14.2197494,61.8785262 L15.1112814,56.6510223 L38.3893717,56.6510223 L37.5074262,61.8785262 Z M8.38404986,96.1259604 L31.7172618,96.1259604 L30.8329197,101.353464 L7.49491453,101.353464 L8.38404986,96.1259604 Z M12.5277561,71.8129329 L13.4288743,66.5185628 L36.7213443,66.5185628 L35.8274157,71.8129329 L12.5277561,71.8129329 Z M33.3733063,86.3252861 L32.5009471,91.4835357 L9.17492496,91.4835357 L10.0544739,86.3252861 L33.3733063,86.3252861 Z M10.845349,81.6828615 L11.736881,76.4553576 L35.0437304,76.4553576 L34.1593883,81.6828615 L10.845349,81.6828615 Z M44.1795361,22.4012001 L20.946981,22.4012001 L21.8361163,17.1713081 L45.0638782,17.1713081 L44.1795361,22.4012001 Z M40.0597958,46.7810938 L39.1754536,52.0085977 L15.9021565,52.0085977 L16.7912918,46.7810938 L40.0597958,46.7810938 Z M41.7278233,36.9111652 L40.8434811,42.1386691 L17.5821669,42.1386691 L18.4736988,36.9111652 L41.7278233,36.9111652 Z M42.5115086,32.2687405 L19.2645739,32.2687405 L20.1561059,27.0412366 L43.3958508,27.0412366 L42.5115086,32.2687405 Z M120.717073,3.02433088 L94.7979389,3.02433088 C94.3977082,3.02433088 94.0262365,3.15328712 93.683524,3.34194532 C93.6020399,3.38731882 93.5469183,3.44940886 93.4702274,3.50194659 C93.3216387,3.60941012 93.1538773,3.68821671 93.0340478,3.83150142 C92.9046318,3.97956229 92.8447171,4.16344434 92.7584398,4.33538599 C92.7248875,4.40225219 92.6458,4.42852105 92.6170409,4.50016341 L72.2603952,56.5125138 L51.771937,4.49777533 C51.5346745,3.89597954 51.0385801,3.52582737 50.4729846,3.2894076 C50.1494448,3.12701826 49.7947493,3.02433088 49.4256742,3.02433088 L21.4886106,3.02433088 C20.3550229,3.02433088 19.3844035,3.83866566 19.1926762,4.95628641 L0.755700061,113.155348 C0.643060274,113.828787 0.83239098,114.518941 1.27576035,115.04193 C1.71673313,115.562532 2.36620935,115.865818 3.05403103,115.865818 L31.1348902,115.865818 C32.2708744,115.865818 33.2438904,115.046707 33.4308245,113.929086 L42.2143313,61.9740494 L63.5128373,114.132072 C63.8675328,115.008497 64.7207193,115.579248 65.6673728,115.579248 L77.3747208,115.579248 C78.3069948,115.579248 79.1481983,115.025214 79.5148768,114.17267 L101.21601,63.7030182 L108.762876,113.888488 C108.933034,115.022826 109.91324,115.865818 111.066,115.865818 L139.146859,115.865818 C139.834681,115.865818 140.484157,115.562532 140.92513,115.04193 C141.368499,114.518941 141.55783,113.828787 141.44519,113.155348 L123.015404,4.95628641 C122.823676,3.83866566 121.853057,3.02433088 120.717073,3.02433088 Z" id="Fill-59" fill="#FFFFFF"></path>
                <path d="M962.947045,111.223393 L961.11605,105.995889 L986.009442,105.995889 L988.005803,111.223393 L962.947045,111.223393 Z M901.639846,111.223393 L879.857228,111.223393 L902.703932,46.2939257 L916.141619,7.66436746 L921.718487,7.66436746 L930.93338,34.5445794 L916.155999,73.2290635 C916.153602,73.2338396 916.148809,73.2362277 916.146412,73.2410039 L908.609133,92.980861 C908.609133,92.980861 908.609133,92.983249 908.609133,92.983249 L901.639846,111.223393 Z M948.450065,7.66436746 L950.30982,12.5312715 L928.371424,12.5312715 L926.667448,7.66436746 L948.450065,7.66436746 Z M957.657768,96.1259604 L982.239604,96.1259604 L984.235965,101.353464 L959.488764,101.353464 L957.657768,96.1259604 Z M944.284789,71.7460667 L921.706504,71.7460667 L933.459387,40.9852272 L944.284789,71.7460667 Z M954.079658,22.4012001 L931.829705,22.4012001 L929.996313,17.1713081 L952.080901,17.1713081 L954.079658,22.4012001 Z M935.287986,32.2687405 L933.454594,27.0412366 L955.850739,27.0412366 L957.849496,32.2687405 L935.287986,32.2687405 Z M938.743871,42.1386691 L936.912875,36.9111652 L959.620577,36.9111652 L961.619334,42.1386691 L938.743871,42.1386691 Z M942.202152,52.0085977 L940.371156,46.7810938 L963.390415,46.7810938 L965.389172,52.0085977 L942.202152,52.0085977 Z M945.660433,61.8785262 L943.827041,56.6510223 L967.160253,56.6510223 L969.156613,61.8785262 L945.660433,61.8785262 Z M949.116317,71.7460667 L947.285322,66.5185628 L970.93009,66.5185628 L972.926451,71.7460667 L949.116317,71.7460667 Z M952.670462,81.6159953 L950.84426,76.3861033 L974.699928,76.3861033 L976.696289,81.6159953 L952.670462,81.6159953 Z M956.121553,91.4835357 L954.292954,86.2560318 L978.469766,86.2560318 L980.466127,91.4835357 L956.121553,91.4835357 Z M989.901506,103.130195 C989.851178,102.922432 989.784073,102.731386 989.68102,102.55228 L963.457519,33.9021863 C963.419174,33.7803942 963.383225,33.6657665 963.325707,33.5559149 L952.234283,4.51926804 C951.889173,3.61896243 951.024004,3.02433088 950.055781,3.02433088 L923.381721,3.02433088 L914.480781,3.02433088 C913.486196,3.02433088 912.601854,3.65478361 912.280711,4.58852232 L874.376224,112.775644 C874.124582,113.484903 874.234825,114.270581 874.671005,114.886705 C875.107184,115.500441 875.816575,115.865818 876.573898,115.865818 L903.245562,115.865818 C904.211388,115.865818 905.078954,115.268798 905.424063,114.368492 L912.39335,96.1259604 L952.768722,96.1259604 L959.086137,114.299238 C959.09093,114.318343 959.112499,114.325507 959.119689,114.344611 C959.268278,114.745809 959.529506,115.070587 959.857839,115.333276 C959.929737,115.388202 959.996841,115.428799 960.075929,115.478949 C960.433021,115.70104 960.833252,115.865818 961.286207,115.865818 L990.620484,115.865818 L991.384996,115.865818 C992.149509,115.865818 992.868486,115.488501 993.304666,114.860436 C993.736052,114.232372 993.831916,113.429977 993.563498,112.71833 L989.901506,103.130195 Z" id="Fill-60" fill="#FFFFFF"></path>
                <path d="M260.593879,98.3917693 C260.174475,98.7977426 259.704743,99.1559544 259.268564,99.5475993 L242.753654,81.7205931 C243.30487,81.1641708 243.781791,80.5456585 244.289869,79.9510269 L264.548254,94.0765114 C263.30682,95.5786128 262.000678,97.0305645 260.593879,98.3917693 Z M242.279129,110.019324 C241.025712,110.513656 239.719569,110.912465 238.420617,111.320826 L231.206877,89.3409517 C231.319517,89.2955782 231.43695,89.2669212 231.54959,89.2215478 C232.155927,88.9779637 232.680781,88.6149758 233.267946,88.3403468 L245.250902,108.684388 C244.265903,109.135735 243.302473,109.615738 242.279129,110.019324 Z M215.049059,114.069505 L217.620602,91.5379839 C218.375528,91.5666409 219.125661,91.5761932 219.880587,91.5547005 L222.181315,114.095774 C221.102849,114.145923 220.038762,114.234282 218.938727,114.234282 C217.618205,114.234282 216.340822,114.138759 215.049059,114.069505 Z M192.015421,108.431251 L204.278779,88.163629 C204.968997,88.49796 205.594507,88.9230379 206.315881,89.2119954 L198.82893,111.136944 C197.726498,110.776345 196.602497,110.44679 195.536014,110.021712 C194.323339,109.53932 193.175372,108.980509 192.015421,108.431251 Z M173.015246,93.5153129 L193.42222,79.6358005 C193.908728,80.2304321 194.390443,80.8298398 194.917693,81.3862621 L178.134365,99.0771478 C177.88512,98.8431161 177.609512,98.6377414 177.365059,98.3989335 C175.800085,96.8681752 174.374114,95.2180129 173.015246,93.5153129 Z M221.273007,4.68595592 C228.877391,4.92237569 235.959318,6.32656587 242.34863,8.86509334 C249.377832,11.6591452 255.489139,15.5708179 260.519584,20.4902596 C265.562012,25.4192537 269.554733,31.2748223 272.387504,37.8945759 C274.939874,43.8385034 276.361052,50.2958677 276.624677,57.11622 L251.726491,57.11622 C251.477246,53.3693248 250.612076,49.8373567 249.152552,46.5919579 C247.41742,42.7065542 245.013639,39.2748853 242.02509,36.4020269 C239.043731,33.5243922 235.523138,31.2581057 231.54959,29.6652573 C228.299812,28.3613665 224.853514,27.587629 221.273007,27.3535973 L221.273007,4.68595592 Z M251.561126,63.0386548 C251.601868,62.5992483 251.714508,62.2099915 251.740871,61.7586447 L276.62947,61.7586447 C276.562366,63.7431379 276.385018,65.6559888 276.142962,67.5282424 L251.561126,63.0386548 Z M161.259966,61.7586447 L186.158152,61.7586447 C186.177325,62.0643187 186.265999,62.3485001 186.294758,62.651786 L161.67937,66.84764 C161.46847,65.175985 161.327071,63.4804493 161.259966,61.7586447 Z M162.470245,71.4208104 L186.999356,67.2392849 C187.188687,68.0201866 187.519416,68.7389982 187.771058,69.4912429 L164.675109,78.7951969 C163.776387,76.4071184 163.014271,73.9569498 162.470245,71.4208104 Z M166.503708,83.0626932 L189.566105,73.7730677 C189.930387,74.4847152 190.328221,75.1653175 190.738038,75.8435318 L170.259166,89.7684177 C168.849971,87.647804 167.615726,85.3958459 166.503708,83.0626932 Z M181.652561,102.121948 L198.385561,84.4835999 C198.991898,84.9612157 199.555097,85.4865929 200.197384,85.9188351 L187.890888,106.2581 C185.7028,104.994806 183.598593,103.638378 181.652561,102.121948 Z M210.763954,90.5946929 C211.499708,90.7714107 212.237858,90.9433524 212.987991,91.0723086 L210.409259,113.668308 C207.976719,113.374574 205.61368,112.951884 203.317746,112.400238 L210.763954,90.5946929 Z M229.809665,84.9158422 C223.024915,87.6406398 214.859729,87.6406398 208.074979,84.9158422 C204.667026,83.5474732 201.647321,81.6107415 199.097348,79.1510206 C196.540186,76.6936878 194.48391,73.751575 192.986041,70.4011009 C191.492965,67.0864479 190.738038,63.3992546 190.738038,59.4374323 C190.738038,55.4851624 191.492965,51.8027453 192.986041,48.4833161 C194.481514,45.1376181 196.537789,42.1955054 199.099745,39.7333964 C201.647321,37.2784517 204.667026,35.3393319 208.072582,33.9709629 C211.466156,32.6097582 215.123354,31.9196035 218.938727,31.9196035 L218.941124,31.9196035 C218.941124,31.9196035 218.94352,31.9196035 218.94352,31.9196035 C222.76129,31.9196035 226.418488,32.6097582 229.812061,33.9709629 C233.220014,35.3393319 236.237322,37.2784517 238.784899,39.7357845 C241.349251,42.2002815 243.405527,45.1423943 244.900999,48.4857042 C246.391679,51.7979691 247.146605,55.4803862 247.146605,59.4374323 C247.146605,63.6595552 246.456387,67.2464491 245.042398,70.4034889 C243.542132,73.7444108 241.464288,76.6841355 238.863986,79.1390802 C236.268478,81.6035772 233.220014,83.5474732 229.809665,84.9158422 Z M226.746821,90.6830518 L233.917422,112.526806 C231.611901,113.05696 229.253656,113.470097 226.828305,113.744726 L224.520388,91.1248463 C225.270521,91.0054424 226.011068,90.8526054 226.746821,90.6830518 Z M249.408988,106.580491 L237.387686,86.1671953 C238.037162,85.7445054 238.595568,85.2071877 239.213889,84.7415124 L255.688056,102.525533 C253.720455,104.00853 251.616248,105.348242 249.408988,106.580491 Z M267.366645,90.3773778 L247.060328,76.2184602 C247.479732,75.5521863 247.863186,74.8596435 248.234658,74.1575484 L271.198795,83.724191 C270.053224,86.035851 268.809393,88.2806448 267.366645,90.3773778 Z M273.092102,79.4805754 L250.096809,69.9019925 C250.353244,69.1449716 250.664801,68.4213838 250.858925,67.6285417 L275.361674,72.1038009 C274.803268,74.6590449 274.021979,77.1020492 273.092102,79.4805754 Z M263.781345,17.1756066 C258.307531,11.8263107 251.678559,7.57791902 244.074176,4.5546116 C236.486568,1.53846842 228.028997,0.0100981606 218.94352,0.0100981606 C218.94352,0.0100981606 218.94352,0.0100981606 218.94352,0.0100981606 L218.938727,0.0100981606 C209.85325,0.0100981606 201.398076,1.53846842 193.812865,4.5546116 C186.210878,7.57553094 179.57951,11.8239226 174.103299,17.1756066 C168.619898,22.539231 164.282068,28.893908 161.209638,36.0676959 C158.125225,43.2605884 156.560251,51.124531 156.560251,59.4374323 C156.560251,62.9622363 156.900567,66.3819647 157.458973,69.7228866 C157.463766,69.7921408 157.442197,69.8542309 157.45418,69.9234852 C157.463766,69.9831871 157.497318,70.0285606 157.511698,70.0858745 C158.278607,74.5085959 159.476903,78.7737042 161.209638,82.8047807 C164.279671,89.9857329 168.617501,96.3475741 174.103299,101.711198 C174.848639,102.44195 175.670669,103.098672 176.459148,103.786439 C176.523856,103.865245 176.557408,103.960768 176.634099,104.034799 C176.746739,104.142262 176.885741,104.1948 177.01276,104.273607 C180.157088,106.943479 183.603386,109.3029 187.363638,111.30411 C187.41157,111.337543 187.437932,111.387693 187.488261,111.418738 C187.533796,111.445007 187.584124,111.435454 187.632056,111.456947 C189.61883,112.502925 191.665519,113.479649 193.812865,114.332193 C195.655843,115.065334 197.55634,115.702951 199.499976,116.259373 C199.511959,116.264149 199.519148,116.276089 199.533528,116.278477 C199.547908,116.285642 199.564684,116.283254 199.579063,116.28803 C203.578974,117.427143 207.782595,118.193716 212.15877,118.578197 C212.170753,118.580585 212.177943,118.587749 212.189926,118.587749 C212.280997,118.59969 212.36967,118.604466 212.455948,118.604466 C212.463138,118.604466 212.470327,118.59969 212.477517,118.59969 C214.593707,118.778796 216.745846,118.876707 218.938727,118.876707 C220.891949,118.876707 222.806825,118.771631 224.704925,118.628347 C224.719305,118.628347 224.733685,118.635511 224.748064,118.635511 C224.824755,118.635511 224.906239,118.630735 224.987723,118.625959 C224.999706,118.623571 225.009292,118.616406 225.021275,118.614018 C231.743714,118.076701 238.10906,116.658182 243.992691,114.334582 C250.113585,111.917846 255.58021,108.679612 260.363806,104.755999 C260.483635,104.67958 260.613051,104.631818 260.720898,104.533907 C260.799986,104.462265 260.833538,104.366742 260.900642,104.287935 C261.897624,103.447332 262.908986,102.621056 263.84126,101.718363 C265.967036,99.659839 267.865136,97.4078809 269.64101,95.0603998 C269.691339,95.0006978 269.765633,94.976817 269.808772,94.9123389 C269.847117,94.8598012 269.854307,94.792935 269.885463,94.7380092 C272.617577,91.0723086 274.973426,87.1104863 276.814008,82.8095569 C279.850489,75.7480087 281.326789,68.1013812 281.326789,59.4374323 C281.326789,51.1269191 279.759419,43.2653645 276.672609,36.0700839 C273.597783,28.8915199 269.262349,22.5344548 263.781345,17.1756066 Z" id="Fill-61" fill="#FFFFFF"></path>
                <path d="M857.16798,93.7801509 C855.540695,97.5676434 853.223191,100.786773 850.289764,103.353958 C847.329973,105.937859 843.663189,107.910412 839.40205,109.21669 C835.047443,110.549238 830.048154,111.222676 824.531201,111.222676 L809.720268,111.222676 L809.720268,96.125244 L814.146772,96.125244 C822.438977,96.125244 828.310626,94.8858312 832.094843,92.3377514 C832.094843,92.3377514 832.099636,92.3353633 832.099636,92.3329753 C836.11153,89.6129538 838.146236,85.2929198 838.146236,79.4970532 C838.146236,73.6916343 836.106737,69.3763764 832.099636,66.6754596 C828.320212,64.1130513 822.448564,62.8664743 814.146772,62.8664743 L809.720268,62.8664743 L809.720268,46.7970939 L825.645616,46.7803773 C826.606649,46.8042581 827.490991,46.8329151 828.202779,46.8663482 C828.881014,46.921274 829.659906,46.9976925 830.546645,47.1027679 C830.716803,47.1290368 830.925307,47.1576937 831.208104,47.1911268 C831.236863,47.1935149 831.282399,47.2006792 831.311158,47.2030672 C833.118188,47.4418751 835.136117,47.7785942 837.019838,48.2156125 C837.89699,48.4329277 838.841247,48.7147209 839.81666,49.0323354 C843.85252,50.357719 847.370715,52.2705699 850.203486,54.7947689 C853.141707,57.4049387 855.461607,60.6957109 857.100876,64.5667862 C858.747334,68.4689065 859.583744,73.0253604 859.583744,78.1095795 L859.583744,78.1692815 L859.646056,80.5191508 C859.646056,85.4982945 858.814438,89.9592252 857.16798,93.7801509 Z M809.720268,67.5065109 L814.146772,67.5065109 C821.384477,67.5065109 826.541941,68.5190562 829.484955,70.5154898 C832.178724,72.3304295 833.487263,75.2701542 833.487263,79.4970532 C833.487263,83.719176 832.178724,86.6636768 829.484955,88.492945 C826.537148,90.4774382 821.379684,91.4852074 814.146772,91.4852074 L809.720268,91.4852074 L809.720268,67.5065109 Z M809.720268,27.1623122 L812.577004,27.1623122 C822.256836,27.1623122 823.49827,31.1599557 823.49827,34.6417742 C823.49827,37.8489636 822.44377,41.4931715 814.719557,42.0519818 C812.799887,42.0591461 811.093514,42.0758626 809.720268,42.0925792 L809.720268,27.1623122 Z M781.49801,32.2704122 L805.063691,32.2704122 L805.063691,27.0429083 L781.49801,27.0429083 L781.49801,32.2704122 Z M781.49801,42.1403408 L805.063691,42.1403408 L805.063691,36.9128369 L781.49801,36.9128369 L781.49801,42.1403408 Z M805.046915,52.0078812 L781.495613,52.0078812 L781.495613,46.7803773 L805.058898,46.7803773 L805.046915,52.0078812 Z M805.025345,61.8778098 L781.495613,61.8778098 L781.495613,56.6503059 L805.034932,56.6503059 L805.025345,61.8778098 Z M805.00138,71.7453503 L781.495613,71.7453503 L781.495613,66.5202345 L805.013362,66.5202345 L805.00138,71.7453503 Z M804.97981,81.6152788 L781.495613,81.6152788 L781.495613,76.3877749 L804.991793,76.3877749 L804.97981,81.6152788 Z M804.958241,91.4852074 L781.495613,91.4852074 L781.495613,86.2553154 L804.970224,86.2553154 L804.958241,91.4852074 Z M804.936672,101.355136 L781.495613,101.355136 L781.495613,96.125244 L804.948655,96.125244 L804.936672,101.355136 Z M804.912706,111.222676 L781.495613,111.222676 L781.495613,105.995173 L804.924689,105.995173 L804.912706,111.222676 Z M781.495613,17.1729797 L805.061294,17.1729797 L805.063691,22.4004836 L781.495613,22.4004836 L781.495613,17.1729797 Z M781.495613,7.66603912 L805.058898,7.66603912 L805.061294,12.5305551 L781.495613,12.5305551 L781.495613,7.66603912 Z M864.240321,78.0761464 C864.235528,72.3853553 863.281684,67.2342699 861.393171,62.7637869 C859.483087,58.2527066 856.762956,54.403124 853.307072,51.332055 C852.319676,50.4532421 851.25559,49.6556239 850.145968,48.9009911 C850.359265,48.6000932 850.567768,48.320688 850.781065,47.9768047 C853.000308,44.399463 854.078774,39.563604 854.078774,33.1993747 C854.078774,23.5825825 851.214848,16.0577471 845.554099,10.8230789 C839.941283,5.65766507 831.754527,3.03794293 821.219112,3.03794293 L807.460282,3.03794293 C807.436316,3.03555485 807.417143,3.02361446 807.393178,3.02361446 L779.168523,3.02361446 C777.881553,3.02361446 776.839036,4.06242862 776.839036,5.34482679 L776.839036,113.543889 C776.839036,114.826287 777.881553,115.865101 779.168523,115.865101 L807.237399,115.865101 L807.393178,115.865101 L824.531201,115.865101 C830.513093,115.865101 835.974924,115.122409 840.76571,113.65374 C845.664342,112.154027 849.899119,109.86386 853.359797,106.845328 C856.822871,103.817245 859.547795,100.036917 861.453085,95.609419 C863.343996,91.2081903 864.305029,86.1311353 864.305029,80.4594488 L864.240321,78.0761464 Z" id="Fill-62" fill="#FFFFFF"></path>
                <path d="M446.509441,111.223393 L470.072726,111.223393 L470.072726,105.995889 L446.509441,105.995889 L446.509441,111.223393 Z M446.509441,12.5312715 L470.072726,12.5312715 L470.072726,7.66675554 L446.509441,7.66675554 L446.509441,12.5312715 Z M514.692461,7.66436746 L543.41321,7.66436746 L505.51831,52.0085977 L477.391916,52.0085977 L514.692461,7.66436746 Z M446.509441,61.8785262 L470.072726,61.8785262 L470.072726,56.6510223 L446.509441,56.6510223 L446.509441,61.8785262 Z M446.509441,101.353464 L470.072726,101.353464 L470.072726,96.1259604 L446.509441,96.1259604 L446.509441,101.353464 Z M446.509441,71.7460667 L470.072726,71.7460667 L470.072726,66.5209509 L446.509441,66.5209509 L446.509441,71.7460667 Z M446.509441,81.6136072 L470.072726,81.6136072 L470.072726,76.3861033 L446.509441,76.3861033 L446.509441,81.6136072 Z M446.509441,91.4835357 L470.072726,91.4835357 L470.072726,86.2560318 L446.509441,86.2560318 L446.509441,91.4835357 Z M446.509441,22.4012001 L470.072726,22.4012001 L470.072726,17.1736962 L446.509441,17.1736962 L446.509441,22.4012001 Z M446.509441,52.0085977 L470.072726,52.0085977 L470.072726,46.7810938 L446.509441,46.7810938 L446.509441,52.0085977 Z M446.509441,42.1386691 L470.072726,42.1386691 L470.072726,36.9111652 L446.509441,36.9111652 L446.509441,42.1386691 Z M446.509441,32.2687405 L470.072726,32.2687405 L470.072726,27.0412366 L446.509441,27.0412366 L446.509441,32.2687405 Z M509.592515,54.4014523 L550.229115,6.85003268 C550.818677,6.15987799 550.950489,5.19270618 550.569431,4.37120717 C550.188373,3.54970816 549.363946,3.02433088 548.455638,3.02433088 L513.606805,3.02433088 C512.916587,3.02433088 512.264714,3.32761685 511.821345,3.85299413 L474.731699,47.9464761 L474.731699,5.34315513 C474.731699,4.06075696 473.689182,3.02433088 472.402213,3.02433088 L444.179955,3.02433088 C442.892985,3.02433088 441.850468,4.06075696 441.850468,5.34315513 L441.850468,113.544605 C441.850468,114.827003 442.892985,115.865818 444.179955,115.865818 L472.402213,115.865818 C473.689182,115.865818 474.731699,114.827003 474.731699,113.544605 L474.731699,61.4271794 L514.031002,114.915362 C514.469578,115.509994 515.169383,115.865818 515.909929,115.865818 L552.491497,115.865818 C553.378236,115.865818 554.190681,115.361933 554.583722,114.566703 C554.974366,113.773861 554.878502,112.825794 554.334476,112.126087 L509.592515,54.4014523 Z" id="Fill-63" fill="#FFFFFF"></path>
                <path d="M1070.75458,111.132646 L1045.0823,76.1902808 C1051.33501,75.6983367 1056.27198,74.979525 1060.21677,74.2010114 C1061.55886,73.9574274 1062.89856,73.6589176 1064.21189,73.3221985 C1066.32808,72.8039855 1068.11354,72.2881605 1069.56827,71.8248733 C1069.91098,71.7150217 1070.29204,71.5693489 1070.65393,71.4427807 L1101.41657,111.132646 L1070.75458,111.132646 Z M1014.73906,111.223393 L1038.29995,111.223393 L1038.29995,105.995889 L1014.73906,105.995889 L1014.73906,111.223393 Z M1038.19929,7.66436746 L1038.20408,12.5312715 L1014.73906,12.5312715 L1014.73906,7.66436746 L1038.19929,7.66436746 Z M1014.73906,81.6136072 L1038.29995,81.6136072 L1038.29995,76.3861033 L1014.73906,76.3861033 L1014.73906,81.6136072 Z M1014.73906,101.353464 L1038.29995,101.353464 L1038.29995,96.1259604 L1014.73906,96.1259604 L1014.73906,101.353464 Z M1014.73906,91.4835357 L1038.29995,91.4835357 L1038.29995,86.2560318 L1014.73906,86.2560318 L1014.73906,91.4835357 Z M1038.21607,22.398812 L1014.73906,22.398812 L1014.73906,17.1713081 L1038.20888,17.1713081 L1038.21607,22.398812 Z M1038.22805,66.5185628 L1038.21846,71.7460667 L1014.73906,71.7460667 L1014.73906,66.5185628 L1038.22805,66.5185628 Z M1038.24962,56.6486342 L1038.23764,61.8785262 L1014.73906,61.8785262 L1014.73906,56.6486342 L1038.24962,56.6486342 Z M1014.73906,52.0085977 L1038.29995,52.0085977 L1038.29995,46.7810938 L1014.73906,46.7810938 L1014.73906,52.0085977 Z M1014.73906,42.1386691 L1038.29995,42.1386691 L1038.29995,36.9111652 L1014.73906,36.9111652 L1014.73906,42.1386691 Z M1014.73906,32.2687405 L1038.29995,32.2687405 L1038.29995,27.0412366 L1014.73906,27.0412366 L1014.73906,32.2687405 Z M1059.45945,30.5469359 C1062.21553,32.6699377 1063.55762,35.6860809 1063.55762,39.7696952 C1063.55762,43.8556976 1062.21553,46.8742288 1059.45945,48.9948426 C1056.88072,50.9817239 1052.89998,51.867701 1046.5562,51.867701 L1042.95892,51.867701 L1042.95892,27.1845214 L1046.52505,27.1845214 C1052.19538,27.1845214 1056.54999,28.3164706 1059.45945,30.5469359 Z M1075.11878,69.6135126 C1079.82568,67.4117042 1084.85613,64.1925743 1087.97649,60.1901547 C1092.26399,54.6784695 1094.4401,47.4640842 1094.4401,38.7499857 C1094.4401,33.9093505 1093.63963,29.2931947 1092.06028,25.0304745 C1090.46415,20.7295451 1088.06756,16.8895148 1084.93761,13.6178472 C1081.78849,10.3318512 1077.75503,7.70257672 1072.94267,5.80644237 C1068.16627,3.94135303 1062.54866,2.99567394 1056.24802,2.99567394 L1040.52398,2.99567394 C1040.47605,2.99567394 1040.43531,3.01955472 1040.38738,3.02433088 L1012.40957,3.02433088 C1011.1226,3.02433088 1010.08009,4.06075696 1010.08009,5.34315513 L1010.08009,113.544605 C1010.08009,114.827003 1011.1226,115.863429 1012.40957,115.863429 L1040.62943,115.863429 C1041.9164,115.863429 1042.95892,114.827003 1042.95892,113.544605 L1042.95892,81.1550961 L1067.69414,114.824615 C1068.13032,115.419247 1068.83012,115.775071 1069.57307,115.775071 L1106.15703,115.775071 C1107.04377,115.775071 1107.85382,115.271186 1108.24925,114.475956 C1108.6399,113.683114 1108.54404,112.735047 1108.00001,112.03534 L1075.11878,69.6135126 Z" id="Fill-64" fill="#FFFFFF"></path>
            </g>
        </g>
    </g>
</svg>