<?xml version="1.0" encoding="UTF-8"?>
<svg width="402px" height="310px" viewBox="0 0 402 310" version="1.1" xmlns="http://www.w3.org/2000/svg" xmlns:xlink="http://www.w3.org/1999/xlink">
    <!-- Generator: Sketch 49.2 (51160) - http://www.bohemiancoding.com/sketch -->
    <title>mark/detailtwo</title>
    <desc>Created with Sketch.</desc>
    <defs>
        <polygon id="path-1" points="0 0.302684524 184.680698 0.302684524 184.680698 240.999857 0 240.999857"></polygon>
        <polygon id="path-3" points="0 0 122 0 122 83 0 83"></polygon>
        <polygon id="path-5" points="0 0.301949434 148.652816 0.301949434 148.652816 125.556818 0 125.556818"></polygon>
    </defs>
    <g id="mark/detailtwo" stroke="none" stroke-width="1" fill="none" fill-rule="evenodd">
        <g id="Page-1" transform="translate(131.000000, 41.000000)">
            <g id="Group-3">
                <mask id="mask-2" fill="white">
                    <use xlink:href="#path-1"></use>
                </mask>
                <g id="Clip-2"></g>
                <path d="M100.705302,44.8373327 C100.705302,46.1599637 100.20786,47.2674161 99.210093,48.1625589 C98.2152093,49.0505292 95.9313023,49.4981006 92.3583721,49.5009696 C88.7868837,49.4981006 86.5029767,49.0505292 85.508093,48.1625589 C84.5103256,47.2674161 84.0114419,46.1599637 84.0114419,44.8373327 L84.0114419,24.2174875 C84.0114419,22.9608446 84.5103256,21.8849518 85.508093,20.9941125 C86.5029767,20.1018387 88.7868837,19.6557018 92.3583721,19.6528327 C95.9313023,19.6557018 98.2152093,20.1018387 99.210093,20.9941125 C100.20786,21.8849518 100.705302,22.9608446 100.705302,24.2174875 L100.705302,44.8373327 Z M183.831442,72.0043446 C183.267674,71.4448804 182.352093,71.1608446 181.090465,71.1608446 L160.941907,71.1608446 C159.677395,71.1608446 158.763256,71.4448804 158.198047,72.0043446 C157.634279,72.5681125 157.351674,73.4790351 157.351674,74.7342435 L157.351674,75.3668685 C157.351674,75.3668685 157.348791,75.3668685 157.347349,75.3668685 L104.010047,75.3668685 L104.010047,67.8714815 C105.317814,67.6720827 106.566465,67.4439935 107.701209,67.1642613 C111.724,66.1715708 114.881674,64.8001661 117.175674,63.0457435 C119.469674,61.2941899 121.065814,59.1753982 121.964093,56.6965411 C122.86093,54.2133804 123.310791,51.4533565 123.310791,48.409297 L123.310791,20.6455232 C123.310791,17.6043327 122.86093,14.8414399 121.964093,12.3582792 C121.065814,9.8779875 119.469674,7.7448506 117.175674,5.95886845 C114.881674,4.17288631 111.724,2.78283274 107.701209,1.79157679 C103.676977,0.79888631 98.5742326,0.302541071 92.390093,0.302541071 C86.2059535,0.302541071 81.085907,0.79888631 77.0299535,1.79157679 C72.9725581,2.78283274 69.7990233,4.17288631 67.5050233,5.95886845 C65.2110233,7.7448506 63.6148837,9.8779875 62.7166047,12.3582792 C61.8197674,14.8414399 61.369907,17.6043327 61.369907,20.6455232 L61.369907,48.409297 C61.369907,51.4533565 61.8197674,54.2133804 62.7166047,56.6965411 C63.6148837,59.1753982 65.2110233,61.2941899 67.5050233,63.0457435 C69.7990233,64.8001661 72.9725581,66.1715708 77.0299535,67.1642613 C78.1531628,67.4396899 79.3816279,67.6634756 80.6706512,67.8614399 L80.6706512,75.3668685 L27.331907,75.3668685 L27.3290233,75.3668685 L27.3290233,74.7342435 C27.3290233,73.4790351 27.0464186,72.5681125 26.4826512,72.0043446 C25.9174419,71.4448804 25.0033023,71.1608446 23.7387907,71.1608446 L3.59023256,71.1608446 C2.32716279,71.1608446 1.41302326,71.4448804 0.849255814,72.0043446 C0.284046512,72.5681125 0,73.4790351 0,74.7342435 L0,94.8792613 C0,96.1359042 0.284046512,97.0468268 0.849255814,97.6077256 C1.41302326,98.1700589 2.32716279,98.4512256 3.59023256,98.4512256 L23.7387907,98.4512256 C25.0033023,98.4512256 25.9174419,98.1700589 26.4826512,97.6077256 C27.0464186,97.0468268 27.3290233,96.1359042 27.3290233,94.8792613 L27.3290233,94.5177613 L27.331907,94.5177613 L80.6692093,94.5177613 L80.6692093,128.976458 L77.3385116,128.976458 C76.0754419,128.976458 75.0286512,129.208851 74.1966977,129.670767 C73.366186,130.134118 72.7173488,130.994833 72.2516279,132.25291 L62.475814,156.56522 C61.8774419,158.018392 61.3785581,159.293684 60.9806047,160.383922 C60.5812093,161.475595 60.2495814,162.517059 59.9828372,163.511184 C59.7175349,164.503874 59.5344186,165.545339 59.4349302,166.637011 C59.334,167.727249 59.2849767,169.068529 59.2849767,170.656547 L59.2849767,213.809892 L50.5473023,213.809892 C49.2842326,213.809892 48.3686512,214.091059 47.8034419,214.651958 C47.2396744,215.214291 46.9556279,216.123779 46.9556279,217.381857 L46.9556279,237.427892 C46.9556279,238.684535 47.2396744,239.594023 47.8034419,240.154922 C48.3686512,240.717255 49.2842326,240.999857 50.5473023,240.999857 L83.007907,240.999857 C84.2709767,240.999857 85.1865581,240.717255 85.7503256,240.154922 C86.3155349,239.594023 86.5981395,238.684535 86.5981395,237.427892 L86.5981395,217.381857 C86.5981395,216.123779 86.3155349,215.214291 85.7503256,214.651958 C85.1865581,214.091059 84.2709767,213.809892 83.007907,213.809892 L82.1254884,213.809892 L82.1254884,169.564874 C82.1254884,168.902124 82.1932558,168.239374 82.3244651,167.578059 C82.4585581,166.916743 82.6589767,166.222434 82.9228372,165.496565 L87.6117674,151.50422 C87.8107442,150.84147 88.0443256,150.393898 88.3096279,150.16294 C88.5763721,149.931982 88.9757674,149.81722 89.5063721,149.81722 L94.6754419,149.81722 C95.2089302,149.81722 95.6068837,149.931982 95.872186,150.16294 C96.1389302,150.393898 96.3710698,150.84147 96.5700465,151.50422 L101.258977,165.394714 C101.524279,166.123452 101.724698,166.817761 101.857349,167.480511 C101.991442,168.140392 102.056326,168.803142 102.056326,169.465892 L102.056326,213.809892 L101.463721,213.809892 C100.199209,213.809892 99.2850698,214.091059 98.7213023,214.651958 C98.1546512,215.214291 97.8734884,216.123779 97.8734884,217.381857 L97.8734884,237.427892 C97.8734884,238.684535 98.1546512,239.594023 98.7213023,240.154922 C99.2850698,240.717255 100.199209,240.999857 101.463721,240.999857 L133.924326,240.999857 C135.187395,240.999857 136.102977,240.717255 136.668186,240.154922 C137.231953,239.594023 137.516,238.684535 137.516,237.427892 L137.516,217.381857 C137.516,216.123779 137.231953,215.214291 136.668186,214.651958 C136.102977,214.091059 135.187395,213.809892 133.924326,213.809892 L125.395721,213.809892 L125.395721,170.656547 C125.395721,169.068529 125.346698,167.727249 125.245767,166.637011 C125.146279,165.545339 124.964605,164.503874 124.69786,163.511184 C124.432558,162.517059 124.099488,161.475595 123.700093,160.383922 C123.30214,159.293684 122.803256,158.018392 122.204884,156.56522 L112.42907,132.25291 C111.964791,130.994833 111.317395,130.134118 110.484,129.670767 C109.653488,129.208851 108.606698,128.976458 107.342186,128.976458 L104.008605,128.976458 L104.008605,94.5177613 L157.347349,94.5177613 C157.348791,94.5177613 157.350233,94.5177613 157.350233,94.5177613 L157.351674,94.8792613 C157.351674,96.1359042 157.634279,97.0468268 158.198047,97.6077256 C158.763256,98.1700589 159.677395,98.4512256 160.941907,98.4512256 L181.090465,98.4512256 C182.352093,98.4512256 183.267674,98.1700589 183.831442,97.6077256 C184.396651,97.0468268 184.680698,96.1359042 184.680698,94.8792613 L184.680698,74.7342435 C184.680698,73.4790351 184.396651,72.5681125 183.831442,72.0043446 Z" id="Fill-1" fill="#000000" mask="url(#mask-2)"></path>
            </g>
            <path d="M92.1906837,58.1386679 C92.1791488,58.1386679 92.1704977,58.1386679 92.1589628,58.1386679 C92.1488698,58.1386679 92.1387767,58.1386679 92.1272419,58.1386679 C84.7463581,58.1386679 79.7258,56.9982214 77.0670093,54.715894 C74.4053349,52.4335667 73.0773814,49.44115 73.0773814,45.7343405 L73.0773814,22.5352214 C73.0773814,18.831281 74.4053349,15.8359952 77.0670093,13.5536679 C79.7258,11.2713405 84.7463581,10.130894 92.1272419,10.130894 C92.1387767,10.130894 92.1488698,10.130894 92.1589628,10.130894 C92.1704977,10.130894 92.1791488,10.130894 92.1906837,10.130894 C99.5715674,10.130894 104.625288,11.2713405 107.351847,13.5536679 C110.076963,15.8359952 111.440963,18.831281 111.440963,22.5352214 L111.440963,45.7343405 C111.440963,49.44115 110.076963,52.4335667 107.351847,54.715894 C104.625288,56.9982214 99.5715674,58.1386679 92.1906837,58.1386679 Z M170.51687,80.0266321 L170.51687,83.90415 L160.938591,83.90415 L157.351242,83.90415 L151.961567,83.90415 L92.8395209,83.90415 L92.8395209,74.9742393 L92.8395209,68.2520607 L92.8395209,64.2526083 L92.8395209,59.1184476 C100.256451,59.048156 105.372172,57.8173345 108.150637,55.408769 C111.008405,52.9299119 112.43873,49.7036679 112.43873,45.7343405 L112.43873,22.5352214 C112.43873,18.565894 111.008405,15.33965 108.150637,12.8607929 C105.289986,10.3776321 99.9709628,9.13820357 92.1906837,9.13820357 C84.4118465,9.13820357 79.1245442,10.3776321 76.3316605,12.8607929 C73.5387767,15.33965 72.141614,18.565894 72.141614,22.5352214 L72.141614,45.7343405 C72.141614,49.7036679 73.5387767,52.9299119 76.3316605,55.408769 C79.0812884,57.8503286 84.2590093,59.0854536 91.8417535,59.1241857 L91.8417535,64.2526083 L91.8417535,68.2491917 L91.8417535,74.9742393 L91.8417535,83.90415 L32.7182651,83.90415 L27.3285907,83.90415 L23.7412419,83.90415 L14.1629628,83.90415 L14.1629628,80.0266321 L13.1651953,80.0266321 L13.1651953,89.4528881 L14.1629628,89.4528881 L14.1629628,84.8968405 L23.7412419,84.8968405 L27.3285907,84.8968405 L32.7182651,84.8968405 L91.8417535,84.8968405 L91.8417535,128.585263 L91.8417535,137.490787 L91.8417535,137.516608 L85.8162186,137.516608 C83.7558,137.516608 82.225986,138.143495 81.2282186,139.401573 C80.2304512,140.656781 79.333614,142.244799 78.5348233,144.162757 L71.9527302,160.042936 C71.3543581,161.496108 70.9391023,163.000924 70.7055209,164.557382 C70.4733814,166.110971 70.3565907,167.815186 70.3565907,169.66859 L70.3565907,199.962864 L70.3493814,199.962864 L70.3493814,213.417263 L70.3493814,220.284329 L70.3493814,226.5159 L55.9322186,226.5159 L55.9322186,227.50859 L77.6206837,227.50859 L77.6206837,226.5159 L71.3471488,226.5159 L71.3471488,220.284329 L71.3471488,213.417263 L71.3471488,211.355852 L71.3543581,211.355852 L71.3543581,169.66859 C71.3543581,167.945727 71.4870093,166.307501 71.7523116,164.755346 C72.0190558,163.201757 72.4184512,161.761495 72.9490558,160.438864 L79.5325907,144.56012 C80.1972884,142.840126 80.9470558,141.399864 81.7761256,140.243638 C82.6095209,139.085977 83.9547767,138.50643 85.8162186,138.50643 L91.8417535,138.50643 L92.8395209,138.50643 L98.6646372,138.50643 C100.526079,138.50643 101.874219,139.085977 102.70473,140.243638 C103.536684,141.399864 104.285009,142.840126 104.948265,144.56012 L111.5318,160.438864 C112.063847,161.761495 112.463242,163.201757 112.728544,164.755346 C112.995288,166.307501 113.12794,167.945727 113.12794,169.66859 L113.12794,199.962864 L113.123614,199.962864 L113.123614,213.417263 L113.123614,220.284329 L113.123614,226.5159 L106.850079,226.5159 L106.850079,227.50859 L128.538544,227.50859 L128.538544,226.5159 L114.122823,226.5159 L114.122823,220.284329 L114.122823,213.417263 L114.122823,211.355852 L114.124265,211.355852 L114.124265,169.66859 C114.124265,167.815186 114.008916,166.110971 113.775335,164.557382 C113.543195,163.000924 113.12794,161.496108 112.529567,160.042936 L105.946033,144.162757 C105.148684,142.244799 104.250405,140.656781 103.252637,139.401573 C102.25487,138.143495 100.726498,137.516608 98.6646372,137.516608 L92.8395209,137.516608 L92.8395209,137.490787 L92.8395209,128.585263 L92.8395209,84.8968405 L151.961567,84.8968405 L157.351242,84.8968405 L160.938591,84.8968405 L170.51687,84.8968405 L170.51687,89.4528881 L171.514637,89.4528881 L171.514637,80.0266321 L170.51687,80.0266321 Z" id="Fill-4" fill="#FFFFFF"></path>
        </g>
        <g id="Page-1" transform="translate(280.000000, 0.000000)">
            <mask id="mask-4" fill="white">
                <use xlink:href="#path-3"></use>
            </mask>
            <g id="Clip-2"></g>
            <path d="M114.077564,56.0088583 C114.077564,57.8152345 113.520264,59.156332 112.405662,60.0321507 C111.292313,60.9054814 109.883407,61.6929718 108.180196,62.3921339 L94.0973967,71.8942698 C92.8074649,72.4192635 91.4711957,72.7825292 90.0923462,72.9877992 C88.7134968,73.1918252 87.2031494,73.2938382 85.5587994,73.2938382 L66.5467069,73.2938382 L66.5467069,73.1582355 C68.7646383,73.0101923 70.7646588,72.7626242 72.5567874,72.4192635 L85.5587994,72.4192635 C87.0866798,72.4192635 88.5381662,72.3023217 89.9170157,72.0696824 C91.2958652,71.837043 92.572021,71.4862179 93.7454833,71.0209392 L107.828283,61.5175592 C109.354911,60.9340948 110.631067,60.2784748 111.658003,59.5506992 C112.684939,58.8204356 113.197154,57.641066 113.197154,56.0088583 L113.197154,27.1653102 C113.197154,25.5331025 112.684939,24.3524889 111.658003,23.6247133 C110.631067,22.8956938 109.354911,22.2388297 107.828283,21.6566093 L93.7454833,12.1544734 C92.572021,11.6867065 91.2958652,11.3371255 89.9170157,11.1057302 C88.5381662,10.8718468 87.0866798,10.754905 85.5587994,10.754905 L73.3996263,10.754905 C71.5373655,10.3505853 69.4296419,10.058231 67.0701938,9.88157441 L85.5587994,9.88157441 C87.2031494,9.88157441 88.7134968,9.98234333 90.0923462,10.1863693 C91.4711957,10.3903953 92.8074649,10.754905 94.0973967,11.2798987 L108.180196,20.7832786 C109.883407,21.4824408 111.292313,22.2699312 112.405662,23.1432618 C113.520264,24.0178365 114.077564,25.358934 114.077564,27.1653102 L114.077564,56.0088583 Z M36.4412006,73.2938382 C34.7968506,73.2938382 33.2865032,73.1918252 31.9076538,72.9877992 C30.5288043,72.7825292 29.1925351,72.4192635 27.9026033,71.8942698 L13.8198037,62.3921339 C12.1165928,61.6929718 10.7076866,60.9054814 9.59433769,60.0321507 C8.47973639,59.156332 7.92243574,57.8152345 7.92243574,56.0088583 L7.92243574,27.1653102 C7.92243574,25.358934 8.47973639,24.0178365 9.59433769,23.1432618 C10.7076866,22.2699312 12.1165928,21.4824408 13.8198037,20.7832786 L27.9026033,11.2798987 C29.1925351,10.754905 30.5288043,10.3903953 31.9076538,10.1863693 C33.2865032,9.98234333 34.7968506,9.88157441 36.4412006,9.88157441 L55.1978114,9.88157441 C52.8321015,10.058231 50.714359,10.3505853 48.8383222,10.754905 L36.4412006,10.754905 C34.9133202,10.754905 33.4618338,10.8718468 32.0829843,11.1057302 C30.7041348,11.3371255 29.427979,11.6867065 28.2545167,12.1544734 L14.1717172,21.6566093 C12.6450891,22.2388297 11.3689332,22.8956938 10.3419972,23.6247133 C9.31506118,24.3524889 8.80159317,25.5331025 8.80159317,27.1653102 L8.80159317,56.0088583 C8.80159317,57.641066 9.31506118,58.8204356 10.3419972,59.5506992 C11.3689332,60.2784748 12.6450891,60.9340948 14.1717172,61.5175592 L28.2545167,71.0209392 C29.427979,71.4862179 30.7041348,71.837043 32.0829843,72.0696824 C33.4618338,72.3023217 34.9133202,72.4192635 36.4412006,72.4192635 L49.6861706,72.4192635 C51.4169336,72.7489396 53.3355506,72.9915314 55.4532931,73.1408187 L55.4532931,73.2938382 L36.4412006,73.2938382 Z M47.3818264,62.3373953 C44.9898169,60.2150277 43.7925597,57.456945 43.7925597,54.0619033 L43.7925597,29.0239369 C43.7925597,25.6276511 44.9898169,22.8695685 47.3818264,20.7484449 C47.4970436,20.6451879 47.6410651,20.5581036 47.7663012,20.4598228 L49.3893611,20.4598228 C48.8984356,20.7310281 48.4438285,21.0184061 48.0643631,21.343106 C45.7863185,23.2950372 44.64667,25.8553142 44.64667,29.0239369 L44.64667,54.0619033 C44.64667,57.23177 45.7863185,59.7908029 48.0643631,61.7427342 C48.6116449,62.2117451 49.281658,62.6197971 50.061879,62.9755984 L48.2359366,62.9755984 C47.9303605,62.7728165 47.6385604,62.5650584 47.3818264,62.3373953 Z M35.676008,62.9606697 C35.1963538,62.9420088 34.7179519,62.8959785 34.2408023,62.8014299 C33.6521927,62.6844882 33.0372834,62.5090756 32.3923175,62.2776804 L19.9814199,54.4351215 C19.3940626,54.2597089 18.9983165,54.055683 18.7929293,53.8242877 C18.5862897,53.5891602 18.4848485,53.2395791 18.4848485,52.7743004 L18.4848485,30.6623649 C18.4848485,30.1958421 18.5862897,29.8462611 18.7929293,29.6136217 C18.9983165,29.3797383 19.3940626,29.1769564 19.9814199,29.0015438 L32.3033999,21.160229 C32.9496181,20.9263456 33.5645274,20.750933 34.1531371,20.6352354 C34.6240248,20.5406868 35.0949125,20.4959006 35.5670526,20.4772397 C34.9083107,22.4727131 34.5651638,24.6659922 34.5651638,27.0707616 L34.5651638,56.0138346 C34.5651638,58.5604269 34.9383674,60.8731358 35.676008,62.9606697 Z M68.3150407,52.9584214 C68.3150407,54.0905167 67.8879855,55.0372469 67.032623,55.8023442 C66.1772604,56.5661975 64.212306,56.9468801 61.1377597,56.9468801 C58.0619611,56.9468801 56.0970067,56.5661975 55.2428964,55.8023442 C54.3875339,55.0372469 53.9604788,54.0905167 53.9604788,52.9584214 L53.9604788,30.1274188 C53.9604788,29.0525503 54.3875339,28.1331894 55.2428964,27.3693362 C56.0970067,26.6054829 58.0619611,26.2223122 61.1377597,26.2223122 C64.212306,26.2223122 66.1772604,26.6054829 67.032623,27.3693362 C67.8879855,28.1331894 68.3150407,29.0525503 68.3150407,30.1274188 L68.3150407,52.9584214 Z M74.636959,20.7484449 C77.0865772,22.8695685 78.3101339,25.6276511 78.3101339,29.0239369 L78.3101339,54.0619033 C78.3101339,57.456945 77.0865772,60.2150277 74.636959,62.3373953 C74.3752156,62.5650584 74.0771537,62.7728165 73.7665681,62.9755984 L71.920588,62.9755984 C72.7108278,62.6197971 73.3921122,62.2117451 73.9531699,61.7427342 C76.2888232,59.7908029 77.457276,57.23177 77.457276,54.0619033 L77.457276,29.0239369 C77.457276,25.8553142 76.2888232,23.2950372 73.9531699,21.343106 C73.564938,21.0184061 73.1003121,20.7310281 72.6018724,20.4598228 L74.24497,20.4598228 C74.3727108,20.5581036 74.5192371,20.6451879 74.636959,20.7484449 Z M86.625811,20.4871922 C87.0328283,20.5120734 87.441098,20.5543714 87.8468629,20.6352354 C88.4354726,20.750933 89.0503819,20.9263456 89.6966001,21.160229 L102.01858,29.0015438 C102.60719,29.1769564 103.001684,29.3797383 103.207071,29.6136217 C103.41371,29.8462611 103.515152,30.1958421 103.515152,30.6623649 L103.515152,52.7743004 C103.515152,53.2395791 103.41371,53.5891602 103.207071,53.8242877 C103.001684,54.055683 102.60719,54.2597089 102.01858,54.4351215 L89.6076825,62.2776804 C88.9627166,62.5090756 88.3478073,62.6844882 87.7591977,62.8014299 C87.3459185,62.8835379 86.931387,62.925836 86.5168555,62.9507172 C87.2519915,60.8669155 87.625195,58.5566947 87.625195,56.0138346 L87.625195,27.0707616 C87.625195,24.6697244 87.2820481,22.4801775 86.625811,20.4871922 Z M121.383838,19.2928939 C120.973064,18.5626302 120.210376,17.9940945 119.094522,17.5872866 L97.5301183,2.79789259 C96.2401864,2.27414302 95.1093044,1.83623364 94.1412294,1.48665258 C93.1731543,1.13707151 92.2489119,0.844717238 91.3685021,0.612077881 C90.4880923,0.378194463 89.5638499,0.218954689 88.5957748,0.131870438 C87.6276998,0.0435421257 86.4392092,0 85.0315554,0 L61.7939969,0 C61.5084586,0 61.2454628,0.0174168503 61,0.0497624294 C60.7545372,0.0174168503 60.4915414,0 60.2060031,0 L36.9684446,0 C35.5607908,0 34.3723002,0.0435421257 33.4042252,0.131870438 C32.4361501,0.218954689 31.5119077,0.378194463 30.6314979,0.612077881 C29.7510881,0.844717238 28.8268457,1.13707151 27.8587706,1.48665258 C26.8906956,1.83623364 25.7598136,2.27414302 24.4698817,2.79789259 L2.90547754,17.5872866 C1.78962388,17.9940945 1.02693603,18.5626302 0.616161616,19.2928939 C0.205387205,20.0206694 0,20.9387862 0,22.0472443 L0,60.9527557 C0,62.0599697 0.205387205,62.9780865 0.616161616,63.7071061 C1.02693603,64.4348817 1.78962388,65.0034174 2.90547754,65.4127134 L24.4698817,80.2021074 C25.7598136,80.725857 26.8906956,81.1637664 27.8587706,81.5133474 C28.8268457,81.8629285 29.7510881,82.1540387 30.6314979,82.3866781 C31.5119077,82.6193174 32.4361501,82.7810453 33.4042252,82.8681296 C34.3723002,82.9564579 35.5607908,83 36.9684446,83 L60.2060031,83 C60.4915414,83 60.7545372,82.9825831 61,82.9502376 C61.2454628,82.9825831 61.5084586,83 61.7939969,83 L85.0315554,83 C86.4392092,83 87.6276998,82.9564579 88.5957748,82.8681296 C89.5638499,82.7810453 90.4880923,82.6193174 91.3685021,82.3866781 C92.2489119,82.1540387 93.1731543,81.8629285 94.1412294,81.5133474 C95.1093044,81.1637664 96.2401864,80.725857 97.5301183,80.2021074 L119.094522,65.4127134 C120.210376,65.0034174 120.973064,64.4348817 121.383838,63.7071061 C121.794613,62.9780865 122,62.0599697 122,60.9527557 L122,22.0472443 C122,20.9387862 121.794613,20.0206694 121.383838,19.2928939 Z" id="Fill-1" fill="#000000" mask="url(#mask-4)"></path>
        </g>
        <g id="Page-1" transform="translate(0.000000, 183.000000)">
            <g id="Group-3" transform="translate(0.000000, 1.141412)">
                <mask id="mask-6" fill="white">
                    <use xlink:href="#path-5"></use>
                </mask>
                <g id="Clip-2"></g>
                <path d="M135.763882,50.8015875 C134.768619,52.8581216 133.034144,55.123917 130.557561,57.5946443 L74.3281437,113.689678 L74.3252505,113.689678 L18.0972796,57.5946443 C15.6206971,55.123917 13.8847748,52.8581216 12.8895126,50.8015875 C11.8942505,48.742167 11.4327845,46.853042 11.5051146,45.1327693 C11.5803379,43.4139398 12.0880951,41.7903602 13.0341728,40.264917 C13.9816971,38.7380307 15.1606777,37.271758 16.5682214,35.8689852 L35.8687845,16.6126102 C37.2792214,15.205508 38.7229301,14.0322011 40.2028039,13.0883602 C41.6855709,12.141633 43.2739398,11.6466216 44.9751437,11.5975534 C46.674901,11.5499284 48.5554835,12.046383 50.6183379,13.086917 C52.6826388,14.1288943 54.9523573,15.8852466 57.4289398,18.3559739 L74.3266971,35.1935761 L91.2244544,18.3559739 C93.7010369,15.8852466 95.9707553,14.1288943 98.0350563,13.086917 C100.097911,12.046383 101.97994,11.5499284 103.679697,11.5975534 C105.379454,11.6466216 106.967823,12.141633 108.45059,13.0883602 C109.930464,14.0322011 111.374173,15.205508 112.78461,16.6126102 L132.086619,35.8689852 C133.494163,37.271758 134.671697,38.7380307 135.619221,40.264917 C136.565299,41.7903602 137.074503,43.4139398 137.14828,45.1327693 C137.22061,46.853042 136.759144,48.742167 135.763882,50.8015875 M141.774513,29.8379284 L119.048396,7.16554205 C113.996862,2.12595114 108.789095,-0.138401136 103.423649,0.372485227 C98.0567553,0.879042045 92.3412311,4.16228068 86.2712893,10.2164284 L74.3266971,22.1327807 L62.3821049,10.2164284 C56.3121631,4.16228068 50.5966388,0.879042045 45.2297456,0.372485227 C39.864299,-0.138401136 34.656532,2.12595114 29.6049981,7.16554205 L6.88032816,29.8379284 C1.83024078,34.874633 -0.43947767,40.0700875 0.0697262136,45.424292 C0.580376699,50.7770534 3.86994951,56.480508 9.93844466,62.5360989 L71.706901,124.177281 L71.7040078,124.177281 C72.6254932,125.096587 73.4992408,125.556962 74.3266971,125.556962 C74.3266971,125.556962 74.3266971,125.556962 74.3266971,125.556962 L74.3281437,125.556962 C75.1541534,125.556962 76.027901,125.096587 76.9493864,124.177281 L76.9464932,124.177281 L138.71495,62.5360989 C144.783445,56.480508 148.073017,50.7770534 148.583668,45.424292 C149.092872,40.0700875 146.823153,34.874633 141.774513,29.8379284" id="Fill-1" fill="#000000" mask="url(#mask-6)"></path>
            </g>
            <path d="M120.989631,52.1839334 L74.3265524,98.9962953 L74.327944,98.9976836 L74.3265524,98.9976836 L74.3265524,98.9962953 L27.6634734,52.1839334 C26.5418786,51.0649903 25.9838642,49.9696476 25.9824727,48.8992938 C25.9838642,47.8275517 26.5669266,46.7086086 27.7344429,45.5438526 L44.7601421,28.5584063 C45.9276583,27.3922621 47.0617772,26.7994721 48.1583241,26.7758715 C49.2562625,26.752271 50.3639419,27.2992482 51.4855368,28.4181914 L74.3265524,51.0719316 L97.1675681,28.4181914 C98.289163,27.2992482 99.3968423,26.752271 100.494781,26.7758715 C101.592719,26.7994721 102.725447,27.3922621 103.892963,28.5584063 L120.918662,45.5438526 C122.086178,46.7086086 122.669241,47.8275517 122.670632,48.8992938 C122.669241,49.9696476 122.111226,51.0649903 120.989631,52.1839334 M131.357387,37.7371841 L112.055378,18.4808091 C110.744756,17.1718432 109.383504,16.0822409 107.97596,15.2105591 C106.56697,14.3374341 105.074077,13.8914909 103.498727,13.8655136 C101.919038,13.8424227 100.183116,14.3143432 98.2895136,15.2827182 C96.394465,16.2510932 94.2838728,17.8977636 91.9519505,20.2241727 L74.3265524,37.83965 L56.7011544,20.2241727 C54.369232,17.8977636 52.2586398,16.2510932 50.3635913,15.2827182 C48.4699893,14.3143432 46.734067,13.8424227 45.1543777,13.8655136 C43.5790282,13.8914909 42.086135,14.3374341 40.6771447,15.2105591 C39.269601,16.0822409 37.9097951,17.1718432 36.5977272,18.4808091 L17.2957175,37.7371841 C15.9850961,39.0447068 14.891465,40.4243886 14.0177175,41.8791159 C13.1439699,43.3309568 12.6839505,44.8578432 12.634766,46.4568886 C12.5855816,48.0544909 13.0354748,49.8108432 13.9815524,51.7245023 C14.9290767,53.6381614 16.5434845,55.7336614 18.8247757,58.0095591 L74.3251058,113.37723 L74.327999,113.37723 L129.828329,58.0095591 C132.10962,55.7336614 133.724028,53.6381614 134.671552,51.7245023 C135.61763,49.8108432 136.067523,48.0544909 136.018339,46.4568886 C135.969154,44.8578432 135.509135,43.3309568 134.635387,41.8791159 C133.76164,40.4243886 132.668009,39.0447068 131.357387,37.7371841" id="Fill-4" fill="#000000"></path>
        </g>
    </g>
</svg>