<?xml version="1.0" encoding="UTF-8"?>
<svg width="200px" height="248px" viewBox="0 0 200 248" version="1.1" xmlns="http://www.w3.org/2000/svg" xmlns:xlink="http://www.w3.org/1999/xlink">
    <!-- Generator: Sketch 49.2 (51160) - http://www.bohemiancoding.com/sketch -->
    <title>Page 1</title>
    <desc>Created with Sketch.</desc>
    <defs>
        <path d="M0,0 L200,0 L200,248 L0,248 L0,0 Z" id="path-1"></path>
    </defs>
    <g id="Page-1" stroke="none" stroke-width="1" fill="none" fill-rule="evenodd">
        <g id="preview/inked">
            <g id="Page-1" transform="translate(-14.000000, -7.000000)">
                <rect id="Rectangle" fill="#E1AD86" x="0" y="0" width="217" height="263"></rect>
                <g id="Group-3" transform="translate(14.000000, 7.000000)">
                    <mask id="mask-2" fill="white">
                        <use xlink:href="#path-1"></use>
                    </mask>
                    <g id="Clip-2"></g>
                    <path d="M107.320174,57.441969 C107.320174,58.6054452 106.88391,59.5796357 106.008852,60.3670643 C105.136323,61.1481833 103.133299,61.5418976 99.999782,61.5444214 C96.8675291,61.5418976 94.8645058,61.1481833 93.9919767,60.3670643 C93.1169186,59.5796357 92.6793895,58.6054452 92.6793895,57.441969 L92.6793895,39.30335 C92.6793895,38.1979214 93.1169186,37.2514929 93.9919767,36.46785 C94.8645058,35.6829452 96.8675291,35.2904929 99.999782,35.287969 C103.133299,35.2904929 105.136323,35.6829452 106.008852,36.46785 C106.88391,37.2514929 107.320174,38.1979214 107.320174,39.30335 L107.320174,57.441969 Z M180.22314,81.3399214 C179.728706,80.8477786 178.925727,80.5979214 177.819259,80.5979214 L160.148648,80.5979214 C159.039651,80.5979214 158.237936,80.8477786 157.742238,81.3399214 C157.247805,81.83585 156.999956,82.6371595 156.999956,83.7413262 L156.999956,84.2978262 C156.999956,84.2978262 156.997427,84.2978262 156.996163,84.2978262 L110.218488,84.2978262 L110.218488,77.7043738 C111.365422,77.528969 112.460509,77.3283262 113.455698,77.0822548 C116.98375,76.2090167 119.753081,75.0026357 121.764956,73.4593262 C123.776831,71.9185405 125.176672,70.0547071 125.964477,67.8741357 C126.751017,65.6897786 127.145552,63.2618738 127.145552,60.5841119 L127.145552,36.1612071 C127.145552,33.485969 126.751017,31.0555405 125.964477,28.8711833 C125.176672,26.68935 123.776831,24.8128976 121.764956,23.2418262 C119.753081,21.6707548 116.98375,20.447969 113.455698,19.5759929 C109.926381,18.7027548 105.451192,18.2661357 100.027602,18.2661357 C94.6040116,18.2661357 90.1136483,18.7027548 86.5565116,19.5759929 C82.9981105,20.447969 80.2148692,21.6707548 78.2029942,23.2418262 C76.1911192,24.8128976 74.7912791,26.68935 74.0034738,28.8711833 C73.2169331,31.0555405 72.8223983,33.485969 72.8223983,36.1612071 L72.8223983,60.5841119 C72.8223983,63.2618738 73.2169331,65.6897786 74.0034738,67.8741357 C74.7912791,70.0547071 76.1911192,71.9185405 78.2029942,73.4593262 C80.2148692,75.0026357 82.9981105,76.2090167 86.5565116,77.0822548 C87.5415843,77.3245405 88.618968,77.5213976 89.7494622,77.6955405 L89.7494622,84.2978262 L42.9705233,84.2978262 L42.9679942,84.2978262 L42.9679942,83.7413262 C42.9679942,82.6371595 42.7201453,81.83585 42.2257122,81.3399214 C41.7300145,80.8477786 40.9282994,80.5979214 39.8193023,80.5979214 L22.1486919,80.5979214 C21.0409593,80.5979214 20.2392442,80.8477786 19.744811,81.3399214 C19.2491134,81.83585 19,82.6371595 19,83.7413262 L19,101.462255 C19,102.567683 19.2491134,103.368993 19.744811,103.862398 C20.2392442,104.357064 21.0409593,104.604398 22.1486919,104.604398 L39.8193023,104.604398 C40.9282994,104.604398 41.7300145,104.357064 42.2257122,103.862398 C42.7201453,103.368993 42.9679942,102.567683 42.9679942,101.462255 L42.9679942,101.144255 L42.9705233,101.144255 L89.7481977,101.144255 L89.7481977,131.456469 L86.8271221,131.456469 C85.7193895,131.456469 84.8013372,131.660898 84.0717006,132.067231 C83.3433285,132.474826 82.7742878,133.231969 82.365843,134.33866 L73.7922965,155.725421 C73.2675145,157.003731 72.8299855,158.125564 72.4809738,159.084612 C72.1306977,160.044921 71.8398547,160.961064 71.6059157,161.835564 C71.3732413,162.708802 71.2126453,163.624945 71.1253924,164.585255 C71.036875,165.544302 70.9938808,166.724183 70.9938808,168.121112 L70.9938808,206.081731 L63.3307994,206.081731 C62.2230669,206.081731 61.4200872,206.329064 60.9243895,206.822469 C60.4299564,207.317136 60.180843,208.117183 60.180843,209.223874 L60.180843,226.857731 C60.180843,227.96316 60.4299564,228.763207 60.9243895,229.256612 C61.4200872,229.751279 62.2230669,229.999874 63.3307994,229.999874 L91.7992733,229.999874 C92.9070058,229.999874 93.7099855,229.751279 94.2044186,229.256612 C94.7001163,228.763207 94.9479651,227.96316 94.9479651,226.857731 L94.9479651,209.223874 C94.9479651,208.117183 94.7001163,207.317136 94.2044186,206.822469 C93.7099855,206.329064 92.9070058,206.081731 91.7992733,206.081731 L91.0253779,206.081731 L91.0253779,167.160802 C91.0253779,166.577802 91.084811,165.994802 91.1998837,165.413064 C91.3174855,164.831326 91.4932558,164.220564 91.7246657,163.58204 L95.8369331,151.273421 C96.011439,150.690421 96.2162936,150.296707 96.448968,150.09354 C96.682907,149.890374 97.0331831,149.789421 97.498532,149.789421 L102.03189,149.789421 C102.499767,149.789421 102.848779,149.890374 103.081453,150.09354 C103.315392,150.296707 103.518983,150.690421 103.693488,151.273421 L107.805756,163.492445 C108.03843,164.133493 108.214201,164.744255 108.330538,165.327255 C108.44814,165.907731 108.505044,166.490731 108.505044,167.073731 L108.505044,206.081731 L107.98532,206.081731 C106.876323,206.081731 106.074608,206.329064 105.580174,206.822469 C105.083212,207.317136 104.836628,208.117183 104.836628,209.223874 L104.836628,226.857731 C104.836628,227.96316 105.083212,228.763207 105.580174,229.256612 C106.074608,229.751279 106.876323,229.999874 107.98532,229.999874 L136.453794,229.999874 C137.561526,229.999874 138.364506,229.751279 138.860203,229.256612 C139.354637,228.763207 139.60375,227.96316 139.60375,226.857731 L139.60375,209.223874 C139.60375,208.117183 139.354637,207.317136 138.860203,206.822469 C138.364506,206.329064 137.561526,206.081731 136.453794,206.081731 L128.97407,206.081731 L128.97407,168.121112 C128.97407,166.724183 128.931076,165.544302 128.842558,164.585255 C128.755305,163.624945 128.595974,162.708802 128.362035,161.835564 C128.12936,160.961064 127.837253,160.044921 127.486977,159.084612 C127.137965,158.125564 126.700436,157.003731 126.175654,155.725421 L117.602108,134.33866 C117.194927,133.231969 116.627151,132.474826 115.89625,132.067231 C115.167878,131.660898 114.249826,131.456469 113.140828,131.456469 L110.217224,131.456469 L110.217224,101.144255 L156.996163,101.144255 C156.997427,101.144255 156.998692,101.144255 156.998692,101.144255 L156.999956,101.462255 C156.999956,102.567683 157.247805,103.368993 157.742238,103.862398 C158.237936,104.357064 159.039651,104.604398 160.148648,104.604398 L177.819259,104.604398 C178.925727,104.604398 179.728706,104.357064 180.22314,103.862398 C180.718837,103.368993 180.967951,102.567683 180.967951,101.462255 L180.967951,83.7413262 C180.967951,82.6371595 180.718837,81.83585 180.22314,81.3399214 Z" id="Fill-1" fill="#000000" mask="url(#mask-2)"></path>
                </g>
                <path d="M114.369003,76.3075645 C114.358877,76.3075645 114.351283,76.3075645 114.341158,76.3075645 C114.332298,76.3075645 114.323439,76.3075645 114.313313,76.3075645 C107.834333,76.3075645 103.42726,75.2996157 101.093359,73.2824503 C98.7569271,71.2652849 97.5912423,68.6205288 97.5912423,65.3443784 L97.5912423,44.8405452 C97.5912423,41.5669305 98.7569271,38.9196387 101.093359,36.9024733 C103.42726,34.8853079 107.834333,33.8773592 114.313313,33.8773592 C114.323439,33.8773592 114.332298,33.8773592 114.341158,33.8773592 C114.351283,33.8773592 114.358877,33.8773592 114.369003,33.8773592 C120.847983,33.8773592 125.284166,34.8853079 127.677554,36.9024733 C130.069676,38.9196387 131.267002,41.5669305 131.267002,44.8405452 L131.267002,65.3443784 C131.267002,68.6205288 130.069676,71.2652849 127.677554,73.2824503 C125.284166,75.2996157 120.847983,76.3075645 114.369003,76.3075645 Z M183.124154,95.6525735 L183.124154,99.0795993 L174.716289,99.0795993 L171.567295,99.0795993 L166.836209,99.0795993 L114.938556,99.0795993 L114.938556,91.1871703 L114.938556,85.245978 L114.938556,81.7111841 L114.938556,77.1735129 C121.449177,77.1113877 125.939785,76.0235638 128.378737,73.8948267 C130.8873,71.7039645 132.142848,68.8525472 132.142848,65.3443784 L132.142848,44.8405452 C132.142848,41.3323764 130.8873,38.4809591 128.378737,36.2900969 C125.867642,34.0954311 121.198574,33 114.369003,33 C107.540697,33 102.899475,34.0954311 100.447866,36.2900969 C97.9962576,38.4809591 96.7698205,41.3323764 96.7698205,44.8405452 L96.7698205,65.3443784 C96.7698205,68.8525472 97.9962576,71.7039645 100.447866,73.8948267 C102.861504,76.0527246 107.406536,77.1443521 114.06271,77.1785843 L114.06271,81.7111841 L114.06271,85.2434423 L114.06271,91.1871703 L114.06271,99.0795993 L62.1637908,99.0795993 L57.4327054,99.0795993 L54.2837111,99.0795993 L45.8758457,99.0795993 L45.8758457,95.6525735 L45,95.6525735 L45,103.983682 L45.8758457,103.983682 L45.8758457,99.9569584 L54.2837111,99.9569584 L57.4327054,99.9569584 L62.1637908,99.9569584 L114.06271,99.9569584 L114.06271,138.569637 L114.06271,146.440512 L114.06271,146.463334 L108.773463,146.463334 C106.964816,146.463334 105.621937,147.017389 104.746091,148.129302 C103.870246,149.23868 103.082997,150.642201 102.381814,152.33733 L96.6040174,166.372541 C96.0787631,167.656883 95.7142493,168.986868 95.5092103,170.362496 C95.3054369,171.735589 95.2029174,173.241807 95.2029174,174.879882 L95.2029174,201.654551 L95.1965891,201.654551 L95.1965891,213.54581 L95.1965891,219.615057 L95.1965891,225.122641 L82.5411253,225.122641 L82.5411253,226 L101.579378,226 L101.579378,225.122641 L96.0724347,225.122641 L96.0724347,219.615057 L96.0724347,213.54581 L96.0724347,211.723896 L96.0787631,211.723896 L96.0787631,174.879882 C96.0787631,173.357182 96.195205,171.909286 96.4280888,170.537461 C96.6622383,169.164369 97.0128297,167.891437 97.4785974,166.72247 L103.25766,152.688527 C103.841135,151.168363 104.499285,149.895431 105.227047,148.873536 C105.958606,147.850373 107.139479,147.338157 108.773463,147.338157 L114.06271,147.338157 L114.938556,147.338157 L120.051874,147.338157 C121.685858,147.338157 122.869262,147.850373 123.59829,148.873536 C124.328583,149.895431 124.985468,151.168363 125.567677,152.688527 L131.34674,166.72247 C131.813773,167.891437 132.164364,169.164369 132.397248,170.537461 C132.631398,171.909286 132.74784,173.357182 132.74784,174.879882 L132.74784,201.654551 L132.744043,201.654551 L132.744043,213.54581 L132.744043,219.615057 L132.744043,225.122641 L127.2371,225.122641 L127.2371,226 L146.275352,226 L146.275352,225.122641 L133.621154,225.122641 L133.621154,219.615057 L133.621154,213.54581 L133.621154,211.723896 L133.62242,211.723896 L133.62242,174.879882 C133.62242,173.241807 133.521166,171.735589 133.316127,170.362496 C133.112354,168.986868 132.74784,167.656883 132.222585,166.372541 L126.443523,152.33733 C125.743606,150.642201 124.955091,149.23868 124.079246,148.129302 C123.2034,147.017389 121.861787,146.463334 120.051874,146.463334 L114.938556,146.463334 L114.938556,146.440512 L114.938556,138.569637 L114.938556,99.9569584 L166.836209,99.9569584 L171.567295,99.9569584 L174.716289,99.9569584 L183.124154,99.9569584 L183.124154,103.983682 L184,103.983682 L184,95.6525735 L183.124154,95.6525735 Z" id="Fill-4" fill="#E1AD86"></path>
            </g>
        </g>
    </g>
</svg>